<?xml version="1.0" encoding="utf-8"?>
<!-- Generator: Adobe Illustrator 25.0.1, SVG Export Plug-In . SVG Version: 6.00 Build 0)  -->
<svg version="1.1" id="Layer_1" xmlns="http://www.w3.org/2000/svg" xmlns:xlink="http://www.w3.org/1999/xlink" x="0px" y="0px"
	 viewBox="0 0 288 288" style="enable-background:new 0 0 288 288;" xml:space="preserve">
<style type="text/css">
	.st0{fill:#FFFFFF;}
	.st1{fill:none;stroke:#FFFFFF;stroke-width:0.5;stroke-miterlimit:2.6131;}
	.st2{fill-rule:evenodd;clip-rule:evenodd;fill:#FFFFFF;}
</style>
<g>
	<path class="st0" d="M221.2,163.41v-35.33h7.61v5.8c1.62-2.44,3.51-4.22,5.7-5.34c2.19-1.12,4.85-1.68,7.99-1.68
		c2.63,0,4.87,0.42,6.73,1.25c1.84,0.84,3.29,2.07,4.34,3.71c0.62,0.97,1.07,2.1,1.35,3.4c0.27,1.28,0.41,3.55,0.41,6.78v21.42
		h-8.17v-18.14c0-4.64-0.56-7.73-1.69-9.26c-1.13-1.53-3.14-2.29-6.03-2.29c-1.88,0-3.57,0.34-5.05,1.04
		c-1.48,0.7-2.65,1.68-3.48,2.94c-0.6,0.85-1.02,1.93-1.25,3.27c-0.24,1.32-0.36,3.43-0.36,6.35v16.09H221.2z M180.33,145.79
		c0-2.58,0.5-5.02,1.48-7.31c0.98-2.3,2.39-4.35,4.22-6.13c1.82-1.77,3.9-3.12,6.27-4.07c2.37-0.94,4.83-1.41,7.41-1.41
		c2.66,0,5.16,0.47,7.52,1.41c2.34,0.95,4.45,2.34,6.32,4.17c1.86,1.82,3.27,3.87,4.25,6.16c0.97,2.28,1.45,4.68,1.45,7.19
		c0,2.61-0.48,5.06-1.44,7.34c-0.95,2.29-2.35,4.31-4.2,6.08c-1.93,1.86-4.08,3.27-6.45,4.22c-2.35,0.95-4.85,1.44-7.45,1.44
		c-2.56,0-5.02-0.48-7.38-1.44c-2.37-0.95-4.46-2.34-6.31-4.15c-1.86-1.84-3.27-3.9-4.25-6.19
		C180.81,150.81,180.33,148.37,180.33,145.79z M210.7,145.86c0-3.28-1.06-6.07-3.17-8.34c-2.11-2.28-4.69-3.41-7.75-3.41
		c-3.03,0-5.61,1.13-7.73,3.41c-2.12,2.28-3.18,5.06-3.18,8.34c0,3.28,1.06,6.07,3.18,8.34c2.12,2.28,4.71,3.41,7.73,3.41
		c3.03,0,5.61-1.13,7.73-3.41C209.64,151.93,210.7,149.14,210.7,145.86z M169.87,163.41v-35.33h8.09v35.33H169.87z M168.8,112.82
		c0-1.36,0.51-2.54,1.51-3.55c1-0.99,2.2-1.49,3.6-1.49c1.44,0,2.65,0.48,3.6,1.44c0.95,0.95,1.44,2.16,1.44,3.6
		c0,1.45-0.48,2.66-1.45,3.64c-0.98,0.98-2.17,1.48-3.59,1.48c-1.4,0-2.59-0.51-3.6-1.51C169.31,115.41,168.8,114.22,168.8,112.82z
		 M156.84,105.65h8.09v57.77h-8.09v-4.57c-1.44,2.02-3.13,3.54-5.05,4.53c-1.93,0.99-4.13,1.49-6.63,1.49
		c-4.99,0-8.93-1.7-11.79-5.13c-2.87-3.41-4.31-8.09-4.31-14.03c0-5.63,1.46-10.19,4.4-13.65c2.94-3.47,6.77-5.2,11.48-5.2
		c2.89,0,5.35,0.6,7.4,1.81c2.05,1.2,3.55,2.92,4.49,5.18V105.65z M157.06,145.63c0-3.65-0.85-6.5-2.56-8.53
		c-1.7-2.05-4.08-3.07-7.13-3.07c-3.07,0-5.47,1.06-7.21,3.15c-1.76,2.1-2.63,5.02-2.63,8.75c0,3.75,0.84,6.65,2.53,8.69
		c1.69,2.05,4.08,3.07,7.16,3.07c2.93,0,5.3-1.11,7.12-3.31C156.15,152.18,157.06,149.27,157.06,145.63z M90.78,145.79
		c0-2.58,0.5-5.02,1.48-7.31c0.98-2.3,2.39-4.35,4.22-6.13c1.82-1.77,3.9-3.12,6.27-4.07c2.37-0.94,4.83-1.41,7.41-1.41
		c2.66,0,5.16,0.47,7.52,1.41c2.34,0.95,4.45,2.34,6.32,4.17c1.86,1.82,3.27,3.87,4.25,6.16c0.97,2.28,1.45,4.68,1.45,7.19
		c0,2.61-0.48,5.06-1.44,7.34c-0.95,2.29-2.35,4.31-4.2,6.08c-1.93,1.86-4.08,3.27-6.45,4.22c-2.35,0.95-4.85,1.44-7.45,1.44
		c-2.56,0-5.02-0.48-7.38-1.44c-2.37-0.95-4.46-2.34-6.31-4.15c-1.86-1.84-3.27-3.9-4.25-6.19
		C91.26,150.81,90.78,148.37,90.78,145.79z M121.15,145.86c0-3.28-1.06-6.07-3.17-8.34c-2.11-2.28-4.69-3.41-7.75-3.41
		c-3.03,0-5.61,1.13-7.73,3.41c-2.12,2.28-3.18,5.06-3.18,8.34c0,3.28,1.06,6.07,3.18,8.34c2.12,2.28,4.71,3.41,7.73,3.41
		c3.03,0,5.61-1.13,7.73-3.41C120.09,151.93,121.15,149.14,121.15,145.86z M41.26,163.41h-8.09v-35.33h7.61v5.8
		c1.62-2.47,3.45-4.27,5.49-5.41c2.05-1.13,4.46-1.69,7.25-1.69c2.76,0,5.05,0.57,6.86,1.73c1.82,1.16,3.19,2.93,4.13,5.29
		c1.87-2.44,3.85-4.22,5.95-5.34c2.1-1.12,4.49-1.68,7.17-1.68c2.33,0,4.36,0.43,6.11,1.28c1.74,0.86,3.09,2.11,4.06,3.75
		c0.46,0.76,0.79,1.69,0.99,2.76c0.22,1.07,0.32,2.59,0.32,4.58V142v21.42h-8.09v-18.14c0-4.74-0.51-7.87-1.51-9.37
		c-1-1.5-2.8-2.25-5.38-2.25c-3.18,0-5.44,1.02-6.79,3.04c-1.36,2.02-2.04,5.57-2.04,10.63v16.09h-8.16v-18.14
		c0-4.38-0.52-7.4-1.58-9.09c-1.06-1.69-2.89-2.53-5.47-2.53c-1.59,0-3.04,0.36-4.35,1.08c-1.32,0.72-2.37,1.72-3.14,2.98
		c-0.5,0.83-0.84,1.83-1.04,3.01c-0.19,1.2-0.29,3.4-0.29,6.6V163.41z"/>
	<path class="st1" d="M221.2,163.41v-35.33h7.61v5.8c1.62-2.44,3.51-4.22,5.7-5.34c2.19-1.12,4.85-1.68,7.99-1.68
		c2.63,0,4.87,0.42,6.73,1.25c1.84,0.84,3.29,2.07,4.34,3.71c0.62,0.97,1.07,2.1,1.35,3.4c0.27,1.28,0.41,3.55,0.41,6.78v21.42
		h-8.17v-18.14c0-4.64-0.56-7.73-1.69-9.26c-1.13-1.53-3.14-2.29-6.03-2.29c-1.88,0-3.57,0.34-5.05,1.04
		c-1.48,0.7-2.65,1.68-3.48,2.94c-0.6,0.85-1.02,1.93-1.25,3.27c-0.24,1.32-0.36,3.43-0.36,6.35v16.09H221.2z M180.33,145.79
		c0-2.58,0.5-5.02,1.48-7.31c0.98-2.3,2.39-4.35,4.22-6.13c1.82-1.77,3.9-3.12,6.27-4.07c2.37-0.94,4.83-1.41,7.41-1.41
		c2.66,0,5.16,0.47,7.52,1.41c2.34,0.95,4.45,2.34,6.32,4.17c1.86,1.82,3.27,3.87,4.25,6.16c0.97,2.28,1.45,4.68,1.45,7.19
		c0,2.61-0.48,5.06-1.44,7.34c-0.95,2.29-2.35,4.31-4.2,6.08c-1.93,1.86-4.08,3.27-6.45,4.22c-2.35,0.95-4.85,1.44-7.45,1.44
		c-2.56,0-5.02-0.48-7.38-1.44c-2.37-0.95-4.46-2.34-6.31-4.15c-1.86-1.84-3.27-3.9-4.25-6.19
		C180.81,150.81,180.33,148.37,180.33,145.79z M210.7,145.86c0-3.28-1.06-6.07-3.17-8.34c-2.11-2.28-4.69-3.41-7.75-3.41
		c-3.03,0-5.61,1.13-7.73,3.41c-2.12,2.28-3.18,5.06-3.18,8.34c0,3.28,1.06,6.07,3.18,8.34c2.12,2.28,4.71,3.41,7.73,3.41
		c3.03,0,5.61-1.13,7.73-3.41C209.64,151.93,210.7,149.14,210.7,145.86z M169.87,163.41v-35.33h8.09v35.33H169.87z M168.8,112.82
		c0-1.36,0.51-2.54,1.51-3.55c1-0.99,2.2-1.49,3.6-1.49c1.44,0,2.65,0.48,3.6,1.44c0.95,0.95,1.44,2.16,1.44,3.6
		c0,1.45-0.48,2.66-1.45,3.64c-0.98,0.98-2.17,1.48-3.59,1.48c-1.4,0-2.59-0.51-3.6-1.51C169.31,115.41,168.8,114.22,168.8,112.82z
		 M156.84,105.65h8.09v57.77h-8.09v-4.57c-1.44,2.02-3.13,3.54-5.05,4.53c-1.93,0.99-4.13,1.49-6.63,1.49
		c-4.99,0-8.93-1.7-11.79-5.13c-2.87-3.41-4.31-8.09-4.31-14.03c0-5.63,1.46-10.19,4.4-13.65c2.94-3.47,6.77-5.2,11.48-5.2
		c2.89,0,5.35,0.6,7.4,1.81c2.05,1.2,3.55,2.92,4.49,5.18V105.65z M157.06,145.63c0-3.65-0.85-6.5-2.56-8.53
		c-1.7-2.05-4.08-3.07-7.13-3.07c-3.07,0-5.47,1.06-7.21,3.15c-1.76,2.1-2.63,5.02-2.63,8.75c0,3.75,0.84,6.65,2.53,8.69
		c1.69,2.05,4.08,3.07,7.16,3.07c2.93,0,5.3-1.11,7.12-3.31C156.15,152.18,157.06,149.27,157.06,145.63z M90.78,145.79
		c0-2.58,0.5-5.02,1.48-7.31c0.98-2.3,2.39-4.35,4.22-6.13c1.82-1.77,3.9-3.12,6.27-4.07c2.37-0.94,4.83-1.41,7.41-1.41
		c2.66,0,5.16,0.47,7.52,1.41c2.34,0.95,4.45,2.34,6.32,4.17c1.86,1.82,3.27,3.87,4.25,6.16c0.97,2.28,1.45,4.68,1.45,7.19
		c0,2.61-0.48,5.06-1.44,7.34c-0.95,2.29-2.35,4.31-4.2,6.08c-1.93,1.86-4.08,3.27-6.45,4.22c-2.35,0.95-4.85,1.44-7.45,1.44
		c-2.56,0-5.02-0.48-7.38-1.44c-2.37-0.95-4.46-2.34-6.31-4.15c-1.86-1.84-3.27-3.9-4.25-6.19
		C91.26,150.81,90.78,148.37,90.78,145.79z M121.15,145.86c0-3.28-1.06-6.07-3.17-8.34c-2.11-2.28-4.69-3.41-7.75-3.41
		c-3.03,0-5.61,1.13-7.73,3.41c-2.12,2.28-3.18,5.06-3.18,8.34c0,3.28,1.06,6.07,3.18,8.34c2.12,2.28,4.71,3.41,7.73,3.41
		c3.03,0,5.61-1.13,7.73-3.41C120.09,151.93,121.15,149.14,121.15,145.86z M41.26,163.41h-8.09v-35.33h7.61v5.8
		c1.62-2.47,3.45-4.27,5.49-5.41c2.05-1.13,4.46-1.69,7.25-1.69c2.76,0,5.05,0.57,6.86,1.73c1.82,1.16,3.19,2.93,4.13,5.29
		c1.87-2.44,3.85-4.22,5.95-5.34c2.1-1.12,4.49-1.68,7.17-1.68c2.33,0,4.36,0.43,6.11,1.28c1.74,0.86,3.09,2.11,4.06,3.75
		c0.46,0.76,0.79,1.69,0.99,2.76c0.22,1.07,0.32,2.59,0.32,4.58V142v21.42h-8.09v-18.14c0-4.74-0.51-7.87-1.51-9.37
		c-1-1.5-2.8-2.25-5.38-2.25c-3.18,0-5.44,1.02-6.79,3.04c-1.36,2.02-2.04,5.57-2.04,10.63v16.09h-8.16v-18.14
		c0-4.38-0.52-7.4-1.58-9.09c-1.06-1.69-2.89-2.53-5.47-2.53c-1.59,0-3.04,0.36-4.35,1.08c-1.32,0.72-2.37,1.72-3.14,2.98
		c-0.5,0.83-0.84,1.83-1.04,3.01c-0.19,1.2-0.29,3.4-0.29,6.6V163.41z"/>
	<path class="st0" d="M192.23,179.58l1.49-0.69c0.14,0.51,0.4,0.91,0.78,1.17c0.38,0.27,0.86,0.41,1.45,0.41
		c0.56,0,1-0.16,1.33-0.46c0.33-0.31,0.49-0.72,0.49-1.24c0-0.68-0.56-1.28-1.69-1.81c-0.16-0.08-0.28-0.14-0.36-0.17
		c-1.27-0.62-2.12-1.18-2.54-1.68c-0.42-0.5-0.63-1.11-0.63-1.84c0-0.94,0.32-1.7,0.96-2.28c0.64-0.58,1.47-0.87,2.51-0.87
		c0.85,0,1.56,0.16,2.13,0.49c0.57,0.33,0.97,0.8,1.19,1.41l-1.46,0.76c-0.23-0.36-0.48-0.63-0.76-0.79
		c-0.28-0.17-0.59-0.25-0.95-0.25c-0.5,0-0.9,0.13-1.2,0.39c-0.3,0.26-0.45,0.61-0.45,1.05c0,0.69,0.65,1.34,1.96,1.94
		c0.1,0.05,0.18,0.09,0.24,0.11c1.14,0.53,1.92,1.04,2.34,1.54c0.42,0.5,0.64,1.13,0.64,1.88c0,1.09-0.34,1.96-1.03,2.6
		c-0.69,0.64-1.62,0.96-2.79,0.96c-0.98,0-1.78-0.23-2.41-0.68C192.83,181.07,192.42,180.42,192.23,179.58 M178.73,181.89v-11.97
		l7.32,7.04c0.2,0.2,0.4,0.41,0.61,0.64c0.2,0.23,0.42,0.48,0.64,0.76v-7.99h1.72v11.97l-7.46-7.17c-0.2-0.2-0.39-0.4-0.58-0.62
		c-0.19-0.21-0.36-0.44-0.53-0.68v8.01H178.73z M175.37,176.15c0,0.82-0.15,1.59-0.46,2.32c-0.31,0.73-0.75,1.38-1.34,1.95
		c-0.59,0.57-1.26,1.01-2.01,1.31c-0.74,0.3-1.53,0.46-2.34,0.46c-0.83,0-1.62-0.15-2.37-0.46c-0.75-0.31-1.42-0.74-1.99-1.31
		c-0.59-0.57-1.03-1.22-1.34-1.94c-0.3-0.72-0.46-1.5-0.46-2.33c0-0.82,0.15-1.6,0.46-2.33c0.3-0.73,0.75-1.38,1.34-1.96
		c0.59-0.57,1.25-1.01,2-1.31c0.74-0.3,1.53-0.45,2.37-0.45c0.83,0,1.61,0.15,2.35,0.45c0.74,0.3,1.41,0.73,1.99,1.31
		c0.59,0.58,1.03,1.24,1.34,1.97C175.22,174.57,175.37,175.34,175.37,176.15z M173.42,176.15c0-0.58-0.11-1.14-0.32-1.66
		c-0.21-0.52-0.52-0.99-0.92-1.4c-0.39-0.41-0.84-0.71-1.35-0.93c-0.51-0.22-1.05-0.33-1.62-0.33c-0.57,0-1.11,0.11-1.62,0.32
		c-0.51,0.21-0.97,0.53-1.36,0.94c-0.4,0.4-0.7,0.87-0.91,1.39c-0.21,0.52-0.31,1.08-0.31,1.67c0,0.58,0.1,1.13,0.31,1.65
		c0.21,0.52,0.52,0.98,0.91,1.39c0.4,0.41,0.85,0.72,1.36,0.94c0.51,0.21,1.05,0.32,1.62,0.32c0.56,0,1.09-0.11,1.6-0.32
		c0.5-0.21,0.96-0.53,1.36-0.94c0.4-0.41,0.7-0.87,0.92-1.39C173.31,177.28,173.42,176.73,173.42,176.15z M157.78,181.89v-11.52
		h1.87v11.52H157.78z M152.06,171.96v9.93h-1.87v-9.93h-3.06v-1.6h7.98v1.6H152.06z M144.94,181.89l-1.31-2.96h-4.57l-1.34,2.96
		h-1.97l5.58-11.97l5.57,11.97H144.94z M139.76,177.36h3.21l-1.18-2.63c-0.07-0.17-0.14-0.36-0.21-0.58
		c-0.07-0.22-0.15-0.46-0.22-0.73c-0.06,0.25-0.13,0.49-0.2,0.7c-0.07,0.22-0.14,0.42-0.21,0.6L139.76,177.36z M133.79,173.17
		c-0.53-0.45-1.09-0.79-1.68-1.02c-0.59-0.23-1.21-0.34-1.86-0.34c-1.26,0-2.28,0.4-3.07,1.21c-0.79,0.81-1.18,1.85-1.18,3.14
		c0,1.24,0.38,2.27,1.15,3.07c0.77,0.81,1.74,1.21,2.91,1.21c0.68,0,1.33-0.12,1.95-0.36c0.61-0.24,1.21-0.6,1.77-1.09v2.12
		c-0.5,0.36-1.05,0.63-1.64,0.81c-0.59,0.18-1.24,0.27-1.93,0.27c-0.88,0-1.69-0.15-2.44-0.43c-0.75-0.29-1.4-0.71-1.97-1.28
		c-0.56-0.55-0.99-1.2-1.29-1.95c-0.3-0.75-0.45-1.54-0.45-2.39c0-0.85,0.15-1.64,0.45-2.38c0.3-0.74,0.74-1.39,1.31-1.95
		c0.57-0.57,1.23-1,1.97-1.29c0.74-0.29,1.54-0.44,2.4-0.44c0.68,0,1.32,0.1,1.93,0.3c0.62,0.2,1.21,0.5,1.79,0.9L133.79,173.17z
		 M118.77,181.89v-11.52h1.87v11.52H118.77z M104.58,181.89v-11.97l7.32,7.04c0.2,0.2,0.4,0.41,0.61,0.64
		c0.2,0.23,0.42,0.48,0.64,0.76v-7.99h1.72v11.97l-7.46-7.17c-0.2-0.2-0.39-0.4-0.58-0.62c-0.19-0.21-0.36-0.44-0.53-0.68v8.01
		H104.58z M91.33,170.37h1.85v7c0,1.04,0.24,1.82,0.72,2.34c0.48,0.52,1.2,0.78,2.15,0.78c0.95,0,1.66-0.26,2.14-0.78
		c0.48-0.52,0.72-1.3,0.72-2.34v-7h1.87v7.17c0,1.56-0.39,2.73-1.18,3.5c-0.79,0.77-1.97,1.16-3.56,1.16
		c-1.58,0-2.77-0.39-3.55-1.16c-0.78-0.77-1.17-1.94-1.17-3.5V170.37z M85.65,176.2c-0.02-0.09-0.06-0.34-0.1-0.74
		c-0.04-0.34-0.08-0.62-0.11-0.84c-0.05,0.26-0.12,0.53-0.2,0.79c-0.09,0.26-0.2,0.53-0.33,0.8l-3.01,6.14l-3.01-6.27
		c-0.13-0.26-0.24-0.5-0.33-0.75c-0.09-0.24-0.17-0.48-0.24-0.72c-0.01,0.24-0.02,0.49-0.06,0.76c-0.03,0.27-0.09,0.54-0.15,0.83
		l-1.24,5.67h-1.72l2.72-12l3.4,7.27c0.05,0.11,0.13,0.31,0.24,0.57c0.11,0.27,0.24,0.6,0.39,0.99c0.11-0.33,0.28-0.75,0.52-1.26
		c0.06-0.14,0.11-0.24,0.14-0.31l3.32-7.26l2.78,12h-1.74L85.65,176.2z M70.53,176.2c-0.02-0.09-0.06-0.34-0.1-0.74
		c-0.04-0.34-0.08-0.62-0.11-0.84c-0.05,0.26-0.12,0.53-0.2,0.79c-0.09,0.26-0.2,0.53-0.33,0.8l-3.01,6.14l-3.01-6.27
		c-0.13-0.26-0.24-0.5-0.33-0.75c-0.09-0.24-0.17-0.48-0.24-0.72c-0.01,0.24-0.02,0.49-0.06,0.76c-0.03,0.27-0.09,0.54-0.15,0.83
		l-1.24,5.67h-1.72l2.72-12l3.4,7.27c0.05,0.11,0.13,0.31,0.24,0.57c0.11,0.27,0.24,0.6,0.39,0.99c0.11-0.33,0.28-0.75,0.52-1.26
		c0.06-0.14,0.11-0.24,0.14-0.31l3.32-7.26l2.78,12h-1.74L70.53,176.2z M57.78,176.15c0,0.82-0.15,1.59-0.46,2.32
		c-0.31,0.73-0.75,1.38-1.34,1.95c-0.59,0.57-1.26,1.01-2.01,1.31c-0.74,0.3-1.53,0.46-2.34,0.46c-0.83,0-1.62-0.15-2.37-0.46
		c-0.75-0.31-1.42-0.74-1.99-1.31c-0.59-0.57-1.03-1.22-1.34-1.94c-0.3-0.72-0.46-1.5-0.46-2.33c0-0.82,0.15-1.6,0.46-2.33
		c0.3-0.73,0.75-1.38,1.34-1.96c0.59-0.57,1.25-1.01,2-1.31c0.74-0.3,1.53-0.45,2.37-0.45c0.83,0,1.61,0.15,2.35,0.45
		c0.74,0.3,1.41,0.73,1.99,1.31c0.59,0.58,1.03,1.24,1.34,1.97C57.62,174.57,57.78,175.34,57.78,176.15z M55.83,176.15
		c0-0.58-0.11-1.14-0.32-1.66c-0.21-0.52-0.52-0.99-0.92-1.4c-0.39-0.41-0.84-0.71-1.35-0.93c-0.51-0.22-1.05-0.33-1.62-0.33
		c-0.57,0-1.11,0.11-1.62,0.32c-0.51,0.21-0.97,0.53-1.36,0.94c-0.4,0.4-0.7,0.87-0.91,1.39c-0.21,0.52-0.31,1.08-0.31,1.67
		c0,0.58,0.1,1.13,0.31,1.65c0.21,0.52,0.52,0.98,0.91,1.39c0.4,0.41,0.85,0.72,1.36,0.94c0.51,0.21,1.05,0.32,1.62,0.32
		c0.56,0,1.09-0.11,1.6-0.32c0.5-0.21,0.96-0.53,1.36-0.94c0.4-0.41,0.7-0.87,0.92-1.39C55.72,177.28,55.83,176.73,55.83,176.15z
		 M42.43,173.17c-0.53-0.45-1.09-0.79-1.68-1.02c-0.59-0.23-1.21-0.34-1.86-0.34c-1.26,0-2.28,0.4-3.07,1.21
		c-0.79,0.81-1.18,1.85-1.18,3.14c0,1.24,0.38,2.27,1.15,3.07c0.77,0.81,1.74,1.21,2.91,1.21c0.68,0,1.33-0.12,1.95-0.36
		c0.61-0.24,1.21-0.6,1.77-1.09v2.12c-0.5,0.36-1.05,0.63-1.64,0.81c-0.59,0.18-1.24,0.27-1.93,0.27c-0.88,0-1.69-0.15-2.44-0.43
		c-0.75-0.29-1.4-0.71-1.97-1.28c-0.56-0.55-0.99-1.2-1.29-1.95c-0.3-0.75-0.45-1.54-0.45-2.39c0-0.85,0.15-1.64,0.45-2.38
		c0.3-0.74,0.74-1.39,1.31-1.95c0.57-0.57,1.23-1,1.97-1.29c0.74-0.29,1.54-0.44,2.4-0.44c0.68,0,1.32,0.1,1.93,0.3
		c0.62,0.2,1.21,0.5,1.79,0.9L42.43,173.17z"/>
	<path class="st2" d="M173.73,106.13c3.7,0,6.69,3.08,6.69,6.89c0,3.8-3,6.89-6.69,6.89c-3.7,0-6.69-3.08-6.69-6.89
		C167.03,109.21,170.03,106.13,173.73,106.13"/>
</g>
</svg>
