<svg id="Layer_1" data-name="Layer 1" xmlns="http://www.w3.org/2000/svg" viewBox="0 0 1000 1000"><defs><style>.cls-1{fill:#fff;}</style></defs><path class="cls-1" d="M645.54,664.2c-34.19,31.08-65.16,65.39-98.09,97.74-11.58,11.37-22.81,23.1-34.32,34.55-12.72,12.64-16.26,12.76-29.09-.07Q422.47,734.82,361.14,673q-45.48-45.9-90.66-92.1-20.88-21.3-41.37-43c-10.39-10.93-10.5-19.14-.53-30.83q33.15-38.85,66.38-77.63c2-2.35,3.59-5.06,5.37-7.61,12.81-15.07,26.65-29.42,38.06-45.49,7.47-10.51,15.82-13.54,27.82-13.28,26.62.57,53.27.19,79.91.08,4.31,0,8.61-.64,12.91-1,6.83.38,13.66,1.08,20.49,1.09,51.88.07,103.75.23,155.61-.18,10.34-.09,17.42,3.08,24,11.19,36.69,45,74,89.62,110.9,134.45,11.88,14.42,11.73,15.76-1.72,29.41q-52,52.73-104,105.36C657.76,650.1,650.39,656,645.54,664.2ZM459.92,731.39c-27.32-62.14-54.8-124.2-81.75-186.48-3.83-8.86-8.9-12-18.29-11.63-18.06.62-36.16.17-54.24.17H255.06l200.2,202.32c1.32,2.61,3.66,6,6.13,4.21C465,737.42,462.56,734,459.92,731.39Zm37.67,34.15,4.32.3c33.73-76.5,67.46-153,101.83-231H395.81C430.37,613.2,464,689.37,497.59,765.54Zm103-254c.28-1.56,1-3,.62-3.85-17.89-39.06-36-78-53.76-117.14-2.91-6.42-7.66-7.14-13.57-7.11-21.82.1-43.66.45-65.47-.16C459,383,454,386.15,450.05,394.94c-14.17,31.86-29.22,63.34-43.95,95-2.1,4.52-4.3,9-6.37,13.53-3.4,7.44-.4,10.37,7.18,10.06,2.49-.1,5,0,7.48,0q86.06,0,172.12-.16C591.24,513.32,596.41,514.89,600.57,511.52ZM429.52,383.44c-18.35,0-37.44.49-56.49-.21-9.67-.35-16.06,2.72-22.19,10.3C322.2,428.89,292.91,463.72,264,498.88c-3,3.6-7.74,6.49-6.82,13.82,3.22.26,6.75.78,10.27.78,30.56.06,61.12-.44,91.66.28,10.42.25,15.64-3.44,19.78-12.65,16.09-35.78,32.89-71.25,49.32-106.88C429.48,391.53,431.43,388.78,429.52,383.44ZM742.7,511c-.12-1.22.2-2.75-.42-3.51q-48.66-59.19-97.46-118.27c-2.39-2.9-4.89-5.61-9.15-5.61q-33.15.06-66.19,0c0,3.24-.4,4.61,0,5.6,17.69,38.45,35.65,76.78,53.07,115.36,3.54,7.86,9,8.94,16.38,8.88,31.78-.22,63.57-.08,95.35-.18C737.24,513.31,740.63,514.29,742.7,511Zm-2.24,26.29-2.36-3.86c-33.69,0-67.4.27-101.09-.18-8.5-.12-12,3.76-15.12,10.77-26.06,59.42-52.39,118.71-78.54,178.09-1.63,3.7-4.69,7.6.46,13.82C610.15,670.25,675.08,603.56,740.46,537.32ZM540,739l1.33-1.22a11,11,0,0,0-2.3-1.16c-.27-.06-.76.73-1.14,1.12Z"/><path class="cls-1" d="M489.48,234.07c0-13.1,0-26.2,0-39.3,0-6.86,2.05-13,9.85-13.38,8.1-.4,10.39,5.77,10.42,12.61.11,26.82,0,53.65,0,80.47,0,6.8-1.75,13.35-9.67,13.38-8.88,0-10.69-6.94-10.67-14.48C489.5,260.27,489.48,247.17,489.48,234.07Z"/><path class="cls-1" d="M652.69,313.66c-6.71.34-11.56-5.73-9.31-12.64,1.31-4,4-7.67,6.43-11.25q17.85-26.24,35.92-52.33c2.47-3.57,4.83-7.44,8.07-10.19A9.48,9.48,0,0,1,706,227c3.92,2.87,5,7.16,3.16,11.65a44.52,44.52,0,0,1-4.77,8q-19.55,28.47-39.19,56.88C662,308.08,659.27,313.24,652.69,313.66Z"/><path class="cls-1" d="M293.9,225.25c4.74-.43,7.78,2.62,10.34,6.35q21.79,31.65,43.53,63.33c3.81,5.56,6.12,12-.39,16.54s-13.28,2.09-18-4.07a158.27,158.27,0,0,1-12.66-18.2c-8.85-15.63-20.86-29-30.48-44C280.41,236.06,284.79,225.43,293.9,225.25Z"/></svg>