<svg id="Layer_1" data-name="Layer 1" xmlns="http://www.w3.org/2000/svg" viewBox="0 0 1000 1000"><defs><style>.cls-1{fill:#fff;}</style></defs><path class="cls-1" d="M549.33,482.52c0,9,.08,18-.05,27a8.4,8.4,0,0,0,3,7c19.74,18.07,30.15,40.69,30.68,67.3a92.88,92.88,0,0,1-163.35,61.92C403,626,395.46,603.34,397.65,577.51c2.08-24.47,12.44-44.75,30.37-61.27,2.22-2,2.78-4.24,2.76-7q-.12-25.45,0-50.91c.07-26,14.9-47.4,39.24-56.68,30.8-11.74,66.48,5.83,76.25,37.37a69,69,0,0,1,3.13,21.08c0,7.49,0,15,0,22.46Zm16.54,103.1c.11-41.58-33.53-75.24-74.89-76-40.66-.73-76.48,32.37-76.74,75.56-.26,41.93,34.1,75.85,76.57,75.9C531.46,661.14,565.76,626.65,565.87,585.62ZM532,476.39c0-6.82,0-13.65,0-20.47a38.49,38.49,0,0,0-4.23-17.26c-9.17-18-27.53-26.57-48-22.37-16.61,3.42-31.27,20.86-31.66,38.34-.33,14.63,0,29.29-.13,43.93,0,2.95.38,3.79,3.57,2.37,25.68-11.43,51.44-11.62,77.11.13,2.75,1.26,3.43.65,3.39-2.2C532,491.37,532,483.88,532,476.39Z"/><path class="cls-1" d="M363.44,521.77c0-20.48.09-40.95,0-61.43-.18-33.72,10.6-63.29,33.15-88.48,4.28-4.77,9.62-5.56,13.56-1.86,3.78,3.54,3.5,8.65-.66,13.29-18.77,20.92-28.66,45.35-28.71,73.54q-.11,64.41,0,128.84c.14,52,36.75,97.15,87.66,106.81,37.42,7.09,70.48-2.78,98.2-29.35,1.32-1.27,2.55-2.64,4-3.79,4-3.22,8.33-3,11.63.38a8.2,8.2,0,0,1,.33,11.71A98.82,98.82,0,0,1,568,685c-73.17,56.61-179.56,19.29-201.17-70.62a123.15,123.15,0,0,1-3.33-28.18C363.38,564.72,363.44,543.24,363.44,521.77Z"/><path class="cls-1" d="M616.63,516.82c0,26.93.2,48.56-.06,70.2a119.68,119.68,0,0,1-12.48,53c-2.34,4.66-6.86,6.2-11.31,4.27-4.13-1.8-5.84-6-4.36-10.9a15.94,15.94,0,0,1,.88-2.33,106.28,106.28,0,0,0,9.1-30.47,56.84,56.84,0,0,0,.75-8.93c.07-46.43,1-92.89-.18-139.29C598,414,579.72,384,547.11,364.15c-36-21.9-73.35-21.95-110.63-2.27-5.85,3.08-10.77,2.28-13.41-2.51-2.44-4.44-.76-9.23,4.84-12.38a124,124,0,0,1,72.41-15.94,121.38,121.38,0,0,1,66.12,25.35c29.18,22.63,46.26,52.34,49.39,89.38C618,471.17,616,496.67,616.63,516.82Z"/><path class="cls-1" d="M683.84,593.12c-2.93,52.51-22.81,97.31-61.2,133.44C591.38,756,554.31,773.27,511.5,778c-36.42,4-71.22-1.67-104.38-17.26-3.62-1.7-6.68-3.88-7-8.32-.46-7,6.25-11,13.28-7.66a172.63,172.63,0,0,0,45.42,14.64c54,8.91,102.42-3.79,144.55-38.61,31.89-26.34,51.7-60.35,60-100.89a168.66,168.66,0,0,0,3.44-34.18c0-5.53,3.54-8.77,8.77-8.69,5,.07,8,3.19,8.18,8.66C683.9,588.13,683.84,590.63,683.84,593.12Z"/><path class="cls-1" d="M296.25,521q0-34,0-67.9c0-20.84,4-41,11-60.53,2.27-6.35,6.68-8.85,11.67-7,4.69,1.74,6.48,6.49,4.36,12.56-7.41,21.12-10.21,42.88-10.09,65.2.23,40.94-.32,81.88.16,122.81.63,52.93,21.07,97.08,60.59,132.35,1.12,1,2.28,2,3.35,3,4,3.88,4.53,8.73,1.33,12.41s-8.1,4-12.43.45a188.43,188.43,0,0,1-37.37-41.28c-21.68-32.79-32.77-68.77-32.59-108.17C296.32,563.58,296.24,542.28,296.25,521Z"/><path class="cls-1" d="M329.54,491.55c.48-13.31-.58-29.44.63-45.57,2.41-32.25,13.28-61.3,33.1-86.76,24.32-31.24,56.09-50.88,94.83-59.16,9.95-2.13,20.08-2.73,30.2-3.24,5.9-.29,10.31,3.49,10.44,8.44.13,5.21-3.89,8.71-10.5,8.81-32.55.53-61.74,10.76-87.08,31.12-30.7,24.66-48.77,56.68-53.14,96-2.42,21.7-.61,43.54-1,65.31-.18,10,0,20,0,29.95,0,6.71-3.13,10.59-8.51,10.69-5.6.11-8.93-3.81-8.95-10.82C329.5,522.31,329.54,508.33,329.54,491.55Z"/><path class="cls-1" d="M490.28,263.28c42.83,0,81.33,13.15,115.8,38.42,5.18,3.79,6.39,9.05,3.2,13.33s-8.24,4.33-13.61.41c-27.19-19.88-57.3-31.95-91.1-34.38-54.83-3.94-101.7,13.57-140.68,52.17a164,164,0,0,0-25,32.27c-2.09,3.48-5.25,5.11-9.29,4.33-3.64-.71-5.6-3.3-6.67-6.72-.79-2.49.15-4.59,1.38-6.6,17.37-28.38,40.35-51.15,69.26-67.55C425.19,271,455.56,263.32,490.28,263.28Z"/><path class="cls-1" d="M489.87,745.79c-63-2.55-110.75-30.59-141.61-85.92-15.22-27.29-19.83-57.25-18.65-88.21.2-5.26,4.16-9.08,8.84-9,5.06.11,8.54,3.86,8.53,9.69-.05,14.48-.24,29,3.15,43.18,10.4,43.59,35,76.39,74.92,97C460.67,731,497.8,733,535.84,720.86c6.39-2,11.21-.29,12.85,4.69,1.69,5.15-1,9.4-7.28,11.55A162.73,162.73,0,0,1,489.87,745.79Z"/><path class="cls-1" d="M650.51,531.72c0,18.13.45,36.28-.09,54.39-1.69,56.81-25.89,101.48-73,133.52-2.36,1.61-4.82,3.08-7.82,2.65-3.81-.56-6.47-2.73-7.31-6.55-.88-4,.68-7.17,4.12-9.38a143.79,143.79,0,0,0,30.35-25.72c20.08-22.69,32.1-49,35.42-79.25,1.71-15.6.76-31.24.86-46.86.17-27.28,0-54.57.06-81.85,0-6.63,3.9-10.47,9.69-9.78,5,.59,7.73,4.15,7.74,10.44q.06,29.19,0,58.39Z"/><path class="cls-1" d="M397.21,475.2c.33-12.61-.88-26.75,2.73-40.7a93.07,93.07,0,0,1,137.4-57.3,34.8,34.8,0,0,1,3.3,2.24c4.6,3.43,5.54,7.73,2.66,12.09-2.67,4.07-7.51,4.93-12.27,2a76.34,76.34,0,0,0-35.1-11.71q-30.65-2.26-54.16,17.2c-18.69,15.55-27.38,35.93-27.56,60.06-.11,14.64,0,29.29,0,43.93,0,6.34-3.31,10.09-8.6,10-5-.1-8.3-3.88-8.34-9.83C397.17,494.33,397.21,485.51,397.21,475.2Z"/><path class="cls-1" d="M683.84,495.12q0,26.21,0,52.42c0,6.73-3.2,10.64-8.51,10.51s-8.48-4-8.49-10.78c0-29.29-.09-58.58,0-87.87.16-40.83-11.82-77.57-36.76-110-2.58-3.34-4.45-6.78-2.41-11,3-6.11,10-6.7,14.74-1a170.29,170.29,0,0,1,23,36.69,191.35,191.35,0,0,1,18.47,88C683.57,473.14,683.83,484.13,683.84,495.12Z"/><path class="cls-1" d="M527.89,301.41a131.34,131.34,0,0,1,20.23,6.33q76.56,31.83,97.79,112.06A140.76,140.76,0,0,1,648.63,434a8.89,8.89,0,0,1-6.84,10.11c-4.84.9-9.09-2.08-9.95-7.37-4.17-25.83-14.16-49.1-30.73-69.4a142.58,142.58,0,0,0-72.93-48.09,43.65,43.65,0,0,1-4.78-1.4,8.43,8.43,0,0,1-5.19-10.12C519.18,303.66,522.77,301.13,527.89,301.41Z"/><path class="cls-1" d="M582.85,477.9c0,9.15,0,18.3,0,27.45-.05,6.41-3.26,9.89-8.76,9.74-5.18-.14-8.15-3.63-8.17-9.81,0-14.81,0-29.62,0-44.43,0-13.3-2.22-26.1-8.43-38.07-2.89-5.56-1.46-10.61,3.17-12.85s9.36-.45,12.19,5.23c5.94,11.89,9.61,24.43,9.94,37.78.2,8.32,0,16.64,0,25Z"/><path class="cls-1" d="M487.47,556c9.39,0,15.89,3.93,18.13,10.11,2.49,6.87,2,13.61-3.63,18.81a9.86,9.86,0,0,0-3.43,8.66,107.92,107.92,0,0,1-.07,12.46c-.31,5.26-3.76,8.52-8.54,8.46s-8-3.37-8.37-8.66c-.15-2.48-.1-5-.07-7.47.07-5.59.21-10.56-4.8-15.22-4.85-4.52-4.8-11.53-1.86-17.7S483.1,556.27,487.47,556Z"/></svg>