<svg id="Layer_1" data-name="Layer 1" xmlns="http://www.w3.org/2000/svg" viewBox="0 0 1000 1000"><defs><style>.cls-1{fill:#fff;}</style></defs><path class="cls-1" d="M769.39,262.3a10.22,10.22,0,0,0-8.88-8.89,279.15,279.15,0,0,0-231.64,79.65l-68.09,68.09-98.3,12.68a10.22,10.22,0,0,0-5.92,2.91l-94.77,94.77a10.22,10.22,0,0,0,5.37,17.27l71.65,13.27,14.08,14.08-30,16.23a10.21,10.21,0,0,0-2.36,16.21L434.23,702.24a10.2,10.2,0,0,0,7.23,3,10.5,10.5,0,0,0,1.47-.11,10.19,10.19,0,0,0,7.51-5.25l16.24-30L480.76,684,494,755.64A10.22,10.22,0,0,0,511.3,761l94.77-94.77a10.22,10.22,0,0,0,2.91-5.92L621.66,562l68.09-68.1A279.07,279.07,0,0,0,769.39,262.3Zm-429,259.26L290,512.23l78.57-78.58,68.57-8.84ZM439,678.11l-94.3-94.3L368,571.21l83.63,83.63Zm150.16-23.86-78.57,78.58-9.33-50.39L598,585.69ZM675.3,479.48,490.22,664.56l-132-132L543.32,347.51a260.13,260.13,0,0,1,95.76-60.62,122.28,122.28,0,0,0,96.83,96.84A260.2,260.2,0,0,1,675.3,479.48ZM742.06,364.1a101.93,101.93,0,0,1-83.35-83.36A260.81,260.81,0,0,1,750,272.83,260.63,260.63,0,0,1,742.06,364.1Z"/><path class="cls-1" d="M533.35,401.79A62,62,0,0,0,621,489.46h0a62,62,0,0,0-87.67-87.67ZM606.57,475a41.54,41.54,0,1,1,0-58.76A41.6,41.6,0,0,1,606.57,475Z"/><path class="cls-1" d="M365.84,658.9a10.22,10.22,0,0,0-14.45,0l-87.67,87.66A10.22,10.22,0,0,0,278.17,761l87.67-87.66A10.24,10.24,0,0,0,365.84,658.9Z"/><path class="cls-1" d="M379.32,686.83l-39.5,39.5a10.22,10.22,0,0,0,14.46,14.45l39.49-39.5a10.22,10.22,0,0,0-14.45-14.45Z"/><path class="cls-1" d="M289.73,679.13a10.22,10.22,0,0,0-14.45,0l-39.5,39.49a10.22,10.22,0,1,0,14.46,14.45l39.49-39.49A10.22,10.22,0,0,0,289.73,679.13Z"/><path class="cls-1" d="M306,675.21a10.21,10.21,0,1,0-11-4.27c-.08-.13-.14-.22,0,0s.11.16,0,0A10.35,10.35,0,0,0,306,675.21Z"/></svg>