<svg id="Layer_1" data-name="Layer 1" xmlns="http://www.w3.org/2000/svg" viewBox="0 0 1000 1000"><defs><style>.cls-1{fill:#fff;}</style></defs><path class="cls-1" d="M467.15,335.24c-83,0-150.77,67.79-150.77,150.77a152,152,0,0,0,51,113.35c23.87,23.86,21.7,74.84,21.15,75.39a9,9,0,0,0,2.72,7,10,10,0,0,0,6.5,2.71H536a9,9,0,0,0,6.51-2.71,10.3,10.3,0,0,0,2.71-7c0-.55-2.71-51.53,21.15-75.39l1.63-1.63c31.46-28.74,49.9-69.42,49.9-111.72C617.93,403,550.13,335.24,467.15,335.24Zm86.78,250c-.54.54-1.63,1.63-1.63,2.17-21.15,22.78-24.95,60.2-25.49,78.1H407c-.54-17.9-4.33-56.95-27.11-80.27a132.29,132.29,0,1,1,219.1-99.79C598.94,524,582.67,560.31,553.93,585.26Z"/><path class="cls-1" d="M466.61,373.75a9.22,9.22,0,0,0,0,18.44,98.72,98.72,0,0,1,98.71,98.7,9.22,9.22,0,0,0,18.44,0C584.3,426.35,531.69,373.75,466.61,373.75Z"/><path class="cls-1" d="M526.81,694.81H406.41a22.78,22.78,0,1,0,0,45.56H526.27c13-.54,23.32-10.3,23.32-22.78A22.92,22.92,0,0,0,526.81,694.81Zm0,26.58H406.41a4.28,4.28,0,0,1-4.34-4.34,4,4,0,0,1,4.34-4.34H526.27a4.28,4.28,0,0,1,4.34,4.34C530.61,719.76,529,721.39,526.81,721.39Z"/><path class="cls-1" d="M508.91,749.59h-84.6a22.78,22.78,0,0,0,0,45.56h84.6a22.92,22.92,0,0,0,22.78-22.78A22.57,22.57,0,0,0,508.91,749.59Zm0,26.57h-84.6a4.27,4.27,0,0,1-4.34-4.33,4,4,0,0,1,4.34-4.34h84.6a4.34,4.34,0,1,1,0,8.67Z"/><path class="cls-1" d="M466.61,290.23a9.14,9.14,0,0,0,9.22-9.22V218.09a9.22,9.22,0,1,0-18.44,0V281A9.51,9.51,0,0,0,466.61,290.23Z"/><path class="cls-1" d="M620.09,255.52a8.74,8.74,0,0,0-12.47,2.16l-34.71,52.07a8.94,8.94,0,0,0,2.17,13,8.77,8.77,0,0,0,4.88,1.62,8.62,8.62,0,0,0,7.59-4.34L622.26,268A8.4,8.4,0,0,0,620.09,255.52Z"/><path class="cls-1" d="M356.52,322.22a8.79,8.79,0,0,0,4.88-1.62,9.51,9.51,0,0,0,2.71-13L330.48,255a9.4,9.4,0,1,0-15.72,10.31l33.62,52.6A9,9,0,0,0,356.52,322.22Z"/><path class="cls-1" d="M290.89,379.71l-54.77-29.83c-4.34-2.17-10.31-.54-12.48,3.8a8.66,8.66,0,0,0,3.8,12.47L282.22,396a12.78,12.78,0,0,0,4.33,1.09,9,9,0,0,0,8.14-4.88C296.86,387.85,295.23,381.88,290.89,379.71Z"/><path class="cls-1" d="M710.12,353.68c-2.17-4.34-8.13-6-12.47-3.8l-55.32,29.83c-4.34,2.17-6,8.14-3.8,12.48a9,9,0,0,0,8.14,4.88A10.27,10.27,0,0,0,651,396l55.32-29.83C710.67,364,712.29,358,710.12,353.68Z"/></svg>