<svg xmlns="http://www.w3.org/2000/svg" width="470" height="470" fill="none" viewBox="0 0 863 840">
  <path fill="#FFB000" d="M654.529 634.078c115.135-113.727 115.135-298.116-.001-411.843-115.135-113.727-301.807-113.727-416.943 0-115.135 113.727-115.135 298.116 0 411.843 115.136 113.728 301.808 113.728 416.944 0zM253.965 163.839c23.267-22.982 23.267-60.244 0-83.226s-60.99-22.982-84.256 0c-23.267 22.982-23.267 60.244 0 83.226 23.266 22.982 60.989 22.982 84.256 0zM673.561 137.051c25.543-25.231 25.543-66.137 0-91.367-25.542-25.23-66.956-25.23-92.498 0-25.543 25.23-25.543 66.136 0 91.367 25.542 25.23 66.956 25.23 92.498 0zM766.475 268.808c19.904-3.191 33.422-21.716 30.191-41.378-3.23-19.661-21.985-33.013-41.89-29.822-19.904 3.191-33.422 21.716-30.191 41.378 3.23 19.661 21.985 33.013 41.89 29.822zM188.371 737.889a37.87 37.87 0 000-54.023c-15.103-14.918-39.589-14.918-54.692 0a37.87 37.87 0 000 54.023c15.103 14.918 39.589 14.918 54.692 0zM766.15 654.085c0 20.031-16.44 36.267-36.72 36.267-20.279 0-36.715-16.239-36.715-36.267 0-20.028 16.44-36.27 36.715-36.27 20.283.003 36.72 16.239 36.72 36.27z"/>
  <path fill="#D3D1CF" d="M592.377 311.449c-1.187 1.124.529 2.187-30.874-30.209-1.121-1.158-.284-1.298 12.791-13.666 1.186-1.124-.526-2.19 30.873 30.209 1.125 1.158.284 1.298-12.79 13.666zM731.111 454.063c-1.186 1.124.536 2.18-30.873-30.209-1.121-1.158-.287-1.298 12.791-13.666 1.186-1.124-.526-2.194 30.873 30.209 1.121 1.158.287 1.298-12.791 13.666z"/>
  <path fill="#D3D1CF" d="M650.634 536.009c-.993.943-2.563.926-3.504-.038L476.124 360.514c-.94-.967-.899-2.514.094-3.461l91.386-86.903c.993-.947 2.563-.93 3.504.037l171.006 175.457c.941.967.899 2.515-.093 3.461l-91.387 86.904z"/>
  <path fill="#E8E8E8" d="M652.108 534.382c-.993.947-2.56.93-3.501-.034l-170.76-175.2c-.937-.964-.896-2.512.097-3.458l91.386-86.903c.993-.947 2.56-.93 3.501.037l170.76 175.201c.941.963.896 2.511-.097 3.457l-91.386 86.9z"/>
  <path fill="#C9C5C1" d="M680.152 496.011a2.48 2.48 0 01-3.473-.075L517.887 333.011a2.402 2.402 0 01.051-3.427l55.712-52.98a2.472 2.472 0 013.469.078l158.797 162.925c.944.967.92 2.505-.052 3.427l-55.712 52.977z"/>
  <path fill="#D1CCC7" d="M592.94 461.005a2.328 2.328 0 01-3.265-.061l-41.88-42.97a2.26 2.26 0 01.063-3.226l19.826-18.852a2.328 2.328 0 013.265.061l41.88 42.97a2.26 2.26 0 01-.062 3.226l-19.827 18.852z"/>
  <path fill="#D8D0CA" d="M593.238 458.514c-.816.776-2.158.704-2.999-.16l-39.829-40.866c-.844-.864-.865-2.19-.048-2.965l17.588-16.724c.816-.776 2.158-.704 2.999.16l39.829 40.866c.84.864.861 2.193.048 2.969l-17.588 16.72z"/>
  <path fill="#413E3F" d="M582.802 293.164c-.937.891-1.037.246-11.075-10.048-.854-.878.249-1.504 2.888-4.011.938-.892 1.055-.233 11.075 10.048.855.878-.249 1.503-2.888 4.011zM594.76 305.433c-.941.891-1.041.246-11.075-10.048-.855-.878.249-1.507 2.888-4.011.937-.892 1.041-.246 11.075 10.048.851.874-.252 1.503-2.888 4.011zM607.689 318.699c-.937.895-1.041.246-11.075-10.045-.855-.878.249-1.503 2.888-4.011.937-.891 1.041-.246 11.075 10.045.854.875-.252 1.503-2.888 4.011zM619.646 330.964c-.937.892-1.044.25-11.075-10.048-.854-.878.249-1.506 2.888-4.011.938-.892 1.045-.249 11.076 10.045.85.878-.253 1.506-2.889 4.014zM631.981 343.623c-.938.892-1.042.246-11.076-10.048-.854-.878.249-1.504 2.888-4.011.938-.892 1.041-.243 11.076 10.044.854.878-.253 1.507-2.888 4.015zM643.934 355.888c-.94.895-1.068.219-11.075-10.048-.854-.878.249-1.503 2.888-4.011.938-.891 1.045-.249 11.076 10.048.854.875-.249 1.504-2.889 4.011zM657.638 369.947c-.937.892-1.044.25-11.075-10.048-.854-.878.249-1.503 2.888-4.011.937-.892 1.038-.242 11.075 10.048.855.875-.252 1.504-2.888 4.011zM669.592 382.212c-.937.892-1.041.246-11.075-10.048-.913-.936.501-1.742 2.888-4.011.941-.895 1.069-.218 11.075 10.045.851.875-.235 1.496-2.888 4.014zM682.137 395.182c-.937.891-1.044.246-11.075-10.048-.854-.878.249-1.504 2.888-4.011.941-.896 1.069-.219 11.076 10.048.851.878-.253 1.506-2.889 4.011zM694.091 407.447c-.937.892-1.041.246-11.075-10.048-.854-.878.252-1.503 2.888-4.011.937-.892 1.041-.246 11.075 10.048.855.878-.252 1.507-2.888 4.011zM706.605 420.423c-.937.892-1.044.246-11.075-10.048-.913-.936.502-1.742 2.888-4.011.938-.891 1.045-.246 11.076 10.048.85.875-.25 1.504-2.889 4.011zM718.559 432.689c-.937.891-1.041.246-11.075-10.048-.855-.875.245-1.5 2.888-4.011.937-.892 1.041-.246 11.075 10.048.855.874-.249 1.503-2.888 4.011zM728.227 442.675c-.951.906-1.014.277-9.007-7.923-.682-.7.373-1.366 3.013-3.881.951-.902 1.013-.28 9.006 7.923.685.7-.37 1.367-3.012 3.881zM540.017 326.947c-.741.704-1.536 1.073-1.778.823l-6.679-6.853c-.602-.615 1.826-2.604 6.654-7.196.737-.704 1.536-1.073 1.778-.823l6.679 6.854c.599.614-1.819 2.596-6.654 7.195z"/>
  <path fill="#514D4F" d="M539.909 326.147c-.65.619-1.349.943-1.563.724l-5.873-6.026c-.529-.544 1.629-2.31 5.852-6.328.65-.618 1.349-.943 1.56-.724l5.873 6.027c.529.543-1.594 2.279-5.849 6.327z"/>
  <path fill="#413E3F" d="M549.691 317.742c-.74.704-1.533 1.073-1.778.824l-6.679-6.854c-.605-.622 1.888-2.665 6.655-7.195.74-.704 1.535-1.073 1.778-.824l6.679 6.854c.598.618-1.82 2.597-6.655 7.195z"/>
  <path fill="#514D4F" d="M549.584 316.946c-.651.619-1.349.943-1.56.724l-5.873-6.026c-.533-.547 1.66-2.341 5.852-6.328.65-.618 1.349-.943 1.563-.724l5.874 6.027c.525.546-1.591 2.272-5.856 6.327z"/>
  <path fill="#413E3F" d="M559.639 308.285c-.741.704-1.536 1.073-1.775.824l-6.679-6.854c-.602-.615 1.816-2.593 6.655-7.195.74-.704 1.536-1.073 1.774-.824l6.679 6.854c.599.618-1.819 2.596-6.654 7.195z"/>
  <path fill="#514D4F" d="M559.527 307.489c-.65.619-1.348.943-1.559.725l-5.874-6.027c-.532-.547 1.661-2.34 5.853-6.328.65-.618 1.349-.943 1.563-.724l5.873 6.027c.526.543-1.615 2.292-5.856 6.327z"/>
  <path fill="#413E3F" d="M569.787 298.633c-.737.704-1.533 1.073-1.775.824l-6.679-6.854c-.598-.615 1.82-2.593 6.655-7.195.74-.704 1.532-1.069 1.775-.823l6.679 6.853c.598.619-1.82 2.597-6.655 7.195z"/>
  <path fill="#514D4F" d="M569.679 297.838c-.65.618-1.348.943-1.563.724l-5.873-6.027c-.526-.54 1.612-2.292 5.852-6.327.651-.619 1.349-.943 1.564-.725l5.873 6.027c.533.547-1.66 2.341-5.853 6.328z"/>
  <path fill="#413E3F" d="M529.335 337.101c-.736.703-1.532 1.069-1.774.823l-6.679-6.854c-.602-.615 1.826-2.603 6.655-7.195.74-.704 1.536-1.073 1.778-.823l6.679 6.853c.595.619-1.823 2.597-6.659 7.196z"/>
  <path fill="#514D4F" d="M529.228 336.305c-.65.618-1.349.942-1.563.724l-5.873-6.027c-.526-.54 1.612-2.292 5.852-6.327.65-.619 1.349-.943 1.564-.725l5.873 6.027c.529.547-1.661 2.344-5.853 6.328z"/>
  <path fill="#413E3F" d="M538.342 346.151c-.736.704-1.532 1.073-1.777.823l-6.679-6.853c-.599-.615 1.815-2.597 6.654-7.195.741-.704 1.536-1.073 1.775-.824l6.679 6.854c.605.618-1.823 2.607-6.652 7.195z"/>
  <path fill="#514D4F" d="M538.235 345.355c-.65.618-1.349.943-1.563.724l-5.873-6.027c-.53-.543 1.625-2.309 5.849-6.327.65-.618 1.349-.943 1.563-.724l5.873 6.026c.536.547-1.657 2.341-5.849 6.328z"/>
  <path fill="#413E3F" d="M546.955 355.154c-.74.704-1.532 1.073-1.778.823l-6.679-6.854c-.602-.618 1.826-2.603 6.655-7.195.737-.704 1.532-1.073 1.774-.823l6.679 6.853c.602.619-1.826 2.604-6.651 7.196z"/>
  <path fill="#514D4F" d="M546.848 354.358c-.651.618-1.349.943-1.56.724l-5.873-6.027c-.533-.543 1.629-2.309 5.852-6.327.65-.618 1.349-.943 1.563-.724l5.874 6.026c.525.547-1.633 2.31-5.856 6.328z"/>
  <path fill="#413E3F" d="M548.771 336.024c-.737.704-1.533 1.069-1.775.823l-6.679-6.853c-.598-.615 1.816-2.593 6.655-7.195.74-.704 1.532-1.07 1.775-.824l6.679 6.854c.601.618-1.827 2.603-6.655 7.195z"/>
  <path fill="#514D4F" d="M548.664 335.225c-.651.618-1.349.943-1.564.724l-5.873-6.027c-.525-.539 1.609-2.292 5.853-6.327.65-.618 1.349-.94 1.563-.724l5.873 6.026c.526.544-1.612 2.296-5.852 6.328z"/>
  <path fill="#413E3F" d="M557.781 345.075c-.74.704-1.532 1.069-1.778.823l-6.679-6.853c-.598-.615 1.816-2.594 6.655-7.196.74-.703 1.536-1.072 1.778-.823l6.679 6.854c.598.618-1.83 2.603-6.655 7.195z"/>
  <path fill="#514D4F" d="M557.671 344.278c-.651.619-1.349.943-1.564.725l-5.873-6.027c-.526-.543 1.612-2.293 5.852-6.328.651-.618 1.349-.943 1.564-.724l5.873 6.027c.526.54-1.595 2.279-5.852 6.327z"/>
  <path fill="#413E3F" d="M566.391 354.077c-.737.704-1.533 1.073-1.775.824l-6.679-6.854c-.602-.615 1.826-2.603 6.655-7.195.737-.704 1.536-1.073 1.774-.823l6.679 6.853c.599.615-1.819 2.593-6.654 7.195z"/>
  <path fill="#514D4F" d="M566.283 353.278c-.65.618-1.349.943-1.563.724l-5.874-6.027c-.532-.546 1.661-2.34 5.853-6.327.65-.619 1.349-.943 1.563-.724l5.874 6.026c.525.544-1.598 2.283-5.853 6.328z"/>
  <path fill="#413E3F" d="M575.484 363.435c-.741.704-1.533 1.073-1.775.824l-6.679-6.854c-.598-.615 1.816-2.593 6.655-7.195.737-.704 1.536-1.073 1.778-.824l6.679 6.854c.595.615-1.823 2.593-6.658 7.195z"/>
  <path fill="#514D4F" d="M575.373 362.636c-.65.618-1.349.943-1.563.724l-5.873-6.027c-.53-.543 1.584-2.268 5.852-6.327.65-.619 1.349-.94 1.563-.721l5.873 6.027c.53.539-1.601 2.285-5.852 6.324z"/>
  <path fill="#413E3F" d="M584.491 372.486c-.741.703-1.536 1.069-1.775.823l-6.679-6.854c-.598-.615 1.819-2.593 6.655-7.195.74-.704 1.532-1.073 1.774-.823l6.679 6.853c.602.615-1.816 2.593-6.654 7.196z"/>
  <path fill="#514D4F" d="M584.383 371.686c-.65.619-1.349.943-1.563.725l-5.873-6.027c-.533-.547 1.66-2.341 5.852-6.328.65-.618 1.349-.943 1.56-.724l5.873 6.027c.529.543-1.591 2.282-5.849 6.327z"/>
  <path fill="#413E3F" d="M593.103 381.489c-.74.703-1.532 1.072-1.778.823l-6.679-6.854c-.605-.618 1.872-2.651 6.655-7.195.737-.704 1.532-1.073 1.774-.823l6.679 6.853c.606.619-1.822 2.604-6.651 7.196z"/>
  <path fill="#514D4F" d="M592.996 380.689c-.65.618-1.349.943-1.564.724l-5.873-6.027c-.532-.546 1.661-2.34 5.853-6.327.65-.618 1.349-.943 1.563-.724l5.873 6.026c.529.547-1.629 2.313-5.852 6.328z"/>
  <g>
    <path fill="#413E3F" d="M602.888 391.55c-.74.704-1.532 1.073-1.777.823l-6.679-6.853c-.599-.615 1.815-2.593 6.654-7.192.741-.704 1.533-1.073 1.775-.823l6.679 6.853c.605.612-1.813 2.593-6.652 7.192z"/>
    <path fill="#514D4F" d="M602.781 390.751c-.65.618-1.349.943-1.563.724l-5.873-6.027c-.526-.543 1.594-2.279 5.852-6.327.65-.619 1.349-.943 1.563-.725l5.873 6.027c.533.55-1.66 2.344-5.852 6.328z"/>
    <path fill="#413E3F" d="M611.899 400.6c-.741.701-1.536 1.07-1.778.824l-6.679-6.854c-.602-.615 1.826-2.603 6.655-7.192.74-.703 1.532-1.072 1.774-.823l6.679 6.854c.602.611-1.812 2.593-6.651 7.191z"/>
    <path fill="#514D4F" d="M611.791 399.801c-.65.618-1.349.943-1.56.724l-5.873-6.027c-.529-.539 1.598-2.278 5.852-6.327.651-.618 1.349-.943 1.564-.724l5.873 6.026c.522.544-1.602 2.279-5.856 6.328z"/>
    <g>
      <path fill="#413E3F" d="M620.511 409.603c-.74.704-1.536 1.073-1.778.823l-6.679-6.853c-.598-.615 1.816-2.597 6.655-7.192.74-.704 1.536-1.073 1.778-.824l6.679 6.854c.598.611-1.819 2.59-6.655 7.192z"/>
      <path fill="#514D4F" d="M620.4 408.803c-.65.619-1.349.943-1.563.725l-5.873-6.027c-.533-.543 1.625-2.31 5.852-6.328.65-.618 1.349-.943 1.56-.724l5.873 6.027c.533.547-1.626 2.309-5.849 6.327z"/>
    </g>
  </g>
  <g>
    <path fill="#413E3F" d="M629.601 418.958c-.737.703-1.532 1.072-1.775.823l-6.679-6.854c-.598-.615 1.816-2.593 6.655-7.195.741-.704 1.533-1.073 1.778-.823l6.679 6.853c.599.619-1.819 2.597-6.658 7.196z"/>
    <path fill="#514D4F" d="M629.494 418.162c-.651.618-1.349.943-1.564.724l-5.873-6.027c-.532-.547 1.657-2.34 5.853-6.327.65-.619 1.348-.94 1.559-.725l5.874 6.027c.532.547-1.657 2.344-5.849 6.328z"/>
    <path fill="#413E3F" d="M638.611 428.008c-.74.704-1.535 1.073-1.778.824l-6.679-6.854c-.601-.618 1.827-2.603 6.655-7.195.74-.704 1.532-1.073 1.778-.824l6.679 6.854c.598.618-1.826 2.607-6.655 7.195z"/>
    <path fill="#514D4F" d="M638.5 427.212c-.65.618-1.349.943-1.563.724l-5.873-6.027c-.529-.543 1.629-2.309 5.852-6.327.651-.619 1.349-.943 1.564-.724l5.873 6.026c.532.544-1.629 2.31-5.853 6.328z"/>
    <g>
      <path fill="#413E3F" d="M647.224 437.011c-.74.704-1.536 1.073-1.778.823l-6.679-6.853c-.602-.619 1.826-2.604 6.655-7.196.74-.704 1.535-1.073 1.778-.823l6.679 6.854c.598.618-1.795 2.572-6.655 7.195z"/>
      <path fill="#514D4F" d="M647.113 436.215c-.65.618-1.349.943-1.56.724l-5.873-6.027c-.529-.543 1.626-2.309 5.852-6.327.651-.618 1.349-.943 1.564-.724l5.873 6.026c.529.547-1.657 2.334-5.856 6.328z"/>
    </g>
  </g>
  <g>
    <path fill="#413E3F" d="M558.736 327.117c-.741.704-1.533 1.07-1.775.824l-6.679-6.854c-.598-.615 1.82-2.593 6.655-7.195.74-.704 1.536-1.073 1.774-.824l6.68 6.854c.598.618-1.82 2.597-6.655 7.195z"/>
    <path fill="#514D4F" d="M558.625 326.321c-.65.619-1.349.943-1.563.725l-5.874-6.027c-.529-.54 1.595-2.279 5.853-6.328.65-.618 1.349-.943 1.563-.724l5.873 6.027c.53.543-1.625 2.309-5.852 6.327z"/>
    <path fill="#413E3F" d="M567.743 336.168c-.741.704-1.533 1.069-1.778.823l-6.679-6.853c-.602-.615 1.826-2.604 6.654-7.196.737-.703 1.533-1.072 1.775-.823l6.679 6.854c.605.618-1.823 2.606-6.651 7.195z"/>
    <path fill="#514D4F" d="M567.635 335.372c-.65.618-1.349.943-1.563.724l-5.873-6.027c-.529-.543 1.626-2.309 5.852-6.327.651-.619 1.349-.943 1.564-.725l5.873 6.027c.526.543-1.595 2.279-5.853 6.328z"/>
    <g>
      <path fill="#413E3F" d="M576.355 345.171c-.74.703-1.536 1.072-1.778.823l-6.679-6.854c-.598-.615 1.816-2.593 6.655-7.195.74-.704 1.536-1.073 1.778-.823l6.679 6.853c.598.615-1.819 2.597-6.655 7.196z"/>
      <path fill="#514D4F" d="M576.248 344.375c-.65.618-1.349.943-1.563.724l-5.873-6.027c-.533-.546 1.66-2.34 5.852-6.327.65-.618 1.349-.943 1.56-.724l5.873 6.026c.529.544-1.584 2.272-5.849 6.328z"/>
    </g>
    <g>
      <path fill="#413E3F" d="M585.449 354.529c-.741.703-1.533 1.072-1.775.823l-6.679-6.854c-.605-.621 1.892-2.665 6.655-7.195.74-.704 1.532-1.073 1.774-.823l6.679 6.853c.599.615-1.822 2.597-6.654 7.196z"/>
      <path fill="#514D4F" d="M585.338 353.729c-.65.618-1.349.943-1.563.724l-5.874-6.027c-.525-.543 1.612-2.292 5.853-6.327.65-.618 1.349-.943 1.563-.724l5.873 6.026c.533.551-1.66 2.344-5.852 6.328z"/>
      <path fill="#413E3F" d="M594.456 363.579c-.737.704-1.533 1.073-1.775.823l-6.679-6.853c-.602-.615 1.826-2.604 6.655-7.196.737-.703 1.532-1.072 1.778-.823l6.679 6.854c.595.618-1.83 2.606-6.658 7.195z"/>
      <path fill="#514D4F" d="M594.348 362.783c-.65.618-1.349.943-1.56.724l-5.873-6.027c-.533-.546 1.66-2.34 5.852-6.327.651-.618 1.349-.943 1.56-.724l5.874 6.026c.529.544-1.629 2.31-5.853 6.328z"/>
      <g>
        <path fill="#413E3F" d="M603.068 372.582c-.74.703-1.536 1.072-1.778.823l-6.679-6.854c-.598-.615 1.816-2.593 6.655-7.191.74-.704 1.536-1.073 1.778-.824l6.679 6.854c.598.615-1.83 2.6-6.655 7.192z"/>
        <path fill="#514D4F" d="M602.957 371.786c-.65.618-1.349.943-1.563.724l-5.873-6.027c-.533-.546 1.66-2.34 5.852-6.324.65-.618 1.349-.943 1.564-.724l5.873 6.027c.529.536-1.595 2.275-5.853 6.324z"/>
      </g>
    </g>
    <g>
      <path fill="#413E3F" d="M612.853 382.643c-.74.704-1.532 1.07-1.778.824l-6.679-6.854c-.602-.615 1.826-2.603 6.655-7.195.74-.704 1.536-1.073 1.778-.824l6.679 6.854c.605.622-1.895 2.668-6.655 7.195z"/>
      <path fill="#514D4F" d="M612.746 381.847c-.651.619-1.349.943-1.564.724l-5.873-6.026c-.533-.547 1.66-2.341 5.852-6.328.651-.618 1.349-.943 1.564-.724l5.873 6.027c.529.543-1.588 2.272-5.852 6.327z"/>
      <path fill="#413E3F" d="M621.863 391.694c-.74.704-1.535 1.073-1.777.823l-6.679-6.853c-.602-.615 1.826-2.604 6.654-7.196.74-.703 1.536-1.069 1.778-.823l6.679 6.854c.602.622-1.83 2.603-6.655 7.195z"/>
      <path fill="#514D4F" d="M621.753 390.898c-.651.618-1.349.943-1.564.724l-5.873-6.027c-.533-.546 1.66-2.34 5.852-6.327.651-.619 1.349-.943 1.56-.725l5.873 6.027c.519.53-1.252 1.954-5.848 6.328z"/>
      <g>
        <path fill="#413E3F" d="M630.472 400.697c-.74.703-1.532 1.072-1.774.823l-6.679-6.854c-.602-.615 1.826-2.603 6.655-7.195.74-.704 1.535-1.073 1.778-.823l6.679 6.853c.612.632-1.951 2.723-6.659 7.196z"/>
        <path fill="#514D4F" d="M630.365 399.9c-.65.619-1.349.943-1.564.725l-5.873-6.027c-.529-.543 1.629-2.31 5.853-6.328.65-.618 1.349-.943 1.56-.724l5.873 6.027c.532.543-1.584 2.268-5.849 6.327z"/>
      </g>
    </g>
    <g>
      <path fill="#413E3F" d="M639.566 410.054c-.74.704-1.532 1.07-1.775.824l-6.679-6.854c-.598-.618 1.83-2.603 6.655-7.192.74-.703 1.533-1.069 1.778-.823l6.679 6.854c.595.611-1.823 2.593-6.658 7.191z"/>
      <path fill="#514D4F" d="M639.455 409.255c-.65.618-1.349.943-1.56.724l-5.873-6.027c-.533-.546 1.657-2.34 5.852-6.327.651-.619 1.349-.943 1.564-.725l5.873 6.027c.526.547-1.588 2.272-5.856 6.328z"/>
      <path fill="#413E3F" d="M648.576 419.105c-.74.703-1.536 1.069-1.774.823l-6.679-6.854c-.616-.632 1.95-2.719 6.654-7.195.741-.704 1.536-1.073 1.778-.823l6.679 6.853c.595.615-1.823 2.597-6.658 7.196z"/>
      <path fill="#514D4F" d="M648.465 418.305c-.65.619-1.349.943-1.56.725l-5.873-6.027c-.529-.54 1.595-2.279 5.852-6.328.651-.618 1.349-.943 1.564-.724l5.873 6.027c.522.543-1.615 2.296-5.856 6.327z"/>
      <g>
        <path fill="#413E3F" d="M657.185 428.107c-.74.704-1.536 1.07-1.778.824l-6.679-6.854c-.598-.615 1.82-2.593 6.655-7.192.737-.703 1.532-1.072 1.774-.823l6.679 6.854c.606.611-1.812 2.593-6.651 7.191z"/>
        <path fill="#514D4F" d="M657.078 427.308c-.651.618-1.349.943-1.56.724l-5.873-6.027c-.53-.543 1.629-2.309 5.852-6.327.65-.618 1.349-.943 1.563-.724l5.874 6.027c.525.55-1.668 2.34-5.856 6.327z"/>
      </g>
    </g>
  </g>
  <g>
    <path fill="#413E3F" d="M568.887 317.718c-.74.704-1.535 1.073-1.777.824l-6.679-6.854c-.602-.615 1.826-2.603 6.654-7.195.741-.704 1.536-1.073 1.775-.824l6.679 6.854c.602.619-1.816 2.597-6.652 7.195z"/>
    <path fill="#514D4F" d="M568.777 316.922c-.651.619-1.349.943-1.564.725l-5.873-6.027c-.529-.543 1.629-2.31 5.852-6.327.651-.619 1.349-.943 1.564-.725l5.873 6.027c.529.543-1.629 2.31-5.852 6.327z"/>
    <path fill="#413E3F" d="M577.894 326.769c-.74.704-1.532 1.073-1.774.823l-6.679-6.853c-.602-.615 1.816-2.597 6.655-7.192.736-.704 1.535-1.073 1.774-.824l6.679 6.854c.599.615-1.819 2.59-6.655 7.192z"/>
    <path fill="#514D4F" d="M577.783 325.973c-.65.618-1.349.943-1.559.724l-5.874-6.027c-.529-.543 1.63-2.309 5.853-6.327.65-.619 1.349-.943 1.563-.725l5.873 6.027c.526.54-1.612 2.293-5.856 6.328z"/>
    <g>
      <path fill="#413E3F" d="M586.507 335.771c-.74.704-1.532 1.073-1.778.824l-6.679-6.854c-.602-.618 1.826-2.603 6.655-7.195.737-.704 1.532-1.07 1.778-.824l6.679 6.854c.602.622-1.896 2.665-6.655 7.195z"/>
      <path fill="#514D4F" d="M586.396 334.975c-.65.619-1.349.943-1.56.725l-5.873-6.027c-.529-.543 1.588-2.269 5.853-6.328.65-.618 1.349-.943 1.56-.724l5.873 6.027c.529.54-1.595 2.279-5.853 6.327z"/>
    </g>
    <g>
      <path fill="#413E3F" d="M595.597 345.13c-.74.703-1.533 1.069-1.775.823l-6.679-6.854c-.598-.615 1.816-2.593 6.655-7.195.74-.704 1.532-1.069 1.778-.823l6.679 6.853c.595.615-1.819 2.594-6.658 7.196z"/>
      <path fill="#514D4F" d="M595.49 344.33c-.651.618-1.349.943-1.564.724l-5.873-6.026c-.529-.544 1.626-2.31 5.853-6.328.65-.618 1.348-.943 1.563-.724l5.873 6.027c.529.546-1.587 2.272-5.852 6.327z"/>
      <path fill="#413E3F" d="M604.607 354.18c-.737.704-1.532 1.073-1.774.823l-6.679-6.853c-.599-.615 1.816-2.593 6.655-7.195.74-.704 1.535-1.07 1.777-.824l6.679 6.854c.595.615-1.822 2.593-6.658 7.195z"/>
      <path fill="#514D4F" d="M604.497 353.381c-.651.618-1.349.943-1.564.724l-5.873-6.027c-.529-.543 1.629-2.306 5.852-6.324.651-.618 1.349-.943 1.564-.724l5.873 6.027c.526.536-1.584 2.268-5.852 6.324z"/>
      <g>
        <path fill="#413E3F" d="M613.216 363.183c-.736.704-1.532 1.073-1.774.823l-6.679-6.853c-.602-.615 1.826-2.604 6.655-7.192.74-.704 1.536-1.073 1.778-.824l6.679 6.854c.598.612-1.83 2.6-6.659 7.192z"/>
        <path fill="#514D4F" d="M613.109 362.383c-.65.619-1.349.943-1.563.725l-5.874-6.027c-.529-.54 1.595-2.279 5.853-6.328.65-.618 1.349-.943 1.563-.724l5.873 6.027c.53.543-1.594 2.282-5.852 6.327z"/>
      </g>
    </g>
    <g>
      <path fill="#413E3F" d="M623.005 373.244c-.737.704-1.533 1.07-1.775.824l-6.679-6.854c-.598-.615 1.823-2.597 6.655-7.195.737-.704 1.532-1.073 1.778-.824l6.679 6.854c.595.615-1.823 2.597-6.658 7.195z"/>
      <path fill="#514D4F" d="M622.894 372.445c-.65.618-1.349.943-1.563.724l-5.874-6.027c-.529-.543 1.585-2.268 5.853-6.327.65-.619 1.349-.943 1.563-.724l5.873 6.026c.53.544-1.594 2.283-5.852 6.328z"/>
      <path fill="#413E3F" d="M632.012 382.295c-.741.704-1.536 1.073-1.778.823l-6.679-6.853c-.602-.615 1.826-2.604 6.655-7.192.736-.704 1.532-1.073 1.774-.824l6.679 6.854c.605.612-1.816 2.59-6.651 7.192z"/>
      <path fill="#514D4F" d="M631.905 381.495c-.651.619-1.349.943-1.564.725l-5.873-6.027c-.526-.54 1.595-2.279 5.852-6.327.651-.619 1.349-.943 1.56-.725l5.874 6.027c.532.543-1.595 2.279-5.849 6.327z"/>
      <g>
        <path fill="#413E3F" d="M640.624 391.297c-.74.704-1.536 1.073-1.778.823l-6.679-6.853c-.602-.615 1.827-2.603 6.655-7.195.74-.704 1.536-1.07 1.778-.824l6.679 6.854c.602.618-1.826 2.603-6.655 7.195z"/>
        <path fill="#514D4F" d="M640.517 390.498c-.651.618-1.349.943-1.564.724l-5.873-6.027c-.532-.546 1.66-2.34 5.853-6.327.65-.618 1.349-.943 1.563-.724l5.873 6.026c.529.55-1.66 2.344-5.852 6.328z"/>
      </g>
    </g>
    <g>
      <path fill="#413E3F" d="M649.717 400.655c-.736.704-1.532 1.073-1.777.824l-6.679-6.854c-.599-.615 1.815-2.597 6.654-7.195.737-.704 1.536-1.07 1.775-.824l6.679 6.854c.602.615-1.816 2.593-6.652 7.195z"/>
      <path fill="#514D4F" d="M649.61 399.856c-.65.618-1.349.943-1.563.724l-5.873-6.027c-.533-.543 1.625-2.309 5.852-6.324.65-.618 1.349-.943 1.563-.724l5.874 6.027c.525.543-1.588 2.268-5.853 6.324z"/>
      <path fill="#413E3F" d="M658.724 409.706c-.74.703-1.536 1.069-1.778.823l-6.679-6.854c-.598-.615 1.816-2.593 6.655-7.195.74-.704 1.532-1.073 1.778-.823l6.679 6.853c.602.619-1.83 2.604-6.655 7.196z"/>
      <path fill="#514D4F" d="M658.617 408.906c-.65.618-1.349.943-1.56.724l-5.873-6.026c-.526-.544 1.612-2.293 5.853-6.328.65-.618 1.348-.943 1.559-.724l5.874 6.027c.525.543-1.598 2.278-5.853 6.327z"/>
      <g>
        <path fill="#413E3F" d="M667.337 418.708c-.741.704-1.536 1.073-1.778.823l-6.679-6.853c-.599-.615 1.816-2.593 6.655-7.196.736-.703 1.535-1.069 1.777-.823l6.679 6.854c.599.615-1.819 2.596-6.654 7.195z"/>
        <path fill="#514D4F" d="M667.226 417.909c-.65.618-1.349.943-1.56.724l-5.873-6.027c-.526-.543 1.594-2.279 5.852-6.327.651-.619 1.349-.94 1.564-.725l5.873 6.027c.525.547-1.588 2.272-5.856 6.328z"/>
      </g>
    </g>
  </g>
  <g>
    <path fill="#413E3F" d="M579.662 308.863c-.737.703-1.536 1.069-1.774.823l-6.68-6.854c-.601-.615 1.816-2.596 6.655-7.195.74-.704 1.536-1.069 1.775-.823l6.679 6.853c.602.615-1.816 2.593-6.655 7.196z"/>
    <path fill="#514D4F" d="M579.554 308.066c-.65.619-1.349.943-1.563.725l-5.873-6.027c-.529-.543 1.629-2.31 5.852-6.327.651-.619 1.349-.943 1.564-.725l5.873 6.027c.529.543-1.584 2.272-5.853 6.327z"/>
    <path fill="#413E3F" d="M588.672 317.913c-.74.704-1.536 1.073-1.774.823l-6.679-6.853c-.599-.615 1.826-2.604 6.654-7.196.741-.703 1.536-1.069 1.775-.823l6.679 6.854c.598.618-1.826 2.606-6.655 7.195z"/>
    <path fill="#514D4F" d="M588.565 317.117c-.65.618-1.349.943-1.563.724l-5.874-6.027c-.529-.543 1.619-2.302 5.853-6.327.65-.618 1.349-.943 1.563-.724l5.873 6.026c.526.54-1.598 2.279-5.852 6.328z"/>
    <g>
      <path fill="#413E3F" d="M597.285 326.916c-.741.703-1.533 1.069-1.778.823l-6.679-6.854c-.599-.615 1.823-2.596 6.655-7.195.74-.704 1.535-1.069 1.774-.823l6.679 6.853c.609.622-1.889 2.665-6.651 7.196z"/>
      <path fill="#514D4F" d="M597.174 326.119c-.651.619-1.349.943-1.56.725l-5.873-6.027c-.526-.54 1.594-2.279 5.852-6.328.65-.618 1.349-.943 1.56-.724l5.873 6.027c.529.54-1.594 2.279-5.852 6.327z"/>
    </g>
  </g>
  <g>
    <path fill="#413E3F" d="M606.375 336.27c-.741.704-1.536 1.073-1.778.824l-6.679-6.854c-.599-.615 1.816-2.593 6.655-7.195.74-.704 1.535-1.073 1.777-.824l6.68 6.854c.601.619-1.827 2.607-6.655 7.195z"/>
    <path fill="#514D4F" d="M606.267 335.474c-.65.619-1.349.943-1.563.724l-5.873-6.026c-.526-.54 1.608-2.293 5.852-6.328.65-.618 1.349-.943 1.564-.724l5.873 6.027c.529.546-1.661 2.34-5.853 6.327z"/>
    <path fill="#413E3F" d="M615.385 345.324c-.74.704-1.536 1.073-1.778.823l-6.679-6.853c-.605-.622 1.888-2.665 6.655-7.195.74-.704 1.532-1.073 1.778-.824l6.679 6.854c.598.615-1.816 2.596-6.655 7.195z"/>
    <path fill="#514D4F" d="M615.274 344.524c-.65.619-1.349.943-1.563.725l-5.873-6.027c-.529-.543 1.584-2.269 5.852-6.327.65-.619 1.349-.943 1.563-.725l5.874 6.027c.529.543-1.595 2.279-5.853 6.327z"/>
    <g>
      <path fill="#413E3F" d="M623.994 354.327c-.74.703-1.536 1.072-1.774.823l-6.679-6.854c-.602-.618 1.826-2.603 6.655-7.195.74-.704 1.535-1.073 1.777-.823l6.679 6.853c.599.615-1.819 2.594-6.658 7.196z"/>
      <path fill="#514D4F" d="M623.887 353.527c-.65.619-1.349.943-1.564.724l-5.873-6.026c-.532-.547 1.661-2.341 5.853-6.328.65-.618 1.349-.943 1.563-.724l5.873 6.027c.529.543-1.612 2.296-5.852 6.327z"/>
    </g>
  </g>
  <g>
    <path fill="#413E3F" d="M633.783 364.389c-.741.703-1.533 1.072-1.778.823l-6.68-6.854c-.598-.615 1.816-2.596 6.655-7.195.741-.704 1.536-1.073 1.778-.823l6.679 6.853c.599.615-1.819 2.597-6.654 7.196z"/>
    <path fill="#514D4F" d="M633.675 363.589c-.65.618-1.349.943-1.563.724l-5.873-6.026c-.529-.54 1.594-2.279 5.849-6.328.65-.618 1.349-.943 1.563-.724l5.873 6.027c.529.543-1.594 2.278-5.849 6.327z"/>
    <path fill="#413E3F" d="M642.789 373.439c-.736.704-1.532 1.073-1.777.823l-6.679-6.853c-.599-.615 1.819-2.593 6.654-7.196.741-.703 1.536-1.072 1.778-.823l6.679 6.854c.602.615-1.816 2.596-6.655 7.195z"/>
    <path fill="#514D4F" d="M642.682 372.639c-.65.619-1.349.943-1.563.725l-5.873-6.027c-.529-.543 1.584-2.272 5.852-6.328.65-.618 1.349-.943 1.563-.724l5.874 6.027c.529.547-1.63 2.313-5.853 6.327z"/>
    <g>
      <path fill="#413E3F" d="M651.402 382.442c-.74.703-1.536 1.072-1.774.823l-6.68-6.854c-.598-.618 1.827-2.606 6.655-7.195.741-.704 1.536-1.073 1.778-.823l6.679 6.853c.595.615-1.822 2.594-6.658 7.196z"/>
      <path fill="#514D4F" d="M651.295 381.642c-.651.619-1.349.943-1.564.725l-5.873-6.027c-.529-.54 1.595-2.279 5.852-6.324.651-.619 1.349-.943 1.564-.725l5.873 6.027c.529.544-1.629 2.306-5.852 6.324z"/>
    </g>
  </g>
  <g>
    <path fill="#413E3F" d="M660.495 391.799c-.74.704-1.535 1.07-1.777.824l-6.68-6.854c-.601-.615 1.827-2.603 6.655-7.195.741-.704 1.536-1.069 1.778-.823l6.679 6.853c.599.615-1.819 2.593-6.655 7.195z"/>
    <path fill="#514D4F" d="M660.385 391c-.651.618-1.349.943-1.564.724l-5.873-6.027c-.529-.539 1.595-2.278 5.852-6.327.651-.618 1.349-.943 1.56-.724l5.873 6.026c.537.547-1.656 2.341-5.848 6.328z"/>
    <path fill="#413E3F" d="M669.502 400.85c-.74.704-1.536 1.073-1.778.823l-6.679-6.853c-.598-.615 1.819-2.594 6.655-7.196.74-.703 1.536-1.072 1.778-.823l6.679 6.854c.602.615-1.816 2.593-6.655 7.195z"/>
    <path fill="#514D4F" d="M669.395 400.051c-.65.618-1.349.943-1.56.724l-5.873-6.023c-.532-.547 1.657-2.341 5.853-6.328.65-.618 1.348-.943 1.563-.724l5.873 6.027c.522.539-1.615 2.292-5.856 6.324z"/>
    <g>
      <path fill="#413E3F" d="M678.115 409.849c-.741.704-1.536 1.073-1.775.824l-6.679-6.854c-.584-.601 1.429-2.228 6.655-7.195.74-.704 1.536-1.073 1.778-.824l6.679 6.854c.595.618-1.823 2.597-6.658 7.195z"/>
      <path fill="#514D4F" d="M678.004 409.053c-.65.619-1.349.943-1.56.725l-5.873-6.027c-.533-.547 1.66-2.337 5.852-6.328.65-.618 1.349-.943 1.564-.724l5.873 6.027c.525.543-1.598 2.279-5.856 6.327z"/>
    </g>
  </g>
  <g>
    <path fill="#413E3F" d="M687.34 419.367c-.741.704-1.533 1.07-1.778.824l-6.679-6.85c-.602-.619 1.826-2.604 6.651-7.196.74-.703 1.536-1.072 1.778-.823l6.679 6.854c.602.615-1.826 2.6-6.651 7.191z"/>
    <path fill="#514D4F" d="M687.232 418.568c-.65.618-1.349.943-1.563.724l-5.873-6.027c-.529-.543 1.605-2.285 5.849-6.327.65-.618 1.349-.943 1.563-.724l5.873 6.026c.533.547-1.625 2.314-5.849 6.328z"/>
    <path fill="#413E3F" d="M696.35 428.418c-.74.704-1.536 1.073-1.778.823l-6.679-6.853c-.598-.615 1.816-2.597 6.655-7.195.737-.704 1.536-1.073 1.778-.824l6.679 6.854c.598.618-1.82 2.596-6.655 7.195z"/>
    <path fill="#514D4F" d="M696.239 427.622c-.65.618-1.349.939-1.563.724l-5.873-6.027c-.533-.543 1.626-2.309 5.852-6.327.651-.619 1.349-.943 1.564-.724l5.873 6.026c.533.547-1.66 2.341-5.853 6.328z"/>
    <g>
      <path fill="#413E3F" d="M704.959 437.42c-.74.704-1.536 1.07-1.774.824l-6.679-6.854c-.599-.615 1.815-2.596 6.654-7.195.74-.704 1.536-1.073 1.775-.823l6.679 6.853c.601.619-1.792 2.569-6.655 7.195z"/>
      <path fill="#514D4F" d="M704.852 436.624c-.65.619-1.349.943-1.564.725l-5.873-6.027c-.532-.547 1.661-2.34 5.853-6.327.65-.619 1.349-.943 1.563-.725l5.873 6.027c.533.547-1.664 2.34-5.852 6.327z"/>
    </g>
  </g>
  <g>
    <path fill="#413E3F" d="M680.48 471.159c-.74.704-1.535 1.069-1.774.823l-6.679-6.853c-.602-.615 1.816-2.593 6.655-7.195.737-.704 1.536-1.07 1.778-.824l6.679 6.854c.598.625-1.896 2.665-6.659 7.195z"/>
    <path fill="#514D4F" d="M680.37 470.363c-.65.618-1.349.943-1.563.724l-5.873-6.027c-.53-.543 1.629-2.309 5.852-6.327.65-.618 1.349-.943 1.56-.724l5.873 6.026c.533.544-1.605 2.293-5.849 6.328z"/>
  </g>
  <g>
    <path fill="#413E3F" d="M689.487 480.21c-.74.704-1.535 1.072-1.774.823l-6.679-6.854c-.599-.615 1.819-2.593 6.655-7.191.74-.704 1.536-1.073 1.774-.824l6.679 6.854c.602.615-1.819 2.593-6.655 7.192z"/>
    <path fill="#514D4F" d="M689.381 479.413c-.651.619-1.349.943-1.56.725l-5.874-6.027c-.525-.543 1.612-2.293 5.853-6.327.65-.619 1.349-.943 1.563-.721l5.873 6.026c.526.54-1.591 2.266-5.855 6.324z"/>
  </g>
  <g>
    <path fill="#413E3F" d="M665.881 436.86c-.741.704-1.536 1.073-1.778.824l-6.679-6.854c-.602-.615 1.826-2.603 6.655-7.195.74-.704 1.535-1.073 1.778-.823l6.679 6.853c.598.619-1.816 2.597-6.655 7.195z"/>
    <path fill="#514D4F" d="M665.773 436.064c-.65.619-1.349.943-1.563.725l-5.873-6.027c-.529-.543 1.594-2.279 5.852-6.327.65-.619 1.349-.943 1.564-.725l5.873 6.027c.526.543-1.612 2.296-5.853 6.327z"/>
  </g>
  <g>
    <path fill="#413E3F" d="M676.071 427.499c-.737.704-1.536 1.069-1.775.823l-6.679-6.853c-.602-.619 1.826-2.604 6.655-7.196.74-.704 1.532-1.069 1.774-.823l6.68 6.853c.598.619-1.813 2.6-6.655 7.196z"/>
    <path fill="#514D4F" d="M675.964 426.703c-.651.618-1.349.943-1.564.724l-5.873-6.027c-.515-.529 1.252-1.954 5.852-6.327.651-.618 1.349-.943 1.564-.724l5.873 6.026c.533.547-1.66 2.341-5.852 6.328z"/>
  </g>
  <g>
    <path fill="#413E3F" d="M673.556 444.073c-.74.704-1.484 1.124-1.664.939l-4.949-5.077c-.443-.454 1.895-2.446 6.769-7.079.736-.704 1.484-1.124 1.66-.939l4.949 5.077c.447.458-1.943 2.494-6.765 7.079z"/>
    <path fill="#514D4F" d="M673.563 443.396c-.651.619-1.304.988-1.463.827l-4.355-4.465c-.391-.4 1.712-2.194 5.953-6.225.65-.618 1.307-.987 1.463-.827l4.351 4.466c.394.403-1.709 2.193-5.949 6.224z"/>
  </g>
  <g>
    <path fill="#413E3F" d="M568.87 377.641c-.74.704-1.535 1.073-1.778.824l-6.679-6.854c-.602-.615 1.827-2.603 6.655-7.195.74-.704 1.536-1.07 1.778-.824l6.679 6.854c.602.618-1.826 2.603-6.655 7.195z"/>
    <path fill="#514D4F" d="M568.763 376.845c-.65.619-1.349.943-1.563.724l-5.873-6.026c-.53-.544 1.587-2.272 5.852-6.328.65-.618 1.349-.943 1.563-.724l5.874 6.027c.529.543-1.588 2.268-5.853 6.327z"/>
  </g>
  <g>
    <path fill="#413E3F" d="M560.292 368.84c-.737.704-1.657.943-2.054.536l-10.927-11.209c-.958-.981 1.076-2.44 6.375-7.479.74-.704 1.66-.943 2.054-.536l10.927 11.209c.958.981-1.072 2.44-6.375 7.479z"/>
    <path fill="#514D4F" d="M559.895 367.743c-.651.619-1.46.831-1.806.472l-9.609-9.86c-.84-.861.948-2.146 5.607-6.577.65-.618 1.46-.83 1.806-.472l9.608 9.857c.841.868-.944 2.149-5.606 6.58z"/>
  </g>
  <g>
    <path fill="#413E3F" d="M630.808 441.975c-.74.704-1.536 1.069-1.775.823l-6.679-6.853c-.598-.615 1.816-2.594 6.655-7.196.74-.703 1.536-1.072 1.778-.823l6.679 6.854c.595.615-1.819 2.593-6.658 7.195z"/>
    <path fill="#514D4F" d="M630.701 441.176c-.651.618-1.349.943-1.56.724l-5.873-6.027c-.53-.543 1.629-2.309 5.852-6.327.65-.619 1.349-.943 1.56-.725l5.873 6.027c.533.547-1.66 2.341-5.852 6.328z"/>
  </g>
  <g>
    <path fill="#413E3F" d="M639.818 451.025c-.74.704-1.532 1.07-1.778.824l-6.678-6.854c-.599-.615 1.819-2.597 6.654-7.195.741-.704 1.536-1.07 1.778-.824l6.679 6.851c.602.625-1.875 2.654-6.655 7.198z"/>
    <path fill="#514D4F" d="M639.707 450.226c-.65.618-1.349.94-1.56.724l-5.873-6.027c-.532-.546 1.661-2.336 5.853-6.327.65-.618 1.349-.943 1.563-.724l5.873 6.026c.526.547-1.629 2.314-5.856 6.328z"/>
  </g>
  <g>
    <path fill="#413E3F" d="M648.427 460.028c-.736.704-1.532 1.073-1.774.823l-6.679-6.853c-.598-.615 1.819-2.593 6.655-7.196.74-.7 1.536-1.069 1.778-.823l6.679 6.854c.598.615-1.82 2.593-6.659 7.195z"/>
    <path fill="#514D4F" d="M648.32 459.228c-.65.619-1.349.943-1.563.725l-5.873-6.027c-.53-.543 1.625-2.31 5.852-6.327.65-.619 1.349-.943 1.563-.725l5.874 6.027c.529.543-1.609 2.296-5.853 6.327z"/>
  </g>
  <g>
    <path fill="#413E3F" d="M670.346 482.512c-.74.704-1.536 1.073-1.774.824l-6.679-6.854c-.602-.615 1.819-2.593 6.655-7.192.74-.704 1.532-1.073 1.777-.823l6.68 6.853c.594.615-1.834 2.6-6.659 7.192z"/>
    <path fill="#514D4F" d="M670.235 481.716c-.65.619-1.349.943-1.56.725l-5.873-6.027c-.529-.543 1.577-2.262 5.853-6.328.65-.618 1.349-.943 1.56-.724l5.873 6.027c.529.54-1.595 2.279-5.853 6.327z"/>
  </g>
  <g>
    <path fill="#413E3F" d="M678.9 491.98c-.737.703-1.532 1.072-1.778.823l-6.679-6.854c-.598-.615 1.816-2.593 6.655-7.195.737-.704 1.536-1.073 1.774-.823l6.679 6.853c.606.619-1.823 2.604-6.651 7.196z"/>
    <path fill="#514D4F" d="M678.792 491.18c-.65.618-1.349.939-1.563.724l-5.873-6.027c-.533-.546 1.66-2.34 5.852-6.327.651-.618 1.349-.943 1.56-.724l5.873 6.026c.536.551-1.656 2.344-5.849 6.328z"/>
  </g>
  <g>
    <path fill="#413E3F" d="M661.768 473.711c-.737.704-1.66.943-2.054.536l-10.927-11.209c-.955-.981 1.076-2.44 6.375-7.479.74-.704 1.66-.943 2.054-.537l10.927 11.214c.954.977-1.072 2.432-6.375 7.475z"/>
    <path fill="#514D4F" d="M661.37 472.618c-.65.618-1.459.83-1.809.471l-9.608-9.86c-.841-.861.944-2.142 5.607-6.577.65-.618 1.459-.83 1.809-.471l9.608 9.86c.858.882-1.065 2.255-5.607 6.577z"/>
  </g>
  <g>
    <path fill="#413E3F" d="M670.796 461.029c-.74.7-1.913.683-2.619-.041l-19.518-20.024a1.815 1.815 0 01.055-2.587l5.756-5.473a1.868 1.868 0 012.618.041l19.519 20.028a1.814 1.814 0 01-.059 2.586l-5.752 5.47z"/>
    <path fill="#514D4F" d="M669.81 459.331a1.642 1.642 0 01-2.303-.038l-17.164-17.609c-1.497-1.537.44-2.641 5.113-7.086a1.641 1.641 0 012.3.035l17.163 17.612c1.508 1.544-.46 2.668-5.109 7.086z"/>
  </g>
  <g>
    <path fill="#413E3F" d="M699.736 470.445c-.74.704-1.677.926-2.093.499l-11.5-11.798c-1.007-1.032 1.037-2.477 6.336-7.52.741-.703 1.674-.925 2.093-.498l11.501 11.797c1.006 1.032-1.034 2.477-6.337 7.52z"/>
    <path fill="#514D4F" d="M699.3 469.311c-.65.618-1.473.813-1.84.437l-10.114-10.376c-.885-.909.914-2.18 5.573-6.615.65-.618 1.473-.813 1.84-.437l10.114 10.376c.882.909-.914 2.18-5.573 6.615z"/>
  </g>
  <g>
    <path fill="#413E3F" d="M708.857 461.138c-.74.701-1.674.926-2.093.499l-11.5-11.797c-1.007-1.032 1.037-2.477 6.336-7.52.737-.7 1.674-.926 2.093-.499l11.501 11.801c1.006 1.028-1.035 2.477-6.337 7.516z"/>
    <path fill="#514D4F" d="M708.418 460.001c-.651.618-1.474.813-1.84.437l-10.11-10.376c-.886-.909.913-2.18 5.572-6.611.65-.618 1.473-.813 1.84-.437l10.113 10.376c.882.909-.913 2.176-5.575 6.611z"/>
  </g>
  <g>
    <path fill="#413E3F" d="M719.099 451.869c-.74.701-1.674.926-2.093.499l-11.5-11.797c-1.007-1.032 1.034-2.474 6.336-7.517.741-.704 1.678-.926 2.093-.499l11.501 11.801c1.006 1.025-1.035 2.47-6.337 7.513z"/>
    <path fill="#514D4F" d="M718.66 450.735c-.651.618-1.474.813-1.841.437l-10.113-10.376c-.886-.908.913-2.179 5.575-6.611.651-.618 1.474-.813 1.84-.437l10.114 10.376c.882.909-.913 2.176-5.575 6.611z"/>
  </g>
  <g>
    <path fill="#413E3F" d="M621.459 432.286c-1.91 1.817-3.362-.807-50.005-48.659-1.653-1.698-2.397-3.642-1.657-4.346l5.756-5.473c1.913-1.818 3.358.81 50.001 48.658 1.653 1.698 2.397 3.642 1.657 4.346l-5.752 5.474z"/>
    <path fill="#514D4F" d="M618.692 428.756c-1.681 1.599-2.944-.693-43.973-42.789-1.456-1.493-2.106-3.204-1.456-3.823l5.06-4.81c1.678-1.599 2.94.697 43.973 42.789 1.456 1.493 2.106 3.204 1.456 3.819l-5.06 4.814z"/>
  </g>
  <g>
    <path fill="#413E3F" d="M700.099 438.538c-13.849-14.209-13.617-14.537-14.569-13.632-7.509 7.137-7.979 7.161-7.125 8.042l5.227 5.364-8.807 8.374c-.947.902.021 1.343 7.371 8.88.906.933 1.138.185 10.778-8.982 7.464-7.103 7.993-7.158 7.125-8.046z"/>
    <path fill="#514D4F" d="M675.264 447.53c-.28-.29-.55.144 9.281-9.204-6.047-6.204-5.953-5.941-5.67-6.211 7.627-7.219 7.216-7.025 7.492-6.744 14.023 14.414 13.566 13.703 13.255 13.994-17.713 16.836-16.675 16.047-16.966 15.75l-7.392-7.585z"/>
  </g>
  <path fill="#E8E8E8" d="M854.032 380.262L641.489 161.585l-68.7 105.48c107.823 111.547 65.67 68.163 171.75 176.707l109.493-63.51z"/>
  <path fill="#262222" d="M574.238 266.928l67.427-103.522 210.531 216.606-107.464 62.332c-102.607-104.991-63.473-64.703-170.494-175.416z"/>
  <path fill="#A783FF" d="M581.502 266.241l61.056-93.74 200.475 206.258-97.308 56.441c-98.837-101.126-61.132-62.308-164.223-168.959z"/>
  <path fill="#D3D1CF" d="M641.489 161.586c3.77-.53-11.241-14.514 211.758 215.509 0 0 2.311 2.282.785 3.167L641.489 161.586z"/>
  <path fill="#6630CE" d="M586.217 258.633l166.924 172.635-7.326 4.25-164.219-168.959 4.621-7.926z"/>
  <path fill="#F8FCFF" d="M629.11 323.236l138.15-30.151 19.328 19.427-141.374 27.848-16.104-17.124z" opacity=".3"/>
  <path fill="#F8FCFF" d="M639.576 334.73l138.154-30.152 19.325 19.424-141.374 27.851-16.105-17.123zM686.025 381.874l138.154-30.147 19.328 19.423-141.374 27.848-16.108-17.124z" opacity=".3"/>
  <path fill="#F8FCFF" d="M581.264 274.195l133.74-27.759 12.642 13.608-133.138 27.851-13.244-13.7z" opacity=".2"/>
  <g>
    <path fill="#D4E6FF" d="M564.81 665.052H287.022v40.527H564.81v-40.527z"/>
    <path fill="#E9F3FF" d="M413.08 666.709H287.022v37.387H413.08v-37.387z"/>
    <path fill="#9393E5" d="M569.68 664.502c0 5.945 10.37 3.867-282.326 3.867-4.199 0-5.177-3.867-4.8-3.867 0-5.941-10.37-3.868 282.325-3.868 4.798 0 4.742 3.868 4.801 3.868z"/>
    <path fill="#A9A9FF" d="M410.896 668.369H284.738c-2.951 0-2.85-7.735 0-7.735h126.158c2.875 0 2.85 7.735 0 7.735z"/>
    <path fill="#9393E5" d="M569.68 706.211c0 5.942 10.369 3.868-282.326 3.868-4.199 0-5.178-3.868-4.801-3.868 0-5.941-10.369-3.867 282.326-3.867 4.797 0 4.742 3.867 4.801 3.867z"/>
    <path fill="#A9A9FF" d="M410.896 710.075H284.738c-2.95 0-2.85-7.735 0-7.735h126.158c2.875.004 2.85 7.735 0 7.735z"/>
    <path fill="#D1DFFF" d="M564.81 674.195c-298.97 0-277.788 1.008-277.788-1.828 298.97 0 277.788-1.008 277.788 1.828zM565.01 677.225c-298.97 0-277.787 1.008-277.787-1.828 298.969.003 277.787-1.008 277.787 1.828zM564.71 680.419c-298.97 0-277.788 1.008-277.788-1.824 298.97 0 277.788-1.011 277.788 1.824zM564.91 683.453c-298.97 0-277.788 1.008-277.788-1.827 298.97 0 277.788-1.008 277.788 1.827zM564.962 686.713c-298.969 0-277.787 1.008-277.787-1.828 298.969 0 277.787-1.008 277.787 1.828zM565.163 689.743c-298.97 0-277.788 1.008-277.788-1.828 298.97.004 277.788-1.004 277.788 1.828zM564.862 692.941c-298.97 0-277.788 1.008-277.788-1.827 298.97-.004 277.788-1.012 277.788 1.827zM565.062 695.972c-298.969 0-277.787 1.008-277.787-1.828 298.969 0 277.787-1.008 277.787 1.828z"/>
    <path fill="#58997B" d="M512.733 683.453s8.62 10.732 10.491 40.914c13.683-4.271 8.537-3.724 22.479-1.732 0 0 .374-24.094-9.74-39.182h-23.23z"/>
    <path fill="#D4E6FF" d="M280.239 574.1s11.66 23.222 0 47.1l148.797 1.712V574.1H280.239z"/>
    <path fill="#E9F3FF" d="M429.036 574.1v48.812h111.717s-15.073-29.051 0-48.812H429.036z"/>
    <path fill="#D1DFFF" d="M533.192 589.221c-266.387 0-247.173.943-247.173-1.701 266.384 0 247.173-.943 247.173 1.701zM533.368 592.044c-266.384 0-247.173.942-247.173-1.702 266.387 0 247.173-.943 247.173 1.702zM533.103 595.019c-266.384 0-247.174.943-247.174-1.701 266.384 0 247.174-.947 247.174 1.701zM533.278 597.841c-266.387 0-247.173.943-247.173-1.701 266.387 0 247.173-.943 247.173 1.701zM533.192 600.872c-266.387 0-247.173.946-247.173-1.702 266.384.004 247.173-.943 247.173 1.702zM533.369 603.697c-266.384 0-247.174.943-247.174-1.701 266.388-.003 247.174-.946 247.174 1.701zM533.102 606.67c-266.384 0-247.173.946-247.173-1.702 266.384 0 247.173-.943 247.173 1.702zM533.279 609.492c-266.388 0-247.174.943-247.174-1.702 266.387 0 247.174-.943 247.174 1.702z"/>
    <g>
      <path fill="#8DBBFF" d="M543.503 571.005H276.677v6.19h266.826v-6.19z"/>
      <path fill="#5B93D6" d="M428.876 571.005H276.355v6.19h152.521v-6.19z"/>
    </g>
    <g>
      <path fill="#8DBBFF" d="M543.668 619.817h-266.83v6.19h266.83v-6.19z"/>
      <path fill="#5B93D6" d="M429.036 619.817H276.514v6.19h152.522v-6.19z"/>
    </g>
    <g>
      <path fill="#D4E6FF" d="M251.593 628.102s11.698 14.927 0 29.731h149.263v-29.731H251.593z"/>
      <path fill="#E9F3FF" d="M400.86 628.102v29.731h112.074s-15.122-17.483 0-29.731H400.86z"/>
      <path fill="#D1DFFF" d="M505.345 637.477c-266.66 0-247.955.58-247.955-1.056 266.657 0 247.955-.581 247.955 1.056zM505.525 639.226c-266.661 0-247.955.584-247.955-1.056 266.657.004 247.955-.58 247.955 1.056zM505.255 641.071c-266.657 0-247.958.584-247.958-1.056 266.66 0 247.958-.58 247.958 1.056zM505.435 642.82c-266.657 0-247.955.581-247.955-1.052 266.657-.004 247.955-.584 247.955 1.052z"/>
      <g>
        <path fill="#D1DFFF" d="M505.345 644.699c-266.66 0-247.955.581-247.955-1.055 266.657 0 247.955-.581 247.955 1.055zM505.525 646.449c-266.661 0-247.955.584-247.955-1.053 266.657 0 247.955-.584 247.955 1.053z"/>
        <g>
          <path fill="#D1DFFF" d="M505.255 648.294c-266.657 0-247.958.58-247.958-1.053 266.66-.003 247.958-.584 247.958 1.053zM505.435 650.043c-266.657 0-247.955.58-247.955-1.056 266.657 0 247.955-.581 247.955 1.056z"/>
        </g>
      </g>
      <g>
        <path fill="#8DBBFF" d="M515.694 626.182H248.02v3.837h267.674v-3.837z"/>
        <path fill="#5B93D6" d="M400.697 626.182H247.695v3.837h153.002v-3.837z"/>
      </g>
      <g>
        <path fill="#8DBBFF" d="M515.852 656.446H248.178v3.84h267.674v-3.84z"/>
        <path fill="#5B93D6" d="M400.86 656.446H247.857v3.84H400.86v-3.84z"/>
      </g>
      <path fill="#7474CE" d="M320.172 641.071s-19.982 17.168-20.795 35.027c0 0 11.418-2.819 15.292.85 0 0 4.074-26.208 28.338-35.874h-22.835v-.003z"/>
    </g>
    <path fill="#FFC1AE" d="M533.618 384.44c0 .475-2.574-30.592-21.891-61.593-35.775-49.991-131.178-29.878-131.178-29.878-68.07 11.394-83.6 67.993-87.114 90.904.083 0-13.414 60.285-11.546 80.156l22.472 13.789c29.238-.946-5.582-3.475 198.037 17.773l-4.185-47.357c8.765 1.124 13.137-3.516 18.553-8.821l1.515 41.118c25.769-16.676 15.337-96.091 15.337-96.091z"/>
    <path fill="#FFE8E3" d="M435.096 343.267s-14.074-5.415-21.971 9.215c-7.897-14.627-21.974-9.215-21.974-9.215-12.417 7.209 11.774 34.897 22.105 44.849 0-.741 36.848-36.137 21.84-44.849z"/>
    <path fill="#BBF" d="M283.463 565.794c3.189 8.494 8.349 7.896 10.625 8.193 2.276.301 10.934-4.947 18.522-2.549 7.589 2.399 50.866 3.683 52.534 2.067 1.667-1.616-63.011-23.509-63.011-23.509-11.801 3.803-22.793 4.814-18.67 15.798z"/>
    <path fill="#82442B" d="M480.403 358.792s1.792 21.08 5.97 22.847l5.818-17.097-11.788-5.75z"/>
    <path fill="#3A1672" d="M578.441 495.41c-10.017-7.5-33.094-22.194-75.908-6l-203.128-15.299s-31.881-25.194-70.44-16.194c0 0-26.114 11.397-18.522 31.791 7.592 20.393 11.234 68.081 177.622 86.678 0 0-1.822-23.394 11.844-32.092l78.945 36.888s94.125-19.792 101.413-54.282c-.003 0 8.194-23.994-1.826-31.49z"/>
    <path fill="#271056" d="M259.631 468.716s98.377 32.392 140.278 75.581c141.823-71.273 118.569-50.046 125.753-61.163l-24.658 6.163c-.003 0-214.051-12.183-241.373-20.581z"/>
    <path fill="#82442B" d="M388 574.896s14.333 4.94 16.461 5.087l3.31-32.013-7.866-3.676c0 .003-13.641 7.369-11.905 30.602z"/>
    <path fill="#BBF" d="M405.529 546.979s-5.631 25.963-2.414 34.043c0 0 50.285-2.119 58.462 0 8.18 2.118 22.527 9.139 26.951 2.514 4.424-6.621-1.474-26.225-13.275-29.536-11.798-3.314-38.352 3.178-42.105-1.189-3.756-4.373-12.472-12.849-22.527-5.828.003-.004-2.141 1.055-5.092-.004z"/>
    <path fill="#82442B" d="M472.126 329.249s-6.79 2.286-1.269 8.989c1.691.492 1.269 2.224 1.269-8.989z"/>
    <path fill="#D6988B" d="M504.722 384.44s21.598 43.787 20.937 76.179c0 0 1.145 26.933-19.038 20.516-20.182-6.419-24.744-12.419-24.744-12.419l4.42-82.188s8.772 10.208 18.425-2.088z"/>
    <path fill="#fff" d="M508.302 317.828l-36.85-2.136v43.695s14.309 6.747 29.013 2.968c.314-6.539-.931 1.312 7.837-44.527z"/>
    <path fill="#965C40" d="M505.387 339.492c-1.63-7.476-4.345-11.695-2.605-13.41 2.359-2.33 12.417 11.148 10.294 14.295-.595.881-1.194 7.072-1.194 9.283 0 2.21 1.788 8.988-1.342 11.64-2.743 5.172-.443 6.023-2.795 8.548-1.234 1.326-3.621 11.052-3.175 12.675.446 1.62-3.113 8.549-6.406 9.136-3.289.591-12.69-.587-13.586-10.612 0 0 2.089-10.758 4.624-13.41 0 0-4.475-6.484-5.52-5.893 0 0-6.115-2.358-4.773-5.6 1.812-4.38 14.081 3.902 19.252 6.338 0 0-6.873-8.108-11.051-9.727-4.178-1.62-6.714-4.421-4.625-6.632 3.293-3.488 16.644 4.907 20.888 7.223l-5.216-9.433s-12.092-3.536-10.75-6.338c3.027-6.293 11.674-1.114 17.98 1.917z"/>
    <path fill="#82442B" d="M505.003 339.308c5.434 3.826 6.108 4.673 5.987 7.625 1.505-8.514.844-7.256-8.204-20.851 0 0-1.567 2.135 1.643 8.989l.574 4.237zM503.38 353.346s2.536 2.211 2.833 3.905c.298 1.695.747-3.02 0-4.199-.747-1.178-5.821-9.433-5.821-9.433s-13.562-4.079-12.86-6.276c0 0-2.819 2.228 10.778 6.833l5.07 9.17zM497.736 362.28c2.22 3.564 4.15 4.104 4.15 5.655 0 0-1.84-7.37-2.075-7.886-.239-.516-12.047-9.358-12.521-9.874-.474-.515-5.157-2.285-5.348-3.242 0 0-1.037 3.577 5.348 5.894 0 0 7.564 4.827 10.446 9.453z"/>
    <path fill="#D6988B" d="M350.336 360.955s-22.365 38.627-21.604 102.554c0 0 5.244-123.993 12.355-133.344l9.249 30.79z"/>
    <g>
      <path fill="#D6988B" d="M338.472 329.167c-3.877 5.556 11.861 31.788 11.861 31.788s-7.983-37.343-11.861-31.788zM328.971 339.701c-2.909 6.894 21.255 23.564 21.255 23.564s-18.346-30.459-21.255-23.564z"/>
    </g>
    <path fill="#82442B" d="M336.812 310.038s83.999-57.931 162.764 0c0 0-80.803 25.084-162.764 0z"/>
    <path fill="#B0D4FF" d="M471.452 312.245v6.498s17.031 5.378 36.262 2.17l1.024-5.842-37.286-2.826z"/>
    <path fill="#8DBBFF" d="M508.721 315.364c-.26 3.441-37.439.738-37.183-2.709.256-3.44 37.442-.738 37.183 2.709z"/>
    <g>
      <path fill="#8DBBFF" d="M506.621 481.706c0 6.693-5.492 12.118-12.268 12.118H321.811c-6.776 0-12.269-5.425-12.269-12.118v-95.561c0-6.693 5.497-12.119 12.269-12.119h172.542c6.776 0 12.268 5.426 12.268 12.119v95.561z"/>
      <path fill="#B0D4FF" d="M506.313 480.906c0 6.454-5.496 11.689-12.268 11.689H321.503c-6.776 0-12.268-5.235-12.268-11.689v-92.161c0-6.457 5.492-11.688 12.268-11.688h172.542c6.776 0 12.268 5.234 12.268 11.688v92.161z"/>
      <path fill="#8DBBFF" d="M436.466 411.851c0 8.61-56.062 8.613-56.062 0 0-8.61 56.062-8.613 56.062 0zM500.437 493.763c0 2.579 9.059 1.657-183.243 1.657-2.221 0-2.221-3.314 0-3.314 192.288 0 183.243-.919 183.243 1.657z"/>
    </g>
    <g>
      <path fill="#6630CE" d="M239.95 450.175c2.605-.157 23.303 45.447-40.793 62.413.003 0-19.948-58.775 40.793-62.413zM560.797 478.05s-28.833 50.295 31.286 55.143c-.004-.003 6.132-69.687-31.286-55.143z"/>
    </g>
    <g>
      <path fill="#E1E1FF" d="M402.814 550.16s9.768 3.03 15.62 3.03c5.856 0 15.005 7.875 31.898 5.453 16.896-2.422 38.981 5.053 31.008 27.674 0 0 11.242 7.073 14.822 0 3.583-7.072-3.4-50.097-10.031-53.124-6.631-3.03-73.234-4.848-73.234-4.848l-10.083 21.815z"/>
    </g>
    <g>
      <path fill="#351E1A" d="M409.953 170.803s-20.964-9.002-26.36 5.439c-.325.875-.622 1.692-.895 2.457-5.13 1.356-15.209 5.606-14.514 17.937-10.888 7.636-8.325 15.467-6.949 21.394-4.119 1.49-11.708 5.815-6.073 16.471-4.487 1.521-6.797 10.971-3.12 17.609-2.636 2.57-5.216 6.95-1.328 12.618-3.006 2.675-.72 5.5.615 8.336-2.3 1.558-5.091 4.609-3.206 9.638-3.535 4.995-4.988 11.295 2.84 14.493 9.449 3.861 30.801 6.174 36.871-5.176 6.074-11.35 7.834-10.731 10.653-13.294 2.819-2.562 6.361-12.733 1.657-18.466.415-14.592 15.094-80.036 9.809-89.456z"/>
      <path fill="#210E0C" d="M380.276 234.795s-11.521 1.643-6.72 11.729c0 0-12.836 2.904-7.71 15.016 0 0-13.168 5.668-2.719 18.811 0 0-4.136 10.602 3.802 13.779 0 0 12.548 9.659 22.292-4.506 0 0 13.521-16.827 11.909-31.231-1.619-14.401-11.605-21.616-11.605-21.616l-9.249-1.982z"/>
      <path fill="#82442B" d="M385.198 224.054s-2.269-5.228-6.821-2.085c-4.555 3.144-1.653 21.487 10.36 20.571l-3.539-18.486zM395.215 258.243s4.919 14.982-7.955 34.381c0 0 32.541 14.09 47.569-4.934 0 0-13.579-25.89-12.206-31.33l-27.408 1.883z"/>
      <path fill="#6B3624" d="M394.298 257.14s4.231 28.562 30.819 14.783l1.958-13.84-32.777-.943zM386.879 227.552s-6.354-5.043-7.644-.219c-1.287 4.821 5.382 12.068 9.657 9.796l-2.013-9.577z"/>
      <path fill="#965C40" d="M397.045 194.042s-23.797 15.816-6.281 57.498c9.072 21.596 37.95 19.621 43.799-6.676 18.609-40.838-11.48-64.358-37.518-50.822z"/>
      <path fill="#491212" d="M401.562 245.841c7.828-4.787 8.087-1.1 10.702-1.999 1.242-.427 2.674-.854 4.445-.007 1.771.848 4.209 2.734 4.638 2.59 0 0-13.33 1.907-19.785-.584z"/>
      <path fill="#280606" d="M401.275 245.981s2.587 4.103 5.313 4.855c2.726.752 7.502 1.216 9.221.41 1.719-.806 4.68-3.123 5.538-4.824 0 .003-10.75 1.814-20.072-.441zM401.275 245.981s-2.774-2.402-3.3-1.599c-.526.803 3.013 1.743 3.3 1.599zM421.347 246.425s2.39-.577 3.154-1.353c.761-.775 1.052 2.197-3.154 1.353z"/>
      <path fill="#6B3624" d="M417.027 225.472s-2.217-6.864 1.902-10.462c4.123-3.598 11.836-7.971 16.983-.834 0 0 3.372 4.503-2.272 5.727 0 0-9.415-7.134-16.613 5.569z"/>
      <path fill="#351E1A" d="M436.279 213.052s-4.179-3.04-7.72-1.964c-3.539 1.076-9.716 5.241-10.54 5.029-.823-.212-.93-3.051.111-3.775 1.041-.725 8.218-4.233 10.062-3.991 1.843.239 6.641 1.954 8.087 4.701z"/>
      <path fill="#000" d="M428.306 224.487c-.207 6.994-4.943 6.912-4.742-.136.208-6.963 4.946-6.936 4.742.136z"/>
      <path fill="#fff" d="M429.742 224.891c-.066 2.289-3.442 2.193-3.376-.099.069-2.293 3.441-2.187 3.376.099z"/>
      <path fill="#351E1A" d="M489.082 257.109c2.58-6.222-.744-6.198-4.41-13.134 5.689-11.237-1.502-17.045-6.555-19.573-.291-4.578 2.148-7.742-7.215-17.94 3.407-10.144-5.756-14.541-11.262-16.222-.689-3.608.802-5.986-4.594-7.24-2.296-7.168-8.308-8.145-12.026-8.008-7.571-5.928-20.667-3.335-20.618-3.335-4.524-1.81-9.267-1.681-14.642 1.066l1.367 17.592c32.25 7.089 22.375 26.28 25.54 31.32 2.497 3.976 1.262 6.963-1.484 9.34-2.75 2.375-2.805 4.264-2.169 8.627.637 4.363-2.189 5.077-2.808 8.818-.619 3.742 1.484 5.822 1.684 7.65.204 1.828-10.338 2.747-9.083 12.088 1.256 9.344 7.101 7.81 6.358 15.723-.744 7.913 12.095 19.993 22.282 11.787a113.075 113.075 0 003.14-2.641c6.306 3.594 14.922 5.934 21.587-1.927 5.074 4.086 10.615 5.275 14.102-2.252 4.088-8.821 6.499-14.561 3.725-20.171 3.642-5.702.01-9.576-2.919-11.568z"/>
      <path fill="#000" d="M417.026 225.472c6.51-14.073 18.637-4.199 20.083-4.336 0 0-.979.666-2.439.499 0 0 1 .748 1.761.915 0 0-1.612.605-2.982-.536-1.366-1.148-9.775-5.798-16.423 3.458z"/>
      <path fill="#6B3624" d="M405.782 224.833s2.618-6.724-1.283-10.554c-3.902-3.827-11.349-8.637-16.904-1.807 0 0-3.635 4.304 1.93 5.849.004 0 9.823-6.581 16.257 6.512z"/>
      <path fill="#000" d="M394.582 223.203c-.204 7.028 4.535 7.154 4.739.136.207-6.962-4.528-7.205-4.739-.136z"/>
      <path fill="#fff" d="M393.129 223.524c-.065 2.293 3.311 2.381 3.376.099.07-2.289-3.31-2.391-3.376-.099z"/>
      <path fill="#000" d="M405.782 224.832c-5.648-14.387-18.377-5.265-19.792-5.48 0 0 .934.721 2.404.639 0 0-1.041.69-1.809.81 0 0 1.574.697 3.006-.366 1.436-1.062 10.1-5.224 16.191 4.397z"/>
      <path fill="#351E1A" d="M387.741 211.282s4.351-2.798 7.82-1.52c3.469 1.274 9.391 5.791 10.224 5.627.834-.164 1.111-2.989.115-3.775-.997-.783-7.959-4.698-9.813-4.561-1.851.133-6.738 1.568-8.346 4.229z"/>
      <path fill="#6B3624" d="M415.709 232.663s2.338 2.46-.287 3.502c0 0-2.183-.314-3.186.127-1.944.461-1.823-.636-5.019-.362-2.559-1.193-.079-3.513-.079-3.513-2.245.902-3.134 4.363 1.207 4.23-.035.048 1.954.926 2.93.851.287-.024 2.947-.632 2.971-.684 4.327.39 3.656-3.119 1.463-4.151z"/>
      <path fill="#280606" d="M412.862 237.095c.087-.028 2.207-.848 2.722-.38.519.472-2.722.38-2.722.38zM409.504 237.115c-.083-.031-2.155-.974-2.698-.533-.54.441 2.698.533 2.698.533z"/>
      <path fill="#210E0C" d="M409.13 190.312s7.544-11.576 15.883-7.746c8.34 3.827-.2 14.538 9.042 18.962 9.242 4.421 17.709 15.621 11.791 21.777-5.918 6.16-18.56 18.829-10.681 27.746 7.883 8.914 12.334 13.577 5.835 20-6.499 6.427.509 21.737 12.061 19.048 11.553-2.692 10.688.717 13.746.789 3.057.072 1.726-2.59 10.888 2.477 9.163 5.07-8.72 14.835-24.309 11.702-15.589-3.13-37.978-3.396-37.653-13.967.311-10.561-6.603-100.788-6.603-100.788z"/>
      <path fill="#351E1A" d="M340.24 284.663c3.663-4.127-2.148-5.449-3.49-12.785-1.353-7.414 3.881-4.089 9.173-8.234 3.154-2.466 2.079-3.662-.64-5.855-13.12-10.582 6.803-8.292 3.569-21.798-2.341-9.758-.816-11.381 3.722-14.408 2.269-1.513 4.23-2.822 3.054-5.989-2.532-6.823-.411-12.648 2.992-14.879 4.068-2.661 6.095-4.411 6.582-9.231.315-3.096.706-6.946 6.04-9.888 7.038-3.881 8.564-6.327 8.578-6.351 8.418-11.231 21.655-10.53 30.24-4.602-.75 1.076-17.242-12.112-29.922 4.81-.049.085-1.553 2.525-8.71 6.474-10.449 5.761-.373 11.094-12.597 19.106-3.199 2.094-5.281 7.865-2.843 14.431 2.539 6.833-8.36 5.641-7.852 13.803.512 8.285 3.857 10.322-.532 15.31-4.338 4.923-8.218 5.101-5.579 9.361 1.999 3.232 6.222 4.684 6.205 7.031-.021 2.675-4.984 4.801-7.793 5.511-2.643.666-4.099 1.032-3.31 5.33.55 3.017 1.923 5.036 3.02 6.659 4.693 6.912-2.947 5.952-1.1 11.971.702 2.3 2.985 4.172 6.104 5.002-.411 1.517-10.881-4.052-4.911-10.779z"/>
      <path fill="#351E1A" d="M493.876 291.418c-.872-1.073 6.374-2.423 3.905-13.222-1.539-6.724-1.166-6.352 1.681-11.032 2.867-4.732-.824-12.307-4.473-15.737-4.216-3.96-5.682-8.063-3.922-10.974 1.75-2.894 1.301-4.828-1.404-10.988-1.187-2.699-2.698-3.734-3.916-4.568-5.755-3.942 1.522-10.362-5.001-15.268-2.542-1.917-7.219.318-5.583-7.892 1.453-7.288-4.936-13.137-9.584-14.428-2.28-.633-5.116-1.422-7.378-9.659-3.161-11.538-13.576-10.239-16.692-9.566-12.196 2.63-18.903-5.955-26.229-2.167-2.407 1.244-4.144 3.639-4.929 6.208-4.355-8.931-16.775-8.37-26.868-4.304-.018.01-4.324 2.552-10.695 7.472-.557-.704 9.73-7.37 10.525-7.811 9.813-3.953 21.867-4.797 26.955 3.663 1.982-5.087 6.818-7.995 13.514-5.842 10.733 3.447 12.507 3.525 17.644 2.415 3.199-.69 13.894-2.023 17.142 9.836 2.805 10.226 6.409 8.641 8.875 10.042 3.663 2.084 9.591 6.699 8.094 14.216-2.314 11.602 10.383 1.093 8.273 17.865-.729 5.805 3.483 3.457 6.202 9.641 2.726 6.205 3.203 8.316 1.38 11.333-1.66 2.747-.218 6.676 3.86 10.506 3.684 3.461 7.883 10.82 3.76 17.459-2.093 3.368-2.217 3.573-.861 9.498 1.601 6.993-.353 10.174-4.275 13.304z"/>
      <path fill="#60342E" d="M352.387 286.279c-.335-8.141 3.902-3.56 3.522-9.149-.405-5.89-1.325-7.237.37-12.365 1.691-5.111 2.957-3.662 2.317-7.373-.744-4.318-.671-5.75 4.344-9.874 3.93-3.232 4.988-4.096 1.273-11.267-4.071-7.855.924-8.173 6.908-11.473 5.897-3.253 1.618-6.263 2.428-18.012.816-11.849 3.749-3.653 10.027-12.457 6.337-8.883 2.221-8.5 12.12-9.72 8.585-1.056 12.552 4.018 13.424 5.333 11.791-23.478 25.173-9.057 23.53.694-.377 2.234-.626 3.714 3.359 5.125 5.811 2.056 18.598 9.047 21.04 17.509 3.321 11.487-23.79 24.794-13.517 34.689 6.579 6.334 11.891 15.094 4.929 21.015-4.729 4.018-9.927 10.226-4.258 12.788-.401.851-8.229-2.685 4.005-13.075 6.769-5.75 1.443-14.312-4.943-20.458-7.066-6.806 2.647-15.136 11.453-26.096 8.291-10.318-7.592-22.033-18.837-26.021-8.858-3.136 1.923-6.898-7.658-16.177-7.074-6.853-15.012 2.276-18.91 10.479-.543 1.144-2.698-6.769-13.569-5.433-6.758.834-6.758.834-8.311 3.786-9.319 17.691-12.591 4.886-13.5 18.043-.945 13.782 4.911 14.804-5.683 19.853-4.801 2.289-6.724 3.584-3.694 9.43 3.981 7.684 2.611 8.442-2 12.252-7.561 6.242-1.47 8.603-4.143 12.784-6.043 9.41.743 17.391-3.729 19.779-1.027.543-2.089 1.11-1.913 5.374l-.384.017z"/>
      <path fill="#874138" d="M462.639 277.229c-3.525-6.901 6.506-6.075 10.996-16.642 6.253-14.712-18.99-12.87-20.868-18.634-1.625-4.988 10.802-13.994 14.981-28.487 6.938-24.08-25.596-13.383-30.39-25.986-5.372-14.138-16.976-18.935-26.82-6.974-.858-.676 10.774-13.536 20.736-3.139 10.01 10.437 3.293 13.187 14.344 15.965 12.054 3.017 38.995 2.358 12.248 38.884-4.573 6.239-7.506 10.123-1.387 12.149 7.993 2.641 15.758 4.295 17.968 9.003 2.574 5.48-3.126 12.802-8.526 16.796-2.926 2.162-4.69 3.471-2.94 6.894l-.342.171z"/>
      <path fill="#FFC200" d="M384.403 241.369c-.094 3.239-3.345 3.143-3.248-.093.093-3.238 3.345-3.139 3.248.093z"/>
      <path fill="#BC8169" d="M417.179 258.233c-.083 2.682-8.371 2.446-8.291-.239.079-2.679 8.374-2.447 8.291.239zM414.28 233.61c.236.857-2.421 1.568-2.653.707-.235-.861 2.422-1.568 2.653-.707z"/>
    </g>
  </g>
  <g>
    <path fill="#7187E2" d="M159.172 554.082s26.447 26.434 37.951 46.622c11.504 20.185 6.174 21.955 6.343 22.597.17.643-7.983 1.886-7.983 1.886l.609 7.944s16.163 3.023 18.339-1.076c2.172-4.1 3.974-10.318.124-17.903l-34.983-58.683s-32.513-42.854-41.091-42.266l20.691 40.879z"/>
    <path fill="#89F" d="M135.984 508.676s14.264 11.74 25.436 22.58c11.172 10.841 62.204 89.254 59.313 102.165-2.892 12.915-21.272 11.08-24.752 8.19 0 0-1.916-8.128-3.009-10.106-1.089-1.978 17.727 2.549 21.058-2.173 7.429-10.54-48.85-100.023-74.459-114.161l-3.587-6.495z"/>
    <path fill="#5B76E8" d="M19.068 535.957s24.454-29.208 58.741-36.297c34.292-7.086 46.743-5.361 50.745-3.485 19.941 9.348 60.433 109.576 60.451 109.61 23.727 49.782 6.779 35.802 1.196 45.884-2.601 4.698-10.784 12.033-12.994 14.729-2.211 2.695-40.867-102.978-43.88-105.753-3.012-2.774-44.653-46.673-61.865-42.908-17.207 3.768-25.34 4.308-52.394 18.22z"/>
    <path fill="#6586EF" d="M16.128 537.44c17.256-11.111 33.257-23.96 47.293-24.534 12.15-.496 29.376-5.914 35.626-4.332 8.993 2.279 25.889 9.884 23.724 4.086-1.252-3.355 1.18-4.664 3.999-5.265 2.822-.601 7.246-4.435 5.503-7.175-1.744-2.736-.17-5.036-3.269-5.934-3.096-.899-20.068-2.757-25.097-2.795-5.03-.041-56.788 13.704-61.495 18.62-4.711 4.913-25.143 23.827-26.284 27.329z"/>
    <path fill="#768EF4" d="M52.363 706.068S13.696 643.35 3.55 608.146c-10.141-35.204 1.622-69.015 32.929-86.224 31.306-17.212 67.752-25.098 84.762-5.678 17.015 19.42 31.386 75.065 35.537 85.284 4.154 10.219 23.233 54.904 21.825 60.422-1.408 5.521-15.547 21.92-44.464 34.548-28.909 12.631-69.903 19.669-81.777 9.57z"/>
    <path fill="#9FB1FF" d="M175.622 667.266c18.343-13.926 25.011-15.652 26.544-25.133 1.134-7.021-17.163-50.479-17.163-50.479-12.31 4.452-27.664 7.766-29.234 7.113-2.103-.875 26.993 59.206 19.853 68.499z"/>
    <path fill="#C2CFFF" d="M155.772 598.767s9.149-.153 12.158-.488c3.009-.335 16.385-3.321 17.256-5.439.872-2.115-4.835-3.092-4.835-3.092-3.22 4.738-5.24 3.618-24.579 9.019z"/>
    <path fill="#3F5DB2" d="M161.033 597.992c13.836-3.728 15.977-2.86 19.595-7.537 12.891 2.648-9.841 7.236-19.595 7.537z"/>
    <path fill="#899FEF" d="M175.623 667.266s9.248-6.731 9.494-13.458c.246-6.727-3.895-22.081-.647-22.242 3.248-.161 11.345 18.521 1.937 27.818.004-.004-9.404 7.427-10.784 7.882z"/>
    <path fill="#899FEF" d="M190.88 656.258c-.294.212 6.115-9.939 3.801-16.998.463-8.684 11.296 6.167-3.801 16.998z"/>
    <path fill="#3F5DB2" d="M49.571 513.026S71 503.968 76.848 502.468c5.849-1.499 30.234-4.178 36.384-3.368 6.149.813 15.796 3.717 18.027 5.473 2.235 1.756 29.428 56.161 36.066 73.193 6.641 17.035 5.952 16.505 5.952 16.505l-3.037.677c-2.13-4.831-38.396-86.402-43.477-87.553-2.767-.625-18.242-5.487-20.757-5.507-2.511-.021-24.44-1.958-56.435 11.138z"/>
    <path fill="#A9BAFF" d="M61.456 713.191s-38.698-75.212-39.94-85.533c-1.241-10.325-14.281-51.119-4.25-70.255 10.03-19.136 23.132-19.594 34.872-24.538 11.74-4.94 22.358-5.709 29.978-7.612 7.62-1.899 16.194-1.479 20.542 1.357 4.344 2.835 19.85 26.915 25.339 45.945 5.49 19.031 41.334 93.259 37.927 104.663-3.404 11.404-19.048 20.37-33.945 25.638-14.898 5.272-63.024 19.898-70.523 10.335z"/>
    <path fill="#89F" d="M56.437 716.191s-35.73-69.667-36.74-79.299c-1.01-9.631-12.784-47.551-2.846-65.614 9.933-18.064 22.479-18.713 33.803-23.534 11.324-4.82 21.5-5.715 28.826-7.622 7.322-1.906 15.527-1.657 19.636.923 4.113 2.576 18.533 24.831 23.455 42.532 4.922 17.698 37.94 86.494 34.484 97.215-3.458 10.721-18.584 19.368-32.935 24.544-14.351 5.18-60.668 19.669-67.683 10.855z"/>
    <path fill="#6586EF" d="M13.606 581.322s6.033-15.651 12.974-20.209c6.942-4.561 47.518-19.248 55.256-19.843 7.74-.591 16.66-1.353 18.671.977 2.009 2.33-.46-1.431-3.051-5.535-2.59-4.099 1.238-3.717 2.431-4.069 14.324-4.236-6.464-18.504-52.232 1.917-32.849 4.544-39.03 45.338-34.049 46.762z"/>
    <path fill="#3F5DB2" d="M21.914 556.843s5.711-7.469 13.38-11.046c7.671-3.577 42.92-14.305 47.34-15.033 4.421-.727 8.136-.714 11.218-.174 3.078.54 11.819 5.545 16.398 13.888 0 0-13.178-12.087-23.655-9.224-25.907 7.079-52.627 11.985-64.68 21.589z"/>
    <path fill="#5B76E8" d="M34.726 646.982s-14.233 12.525-15.115 14.961c-.879 2.436 17.937-1.097 26.335-2.682 40.846-7.725 5.811-3.659 51.576-8.702l14.015-7.54 6.534-17.438c-31.116 4.533-54.049 11.489-83.345 21.401z"/>
    <path fill="#4262C6" d="M23.73 658.991l11.584-11.271c67.399-18.248 23.077-9.611 79.163-20.206l-11.563 9.97s-18.74 6.033-21.722 6.347c-2.978.315-11.919 2.597-13.967 2.58-3.403-.027-34.415 5.958-43.495 12.58z"/>
    <path fill="#5B76E8" d="M61.034 612.054c-12.22-35.84-14.915-45.546-13.531-54.911l10.093-3.86s10.394 49.072 19.674 66.24l-16.236-7.469z"/>
    <path fill="#3F5DB2" d="M52.601 558.247s4.369 25.31 8.405 43.469c0 0-3.043-26.612-8.405-43.469z"/>
    <path fill="#5BAEDD" d="M57.492 590.07L10.1 637.083l70.426 69.269 47.393-47.013-70.425-69.269z"/>
    <path fill="#7BCAFF" d="M81.385 710l45.958-45.59-70.426-69.268-47.393 47.012c76.568 75.308 68.288 68.379 71.86 67.846z"/>
    <path fill="#A9E0FF" d="M18.954 632.942l-7.06 7.005 70.436 69.26 7.06-7.005-70.436-69.26z"/>
    <path fill="#5BAEDD" d="M10.11 637.077l2.275 2.238c-3.787 3.758-3.012 4.158-2.276-2.238z"/>
    <path fill="#388BAF" d="M56.918 595.139l.585-5.077 49.333 48.525-2.808 2.891-47.11-46.339z"/>
    <path fill="#A9E0FF" d="M10.586 640.063c-.079-3.676-5.26 2.59 46.81-49.075-.565 4.906 6.222-3.048-46.81 49.075z"/>
    <path fill="#91D5F2" d="M56.998 594.449c53.902 52.358 47.87 47.862 49.946 45.46l-49.549-48.918-.397 3.458z"/>
    <path fill="#ABBBFF" d="M49.634 713.693s-29.12-45.406-30.023-51.75c0 0 29.407-12.761 42.17-13.4 12.763-.639 19.94-3.765 30.362-5.713 10.425-1.947 12.531-4.181 12.531-4.181s20.594 49.444 26.084 52.679c.003 0-38.107 23.028-81.124 22.365z"/>
    <path fill="#9FB1FF" d="M118.067 625.581l-13.392 13.068s8.56 43.096 26.083 52.68c9.249-9.847 11.532-12.758 11.359-15.207.003 0-6.811-8.894-24.05-50.541z"/>
    <path fill="#5B76E8" d="M24.024 658.704c15.797-6.208 31.192-12.549 46.871-12.207 2.114.044 27.816-6.922 29.608-7.715 1.788-.789 4.659-3.232 4.659-3.232l1.564 1.1s-2.439 2.412-3.349 2.853c-6.848 3.324-72.674 15.463-83.766 22.443l4.413-3.242z"/>
    <path fill="#E5F" d="M71.373 646.452l-30.428-13.615-12.317 20.824 1.173 2.778c7.692-2.99.574-1.281 41.572-9.987z"/>
    <path fill="#EEF2FF" d="M35.816 613.619l13.555-13.246-.865-4.598-13.099 13.577.409 4.267z"/>
    <path fill="#D7E1FF" d="M89.77 664.3c3.376 10.919-41.558 24.486-44.934 13.557-3.38-10.923 41.555-24.487 44.934-13.557z"/>
    <path fill="#7BCAFF" d="M53.252 681.232c-22.013-1.308 5.209-21.667 28.1-20.311 22.015 1.309-5.21 21.668-28.1 20.311z"/>
    <g>
      <path fill="#A211B7" d="M112.492 555.186c1.528 2.617 3.282 1.906 4.119 1.325.944-.382 2.501-1.452 1.103-4.137-6.686-12.846-12.517-9.693-5.222 2.812zm.418-5.385c-1.297.697-3.991-4.185-2.694-4.882 1.293-.697 3.988 4.185 2.694 4.882z"/>
      <path fill="#E5F" d="M112.917 554.957c1.529 2.617 3.283 1.903 4.12 1.325.944-.382 2.504-1.452 1.103-4.137-6.672-12.822-12.528-9.71-5.223 2.812zm.419-5.385c-1.297.697-3.992-4.185-2.695-4.882 1.294-.697 3.988 4.185 2.695 4.882z"/>
      <path fill="#EF80FF" d="M117.21 555.787c-1.533.82-2.653 1.23-3.964-1.018-1.712-2.935-3.819-7.93-3.321-9.676.225-.803-.456.567.744 2.744 2.044 3.707 4.669 2.278 2.629-1.418-1.197-2.166-2.757-2.358-1.93-2.105 1.753.533 4.859 4.988 6.43 8.002 1.421 2.73-.599 3.498-.588 3.471z"/>
    </g>
    <g>
      <path fill="#A211B7" d="M170.642 597.821c1.525 2.617 3.279 1.903 4.119 1.329.945-.383 2.504-1.452 1.104-4.137-6.686-12.85-12.518-9.693-5.223 2.808zm.415-5.385c-1.294.697-3.992-4.185-2.695-4.882 1.297-.697 3.992 4.185 2.695 4.882z"/>
      <path fill="#E5F" d="M171.064 597.592c1.529 2.617 3.282 1.903 4.119 1.329.945-.383 2.505-1.452 1.104-4.137-6.672-12.823-12.528-9.717-5.223 2.808zm.418-5.384c-1.297.697-3.991-4.186-2.691-4.883 1.294-.697 3.989 4.186 2.691 4.883z"/>
      <path fill="#EF80FF" d="M175.36 598.422c-1.533.82-2.657 1.227-3.964-1.018-1.712-2.935-3.819-7.93-3.321-9.676.232-.819-.456.568.744 2.744 2.003 3.632 4.704 2.344 2.632-1.415-1.196-2.169-2.75-2.357-1.93-2.104 1.754.533 4.86 4.988 6.43 8.001 1.418 2.73-.602 3.496-.591 3.468z"/>
    </g>
    <path fill="#899DE8" d="M137.181 684.277c-7.627-15.758-3.857-22.263-.467-11.583 1.511 4.756.467 11.583.467 11.583zM135.268 686.422s-10.961-16.686-12.76-18.282c-1.798-1.598-6.222.233.575 8.299 6.796 8.07 12.185 9.983 12.185 9.983z"/>
    <g>
      <path fill="#A7BCFC" d="M49.959 556.46c-2.843 1.086-2.31 1.056-2.546.454 2.843-1.083 2.31-1.052 2.546-.454z"/>
    </g>
    <g>
      <path fill="#A7BCFC" d="M54.611 554.68c-3.324 1.271-2.774 1.237-3.01.636 3.325-1.271 2.775-1.237 3.01-.636z"/>
    </g>
    <g>
      <path fill="#A7BCFC" d="M58.602 556.747c-.667.14-.363.629-1.245-3.416.668-.144.36-.629 1.245 3.416z"/>
    </g>
    <g>
      <path fill="#A7BCFC" d="M59.851 562.241c-.667.147-.346.673-1.335-3.646.668-.146.35-.669 1.335 3.646z"/>
    </g>
    <g>
      <path fill="#A7BCFC" d="M61.286 568.319c-.636.147-.335.7-1.348-3.557.636-.15.335-.704 1.348 3.557z"/>
    </g>
    <g>
      <path fill="#A7BCFC" d="M62.203 572.712c-.636.147-.335.701-1.349-3.56.637-.15.336-.7 1.35 3.56z"/>
    </g>
    <g>
      <path fill="#A7BCFC" d="M63.431 577.39c-.636.15-.335.7-1.349-3.56.636-.147.335-.701 1.35 3.56z"/>
    </g>
    <g>
      <path fill="#A7BCFC" d="M64.642 582.532c-.66.154-.343.663-1.35-3.56.637-.147.336-.701 1.35 3.56z"/>
    </g>
    <g>
      <path fill="#A7BCFC" d="M66.018 587.623c-.636.146-.335.7-1.349-3.56.637-.147.332-.711 1.35 3.56z"/>
    </g>
    <g>
      <path fill="#A7BCFC" d="M67.817 593.489c-.636.147-.336.7-1.35-3.56.662-.154.347-.66 1.35 3.56z"/>
    </g>
    <g>
      <path fill="#A7BCFC" d="M69.363 599.358c-.66.154-.343.66-1.349-3.56.636-.147.336-.7 1.349 3.56z"/>
    </g>
    <g>
      <path fill="#A7BCFC" d="M54.054 590.311c-.63.178-.3.718-1.525-3.488.63-.178.3-.718 1.525 3.488z"/>
    </g>
    <g>
      <path fill="#A7BCFC" d="M52.307 584.555c-.626.177-.297.727-1.525-3.489.654-.188.311-.676 1.525 3.489z"/>
    </g>
    <g>
      <path fill="#A7BCFC" d="M50.55 578.756c-.63.178-.3.718-1.525-3.488.626-.178.297-.714 1.525 3.488z"/>
    </g>
    <g>
      <path fill="#A7BCFC" d="M48.693 572.378c-.643.099-.387.673-1.066-3.653.647-.099.391-.676 1.066 3.653z"/>
    </g>
    <g>
      <path fill="#A7BCFC" d="M47.95 566.573c-.651.058-.43.659-.841-3.71.653-.058.428-.646.84 3.71z"/>
    </g>
    <g>
      <path fill="#A7BCFC" d="M47.62 561.923c-.653-.01-.497.598-.425-3.778.657.013.502-.595.426 3.778z"/>
    </g>
  </g>
  <g>
    <path fill="#A533FF" d="M669.482 503.76l-48.691 53.572 106.879 34.784-.301.611s.689.352 1.142-.338l39.984-60.74-99.013-27.889z"/>
    <path fill="#AE5AFF" d="M764.856 523.733l-4.192 6.372-92.324-26.003-43.471 47.828-7.716-2.511s-.64 3.368 2.497 8.254l107.719 35.057 39.985-60.739c-1.941-2.542-2.498-8.258-2.498-8.258z"/>
    <path fill="#CAD7FF" d="M724.872 584.473s1.027 7.321 3.511 9.354l40.005-61.508-3.722-10.585-39.794 62.739z"/>
    <path fill="#A533FF" d="M617.133 549.347l107.715 35.057 39.985-60.743-99.014-27.886-48.686 53.572z"/>
    <path fill="#7E1BDD" d="M654.557 508.167l100.59 30.213 2.518 8.323.989-1.5-2.652-8.767-100.318-29.509-1.127 1.24z"/>
    <path fill="#E5F" d="M659.662 502.551l99.878 29.153 2.518 8.326-3.877 5.313-2.712-8.193-100.113-29.861 4.306-4.738z"/>
    <path fill="#F088FF" d="M755.469 537.15l4.071-5.446 2.518 8.326-3.919 5.952-2.67-8.832z"/>
  </g>
  <g>
    <path fill="#B486EA" d="M176.812 253.668l-87.7 74.679 71.724 46.445 89.92-81.833-73.944-39.291z"/>
    <path fill="#8557BC" d="M176.667 250.696l-87.7 74.683 71.727 46.444 89.916-81.836-73.943-39.291z"/>
    <path fill="#B486EA" d="M172.655 231.7l-84.732 72.154 69.298 44.873 86.876-79.066-71.442-37.961z"/>
    <path fill="#AC7ADC" d="M172.503 228.557l-84.732 72.151 69.298 44.873 86.876-79.066-71.442-37.958z"/>
    <path fill="#BD8EF4" d="M93.319 300.349l79.626-67.805 65.279 34.685-81.504 74.177-63.401-41.057z"/>
    <path fill="#B486EA" d="M87.77 300.708l.153 3.146 6.942 4.496 1.463-2.101-8.557-5.541z"/>
    <path fill="#BE95F9" d="M157.069 345.58l.152 3.147 86.876-79.066-.152-3.146-86.876 79.065z"/>
    <path fill="#563789" d="M160.694 371.823l89.916-81.837.146 2.973-89.92 81.833-.142-2.969z"/>
    <path fill="#B486EA" d="M88.968 325.379l.145 2.969 6.886 4.462 2.024-1.569-9.055-5.862z"/>
    <path fill="#B486EA" d="M87.771 300.707s-3.763 15.436 1.342 27.64l1.28-2.05s-3.134-13.464-.405-21.121l-2.217-4.469z"/>
    <path fill="#BDD3FF" d="M157.221 348.727s-1.245 12.812 3.324 20.042l86.185-78.198s-6.676-8.214-4.327-19.365l-85.182 77.521z"/>
    <path fill="#E1EDFF" d="M160.545 368.768l-70.374-43.516s-3.106-14.719-.183-20.072l67.233 43.547s-.2 13.591 3.324 20.041z"/>
    <path fill="#99C3FF" d="M241.815 276.942l-84.521 75.557-68.23-44.009-.01.076c-.028.085-.055.174-.086.259l68.357 44.091 84.714-75.728-.224-.246z"/>
    <path fill="#99C3FF" d="M157.55 356.21l-68.766-43.165.18-.28 68.551 43.031 84.452-75.718.225.243-84.642 75.889z"/>
    <path fill="#99C3FF" d="M242.742 282.518l-85.009 76.91-68.949-43.21.01.069c.011.116.018.229.025.345l68.949 43.209 85.198-77.081-.224-.242z"/>
    <path fill="#99C3FF" d="M243.731 285.333l-85.181 77.511-69.292-44.046-.166.253c.004.013.004.027.007.037l69.489 44.17 85.371-77.683-.228-.242z"/>
    <path fill="#99C3FF" d="M244.865 287.708l-85.35 78.56-69.617-43.103-.117.184c.01.048.02.099.027.15l69.748 43.186 85.538-78.735-.229-.242z"/>
    <path fill="#743CC6" d="M211.84 307.089l20.148-17.619 7.433 2.436-16.851 12.683-10.73 2.5z"/>
    <path fill="#D7BBFF" d="M167.193 249.555l7.596-6.454 41.842 21.695-6.88 7.008-42.558-22.249z"/>
  </g>
  <g>
    <path fill="#2C2A56" d="M696.25 563.932l-.37 2.757-36.581-17.442a1.99 1.99 0 00-2.643.912l-35.491 72.636-1.47-1.308s-.778 2.965.934 4.807c.173.229.394.424.667.567.315.212.682.393 1.111.533l36.255 17.284a1.986 1.986 0 002.643-.912l35.937-73.551c2.314-3.885-.992-6.283-.992-6.283z"/>
    <path fill="#47477C" d="M695.112 565.203l-.111.84-35.823-17.257a1.944 1.944 0 00-2.591.906l-34.83 72.014-1.439-1.295s-.765 2.942.91 4.763a1.9 1.9 0 00.65.56c.308.208.667.386 1.089.526l35.509 17.103a1.944 1.944 0 002.591-.905l35.269-72.919c1.27-2.156.817-3.851.166-4.924-.425.28-.882.503-1.39.588z"/>
    <path fill="#1E1E3D" d="M660.735 640.541a1.99 1.99 0 01-2.643.913l-37.3-17.784a1.943 1.943 0 01-.923-2.61l36.217-74.122a1.99 1.99 0 012.643-.912l37.3 17.783a1.945 1.945 0 01.924 2.61l-36.218 74.122z"/>
    <path fill="#EEF" d="M658.922 640.08a.372.372 0 01-.145-.038l-37.301-17.783a.386.386 0 01-.183-.522l36.218-74.123a.399.399 0 01.529-.184l37.3 17.783a.382.382 0 01.201.226.382.382 0 01-.017.297l-36.218 74.122a.39.39 0 01-.384.222z"/>
    <path fill="#B0D4FF" d="M659.553 552.485l-33.122 67.782 30.883 14.724 33.122-67.782-30.883-14.724z"/>
    <path fill="#47477C" d="M681.118 560.553a.477.477 0 01-.63.232l-10.919-4.906a.467.467 0 01-.236-.622.475.475 0 01.63-.232l10.916 4.909a.463.463 0 01.239.619z"/>
  </g>
  <g>
    <path fill="#7A0384" d="M336.708 98.591c-.754.373-.591.133-5.821-10.195-.373-.741.785-1.038 1.868-1.575.747-.369.584-.147 5.821 10.195.356.7-.56.926-1.868 1.575z"/>
    <path fill="#071D3D" d="M373.417 65.898L331.952 86.37l6.374 12.598 41.465-20.472-6.374-12.598z"/>
    <path fill="#092649" d="M374.258 67.571l-41.465 20.472 4.644 9.178 41.465-20.472-4.644-9.178z"/>
    <path fill="#3272B2" d="M338.383 97.764c-.699.345-.962-.598-1.318-1.301-.412-.81-2.158.41 40.669-20.736.695-.341.955.588 1.318 1.302.412.81 2.158-.417-40.669 20.735z" opacity=".2"/>
    <path fill="#071D3D" d="M387.709 69.417c-1.079-2.128-.466-.926-2.303-4.554-2.702 1.336-5.815 3.584-11.463 2.064l5.22 10.31c2.058-5.134 5.468-6.3 8.546-7.82z"/>
    <path fill="#123C66" d="M386.665 67.357l-1.986-3.919c-2.708 1.336-5.855 3.502-11.258 2.467 3.241 6.4 1.304 2.58 4.49 8.873 2.355-4.8 5.918-6.017 8.754-7.421z"/>
    <path fill="#0B294C" d="M387.865 69.728l-1.982-3.919c-2.708 1.34-5.859 3.502-11.262 2.464 3.027 5.979 1.301 2.569 4.49 8.873 2.355-4.797 5.914-6.017 8.754-7.418z"/>
    <path fill="#900A9E" d="M336.763 95.85l-1.674.827.803 1.586 1.674-.826-.803-1.586zM385.586 65.225l1.563-.772s4.327 1.565 4.389 2.002l-4.264 2.105-1.688-3.335z"/>
    <path fill="#AF14C6" d="M385.627 65.208l1.2-.591s3.674 1.89 3.764 2.31l-3.276 1.615-1.688-3.334z"/>
    <path fill="#478FC9" d="M346.891 87.894c-.698.345-.947-.57-1.435-1.534-.38-.748-1.622.15 23.911-12.46.699-.346.948.57 1.436 1.534.38.751 1.622-.147-23.912 12.46z" opacity=".2"/>
  </g>
  <g>
    <path fill="#900A9E" d="M55.144 368.116c-1.066.178-.71.345-3.995-18.924-.187-1.1-1.837-.485 31.918-6.102 1.065-.178.709-.345 3.995 18.924.19 1.1 1.84.485-31.918 6.102z"/>
    <path fill="#7A0384" d="M54.905 366.408c-1.131.188-.823-.038-3.494-15.672-.193-1.131-1.698-.526 31.867-6.112 1.138-.188.834.058 3.493 15.671.19 1.128 1.699.53-31.866 6.113z"/>
    <path fill="#9B12AF" d="M86.385 357.925l-32.798 5.46.537 3.15 32.798-5.46-.537-3.15z"/>
    <path fill="#AF14C6" d="M84.478 346.838l-25.014 4.161s-3.29 5.343 2.075 12.166l25.015-4.161-2.076-12.166z"/>
    <path fill="#FFA766" d="M84.554 347.281l-24.399 4.059s-3.265 4.882 1.879 11.008l24.398-4.058-1.878-11.009z"/>
    <path fill="#AF14C6" d="M84.554 347.281l-24.399 4.059s-3.265 4.882 1.879 11.008l24.398-4.058-1.878-11.009z"/>
    <path fill="#900A9E" d="M84.91 346.404l-24.398 4.059s-3.265 4.882 1.878 11.008l24.399-4.059-1.878-11.008z"/>
    <path fill="#AF14C6" d="M64.828 358.403c-1.051.174-.992-1.005-1.376-3.253-.19-1.12-.135-.786 17.446-3.714 1.052-.174.993 1.005 1.377 3.253.187 1.121.131.793-17.447 3.714z"/>
  </g>
  <g>
    <path fill="#FFBC00" d="M696.827 539.955c-.674.608-.595.297-9.166-8.996-.584-.632.308-1.138 1.488-2.2.674-.608.598-.301 9.169 8.999.578.629-.315 1.134-1.491 2.197z"/>
    <path fill="#071D3D" d="M725.543 494.873L688.168 528.5l10.47 11.354 37.375-33.628-10.47-11.353z"/>
    <path fill="#092649" d="M726.931 496.408l-37.375 33.627 7.626 8.27 37.375-33.627-7.626-8.27z"/>
    <path fill="#3272B2" d="M698.332 538.599c-.629.567-1.186-.342-1.774-.981-.675-.731-2.134 1.066 36.463-33.667.63-.567 1.186.342 1.774.981.678.728 2.135-1.073-36.463 33.667z" opacity=".2"/>
    <path fill="#FFD773" d="M696.061 537.138l-1.509 1.358 1.319 1.429 1.508-1.358-1.318-1.429z"/>
    <path fill="#478FC9" d="M704.306 525.749c-.63.567-1.166-.321-1.968-1.189-.623-.673-1.654.629 21.358-20.076.629-.567 1.166.321 1.968 1.189.619.673 1.657-.625-21.358 20.076z" opacity=".2"/>
    <path fill="#FFBC00" d="M736.611 506.012c-.636.57-.321.533-10.923-10.961-.605-.656-1.442.458 18.692-17.66.636-.57.329-.536 10.923 10.961.609.659 1.446-.455-18.692 17.66z"/>
    <path fill="#FF9D00" d="M735.705 504.97c-.674.608-.595.3-9.166-8.996-.619-.673-1.37.369 18.654-17.643.681-.612.584-.311 9.166 8.995.622.674 1.37-.368-18.654 17.644z"/>
    <path fill="#FFD773" d="M753.079 485.943l-19.562 17.601 1.733 1.879 19.562-17.6-1.733-1.88z"/>
    <path fill="#FF9D00" d="M746.957 479.301l-14.918 13.424s.131 4.974 6.693 7.256l14.918-13.423-6.693-7.257z"/>
    <path fill="#FFA766" d="M747.202 479.567l-14.551 13.092s-.055 4.654 6.053 6.567l14.551-13.092-6.053-6.567z"/>
    <path fill="#FF7900" d="M747.061 478.826l-14.552 13.092s-.055 4.657 6.053 6.567l14.552-13.092-6.053-6.567z"/>
    <path fill="#FF9D00" d="M738.856 495.396c-.678.612-1.321-.488-2.338-1.592-.616-.67-.426-.475 10.051-9.904.678-.609 1.315.481 2.339 1.592.615.666.435.468-10.052 9.904z"/>
  </g>
  <g>
    <path fill="#89F" d="M123.349 184.5l-73.577 16.492 69.229 92.53-.626.339s.37.703 1.169.389l70.561-27.691-66.756-82.059z"/>
    <path fill="#A9BAFF" d="M191.831 257.721l-7.402 2.904-62.249-76.517-65.687 14.725-4.998-6.679s-2.58 2.47-2.889 8.449l69.776 93.261 70.561-27.691c-.101-3.293 2.888-8.452 2.888-8.452z"/>
    <path fill="#CAD7FF" d="M121.27 285.412s-3.562 6.792-2.698 9.979l71.045-28.326 3.266-11.142-71.613 29.489z"/>
    <path fill="#89F" d="M51.519 192.082l69.775 93.258 70.561-27.691-66.763-82.062-73.573 16.495z"/>
    <path fill="#637FF7" d="M108.075 179.403l66.683 84.956-2.912 8.521 1.743-.684 3.068-8.972-66.877-84.204-1.705.383z"/>
    <path fill="#E5F" d="M115.788 177.674l66.725 83.64-2.913 8.521-6.495 2.197 2.67-8.521-66.493-84.378 6.506-1.459z"/>
    <path fill="#F088FF" d="M175.775 263.511l6.738-2.196-2.913 8.52-6.914 2.713 3.089-9.037z"/>
  </g>
  <g>
    <path fill="#89837E" d="M632.133 688.202c-3.033 1.029-5.704-6.645-2.67-7.676 3.033-1.029 5.707 6.648 2.67 7.676z"/>
    <path fill="#2D3A5B" d="M736.092 646.63c9.069-1.65 8.046-.161 1.183 3.399l-1.183-3.399z"/>
    <path fill="#D3D1CF" d="M738.147 649.982l-1.335-3.837c-4.466.782-16.094 3.119-16.094 3.119 2.013 5.788 1.075 3.096 2.791 8.026 0 0 10.626-5.218 14.638-7.308z"/>
    <path fill="#C1BCB8" d="M739.026 647.539s-7.845 4.124-17.693 8.736l-2.452-9.604 18.612-2.122 1.533 2.99z"/>
    <path fill="#928EEF" d="M720.685 649.29l-57.347 19.467 2.792 8.026 57.348-19.467-2.793-8.026z"/>
    <path fill="#7777D8" d="M720.659 649.272l-2.384.809 2.791 8.026 2.385-.809-2.792-8.026z"/>
    <path fill="#99F" d="M719.737 654.036l-54.966 18.659.955 2.746 54.967-18.659-.956-2.746z"/>
    <path fill="#7C7CCE" d="M669.537 666.582l-4.147 1.408 2.792 8.026 4.148-1.408-2.793-8.026z"/>
    <g>
      <path fill="#8989E8" d="M634.682 688.435c-3.338 1.134-3.96-2.873-5.153-6.297-.502-1.445.276-3.016 1.739-3.515l33.51-11.374c3.337-1.131 3.96 2.87 5.153 6.297a2.758 2.758 0 01-1.739 3.515l-33.51 11.374z"/>
      <path fill="#99F" d="M670.597 668.868l-48.57 16.475 1.698 4.886 48.57-16.476-1.698-4.885z"/>
    </g>
  </g>
  <g>
    <path fill="#9E79D8" d="M253.471 168.832c-5.365 2.135-10.114-1.018-13.804-5.384-13.677-16.185 8.114-34.812-4.241-41.696-2.926-1.633-5.589-4.708-8.128-8.213-15.025 16.683-38.753 13.932-28.525-7.25 11.871-24.579 20.449-6.745 28.604 4.995 6.358-7.804 10.623-19.488 8.264-34.832-7.665-49.868 46.103-64.153 75.527-48.15l-.66 1.19c-28.449-15.474-80.986-1.9-73.508 46.755 2.037 13.25-.377 26.184-8.779 36.229 2.501 3.488 5.102 6.543 7.883 8.094 13.77 7.673-8.626 26.335 4.621 42.01 3.507 4.147 7.001 5.999 10.391 5.497 6.848-1.011 11.275-11.196 11.32-11.302l1.266.526c-.176.407-3.922 9.016-10.231 11.531zm-44.664-73.135c-5.126 2.043-15.416 19.065-9.1 25.115 4.873 4.671 17.661 1.886 26.757-8.449-6.08-8.691-11.473-19.129-17.657-16.666z"/>
    <path fill="#8678A3" d="M359.689 90.5s-5.084-13.525-20.307-23.625c.232-.38-17.533-10.478-33.44-8.449-33.001 1.155-48.134 38.576-48.134 38.576 2.529 5.012 6.264 3.738 6.264 3.738 17.084-33.708 38.795-33.458 47.944-33.878 7.526-.349 16.464 5.268 20.753 7.67 2.909 1.845 13.157 7.455 16.53 14.578 3.877 8.196 14.202 27.063-8.06 57.682 0 0 .599 3.86 6.264 3.737.004.007 26.502-30.632 12.186-60.028z"/>
    <path fill="#67617A" d="M337.289 71.074c.118-.177.26-.048-1.03-.717-1.214-.827-1.024-.742-1.121-.57-51.699-25.806-75.545 29.836-75.545 29.836l5.749 3.844c8.675-10.547 17.138-25.874 30.116-31.313 9.903-4.151 17.101-1.75 25.381 1.445 8.592 3.317 14.157 1.35 21.877 10.318 4.988 5.791 6.323 11.493 7.33 18.945 2.265 16.765 2.992 11.821-1.387 24.223-.879 2.484-1.28 4.736-2.363 7.39-1.532 3.762-5.458 8.524-7.633 12.809l7.035 3.72c-.004.004 38.767-46.731-8.409-79.93z"/>
    <path fill="#9E79D8" d="M343.792 147.277s-11.179 14.213-16.426 14.537l-8.419 11.261c8.094-5.938 21.618-16.119 27.325-24.319l-2.48-1.479z"/>
    <path fill="#E1D7FF" d="M318.854 173.871l-.682-1.018c21.231-13.916 31.268-28.135 35.952-37.616 5.067-10.26 5.122-17.329 5.122-17.397h1.235c.017 12.617-11.57 36.335-41.627 56.031z"/>
    <path fill="#584091" d="M328.428 163.649c.363-1.954-.72-7.8-1.107-9.744l-31.981 23.659c4.123 3.53 7.987 4.766 7.987 4.766 10.255-3.122 20.559-11.729 25.101-18.681z"/>
    <path fill="#413075" d="M329.258 156.788s-11.3 15.887-32.43 24.104l-3.137-4.605 33.633-25.348 1.934 5.849z"/>
    <path fill="#7354AF" d="M327.823 151.571c4.897-.816-20.318 22.095-32.95 27.548 0 0-1.03-.308-.567-2.17l33.517-25.378z"/>
    <path fill="#9E79D8" d="M327.823 151.571s-.419-6.399-7.402-8.025c0 0-25.509 8.299-33.174 26.581 0 0-.457 6.276 7.146 8.005 0 0 16.516-9.526 33.43-26.561z"/>
    <path fill="#B799F2" d="M325.806 145.356s-26.381 8.849-38.483 29.96c0 0-5.154-3.075-1.439-10.482 3.718-7.403 31.984-29.293 39.922-19.478z"/>
    <path fill="#8567BF" d="M324.938 143.905s-26.547 10.219-39.147 31.702c0 0-1.2-3.789-.619-5.849.584-2.057 17.795-31.747 39.766-25.853z"/>
    <path fill="#E1D7FF" d="M301.86 181.856c-.352-.878 8.326-2.306 19.46-13.205 7.343-7.189 6.309-8.309 7.111-7.79-3.178 4.899-13.112 15.737-26.571 20.995z"/>
    <path fill="#E1D7FF" d="M312.797 146.716s-9.162 4.548-13.323 8.217c0 0 1.605 7.537 10.217 12.621 0 0 9.401-7.616 12.687-10.731 0 0-2.659-5.173-9.581-10.107z" opacity=".3"/>
    <g>
      <path fill="#9E79D8" d="M263 99.063s-7.537 16.385-5.389 21.124l-6.174 12.6c1.557-9.846 4.393-26.399 9.083-35.204l2.48 1.48z"/>
      <path fill="#E1D7FF" d="M250.77 133.238l1.228.123c2.594-25.036 10.667-40.428 16.986-48.932 6.838-9.2 13.144-12.538 13.209-12.573l-.574-1.08c-11.214 5.799-27.162 26.834-30.849 62.462z"/>
      <path fill="#584091" d="M255.477 120.112c1.477-1.193 7.419-3.031 9.249-3.567l-6.326 38.969c-5.081-1.965-7.986-4.766-7.986-4.766-1.965-10.352.909-23.407 5.063-30.636z"/>
      <path fill="#413075" d="M261.233 116.176s-8.976 17.291-6.513 39.587l5.586.602 7.073-41.18-6.146.991z"/>
      <path fill="#7354AF" d="M266.58 115.021c-1.549-4.671-10.345 28.08-9.359 41.624 0 0 .753.755 2.21-.513l7.149-41.111z"/>
      <path fill="#9E79D8" d="M266.58 115.021s5.929-2.61 10.636 2.74c0 0 4.427 26.164-8.391 41.371 0 0-5.413 3.317-10.498-2.525.004 0 .855-18.869 8.253-41.586z"/>
      <path fill="#B799F2" d="M273.09 113.897s4.341 27.182-8.948 47.586c0 0 5.154 3.075 10.062-3.618 4.904-6.693 11.372-41.594-1.114-43.968z"/>
      <path fill="#8567BF" d="M274.795 113.978s3.189 27.968-10.204 48.977c0 0 3.954-.714 5.528-2.18 1.577-1.466 20.175-30.329 4.676-46.797z"/>
      <path fill="#E1D7FF" d="M251.517 151.814c.961-.103-1.816-8.323 2.781-23.157 3.026-9.765 4.514-9.379 3.673-9.84-3.528 6.256-7.907 19.659-6.454 32.997z"/>
      <path fill="#E1D7FF" d="M277.918 125.903s.187 10.123-1.165 15.47c0 0-7.503 2.105-16.063-3.065 0 0 2.452-11.759 3.714-16.081.004 0 5.874-.082 13.514 3.676z" opacity=".3"/>
    </g>
    <path fill="#CABDEF" d="M282.394 72.085l-.412-.457c.056-.048 5.618-4.852 15.14-7.373 34.014-9.006 68.098 20.198 63.66 53.622l-.612-.078c2.805-21.128-10.698-39.034-23.434-46.845-24.33-13.252-45.494-6.552-54.342 1.131z"/>
    <path fill="#CABDEF" d="M285.054 75.543c-.491.335-.35.225-5.548-7.195-.18-.257.017-.56.107-.578.491-.335.353-.229 5.548 7.196.284.406-.197.59-.107.577zM354.2 116.822c-.073.584-.042.416 9.028 1.503.411.048.446-.359.466-.362.073-.588.025-.414-9.027-1.504-.381-.044-.488.366-.467.363z"/>
    <path fill="#413075" d="M260.441 158.538s2.362 1.237 2.995 1.349c-2.705 3.553-5.41-.116-2.995-1.349z"/>
    <g>
      <path fill="#8B89AF" d="M330.32 40.23c-.695 1.185-1.529.29-11.992-5.713-.996-.57-.892-1.561-.726-1.589.695-1.185 1.529-.293 11.995 5.713.682.393 1.007 1.103.723 1.589z"/>
      <path fill="#797499" d="M321.43 33.82l-1.158 1.968 5.237 3.006 1.157-1.967-5.236-3.006z"/>
      <path fill="#625F84" d="M321.129 33.614l-1.158 1.968 5.237 3.006 1.158-1.968-5.237-3.005z"/>
      <path fill="#413075" d="M311.235 26.74l-2.217 3.77 10.857 6.229 2.217-3.77-10.857-6.23z"/>
      <path fill="#4C3E89" d="M310.838 27.42l-1.374 2.337 10.856 6.23 1.375-2.337-10.857-6.23z"/>
    </g>
  </g>
  <g>
    <path fill="#DCFEFF" d="M114.788 478.31l-32.25-41.053 99.791-55.065-67.541 96.118z"/>
    <path fill="#DCFEFF" d="M182.33 382.192L72.722 425.77l-31.908-25.648 141.516-17.93z"/>
    <path fill="#fff" d="M138.146 399.747l44.183-17.555c-187.093 23.704-175.094 18.057-44.183 17.555z"/>
    <path fill="#4DC1C1" d="M182.329 382.192c-115.972 63.992-96.62 50.722-109.61 68.085V425.77l109.61-43.578z"/>
    <path fill="#7ADFE2" d="M137.848 399.866l-.767 7.294c-63.387 34.979-51.371 25.761-64.36 43.117V425.77l65.127-25.904z"/>
    <path fill="#4DC1C1" d="M89.473 446.085l-16.751 4.192 9.816-13.021 6.935 8.829z"/>
    <path fill="#fff" d="M140.574 405.233l-25.786 73.077 67.541-96.118-41.755 23.041z"/>
  </g>
  <path fill="#B0D4FF" d="M573.391 154.786s146.026 88.66 148.112 255.719l-94.942-97.683s-19.757-82.636-78.959-126.614l25.789-31.422z" opacity=".4"/>
  <g>
    <path fill="#4E2CB7" d="M545.537 185.501s.699 1.148 2.065.707l25.789-31.422s.201-1.223-1.248-1.704l-26.606 32.419z"/>
    <path fill="#4C28A5" d="M504.072 158.439s-8.951 29.905 12.943 47.849l-.276.796 1.56.218s3.541-11.599 13.036-31.09l-27.263-17.773z"/>
    <path fill="#6630CE" d="M502.509 158.22s-9.298 31.057 14.226 48.86c0 0 3.539-11.599 13.037-31.09l-27.263-17.77z"/>
    <path fill="#4C28A5" d="M534.856 119.866s27.771-14.835 50.07 2.61l.73-.434.54 1.466s-10.757 5.822-28.1 19.03l-23.24-22.672z"/>
    <path fill="#6630CE" d="M534.317 118.4s28.84-15.408 51.339 3.642c0 0-10.757 5.822-28.099 19.031l-23.24-22.673z"/>
    <path fill="#99B6FF" d="M448.09 81.624s10.377 59.322 87.648 97.051l26.609-32.42C508.994 79.38 448.09 81.625 448.09 81.625z"/>
    <path fill="#C0D5FF" d="M456.489 71.392s10.376 59.321 87.647 97.05l26.609-32.419c-53.353-66.876-114.256-64.631-114.256-64.631z"/>
    <path fill="#6630CE" d="M535.669 178.757l26.609-32.42s3.663-.437 5.911 2.18l-28.491 34.712c.004-.003-2.78-.649-4.029-4.472z"/>
    <path fill="#6E3FE0" d="M572.146 153.082l-26.609 32.419s-3.663.438-5.915-2.179l28.491-34.713s2.784.646 4.033 4.473z"/>
    <path fill="#6630CE" d="M466.817 121.745s6.267-15.334 24.994-30.455l-8.302-3.017s-16.547 12.754-20.981 27.086l4.289 6.386zM503.671 107.973c5.949 4.766 6.862 13.393 2.041 19.273-4.825 5.876-13.559 6.778-19.508 2.016-5.95-4.766-6.866-13.393-2.041-19.273 4.822-5.88 13.555-6.782 19.508-2.016z"/>
    <path fill="#9FDAFF" d="M504.051 125.917c-4.074 4.964-11.48 5.729-16.509 1.705-5.025-4.025-5.8-11.34-1.726-16.308 4.075-4.964 11.48-5.729 16.509-1.704 5.026 4.024 5.801 11.339 1.726 16.307z"/>
    <path fill="#BDE5F9" d="M490.32 107.959l9.75 21.08s4.282-1.581 5.995-6.74l-8.879-15.057c0-.004-4.168-.875-6.866.717z"/>
    <path fill="#C2ACF9" d="M501.17 165.142s16.966 13.755 28.283 14.992l1.882-3.922-28.826-17.988c0-.004-1.204 5.76-1.339 6.918zM540.795 115.824s16.986 13.482 20.452 24.094l-3.514 2.603-23.531-24.005s5.476-2.326 6.593-2.692zM543.925 168.699s7.198 4.315 11.757 4.441l6.226-7.585s-1.422-4.663-7.101-10.116l-10.882 13.26z"/>
    <g>
      <path fill="#8765EF" d="M515.061 134.595l54.038 43.274s-18.398-35.088-54.038-43.274z"/>
      <path fill="#6B3CDD" d="M515.061 134.595l54.038 43.274s-38.563-10.523-54.038-43.274z"/>
    </g>
  </g>
  <g>
    <path fill="#A4A4FF" d="M72.538 247.847c43.91-24.2 39.732-21.405 39.044-22.621-43.91 24.199-39.732 21.401-39.044 22.621z"/>
    <path fill="#928EEF" d="M112.035 225.535L72.29 247.437l1.031 1.826 39.745-21.902-1.031-1.826z"/>
    <path fill="#1A1A42" d="M72.061 247.003l1.294 2.292s-16.413 7.612-18.62 12.549c-2.206 4.937-4.402 23.099-7.446 25.279-3.044 2.176-7.471 4.975-3.144-5.565 9.553-23.247 4.555-21.207 27.916-34.555z"/>
    <path fill="#28285B" d="M44.847 288.073c2.417-1.336 3.04-1.654 4.451-6.584 1.827-6.392 3.359-16.331 4.94-19.864 1.95-4.366 13.98-10.475 18.36-12.569l-.741-1.312c-22.645 12.997-17.678 10.83-27.204 34.015-2.355 5.733-1.73 6.673-1.58 6.803.325.287 1.805-.475 1.774-.489z"/>
    <path fill="#A4A4FF" d="M69.771 250.727c-43.91 24.199-39.306 22.156-39.995 20.94 43.91-24.2 39.307-22.157 39.995-20.94z"/>
    <path fill="#928EEF" d="M69.526 250.319L29.78 272.221l1.032 1.826 39.745-21.902-1.031-1.826z"/>
    <path fill="#5252B5" d="M29.168 271.513l-2.563 1.414s1.556 1.828 3.434 2.522l1.885-1.039-2.756-2.897z"/>
    <path fill="#1A1A42" d="M69.294 249.886l1.294 2.293s15.177-9.796 20.59-9.061c5.413.738 22.213 8.429 25.689 7.014 3.473-1.414 8.211-3.666-3.144-5.565-25.042-4.179-20.656-7.308-44.43 5.319z"/>
    <path fill="#28285B" d="M118.97 248.578c-2.407 1.329-3.027 1.687-8.007.283-6.451-1.817-15.835-5.75-19.705-6.279-4.787-.65-16.368 6.248-20.473 8.831l-.74-1.312c23.073-12.2 18.587-9.18 43.591-5.001 6.174 1.031 6.659 2.05 6.69 2.244.086.496-1.539 1.336-1.356 1.234z"/>
    <path fill="#9FD1FF" d="M25.733 265.028s-.937 2.655 4.081 7.168c5.02 4.51 14.12 12.652 15.583 12.894 1.463.243 14.786-5.135 23.707-12.969 0 0-1.53-17.711-5.555-24.838 0 0 .014-2.894-3.732-2.293-3.746.598-16.523 5.405-16.945 5.822-.416.414-16.188 8.566-17.14 14.216z" opacity=".3"/>
    <path fill="#928EEF" d="M55.562 282.303c-.02.003-9.062 4.81-10.619 3.683-4.787-3.472-20.517-15.621-20.22-21.566.664-1.677 11.909-15.528 34.16-19.99.688-.195 2.127-.571 2.819-.451 5.897 3.201 8.214 28.344 7.803 28.723-.588.536-7.51 6.051-13.943 9.601zM45.4 285.09c6.36-.317 19.923-10.116 23.247-12.952-.47-5.278-2.67-24.469-7.257-27.199-.733.01-2.186.434-2.29.455-16.156 3.594-29.189 12.709-33.384 19.262-.06 5.292 15.37 17.267 19.684 20.434z"/>
    <path fill="#6A6AD3" d="M55.4 281.841c-.315.468-9.087 4.483-10.325 3.581-4.684-3.41-19.954-15.19-19.657-20.964.65-1.637 11.67-15.119 33.209-19.434.657-.184 2.078-.557 2.742-.437 5.722 3.102 8.004 27.541 7.586 27.923-.567.516-7.302 5.884-13.555 9.331zm-9.879 2.709c6.236-.311 19.28-9.754 22.6-12.59-.46-5.169-2.604-23.793-7.056-26.444-.664.007-1.847.345-2.224.444-15.727 3.147-28.321 12.297-32.458 18.726-.055 5.146 14.953 16.793 19.138 19.864z"/>
    <mask id="a" width="13" height="28" x="52" y="249" maskUnits="userSpaceOnUse" style="mask-type:alpha">
      <path fill="url(#paint0_linear)" d="M53.65 250.716s6.063-4.082 8.26 3.345c2.196 7.428 3.524 15.084-.125 18.576 0 0-6.939 6.29-9.761 3.283 0-.003 9.982-10.195 1.625-25.204z"/>
    </mask>
    <g mask="url(#a)">
      <path fill="url(#paint1_linear)" d="M53.65 250.716s6.063-4.082 8.26 3.345c2.196 7.428 3.524 15.084-.125 18.576 0 0-6.939 6.29-9.761 3.283 0-.003 9.982-10.195 1.625-25.204z" opacity=".3"/>
    </g>
    <mask id="b" width="13" height="28" x="97" y="223" maskUnits="userSpaceOnUse" style="mask-type:alpha">
      <path fill="url(#paint2_linear)" d="M99.452 224.176s6.063-4.082 8.259 3.345c2.197 7.424 3.525 15.084-.124 18.576 0 0-6.939 6.29-9.761 3.283 0-.003 9.982-10.191 1.626-25.204z"/>
    </mask>
    <g mask="url(#b)">
      <path fill="url(#paint3_linear)" d="M99.452 224.176s6.063-4.082 8.259 3.345c2.197 7.424 3.525 15.084-.124 18.576 0 0-6.939 6.29-9.761 3.283 0-.003 9.982-10.191 1.626-25.204z" opacity=".3"/>
    </g>
  </g>
  <g>
    <path fill="#C8C2FF" d="M761.802 236.329c-6.119-1.797-13.773 4.469-13.773 4.469l1.117 2.501c2.702-1.571 6.759-3.41 10.11-2.726 5.566 1.138 13.864 19.242 15.299 23.591 1.11 3.355-5.711 8.945-11.096 11.097l1.352 3.02c5.251.977 17.436-7.619 15.513-12.866-1.916-5.252-12.403-27.288-18.522-29.086z"/>
    <path fill="#B3A6FF" d="M746.161 245.263l13.13 30.859c1.1.112 2.574-.226 4.168-.865l-14.313-31.961c-1.788 1.042-2.985 1.967-2.985 1.967zM780.328 265.414s-2.117 8.173-12.31 10.633l3.04 5.275c-.003-.003 13.448-6.669 9.27-15.908z"/>
    <path fill="#B3A6FF" d="M748.389 243.723s8.761-5.918 12.22-2.587c0 0-7.52 1.165-11.359 6.386l-.861-3.799z"/>
    <path fill="#C8C2FF" d="M744.539 233.593c-1.861-3.232-15.063.72-29.487 8.828-14.423 8.107-24.606 17.301-22.745 20.533l31.576 54.809 52.232-29.362-31.576-54.808z"/>
    <g>
      <path fill="#D4D2FF" d="M743.882 220.221l-27.532 15.477 41.215 71.537 27.533-15.477-41.216-71.537z"/>
      <path fill="#DEDEFF" d="M756.487 216.383l-27.536 15.479 41.216 71.537 27.536-15.479-41.216-71.537z"/>
    </g>
    <path fill="#B3A6FF" d="M776.118 288.401c1.861 3.232-8.322 12.426-22.745 20.533-14.423 8.108-27.626 12.061-29.487 8.829-1.861-3.232 8.322-12.426 22.746-20.534 14.423-8.107 27.625-12.06 29.486-8.828z"/>
    <path fill="#938AED" d="M772.165 290.84c1.339 2.32-7.457 9.758-19.646 16.608-12.19 6.85-23.154 10.527-24.493 8.203-1.338-2.32 7.461-9.757 19.647-16.608 12.192-6.853 23.157-10.526 24.492-8.203z"/>
  </g>
  <defs>
    <linearGradient id="paint0_linear" x1="50.143" x2="61.592" y1="252.632" y2="273.407" gradientUnits="userSpaceOnUse">
      <stop stop-color="#fff"/>
      <stop offset="1"/>
    </linearGradient>
    <linearGradient id="paint1_linear" x1="50.143" x2="61.592" y1="252.632" y2="273.407" gradientUnits="userSpaceOnUse">
      <stop stop-color="#fff"/>
      <stop offset="1" stop-color="#fff"/>
    </linearGradient>
    <linearGradient id="paint2_linear" x1="95.945" x2="107.393" y1="226.094" y2="246.869" gradientUnits="userSpaceOnUse">
      <stop stop-color="#fff"/>
      <stop offset="1"/>
    </linearGradient>
    <linearGradient id="paint3_linear" x1="95.945" x2="107.393" y1="226.094" y2="246.869" gradientUnits="userSpaceOnUse">
      <stop stop-color="#fff"/>
      <stop offset="1" stop-color="#fff"/>
    </linearGradient>
  </defs>
</svg>
