<svg xmlns="http://www.w3.org/2000/svg" width="900" height="469" fill="none" viewBox="0 0 900 469">
  <path fill="#F8F8FB" d="M0 87.938h900v293.124H0V87.937z"/>
  <path fill="#E7E8D4" d="M219.799 141.423h-15.382v172.092h15.382V141.423z"/>
  <path fill="#F5F6E8" d="M204.417 141.423h-15.383v172.092h15.383V141.423zm30.765 0h-15.383v172.092h15.383V141.423z"/>
  <path fill="#E7E8D4" d="M158.268 141.423h-15.384v172.092h15.384V141.423z"/>
  <path fill="#F5F6E8" d="M142.884 141.423h-15.382v172.092h15.382V141.423z"/>
  <path fill="#E7E8D4" d="M189.034 141.423h-15.383v172.092h15.383V141.423z"/>
  <path fill="#F5F6E8" d="M173.651 141.423h-15.383v172.092h15.383V141.423z"/>
  <path fill="#E7E8D4" d="M96.736 141.423H81.353v172.092h15.383V141.423z"/>
  <path fill="#F5F6E8" d="M81.353 141.423H65.97v172.092h15.383V141.423z"/>
  <path fill="#E7E8D4" d="M127.502 141.423h-15.383v172.092h15.383V141.423z"/>
  <path fill="#F5F6E8" d="M112.119 141.423H96.736v172.092h15.383V141.423z"/>
  <path fill="#EAEADA" d="M149.423 346.667c66.301 0 120.048-9.646 120.048-21.545 0-11.898-53.747-21.545-120.048-21.545-66.3 0-120.048 9.647-120.048 21.545 0 11.899 53.748 21.545 120.048 21.545z"/>
  <path fill="#141A33" d="M247.433 268.931h-93.821c-4.449 0-8.055-4.265-8.055-9.522v-58.867c0-5.26 3.608-9.523 8.055-9.523h93.824c4.448 0 8.053 4.265 8.053 9.523v58.864c0 5.26-3.607 9.525-8.056 9.525z"/>
  <path fill="#fff" d="M244.213 265.062h-86.487c-4.01 0-7.26-3.843-7.26-8.583V204c0-4.74 3.25-8.583 7.26-8.583h86.487c4.009 0 7.26 3.843 7.26 8.583v52.479c0 4.74-3.251 8.583-7.26 8.583z"/>
  <path fill="#3F56DB" d="M222.114 265.062l29.358-42.106v-21.062c0-3.065-1.801-5.631-4.22-6.304l-48.359 69.472h23.221zm-40.955-69.645h-25.215c-3.026 0-5.48 2.899-5.48 6.479v25.045l30.695-31.524zm46.88 0h-19.232l-58.341 53.339v9.83c0 3.577 2.452 6.479 5.48 6.479h13.662l58.431-69.648z"/>
  <path fill="#311A12" d="M172.111 250.639H59.201c-5.709 0-10.337-5.472-10.337-12.22v-94.623c0-6.749 4.629-12.221 10.337-12.221h112.91c5.708 0 10.337 5.472 10.337 12.221v94.623c0 6.748-4.629 12.22-10.337 12.22z"/>
  <path fill="#FFFFF8" d="M167.643 246.596H63.809c-5.708 0-10.337-5.472-10.337-12.22v-86.535c0-6.749 4.629-12.22 10.337-12.22h103.834c5.708 0 10.336 5.471 10.336 12.22v86.532c.002 6.751-4.626 12.223-10.336 12.223z"/>
  <path fill="#45BCBF" d="M90.574 244.573H64.736c-3.672 0-6.65-3.519-6.65-7.86v-51.197c0-4.342 2.978-7.861 6.65-7.861h25.84c3.672 0 6.648 3.519 6.648 7.861v51.197c0 4.341-2.978 7.86-6.65 7.86z"/>
  <path fill="#fff" d="M87.934 218.58H67.531c-2.977 0-5.391-2.853-5.391-6.374v-24.122c0-3.519 2.412-6.374 5.39-6.374h20.404c2.977 0 5.392 2.852 5.392 6.374v24.122c0 3.519-2.413 6.374-5.392 6.374zm2.273 24.334H65.258c-1.722 0-3.119-1.65-3.119-3.687 0-2.036 1.397-3.686 3.12-3.686h24.948c1.723 0 3.119 1.65 3.119 3.686 0 2.037-1.396 3.687-3.118 3.687zm0-12.167H65.258c-1.722 0-3.119-1.65-3.119-3.686 0-2.037 1.397-3.687 3.12-3.687h24.948c1.723 0 3.119 1.65 3.119 3.687 0 2.036-1.396 3.686-3.118 3.686z"/>
  <path fill="#3F56DB" d="M85.627 209.287c4.232-5.007 4.234-13.119.002-18.118-4.23-5-11.092-4.994-15.325.013-4.232 5.007-4.233 13.119-.002 18.118 4.231 5 11.092 4.994 15.325-.013z"/>
  <path fill="#45BCBF" d="M77.394 187.443l.495 12.703 9.627-5.968c-1.829-4.02-5.419-6.752-9.548-6.752a7.846 7.846 0 00-.574.017z"/>
  <path fill="#EA6027" d="M87.046 207.228c1.109-2.011 1.758-4.411 1.758-6.991 0-2.17-.458-4.214-1.264-6.003l-9.653 5.912 9.159 7.082z"/>
  <path fill="#FFB400" d="M77.89 200.144l6.407 10.489a12.207 12.207 0 002.77-3.442l-9.178-7.047z"/>
  <path fill="#F2E2AF" d="M77.966 213.05c2.373 0 4.565-.904 6.352-2.433l-6.429-10.471-5.878 10.795c1.71 1.33 3.755 2.109 5.955 2.109z"/>
  <path fill="#C09C44" d="M88.879 161.297H60.614c-1.398 0-2.529-1.338-2.529-2.99 0-1.652 1.131-2.99 2.53-2.99h28.264c1.397 0 2.528 1.338 2.528 2.99 0 1.652-1.13 2.99-2.528 2.99zm-2.975-9.145h-21.57c-1.398 0-2.53-1.337-2.53-2.99 0-1.651 1.132-2.989 2.53-2.989h21.57c1.397 0 2.53 1.338 2.53 2.989 0 1.65-1.135 2.99-2.53 2.99zm2.975 19.52H60.614c-1.398 0-2.529-1.337-2.529-2.99 0-1.652 1.131-2.99 2.53-2.99h28.264c1.397 0 2.528 1.338 2.528 2.99 0 1.653-1.13 2.99-2.528 2.99z"/>
  <path fill="#D21C4B" d="M100.116 163.567l.812-2.27-7.884 1.582 4.61 7.563.897-2.51c2.168 2.015 8.362 8.622 9.217 19.042.002 0 .42-16.155-7.652-23.407z"/>
  <path fill="#3F56DB" d="M109.239 196.55c.233 2.78-1.727 5.099-4.08 4.824-1.741-.203-3.148-1.869-3.322-3.927-.232-2.78 1.727-5.099 4.08-4.824 1.743.205 3.151 1.869 3.322 3.927z"/>
  <path fill="#FFB400" d="M109.239 239.815c.232 2.78-1.727 5.099-4.08 4.824-1.741-.203-3.148-1.869-3.322-3.927-.233-2.78 1.727-5.099 4.081-4.824 1.742.205 3.15 1.869 3.321 3.927z"/>
  <path fill="#45BCBF" d="M109.239 225.394c.232 2.78-1.727 5.099-4.08 4.824-1.741-.203-3.148-1.869-3.322-3.927-.233-2.78 1.727-5.098 4.081-4.823 1.742.205 3.15 1.868 3.321 3.926z"/>
  <path fill="#FFB400" d="M109.239 210.973c.232 2.781-1.727 5.099-4.08 4.824-1.741-.203-3.148-1.869-3.322-3.927-.233-2.78 1.727-5.099 4.081-4.824 1.742.203 3.15 1.869 3.321 3.927z"/>
  <path fill="#45BCBF" d="M105.539 197l3.539-1.354c-.45-1.645-1.698-2.864-3.202-3.025l-.337 4.379z"/>
  <path fill="#3F56DB" d="M109.259 211.42c0-2.428-1.666-4.397-3.72-4.397v8.793c2.054.002 3.72-1.967 3.72-4.396z"/>
  <path fill="#FFB400" d="M105.328 230.232l.213-4.388-3.619 1.014c.37 1.859 1.74 3.262 3.406 3.374z"/>
  <path fill="#3F56DB" d="M105.539 225.844l1.705-3.906a3.242 3.242 0 00-1.705-.489l-.108.002.108 4.393z"/>
  <g>
    <path fill="#C09C44" d="M167.851 196.471h-49.945c-3.215 0-5.821-3.081-5.821-6.882v-42.163c0-3.8 2.606-6.881 5.821-6.881h49.945c3.215 0 5.822 3.081 5.822 6.881v42.165c-.002 3.799-2.609 6.88-5.822 6.88z"/>
    <path fill="#fff" d="M166.339 194.009h-5.15c-1.297 0-2.348-1.242-2.348-2.775v-37.01c0-1.533 1.051-2.775 2.348-2.775h5.15c1.298 0 2.348 1.242 2.348 2.775v37.01c0 1.533-1.05 2.775-2.348 2.775z"/>
    <path fill="#F2E2AF" d="M166.339 194.009h-5.15c-1.297 0-2.348-1.242-2.348-2.775v-29.585h9.846v29.585c0 1.533-1.05 2.775-2.348 2.775z"/>
    <path fill="#fff" d="M153.111 194.01h-5.15c-1.298 0-2.348-1.243-2.348-2.776V162.49c0-1.533 1.05-2.775 2.348-2.775h5.15c1.297 0 2.348 1.242 2.348 2.775v28.744c0 1.533-1.053 2.776-2.348 2.776z"/>
    <path fill="#F2E2AF" d="M153.111 194.009h-5.15c-1.298 0-2.348-1.242-2.348-2.775v-21.671h9.846v21.671c0 1.533-1.053 2.775-2.348 2.775z"/>
    <path fill="#fff" d="M138.804 194.009h-5.15c-1.297 0-2.348-1.242-2.348-2.775v-32.79c0-1.533 1.051-2.775 2.348-2.775h5.15c1.297 0 2.348 1.242 2.348 2.775v32.79c0 1.533-1.053 2.775-2.348 2.775z"/>
    <path fill="#F2E2AF" d="M138.804 194.009h-5.15c-1.297 0-2.348-1.242-2.348-2.775v-17.099h9.846v17.099c0 1.533-1.053 2.775-2.348 2.775z"/>
    <path fill="#fff" d="M124.344 194.009h-5.151c-1.297 0-2.347-1.242-2.347-2.775v-40.352c0-1.533 1.05-2.775 2.347-2.775h5.151c1.297 0 2.347 1.242 2.347 2.775v40.352c0 1.533-1.052 2.775-2.347 2.775z"/>
    <path fill="#F2E2AF" d="M124.344 194.009h-5.151c-1.297 0-2.347-1.242-2.347-2.775v-30.289h9.845v30.289c0 1.533-1.052 2.775-2.347 2.775z"/>
  </g>
  <g>
    <path fill="#F2E2AF" d="M172.074 218.104h-57.351c-1.457 0-2.64-1.396-2.64-3.118v-5.547c0-1.722 1.181-3.12 2.64-3.12h57.351c1.457 0 2.639 1.396 2.639 3.12v5.545c0 1.724-1.182 3.12-2.639 3.12z"/>
    <path fill="#45BCBF" d="M166.255 237.449h-47.05c-1.303 0-2.359-1.249-2.359-2.79v-8.315c0-1.54 1.056-2.789 2.359-2.789h47.05c1.303 0 2.359 1.249 2.359 2.789v8.315c0 1.543-1.056 2.79-2.359 2.79z"/>
    <path fill="#3F56DB" d="M166.255 237.449h-25.162v-13.894h25.162c1.303 0 2.359 1.249 2.359 2.79v8.315c0 1.542-1.056 2.789-2.359 2.789z"/>
  </g>
  <g>
    <path fill="#311A12" d="M249.688 150.567h-59.355v5.98h59.355v-5.98z"/>
    <path fill="#45BCBF" d="M228.414 145.292h-36.743v5.276h36.743v-5.276z"/>
    <path fill="#3F56DB" d="M227.075 140.367h-31.834v4.925h31.834v-4.925z"/>
    <path fill="#D21C4B" d="M225.884 134.917h-25.585v5.453h25.585v-5.453z"/>
    <path fill="#FFB400" d="M222.019 140.367h-1.488v4.925h1.488v-4.925zm-19.934 4.925h-1.339v5.276h1.339v-5.276zm10.264-10.375h-9.223v5.453h9.223v-5.453zm26.031-3.167h-4.611v18.818h4.611v-18.819.001z"/>
    <path fill="#45BCBF" d="M243.738 125.595h-5.356v24.973h5.356v-24.973z"/>
    <path fill="#EA6027" d="M248.646 127.881h-4.908v22.687h4.908v-22.687z"/>
    <path fill="#FFB400" d="M199.11 145.292h-2.083v5.276h2.083v-5.276z"/>
  </g>
  <g>
    <path fill="#FFB400" d="M258.462 205.38a.186.186 0 01-.086-.025.181.181 0 01-.065-.061c-2.888-4.323-2.015-8.208-.233-14.093.905-2.985 3.17-13.055-5.654-17.226-2.365-1.119-4.315-1.17-5.789-.149-2.194 1.516-2.602 4.938-2.606 4.973-.013.123-.11.21-.216.195-.105-.016-.18-.13-.166-.253.016-.15.434-3.674 2.791-5.305 1.583-1.095 3.645-1.055 6.128.119 3.525 1.666 5.721 4.407 6.529 8.145.609 2.82.376 6.251-.656 9.657-1.731 5.717-2.65 9.434.171 13.657a.258.258 0 01-.032.319.168.168 0 01-.116.047z"/>
    <path fill="#324DA0" d="M220.754 183.089l19.239-8.643 16.93 8.643-17.122 6.37-19.047-6.37z"/>
    <path fill="#3F56DB" d="M230.182 182.861v8.415s1.924 2.729 9.042 2.729c7.32 0 9.041-2.729 9.041-2.729v-8.415s-2.308-2.047-9.041-1.82c-6.734.228-9.042 1.82-9.042 1.82z"/>
    <path fill="#FEC655" d="M258.271 209.474s-3.848-4.777-.962-6.823c3.24-2.3 4.81 4.549 4.81 4.549s-1.348 2.729-3.848 2.274z"/>
  </g>
  <g>
    <path fill="#141A33" d="M48.119 278.779s-.446 7.74 5.058 8.092v-2.112s-3.57-.174-3.57-5.98h-1.488z"/>
    <path fill="#311A12" d="M48.834 280.336c-.943.066-1.752-.787-1.807-1.902l-1.382-28.09c-.055-1.116.666-2.072 1.609-2.138.944-.065 1.752.788 1.807 1.902l1.382 28.091c.055 1.114-.664 2.072-1.609 2.137z"/>
    <path fill="#141A33" d="M53.623 286.871l-4.051 29.42c-.06.435.225.829.597.829.28 0 .525-.228.59-.55l5.84-29.172-2.976-.527zm17.511 0l4.051 29.42c.059.435-.225.829-.597.829-.28 0-.525-.228-.59-.55l-5.84-29.172 2.976-.527z"/>
    <path fill="#311A12" d="M70.284 288.453H53.922c-1.315 0-2.38-1.26-2.38-2.812 0-1.555 1.067-2.813 2.38-2.813h16.362c1.315 0 2.38 1.26 2.38 2.813 0 1.552-1.067 2.812-2.38 2.812z"/>
    <path fill="#9A605C" d="M79.358 304.281v7.036l3.868-.177v-7.385l-3.868.526z"/>
    <path fill="#fff" d="M83.226 307.581c-1.475.408-2.93.162-3.868-.109v3.843l3.868-.175v-3.559z"/>
    <path fill="#3F56DB" d="M77.722 280.891s1.182 4.15.191 6.811c-1.254 3.368.702 14.645.702 16.579 0 1.935 4.165 1.583 5.058.527 0 0 .445-15.829.445-17.411 0-1.582-.892-11.256-6.396-6.506z"/>
    <path fill="#324DB2" d="M77.722 280.891s.85 3.076.534 5.196c.457.487 1.112 1.417.806 2.72-.743 3.165 0 4.398 2.38 7.74a48.398 48.398 0 012.359 3.684c.132-4.805.319-11.806.319-12.832-.002-1.584-.894-11.258-6.398-6.508z"/>
    <path fill="#141A33" d="M79.358 309.707s1.19.853 3.868 0c0 0 4.145 2.169 6.849 3.228.924.361 1.602 1.295 1.778 2.428 0 0-9.075.175-12.793-.703 0 0-.297-3.222.298-4.953z"/>
    <path fill="#45BCBF" d="M79.001 313.668c.021.59.059.988.059.988 3.72.879 12.793.704 12.793.704a3.474 3.474 0 00-.357-1.092c-3.327.088-10.127-.413-12.495-.6z"/>
    <path fill="#9A605C" d="M91.258 303.929l3.124 6.684 3.572-.177-2.826-7.033-3.87.526z"/>
    <path fill="#fff" d="M96.493 306.803c-1.03.75-2.456.958-3.422 1.005l1.313 2.805 3.57-.175-1.46-3.635z"/>
    <path fill="#141A33" d="M93.787 309.529s1.19.853 3.867 0c0 0 4.145 2.17 6.85 3.228.925.362 1.603 1.296 1.778 2.429 0 0-9.075.175-12.793-.704 0 0-.295-3.221.298-4.953z"/>
    <path fill="#45BCBF" d="M93.432 313.494c.022.589.06.988.06.988 3.719.879 12.792.704 12.792.704a3.482 3.482 0 00-.357-1.093c-3.327.086-10.13-.413-12.495-.599z"/>
    <path fill="#3F56DB" d="M52.359 270.781s-4.538 15.209 7.512 14.505c12.05-.703 19.828-3.025 20.208-1.086 1.721 8.795 9.115 17.646 10.71 20.34 1.054 1.783 2.702 3.084 5.677-.787 0 0-7.14-27.963-14.282-31.305-7.139-3.342-18.446-1.056-18.446-1.056l-11.38-.611z"/>
    <path fill="#324DB2" d="M67.45 270.87c-2.23.224-3.712.524-3.712.524l-11.38-.61s-1.233 4.141-.703 8.002c3.083-1.475 9.032-2.761 11.936-4.047 2.071-.923 3.242-2.613 3.859-3.869z"/>
    <path fill="#2B4393" d="M81.292 303.841c-.042 0-.075-.04-.075-.088 0-.038-.01-3.722-.89-7.185-.89-3.507-.46-4.757-.443-4.808.016-.044.061-.065.099-.047.037.019.055.07.039.115-.004.011-.421 1.258.45 4.688.885 3.489.894 7.199.894 7.237 0 .048-.033.088-.074.088zm-26.798-25.143c-.09 0-.184-.002-.278-.005-.042-.002-.074-.042-.074-.09.002-.05.038-.084.077-.087 1.59.061 2.807-.387 3.625-1.323 1.044-1.196 1.06-2.792 1.06-2.809 0-.049.032-.088.074-.088.041 0 .075.039.075.088 0 .068-.012 1.685-1.102 2.934-.8.916-1.964 1.38-3.457 1.38z"/>
    <path fill="#2B4393" d="M93.639 304.544c-.023 0-.045-.013-.06-.037-.076-.126-7.604-12.696-8.93-15.306-.702-1.382-.882-2.98-1.07-4.672-.176-1.562-.375-3.333-1.018-5.188-1.35-3.903-7.246-1.76-10.769-.478-3.84 1.396-12.441-.156-12.528-.172-.042-.007-.069-.052-.063-.1.006-.047.045-.08.085-.073.087.016 8.655 1.564 12.46.18 3.573-1.299 9.55-3.472 10.95.578.65 1.876.85 3.658 1.028 5.231.197 1.749.367 3.256 1.05 4.606 1.323 2.605 8.847 15.168 8.922 15.294.024.04.016.096-.018.124a.06.06 0 01-.018.01c-.007.003-.014.004-.021.003z"/>
    <path fill="#9A605C" d="M86.202 257.852s-2.231 1.408-4.463 1.759c-2.232.352-1.19 3.517.148 3.694 1.339.175 2.974 1.056 3.867-.704.893-1.759.448-4.749.448-4.749z"/>
    <path fill="#D4DCFF" d="M82.927 258.906l-.297 4.924s-12.348 1.934-16.958-1.76c-4.61-3.694-1.786-13.015 0-11.256 1.786 1.76 4.61 5.629 5.951 5.276 1.338-.349 6.396 2.993 11.304 2.816z"/>
    <path fill="#C5CEEF" d="M69.143 254.58c-1.19-1.19-2.487-2.796-3.471-3.764-1.786-1.759-4.61 7.563 0 11.257 1.414 1.132 3.552 1.733 5.84 2.027-1.56-2.571-2.15-6.593-2.369-9.52z"/>
    <path fill="#9A605C" d="M60.912 244.485l2.083-4.221s-1.636-.526-1.04-2.286c.595-1.759 2.379-6.684 2.974-7.21.595-.527 8.182 2.111 8.33 4.046.148 1.934-3.57 14.245-7.289 11.959l-1.041 2.638c0-.002-4.91-.528-4.017-4.926z"/>
    <path fill="#1C0D09" d="M61.953 237.978s.445-1.407 1.636-1.407c1.19 0 1.19 1.759 1.488 2.111.297.352 3.272-5.628 3.422-6.155.147-.526-4.61-2.99-5.058-1.76-.446 1.231-1.489 7.211-1.489 7.211z"/>
    <path fill="#311A12" d="M69.69 232.877c-.146-.038-7.588-.527-6.1-3.869 1.489-3.342 4.316-4.045 4.611-3.694.298.352-.743 1.056-.148 1.76.596.704 2.231 1.582 4.018 1.934 1.785.352 3.273 4.538 1.19 6.05-.002 0-.745-1.477-3.572-2.181z"/>
    <path fill="#000" d="M68.944 240.879c-.041 0-.075-.039-.075-.088 0-.049.034-.089.075-.089.819 0 .964-.61.97-.636l.445-2.284c.01-.046.05-.077.09-.065.038.012.064.058.054.105l-.445 2.286c-.006.033-.174.771-1.114.771zm-5.206-1.582c-.041 0-.075-.04-.075-.088v-1.935c0-.048.034-.088.075-.088.042 0 .075.04.075.088v1.935c0 .048-.033.088-.075.088z"/>
    <path fill="#000" d="M63.738 238.642c-.005 0-.012 0-.017-.002l-.743-.226c-.04-.012-.064-.061-.054-.107.01-.047.052-.075.091-.063l.743.226c.04.011.063.061.053.107-.01.04-.04.065-.073.065zm3.213 8.504c-.3 0-.644-.077-1.015-.296-1.216-.72-1.232-3.309-1.232-3.421 0-.049.034-.089.075-.089.042 0 .075.04.075.089 0 .025.014 2.591 1.15 3.262 1.13.669 1.968-.06 2.004-.09.033-.031.079-.022.105.016a.1.1 0 01-.014.123 1.85 1.85 0 01-1.148.406zm2.354-4.931h-.008c-.556-.075-.97-.327-1.232-.751-.44-.708-.292-1.633-.286-1.671.008-.046.048-.079.087-.069.04.008.067.055.059.102-.002.01-.14.89.26 1.536.237.382.617.61 1.128.678.041.004.07.049.065.097-.004.045-.035.078-.073.078z"/>
    <path fill="#141A33" d="M71.603 238.365c-.1.319-.305.522-.461.454-.154-.067-.197-.38-.096-.699.1-.319.305-.522.46-.454.155.065.198.38.097.699zm-1.934-.704c-.1.32-.305.522-.46.455-.155-.068-.198-.38-.097-.7.1-.318.306-.522.461-.454.156.067.197.38.096.699z"/>
    <path fill="#311A12" d="M68.201 235.867c0-.352 1.488-.704 1.636-.352.15.352-1.636.704-1.636.352zm4.526 1.188c.099-.333-1.21-1.242-1.449-.967-.237.275 1.352 1.3 1.449.967z"/>
    <path fill="#A9B5D8" d="M72.664 257.412a.075.075 0 01-.03-.007.08.08 0 01-.023-.019c-.58-.685-1.816-1.368-1.828-1.375-.037-.021-.053-.072-.035-.117.018-.044.06-.062.098-.042.051.029 1.274.704 1.87 1.41a.1.1 0 01.023.062.097.097 0 01-.022.062.08.08 0 01-.024.019.074.074 0 01-.03.007zm7.735 6.332c-.038 0-.07-.033-.073-.077-.148-1.398-.002-4.209 0-4.237.002-.049.037-.086.078-.082.042.003.073.044.07.094-.002.027-.147 2.822 0 4.204.005.049-.024.093-.065.098h-.01z"/>
    <path fill="#D4DCFF" d="M65.349 248.346s-3.394-2.983-3.915-4.917h-3.05s-.147 0 0 1.055c0 0-5.355 2.813-6.396 9.322-1.04 6.507-.743 9.674-1.488 11.256-.744 1.583-1.04 5.102 2.677 5.98 3.72.879 11.306 2.464 12.792.352 1.49-2.111 1.286-17.956-.62-23.048z"/>
    <path fill="#A9B5D8" d="M64.78 250.728h-.007c-4.013-.352-6.286-5.798-6.31-5.854-.017-.044-.002-.095.036-.116.037-.022.081-.003.098.041.022.054 2.238 5.356 6.125 5.75l.432-1.918c.01-.047.051-.075.09-.063.04.011.064.06.053.107l-.447 1.99c-.007.038-.037.063-.07.063zM52.43 262.863a.064.064 0 01-.027-.007.054.054 0 01-.022-.017.096.096 0 01-.006-.123c.048-.063 1.138-1.56-.005-3.587-1.195-2.118-.464-5.316-.456-5.348.013-.047.051-.075.091-.061.04.014.063.061.051.108-.008.03-.721 3.153.436 5.203 1.208 2.142.006 3.785-.006 3.801a.072.072 0 01-.024.023.069.069 0 01-.031.008zm14.431-1.054s-.001 0 0 0c-.043 0-.075-.041-.075-.088.082-5.169-.64-9.658-.648-9.702-.008-.046.018-.093.06-.103.038-.008.079.022.086.07.008.045.733 4.55.653 9.74-.002.043-.036.083-.076.083z"/>
    <path fill="#273359" d="M88.433 272.976l-6.694-1.582H71.326l7.139 1.582h9.968z"/>
    <path fill="#1D2744" d="M88.431 272.976h-9.966v.705h9.966v-.705zm6.1-16.357l.596.529-6.1 16.533h-.594v-.704l6.099-16.358z"/>
    <path fill="#141A33" d="M71.326 271.394l7.139 1.582v.704l-7.14-1.76v-.526zm10.413 0l4.61-14.598 8.183-.177-6.099 16.358-6.694-1.583z"/>
    <path fill="#fff" d="M86.795 257.852l-3.868 12.661 5.209 1.233 4.61-13.542-5.951-.352z"/>
    <path fill="#3F56DB" d="M88.784 257.969l-3.117 3.574-1.549 5.074 8.003-8.451-3.337-.197zm2.267 5.21l-6.933 7.616 4.018.951 2.915-8.567z"/>
    <path fill="#9A605C" d="M72.516 268.052s1.19.879 4.315.527c3.124-.352 4.794 2.112 5.206 2.813 0 0 .219.517-.188.443a.597.597 0 01-.37-.259c-.24-.342-.838-1.102-1.526-1.237 0 0 1.278 1.092 1.234 1.689-.043.597-1.234.597-1.829.422-.596-.175-2.752-1.319-4.09-1.494-1.339-.175-3.495.441-4.835-.615-1.34-1.058 2.083-2.289 2.083-2.289z"/>
    <path fill="#D4DCFF" d="M73.11 267.171l-2.084 5.451s-11.752-.175-14.43-7.739c-2.676-7.562-2.083-16.006.744-17.059 2.827-1.055 7.437 7.914 7.29 9.673-.149 1.76-.446 2.112 1.19 2.639 1.636.526 1.488 1.056 1.636 2.99.15 1.936 5.653 4.045 5.653 4.045z"/>
    <path fill="#C5CEEF" d="M57.938 265.414c-2.303-4.082-2.619-10.864-2.603-14.525-.863 3.36-.55 8.881 1.262 13.999 1.391 3.931 5.235 5.866 8.606 6.819-2.52-1.245-5.559-3.268-7.266-6.293z"/>
    <path fill="#A9B5D8" d="M67.491 263.413c-.03 0-.057-.022-.069-.054-.068-.198-.073-.305-.083-.566-.012-.355-.034-.71-.067-1.063-.092-1.026-.813-1.277-1.2-1.412a2.427 2.427 0 01-.142-.052c-.065-.028-.158-.053-.266-.083-.39-.11-.981-.275-1.143-.781-.124-.384-.08-.758-.028-1.186a7.13 7.13 0 00.065-.89c0-.847-1.352-3.633-1.366-3.662a.1.1 0 01.028-.121c.036-.023.08-.009.102.033.057.117 1.388 2.857 1.386 3.75 0 .347-.035.647-.067.913-.05.424-.09.757.02 1.1.134.417.68.571 1.038.674.113.032.21.058.282.088l.135.049c.39.138 1.202.419 1.306 1.561.05.55.062.865.07 1.075.01.253.011.338.07.505.016.045-.001.096-.04.115a.101.101 0 01-.03.007zm1.368 7.457c-.005 0-.01 0-.015-.002-.04-.01-.065-.057-.058-.105.361-2.014 1.952-4.659 1.968-4.687.023-.04.071-.049.104-.021.034.028.041.084.018.124-.016.025-1.589 2.642-1.942 4.619-.008.044-.039.072-.075.072z"/>
  </g>
  <g>
    <path fill="#9A605C" d="M193.607 224.387s-2.823-14.087-3.763-12.235c-.94 1.853.313 5.006.313 5.006s-2.665 2.41-2.351 4.82c.313 2.409 1.411 5.189 2.509 5.56 1.096.37 3.292-3.151 3.292-3.151z"/>
    <path fill="#9A605C" d="M192.509 217.526s-1.567 5.561-.313 4.636c1.253-.928 1.881-5.19 1.253-5.561-.627-.37-.94.925-.94.925z"/>
    <path fill="#000" d="M188.88 223.245c-.381 0-.761-1.025-.834-1.232-.016-.047.002-.103.041-.122.04-.018.087.003.103.049.167.478.499 1.14.697 1.119.097-.01.188-.21.251-.548 0-.007.152-1.107 0-2.188-.008-.052.022-.098.065-.107.043-.01.083.025.091.077.157 1.113.005 2.209 0 2.255-.085.453-.213.678-.39.697h-.024z"/>
    <path fill="#000" d="M189.684 222.698a.307.307 0 01-.053-.007c-.286-.063-.426-.611-.44-.674-.012-.049.012-.1.053-.114.042-.014.085.014.097.063.032.13.158.508.318.543.1.021.207-.107.277-.217.448-.706.3-3.248.298-3.274-.004-.052.03-.095.073-.098.044-.005.081.035.083.086.006.107.154 2.638-.329 3.4-.123.192-.248.292-.377.292z"/>
    <path fill="#000" d="M190.561 221.84a.563.563 0 01-.38-.178.1.1 0 01-.025-.064.106.106 0 01.021-.066c.029-.037.079-.04.11-.005.008.01.185.194.389.105.213-.093.5-.496.658-1.89.122-1.081.016-1.885-.308-2.325-.252-.343-.542-.35-.555-.35-.044 0-.079-.042-.079-.093 0-.052.035-.093.079-.093.015 0 .37.005.67.41.36.489.479 1.321.348 2.477-.133 1.196-.39 1.883-.76 2.041a.485.485 0 01-.168.031zm1.398.517a.098.098 0 01-.045-.005c-.63-.291.035-2.973.175-3.509.012-.049.057-.077.098-.061.042.014.065.068.052.117-.33 1.263-.633 3.113-.28 3.277-.006-.003.404.053.891-1.064.019-.046.067-.062.106-.039.04.023.053.079.034.126-.466 1.065-.893 1.158-1.031 1.158z"/>
    <path fill="#FFB400" d="M189.215 227.168l4.861-3.709 2.352 14.088s1.566-.741 1.253.557c-.313 1.299-1.098 2.226 1.254 1.112 2.351-1.112 6.427-1.853 6.427-1.853l-2.195 10.382s-11.76 2.781-12.387.557c-.623-2.228-1.565-21.134-1.565-21.134z"/>
    <path fill="#C6880C" d="M190.157 228.556c-.028 0-.053-.016-.069-.047a.106.106 0 01-.008-.068.106.106 0 01.037-.057l3.608-2.41c.037-.025.084-.009.106.035.022.044.008.1-.029.126l-3.608 2.409a.055.055 0 01-.037.012zm5.174 13.533a.08.08 0 01-.033-.008.067.067 0 01-.025-.022.104.104 0 01.005-.131l1.567-1.669a.08.08 0 01.04-.022.087.087 0 01.045.006.098.098 0 01.048.084v1.298c0 .051-.036.093-.079.093-.044 0-.08-.042-.08-.093v-1.091l-1.437 1.529a.051.051 0 01-.022.019.06.06 0 01-.029.007z"/>
    <path fill="#1C0D09" d="M216.466 223.106s-.909 2.763-1.377 2.95c-.472.186-1.254-2.226-.314-2.967a1.243 1.243 0 011.691.017z"/>
    <path fill="#9A605C" d="M207.091 216.231s-.94 14.274 3.45 13.162l.158 4.449 4.547-1.482v-8.527s1.254.186 1.412-1.483c.157-1.668-.314-5.56-.314-5.56l-5.488-1.853-3.765 1.294z"/>
    <path fill="#1C0D09" d="M212.735 217.526s1.098 1.669 1.254 2.967c.157 1.298.487 1.631.784.928.313-.742 1.883-.742 1.883.741 0 0 1.566-5.377.313-6.118-1.254-.741-4.234 1.482-4.234 1.482z"/>
    <path fill="#311A12" d="M205.68 214.933c1.254-1.483 2.822-.928 2.822-.928s-1.097-1.669.159-2.039c1.253-.371 2.509.741 2.509.741s0-2.409 1.567-2.039c1.567.37 1.098 1.853 1.098 1.853s.627-1.112 2.196-.742c1.569.371.313 2.04.313 2.04s1.253-1.112 1.883.557c.626 1.668-1.865 2.547-1.865 2.547s.456.976-1.269 1.346c-1.725.371-3.764.371-3.45-1.297 0 0-.158 1.482-1.098 1.111-.94-.37-.471-1.298-.471-1.298s-1.412 2.039-2.352 1.483c-.887-.525.158-1.299.158-1.299s-3.456-.555-2.2-2.036z"/>
    <path fill="#000" d="M215.244 222.996a.068.068 0 01-.045-.017.096.096 0 01-.032-.06.107.107 0 01.014-.068l.785-1.298c.025-.042.075-.051.108-.021a.102.102 0 01.018.128l-.784 1.298a.078.078 0 01-.064.038z"/>
    <path fill="#000" d="M215.871 222.809a.093.093 0 01-.029-.005.06.06 0 01-.024-.018l-.312-.338a.102.102 0 01-.024-.065.098.098 0 01.021-.065c.029-.037.078-.04.11-.005l.311.338a.103.103 0 01.004.13.064.064 0 01-.025.021.071.071 0 01-.032.007z"/>
    <path fill="#1C0D09" d="M207.241 221.041s-.154-.373.481-1.105.941.014.467.377c-.475.364-.794 1.1-.948.728zm3.67 0s.154-.373-.48-1.105c-.635-.732-.94.014-.468.377.476.364.797 1.1.948.728z"/>
    <path fill="#000" d="M209.756 225.221c-.027 0-.664-.004-.995-.398-.327-.387.055-2.762.136-3.235.008-.051.049-.084.092-.072.044.01.07.058.062.11-.18 1.055-.385 2.822-.178 3.067.288.34.879.342.885.342.044 0 .079.042.079.093s-.037.093-.081.093z"/>
    <path fill="#141A33" d="M210.07 222.532c.173 0 .313-.249.313-.557 0-.307-.14-.557-.313-.557s-.314.25-.314.557c0 .308.141.557.314.557zm-2.038 0c.173 0 .313-.249.313-.557 0-.307-.14-.557-.313-.557s-.314.25-.314.557c0 .308.141.557.314.557z"/>
    <path fill="#000" d="M209.354 226.538c-.14 0-.232-.021-.24-.023-.043-.009-.069-.058-.061-.109.008-.052.049-.084.093-.073a1.296 1.296 0 001.046-.284c.391-.324.641-.888.743-1.678.006-.051.048-.084.089-.077.044.007.073.056.065.105-.11.843-.382 1.45-.81 1.804a1.43 1.43 0 01-.925.335zm.694 3.041c-.637 0-1.1-.44-1.125-.496-.018-.037-.012-.089.016-.117.033-.035.072-.032.118.01.01.006.017.018.021.03.133.119.716.583 1.438.298.719-.284 1.279-.962 1.49-1.218l.045-.057c.032-.037.081-.037.11 0 .03.038.032.096 0 .131l-.045.054c-.219.265-.799.967-1.554 1.265-.177.072-.35.1-.514.1z"/>
    <path fill="#9A605C" d="M204.951 310.159l.625 7.448 2.822-.086.623-7.682-4.07.32z"/>
    <path fill="#324DA0" d="M205.288 314.172l.288 3.432 2.82-.086.276-3.395c-1.228.463-2.493.296-3.384.049z"/>
    <path fill="#45BCBF" d="M205.386 316.041s2.017.785 3.121.133c0 0 1.161 2.095.297 5.854 0 0-12.527.971-14.271.042-1.744-.93-1.809-4.071 1.638-4.176 3.448-.105 9.215-1.853 9.215-1.853z"/>
    <path fill="#141A33" d="M193.37 320.301a2.25 2.25 0 001.163 1.767c1.744.93 14.271-.042 14.271-.042.14-.613.227-1.18.274-1.701-8.984 1.097-14.06.323-15.708-.024z"/>
    <path fill="#E09D0A" d="M203.171 247.743l2.196-10.382s-2.66.485-4.92 1.256c-.126 2.537.12 5.922-2.135 7.828a60.483 60.483 0 01-3.393 2.659c3.606-.262 8.252-1.361 8.252-1.361z"/>
    <path fill="#414D70" d="M203.594 260.292l.902 50.666s3.642 1.657 4.858-.147c1.217-1.805 2.315-10.698 2.385-13.432.087-3.342-2.548-9.354-1.19-11.951 1.358-2.596 3.585-8.557 4.106-13.682.52-5.124.526-12.395-2.164-13.49-2.687-1.098-8.897 2.036-8.897 2.036z"/>
    <path fill="#3B4663" d="M214.172 274.822l-5.687-5.639c2.198 7.595-2.659 15.406-.542 19.074 1.666 2.888 2.582 10.348 3.286 14.638.246-2.048.534-4.498.512-5.516-.082-3.927-2.549-9.354-1.19-11.95 1.09-2.088 2.744-6.351 3.621-10.607z"/>
    <path fill="#9A605C" d="M214.639 315.954l.625 7.448 2.823-.086.622-7.681-4.07.319z"/>
    <path fill="#324DA0" d="M214.976 319.97l.288 3.433 2.82-.087.277-3.395c-1.228.462-2.494.294-3.385.049z"/>
    <path fill="#45BCBF" d="M215.074 321.837s2.017.786 3.121.133c0 0 1.161 2.095.298 5.854 0 0-12.527.972-14.272.042-1.744-.93-1.809-4.072 1.638-4.177 3.45-.104 9.215-1.852 9.215-1.852z"/>
    <path fill="#141A33" d="M203.058 326.099c.068.718.49 1.407 1.163 1.766 1.745.93 14.272-.042 14.272-.042.14-.612.226-1.179.274-1.701-8.985 1.096-14.061.322-15.709-.023z"/>
    <path fill="#414D70" d="M210.49 259.602l3.883 57.812s3.733 1.631 4.843-.52c1.108-2.151 1.681-12.388 1.591-15.518-.111-3.825-3.095-10.501-1.893-13.564 1.203-3.061 3.075-10.035 3.294-15.926.217-5.891-.205-14.197-2.954-15.255-2.75-1.058-8.764 2.971-8.764 2.971z"/>
    <path fill="#2A3347" d="M214.353 317.433c-.041 0-.075-.037-.079-.087l-3.027-45.303-2.811-2.79a.103.103 0 01-.01-.13c.028-.04.077-.045.11-.012l2.837 2.813a.104.104 0 01.028.063l3.031 45.343c.004.051-.03.096-.073.101-.002.002-.004.002-.006.002z"/>
    <path fill="#3B4663" d="M203.664 264.119l18.592 4.661s-.125-10.783-2.47-11.829c-2.346-1.049-16.144 3.4-16.144 3.4l.022 3.768z"/>
    <path fill="#2A3347" d="M218.173 312.599h-.005c-.044-.004-.075-.049-.074-.098.005-.058.347-5.945.265-9.823-.038-1.757-.438-3.908-.86-6.185-.524-2.824-1.12-6.023-1.188-9.275-.123-5.833.97-13.138.979-13.213.008-.052.049-.084.091-.075.043.01.071.058.063.108-.011.072-1.1 7.361-.978 13.176.067 3.234.661 6.425 1.185 9.24.426 2.286.826 4.446.863 6.22.081 3.887-.261 9.781-.266 9.841.002.047-.033.084-.075.084zm1.146-42.868c-.006 0-.012 0-.018-.003-3.964-1.065-3.771-4.858-3.769-4.896.004-.051.041-.091.085-.086.043.004.075.049.073.1-.01.149-.182 3.675 3.646 4.703.042.011.07.061.06.112-.01.042-.042.07-.077.07z"/>
    <path fill="#FFB400" d="M210.592 230.891s-1.306.355-2.562 2.21c0 0-5.646 3.15-6.428 8.343-.785 5.19-.627 12.792.627 15.572 1.253 2.78 17.988 6.161 19.422 3.915 1.433-2.247 3.315-15.593 2.06-19.858-1.254-4.265-1.254-6.117-7.057-7.97 0 0 .157-3.011-1.412-2.526 0 0-3.219 1.864-4.589 2.102l-.061-1.788z"/>
    <path fill="#C6880C" d="M209.756 236.343a.074.074 0 01-.035-.01c-.633-.375-1.853-1.992-1.904-2.06a.103.103 0 01-.02-.066.11.11 0 01.025-.065.076.076 0 01.026-.018.067.067 0 01.031-.005c.011 0 .022.004.031.009a.077.077 0 01.023.021c.012.017 1.153 1.529 1.78 1.967l.889-2.885c.014-.048.059-.072.1-.056.042.016.062.07.048.119l-.921 2.988a.08.08 0 01-.016.032.086.086 0 01-.029.021.054.054 0 01-.028.008zm2.038 0a.116.116 0 01-.031-.007.092.092 0 01-.026-.022.077.077 0 01-.015-.03l-.471-1.482c-.016-.049.005-.1.045-.119.041-.019.086.007.1.054l.442 1.394c.455-.217 2.913-1.408 4.455-2.734.035-.031.084-.021.11.021.026.041.018.1-.017.13-1.714 1.473-4.536 2.78-4.566 2.792-.006 0-.016.003-.026.003zm-3.92 10.381c-.043 0-.079-.041-.079-.093 0-2.41.895-4.153 1.686-5.691.25-.487.485-.946.676-1.393.762-1.806.465-4.183.463-4.209-.006-.051.024-.098.065-.105.043-.007.082.028.089.077.003.023.307 2.461-.478 4.318a21.05 21.05 0 01-.682 1.408c-.778 1.517-1.661 3.237-1.661 5.595 0 .052-.036.093-.079.093z"/>
    <path fill="#F2E2AF" d="M201.446 261.276c.158-.37 4.39-17.795 5.488-19.093 1.098-1.299 8.152 1.852 10.506 4.448 0 0-4.234 17.796-5.488 18.539-1.255.741-10.506-3.894-10.506-3.894z"/>
    <path fill="#9A605C" d="M208.972 253.49s-4.076-5.006-5.175-4.265c-1.097.741-2.509 6.488-1.566 7.229.94.741 5.645 1.299 5.645 1.299l1.096-4.263z"/>
    <path fill="#FFB400" d="M218.067 237.363s1.784-3.15 3.871-1.111c2.088 2.039 7.733 17.054 7.104 21.502-.626 4.449-3.136 7.6-10.035 5.561-6.899-2.039-12.386-5.376-12.386-5.376l1.724-5.931 11.602 2.41s-1.253-2.41 0-2.04c0 0-4.076-9.639-1.88-15.015z"/>
    <path fill="#C6880C" d="M208.659 257.848a.075.075 0 01-.026-.005c-.042-.016-.063-.07-.047-.119l1.253-4.265c.014-.048.059-.074.101-.058.041.017.063.07.049.119l-1.253 4.265c-.014.038-.044.063-.077.063zm13.642-2.039c-.006 0-.012 0-.018-.003l-1.411-.37c-.041-.012-.069-.061-.059-.11.01-.049.051-.082.093-.07l1.242.327-.858-1.86a.103.103 0 01.031-.126c.038-.026.085-.007.107.037l.94 2.039a.113.113 0 01-.006.101.088.088 0 01-.026.025.088.088 0 01-.035.01z"/>
    <path fill="#E09D0A" d="M229.042 257.754c.272-1.932-.636-5.853-1.926-9.841.698 3.831 1.256 8.427.515 10.769-1.05 3.309-6.164 4.607-11.559 3.666.969.352 1.947.675 2.935.969 6.899 2.037 9.409-1.114 10.035-5.563z"/>
    <path fill="#C6880C" d="M219.871 253.86a.078.078 0 01-.067-.044c-.61-1.168-.535-1.478-.424-1.608.136-.163.407-.067.611.037-.477-1.044-2.16-4.989-2.628-9.482-.55-5.272 1.423-6.489 1.508-6.537.04-.023.085-.005.105.042.02.046.003.1-.036.123-.019.012-1.955 1.219-1.421 6.348.54 5.19 2.712 9.637 2.734 9.681a.105.105 0 01-.012.112.072.072 0 01-.044.026.076.076 0 01-.051-.012c-.208-.149-.561-.317-.652-.21-.04.047-.122.285.447 1.38a.101.101 0 01-.025.128.075.075 0 01-.045.016z"/>
    <path fill="#141A33" d="M203.918 317.684c-.02.013-.047.018-.069.004l-2.425-1.261 1.128 2.152c.022.042.012.095-.024.121-.036.026-.081.014-.102-.028l-1.252-2.394a.098.098 0 01.008-.104.065.065 0 01.039-.028.066.066 0 01.048.004l2.462 1.279-1.071-2.663a.097.097 0 01.036-.117c.037-.02.081-.002.098.042l1.157 2.878a.1.1 0 01.007.051.096.096 0 01-.021.047c-.01.01-.013.014-.019.017zm9.538 6.539a.061.061 0 01-.035.007.07.07 0 01-.034-.012l-2.253-1.647.862 2.316c.015.044 0 .095-.038.117-.037.018-.081 0-.098-.045l-.958-2.575a.09.09 0 01-.005-.054.095.095 0 01.024-.048.07.07 0 01.089-.01l2.287 1.674-.745-2.815c-.012-.047.009-.096.049-.11.039-.014.081.011.093.058l.803 3.039a.084.084 0 01.001.052.09.09 0 01-.026.044c-.006.002-.012.007-.016.009z"/>
  </g>
  <g>
    <path fill="#D6C494" d="M387.984 156.234s19.856-10.103 27.075-18.07l11.978 10.492s-1.805 70.73-2.79 76.948c-.985 6.219-22.151 15.155-22.151 15.155l-14.112-84.525z"/>
    <path fill="#C4B287" d="M403.148 147.49c-7.526 4.854-15.164 8.742-15.164 8.742l14.112 84.526s21.166-8.94 22.151-15.156c.457-2.886 1.092-19.687 1.64-36.853l-22.739-41.259zm11.889-9.305c-.05 6.041-.221 16.523-.8 18.436 0 0 7.339-1.947 12.798-7.959v-.008l-11.978-10.491-.02.023v-.001z"/>
    <path fill="#D6C494" d="M415.059 138.162s1.805 14.184.657 16.517l11.322-6.023s-6.894-7.384-11.979-10.494z"/>
    <path fill="#A08F6D" d="M395.203 166.24c-.098 0-.191-.07-.229-.186-.05-.149.012-.319.14-.378l18.214-8.551c.126-.059.269.013.319.164.05.15-.01.32-.138.379l-18.215 8.551a.203.203 0 01-.091.021zm3.446 9.521c-.091 0-.178-.062-.221-.165-.059-.143-.009-.318.115-.388.208-.119 5.118-2.93 6.914-3.703.748-.322 1.742-.479 2.792-.644 1.528-.239 3.109-.488 4.044-1.263 1.668-1.384 8.35-2.715 8.635-2.769.132-.028.26.08.282.24.022.16-.068.309-.202.335-.067.012-6.856 1.364-8.432 2.672-1.033.855-2.675 1.115-4.262 1.365-1.022.162-1.99.314-2.687.613-1.773.762-6.819 3.651-6.869 3.679a.206.206 0 01-.109.028zm2.298 10.495a.234.234 0 01-.195-.115.327.327 0 01-.048-.213.328.328 0 01.095-.197c.17-.154 4.219-3.757 7.722-3.36 2.006.227 3.703-.762 5.344-1.717 1.088-.634 2.114-1.231 3.131-1.391 2.42-.381 3.903-.77 3.918-.772.133-.033.263.064.294.222.03.156-.054.311-.187.347-.015.005-1.515.396-3.96.783-.939.149-1.93.726-2.979 1.336-1.624.945-3.463 2.016-5.609 1.774-3.309-.371-7.336 3.208-7.376 3.244a.23.23 0 01-.15.059zm-.493 8.744a.243.243 0 01-.128-.041.244.244 0 01-.085-.103c-.07-.139-.03-.317.086-.399.347-.239 8.483-5.876 11.812-5.283 2.518.447 5.01-.263 7.208-.891.611-.175 1.189-.34 1.732-.469.133-.033.263.07.29.229.026.157-.059.311-.194.343-.532.126-1.106.29-1.713.463-2.131.608-4.786 1.365-7.397.901-3.159-.561-11.407 5.153-11.489 5.209a.193.193 0 01-.122.041z"/>
    <path fill="#F2E2AF" d="M318.819 193.249s62.027-37.501 72.529-64.707l32.982 116.201-73.349 41.001s-25.598-82.973-32.162-92.495z"/>
    <path fill="#D6C494" d="M394.838 140.844c-14.014 30.537-42.644 85.6-55.126 109.412a2767.543 2767.543 0 0111.267 35.488l73.349-41.001-29.49-103.899z"/>
    <path fill="#A08E68" d="M332.521 200.83a.225.225 0 01-.095-.023.244.244 0 01-.077-.059.34.34 0 01-.075-.205.335.335 0 01.069-.207c.046-.057 4.721-5.724 12.711-9.973 5.368-2.855 10.23-7.371 14.934-11.738 2.355-2.189 4.578-4.254 6.851-6.112 6.84-5.593 15.074-8.943 15.157-8.977.128-.051.27.032.313.184.044.151-.026.316-.154.37-.083.034-8.254 3.358-15.036 8.904-2.259 1.849-4.479 3.909-6.827 6.092-4.725 4.39-9.611 8.929-15.036 11.813-7.899 4.2-12.513 9.789-12.558 9.846a.228.228 0 01-.08.061.231.231 0 01-.097.024zm5.743 5.633a.23.23 0 01-.1-.024.235.235 0 01-.078-.066.328.328 0 01.008-.412c.037-.041 3.736-4.16 11.405-7.639 8.484-3.847 16.655-12.233 18.957-14.712 3.602-3.875 15.327-9.718 15.823-9.962.126-.062.27.007.322.157.052.149-.007.319-.133.381-.122.059-12.145 6.048-15.681 9.856-2.318 2.495-10.548 10.941-19.113 14.823-7.568 3.433-11.203 7.478-11.241 7.516a.219.219 0 01-.169.082zm0 15.936a.212.212 0 01-.115-.034c-.12-.074-.166-.252-.103-.394.031-.066 3.095-6.748 10.663-8.891 5.289-1.495 12.418-6.82 17.625-10.705 2.127-1.587 3.962-2.959 5.132-3.652 3.866-2.288 18.184-16.72 18.33-16.867.104-.106.258-.09.347.034a.328.328 0 01-.028.411c-.591.595-14.507 14.622-18.427 16.945-1.149.68-2.975 2.044-5.09 3.623-5.236 3.908-12.405 9.261-17.774 10.781-7.355 2.083-10.312 8.533-10.341 8.597-.045.095-.13.152-.219.152zm6.727 5.245a.232.232 0 01-.191-.108.329.329 0 01.037-.41c.585-.556 14.374-13.659 19.773-15.598 5.328-1.91 20.308-12.112 20.461-12.215.117-.08.267-.033.337.108.067.14.028.317-.092.4-.617.422-15.183 10.337-20.562 12.269-5.308 1.905-19.465 15.358-19.608 15.492a.233.233 0 01-.155.062zm0 15.932a.225.225 0 01-.107-.028c-.121-.069-.173-.244-.113-.388.103-.25 2.64-6.188 14.255-10.838 11.485-4.598 22.8-13.669 22.913-13.762.114-.09.266-.057.342.077.076.134.048.314-.065.404-.113.093-11.483 9.208-23.033 13.832-11.389 4.56-13.944 10.48-13.97 10.539-.044.106-.13.164-.222.164z"/>
    <path fill="#FFB400" d="M431.714 202.19s34.296-50.717 38.397-55.769c0 0 9.517 1.944 17.229 12.437 0 0-25.761 41.778-31.669 47.608-5.907 5.827-23.957-4.276-23.957-4.276z"/>
    <path fill="#EA6027" d="M466.912 160.119l1.642-2.136-4.123-3.662-1.354 1.944 3.835 3.854zm-10.667 15.74l1.642-2.136-4.243-3.767-1.335 1.948 3.936 3.955zm-11.978 17.295l1.641-2.137-4.129-3.666-1.335 1.964 3.823 3.839z"/>
    <path fill="#F2E2AF" d="M488.407 166.726l20.677-14.184-5.908 23.317s-17.558 14.769-14.769-9.133z"/>
    <path fill="#D21C4B" d="M498.744 159.635s1.218 6.303 7.091 5.727l3.249-12.818-10.34 7.091z"/>
    <path fill="#B71C48" d="M488.408 166.727l2.624 5.829-26.91 31.869-3.22-4.681 27.506-33.017zm8.697 10.299l6.071-1.166-23.794 28.564-6.89-1.166 24.613-26.232z"/>
    <path fill="#D21C4B" d="M491.032 172.556l6.073 4.47-24.613 26.232-8.37 1.166 26.91-31.868z"/>
    <path fill="#EAEADA" d="M452.307 347.439c71.775 0 129.96-11.136 129.96-24.872 0-13.737-58.185-24.873-129.96-24.873s-129.96 11.136-129.96 24.873c0 13.736 58.185 24.872 129.96 24.872z"/>
    <g>
      <path fill="#3CA591" d="M583.334 160.411s-24.778 9.91-23.465 46.053c0 0 24.122-9.522 23.465-46.053zm-32.431 74.476s3.255-15.106 17.39-20.094c14.135-4.987 19.915-10.518 19.915-10.518s-7.822 35.358-37.305 30.612zm-.931 6.774s.563-29.306-16.525-38.905c0 0-7.313 24.206 16.525 38.905z"/>
      <path fill="#33917F" d="M560.028 207.009c1.448-8.198 12.157-25.557 12.265-25.73a.328.328 0 00-.052-.406c-.109-.095-.263-.067-.344.061-.443.716-10.878 17.635-12.35 25.957-.723 4.099-2.937 10.348-5.076 16.388-1.531 4.326-3.004 8.479-3.758 11.425a.342.342 0 00-.054.214c-.277 1.11-.446 2.039-.47 2.724-.03.899-.193 2.024-.442 3.254-3.424-4.31-9.797-20.462-9.864-20.629-.057-.147-.204-.208-.326-.141-.125.067-.176.242-.12.386.279.708 6.736 17.068 10.172 21.049-1.122 5.185-3.473 11.828-3.503 11.913-.052.15.007.32.13.382a.23.23 0 00.096.023c.095 0 .187-.067.226-.178.124-.348 2.376-6.713 3.501-11.857a.229.229 0 00.102-.08.33.33 0 00-.005-.388c.29-1.398.488-2.686.522-3.711.022-.651.188-1.545.457-2.621.889-.791 8.656-7.57 16.807-10.655.131-.048.2-.213.159-.365-.041-.155-.18-.237-.309-.188-7.314 2.77-14.311 8.473-16.409 10.271.789-2.835 2.137-6.646 3.538-10.598 2.152-6.071 4.372-12.346 5.107-16.5z"/>
      <path fill="#46BCA5" d="M525.656 219.969s-6.399-13.408 1.805-26.817c8.203-13.407 14.768-22.54 14.768-22.54s4.594 24.484-16.573 49.357zm4.432 20.013s-3.119-20.985 25.27-31.673c0 0-4.923 31.869-25.27 31.673zm-1.971-7.381s-12.306-17.877-32.982-8.94c0 0 12.964 18.654 32.982 8.94z"/>
      <path fill="#3CA591" d="M542.268 224.077c-.076-.133-.23-.164-.341-.074-.083.067-8.091 6.643-11.811 15.256-1.672-6.272-3.42-13.297-4.216-19.335-1.605-12.155 7.236-24.318 7.325-24.44a.333.333 0 00-.024-.412c-.102-.105-.258-.092-.348.029-.021.031-2.298 3.138-4.34 7.732-1.889 4.248-3.959 10.68-3.102 17.184.502 3.806 1.378 7.992 2.374 12.138-7.201-3.003-18.871-5.448-18.991-5.474-.135-.026-.26.077-.285.236-.023.16.066.31.2.338.122.026 12.116 2.539 19.244 5.59.917 3.764 1.921 7.474 2.826 10.804 1.292 4.763 2.314 8.525 2.507 10.363.015.147.121.255.243.255.012 0 .02 0 .031-.002.135-.021.231-.165.213-.324-.2-1.895-1.226-5.68-2.527-10.472-.297-1.097-.606-2.24-.919-3.41 3.551-8.738 11.791-15.505 11.874-15.575.115-.092.143-.272.067-.407z"/>
      <path fill="#6F1E49" d="M531.236 295.557h-1.805c-22.294 0-40.367-21.402-40.367-47.801h82.538c0 26.399-18.073 47.801-40.366 47.801z"/>
      <path fill="#561537" d="M559.904 247.756h-70.84c0 14.076 5.139 26.729 13.314 35.475l53.473-31.199 4.053-4.276z"/>
      <path fill="#561537" d="M489.064 247.756c0 7.3 1.384 14.215 3.855 20.403l77.767-.032c1.383-5.953.918-13.071.918-20.371h-82.54z"/>
      <path fill="#4C1233" d="M563.285 247.756h-74.223c0 4.758.589 9.354 1.683 13.693v.005a53.46 53.46 0 001.72 5.525l.372 1.177h35.187l35.159-20.375.102-.025z"/>
    </g>
    <g>
      <path fill="#3F56DB" d="M583.196 292.238c.378 0 .685-.364.685-.811v-.907c0-.447-.307-.811-.685-.811l-94.46.021v21.569l94.46-.008c.378 0 .685-.363.685-.811v-.906c0-.448-.307-.811-.685-.811h-.927v-16.52h.927v-.005z"/>
      <path fill="#D6C494" d="M582.202 308.758h-42.849c-1.299 0-2.351-1.246-2.351-2.783v-10.954c0-1.536 1.052-2.783 2.351-2.783h42.849c.037 0 .065.037.065.077v16.363c0 .044-.028.08-.065.08z"/>
      <path fill="#E9E9D9" d="M582.267 297.112h-37.166c-.137 0-.245-.131-.245-.29 0-.16.11-.292.245-.292h37.166c.137 0 .246.132.246.292 0 .159-.109.29-.246.29zm-4.429 3.399h-28.06c-.137 0-.246-.131-.246-.291 0-.16.111-.291.246-.291h28.06c.137 0 .246.131.246.291 0 .16-.112.291-.246.291zm4.429 3.111h-26.255c-.137 0-.246-.132-.246-.292 0-.162.111-.29.246-.29h26.255c.137 0 .245.131.245.29.003.16-.108.292-.245.292z"/>
      <path fill="#597DEF" d="M536.721 289.728s-1.733.278-1.733 2.212l-32.799.023 2.885-2.256 31.647.021z"/>
      <path fill="#3655BA" d="M536.721 311.297s-1.733-.008-1.733-1.795h-35.374l.057 1.934 37.05-.139z"/>
      <path fill="#4D6BE8" d="M534.928 309.451h-46.109v-17.488l46.172-.024-.063 17.512z"/>
    </g>
    <g>
      <path fill="#141A33" d="M503.406 311.395H357.628l17.228-105.969c.526-3.231 2.913-5.567 5.692-5.567h134.541c3.538 0 6.249 3.721 5.733 7.864l-12.228 98.365c-.378 3.048-2.587 5.307-5.188 5.307z"/>
      <path fill="#fff" d="M503.443 311.296H364.93l15.827-100.584c.51-3.249 2.907-5.608 5.699-5.608H509.54c3.527 0 6.236 3.698 5.738 7.833l-11.835 98.359z"/>
      <path fill="#C09C44" d="M502.602 220.942H388.724c-1.857 0-3.364-1.784-3.364-3.984 0-2.199 1.507-3.983 3.364-3.983h113.878c1.857 0 3.364 1.784 3.364 3.983 0 2.2-1.507 3.984-3.364 3.984z"/>
      <path fill="#F2E2AF" d="M445.826 301.386h-71.051c-1.857 0-3.364-1.784-3.364-3.983s1.507-3.983 3.364-3.983h71.051c1.856 0 3.363 1.784 3.363 3.983s-1.507 3.983-3.363 3.983zm2.461-16.71h-71.051c-1.857 0-3.364-1.785-3.364-3.983 0-2.199 1.507-3.984 3.364-3.984h71.051c1.857 0 3.364 1.785 3.364 3.984 0 2.198-1.505 3.983-3.364 3.983z"/>
      <path fill="#FFB400" d="M450.914 267.965h-71.051c-1.857 0-3.364-1.784-3.364-3.983s1.507-3.983 3.364-3.983h71.051c1.857 0 3.363 1.784 3.363 3.983s-1.506 3.983-3.363 3.983zm3.609-16.713h-71.05c-1.857 0-3.364-1.784-3.364-3.983s1.507-3.983 3.364-3.983h71.05c1.857 0 3.364 1.784 3.364 3.983 0 2.202-1.507 3.983-3.364 3.983z"/>
      <path fill="#C09C44" d="M456.984 234.542h-71.05c-1.857 0-3.364-1.784-3.364-3.983 0-2.2 1.507-3.983 3.364-3.983h71.05c1.857 0 3.364 1.783 3.364 3.983 0 2.201-1.507 3.983-3.364 3.983z"/>
      <path fill="#F2E2AF" d="M497.05 267.803c6.843-8.064 6.874-21.166.069-29.265-6.805-8.1-17.87-8.13-24.713-.068-6.843 8.063-6.875 21.165-.069 29.265 6.805 8.1 17.869 8.13 24.713.068z"/>
      <path fill="#45BCBF" d="M484.716 254.556c-5.484 0-9.928 6.872-9.928 15.351 0 .074.002.152.004.226 2.818 2.307 6.238 3.659 9.924 3.659 3.685 0 7.105-1.352 9.923-3.659 0-.074.005-.149.005-.226 0-8.476-4.446-15.351-9.928-15.351zm4.42-4.185c2.503-2.962 2.51-7.76.016-10.717-2.494-2.956-6.546-2.951-9.049.01-2.504 2.962-2.511 7.76-.017 10.717 2.495 2.956 6.547 2.952 9.05-.01zm5.508 46.934h-24.779c-3.896 0-7.056-3.741-7.056-8.355 0-4.614 3.16-8.356 7.056-8.356h24.779c3.896 0 7.055 3.742 7.055 8.356s-3.159 8.355-7.055 8.355z"/>
      <path fill="#3BA8A8" d="M498.247 281.766a9.506 9.506 0 01.989 4.269c0 4.614-3.159 8.356-7.056 8.356h-24.778c-1.318 0-2.549-.428-3.606-1.172 1.231 2.446 3.486 4.086 6.067 4.086h24.779c3.896 0 7.056-3.741 7.056-8.355.001-3.054-1.384-5.726-3.451-7.184z"/>
      <path fill="#222D51" d="M452.107 202.006c.227 1.205-.661 2.256-1.678 1.988-.513-.134-.927-.625-1.04-1.231-.226-1.205.662-2.255 1.679-1.987.513.131.926.623 1.039 1.23z"/>
      <path fill="#252F51" d="M500.058 315.571H320.377c-4.622 0-8.368-4.437-8.368-9.91h196.418c0 5.473-3.746 9.91-8.369 9.91z"/>
      <path fill="#36446B" d="M440.986 315.571H320.377c-4.622 0-8.368-4.437-8.368-9.91h137.343c.003 5.473-3.746 9.91-8.366 9.91z"/>
      <path fill="#141A33" d="M490.869 310.519h-34.787c-.724 0-1.313-.695-1.313-1.555 0-.858.587-1.555 1.313-1.555h34.787c.724 0 1.313.695 1.313 1.555s-.589 1.555-1.313 1.555z"/>
    </g>
    <g>
      <path fill="#1C0D09" d="M343.728 234.696s.496 3.973 1.748 6.597c1.252 2.623 2.813-5.287 1.698-6.394-1.118-1.11-3.446-.203-3.446-.203z"/>
      <path fill="#9A605C" d="M343.617 249.725l2.72-13.737s-2.785.498-3.355-2.167c-.57-2.665 1.485-3.456 1.485-3.456s-.213-4.915.285-6.646c.498-1.73 7.795-5.309 10.411-1.701 2.613 3.607 2.252 22.972-3.599 21.765l-1.363 7.446-6.584-1.504z"/>
      <path fill="#1C0D09" d="M343.452 231.168s.722-.69 1.015-.803c.294-.113 1.564-.219 1.996.77 0 0 .963-5.948.578-6.759-.384-.813-2.128-3.025-2.97-1.354-.839 1.666-.619 8.146-.619 8.146z"/>
      <path fill="#000" d="M346.232 234.845c-.03.013-.065 0-.086-.033l-1.557-2.542a.1.1 0 01-.015-.067.113.113 0 01.032-.062c.035-.03.083-.02.109.021l1.557 2.542c.012.02.017.044.014.067a.099.099 0 01-.032.062.078.078 0 01-.022.012z"/>
      <path fill="#000" d="M344.661 234.616a.061.061 0 01-.04.003.058.058 0 01-.034-.021.103.103 0 01-.009-.129l.75-1.025a.077.077 0 01.052-.031.08.08 0 01.031.004c.01.004.019.01.026.017a.107.107 0 01.009.129l-.75 1.025a.087.087 0 01-.035.028z"/>
      <path fill="#311A12" d="M345.381 224.822s-2.386-1.004-.907-3.304c1.478-2.299 4.87-5.914 9.102-3.507 4.233 2.408 5.844 4.965 5.335 7.127 0 0-.23 4.365-2.615 3.361-2.386-1.005-1.157-2.439-1.157-2.439s-2.501 1.54-3.61-.723c0 .002-1.674 2.183-6.148-.515z"/>
      <path fill="#000" d="M353.388 236.696a2.29 2.29 0 01-.506.135c-.044.005-.081-.031-.085-.083-.005-.048.026-.095.069-.1.013-.003 1.348-.168 1.355-1.228.007-1.136-.407-4.409-.411-4.442-.006-.049.022-.098.066-.103.041-.008.08.026.087.077.017.134.419 3.319.413 4.47-.005.749-.557 1.108-.988 1.274zm-.26 2.735l-.009.003c-.722.164-1.298.031-1.716-.394-.752-.77-.707-2.202-.704-2.264.002-.051.037-.09.08-.087.044.002.076.044.074.096 0 .012-.044 1.405.653 2.116.378.386.91.507 1.582.352.041-.01.083.023.091.073.007.046-.017.09-.051.105zm-.237 4.382c-.43.17-.904.19-1.347.057-1.421-.42-2.522-2.065-2.567-2.134a.105.105 0 01.013-.129c.032-.031.083-.023.108.015.011.016 1.114 1.666 2.483 2.071 1.353.398 2.295-.793 2.305-.807a.068.068 0 01.024-.02.06.06 0 01.029-.008.065.065 0 01.031.005c.01.004.018.011.025.018a.108.108 0 01.024.064.102.102 0 01-.02.065 2.84 2.84 0 01-1.108.803z"/>
      <path fill="#1C0D09" d="M351.738 230.831s-1.472 1.144-1.467.567c.004-.58 1.128-2.076 1.815-1.661.585.353-.348 1.094-.348 1.094zm3.683-1.197c-.539.443.47 1.03.47 1.03s.422.239.822.391a36.01 36.01 0 00-.011-1.092c-.424-.365-.943-.605-1.281-.329zm.268 3.901c-.039.401-.243.703-.455.675-.21-.029-.352-.379-.313-.78.04-.402.244-.704.455-.675.213.031.352.378.313.78zm-3.038-.312c-.039.402-.243.703-.454.675-.211-.028-.353-.378-.313-.78.039-.402.244-.703.454-.675.211.031.353.378.313.78z"/>
      <path fill="#EA6027" d="M344.343 246.043l6.386 2.521.614 3.309s11.406 3.545 19.453 15.356c13.516 19.844-3.157 15.78-8.123 12.84-2.792-1.653-8.55 10.377-13.801 11.474-3.479.726-10.776-9.543-20.375-12.875-4.886-1.694-15.394 3.384-16.201 2.382-2.366-2.941 2.455-31.557 30.399-31.557l1.648-3.45z"/>
      <path fill="#AA391B" d="M349.04 252.642c-3.427 0-5.595-1.954-5.619-1.977a.104.104 0 01-.028-.062.106.106 0 01.015-.067c.026-.038.074-.047.109-.015.028.025 2.807 2.525 7.042 1.81.042-.005.081.028.088.077.006.049-.024.095-.066.103a9.009 9.009 0 01-1.541.131z"/>
      <path fill="#CE4D20" d="M364.091 271.81c-3.088-.915-2.56-7.581-2.56-7.581s-20.689 2.271-25.783.626c-5.094-1.645-8.243-6.033-8.243-6.033-3.373 6.813-1.322 28.328 1.701 35.254 8.266 3.025 16.896 4.772 19.63 4.202 5.085-1.063 7.288-1.217 10.523-2.101 1.905-4.992 6.817-23.75 4.732-24.367z"/>
      <path fill="#AA391B" d="M327.721 270.063c-.04 0-.072-.033-.077-.079-.006-.054-.615-5.549-.308-10.258.308-4.751 3.102-6.458 3.131-6.473.039-.023.084-.005.104.041.02.046.005.101-.035.124-.028.015-2.743 1.681-3.046 6.323-.304 4.689.303 10.165.309 10.22.006.049-.024.095-.068.102h-.01z"/>
      <path fill="#FFB400" d="M346.511 261.033a.649.649 0 01-.494-.409c-.089-.222-.056-.443.54-.343 1.081.183 1.967.43 2.296.031.328-.399.791.335.019.7-.591.281-1.822.114-2.361.021z"/>
      <path fill="#fff" d="M354.436 257.625s2.701-4.694 5.03-5.557l.993 4.228-6.023 1.329z"/>
      <path fill="#F2E2AF" d="M354.436 257.624s3.449-3.213 6.556-4.426l2.446 1.517-7.942 4.213-1.06-1.304z"/>
      <path fill="#F2E2AF" d="M354.647 257.578s-2.128-5.664-10.298-6.578l-2.058 3.244s10.995 5.08 12.356 3.334z"/>
      <path fill="#3F56DB" d="M355.511 258.013l8.408-4.385-1.855 19.525-8.687 2.367 2.134-17.507zm-1.847-.407l-11.813-4.835-2.004 19.157 11.528 3.365 2.289-17.687z"/>
      <path fill="#3750B7" d="M353.664 257.606s1.242-.336 1.847.407l-2.131 17.507s-1.096.891-2.005-.227l2.289-17.687z"/>
      <path fill="#9A605C" d="M341.273 267.094s5.425-7.513 4.981-5.944c-.413 1.465-1.717 3.2-.956 3.329 0 0 5.207-5.431 4.768-4.053-.439 1.38-2.505 3.437-2.505 3.437s4.079-3.365 4.025-2.616c-.055.749-3.877 3.697-3.877 3.697s4.153-2.824 4.123-1.892c-.031.933-3.343 3.041-3.343 3.041s3.16-2.08 3.177-.788c.018 1.293-5.86 4.073-7.207 4.514-1.348.446-3.666 1.812-3.186-2.725z"/>
      <path fill="#EA6027" d="M341.36 265.413l2.483 5.639s-23.802 18.315-30.23 11.868c-4.657-4.671-2.23-12.56 27.747-17.507z"/>
      <path fill="#9A605C" d="M365.326 271.212s-3.799-8.804-3.675-7.153c.115 1.537 1.042 3.587.276 3.502 0 0-3.996-6.718-3.84-5.255.157 1.462 1.761 4.034 1.761 4.034s-3.305-4.397-3.401-3.654c-.093.747 3.045 4.666 3.045 4.666s-3.484-3.891-3.636-2.976c-.154.913 2.651 3.877 2.651 3.877s-2.925-2.529-2.936-1.642c-.01.916 4.897 5.577 6.121 6.377 1.224.801 3.209 2.768 3.634-1.776zm-39.51 38.146l-7.609 3.058.538 5.343 10.058-1.632-2.987-6.769z"/>
      <path fill="#FFB400" d="M322.391 310.735l-4.184 1.681.538 5.343 4.561-.741-.915-6.283z"/>
      <path fill="#4C1233" d="M320.431 311.523s-.392 4.472.334 6.015c.726 1.542-2.585 13.226-3.013 14.874-.82 3.149-4.993 3.855-6.271.682-1.281-3.175-1.215-19.599.785-21.257 2-1.656 8.165-.314 8.165-.314z"/>
      <path fill="#230819" d="M312.266 311.837c-2 1.658-2.066 18.083-.785 21.257.33.82.852 1.379 1.461 1.705-1.655-7.137.074-18.675 1.05-23.65-.698.124-1.305.34-1.726.688z"/>
      <path fill="#4C2816" d="M327.466 317.839c-.809-.018-1.524-.628-1.794-1.532-.596-1.996-1.522-5.67-1.089-8.098.618-3.473 9.726-7.678 15.285-6.581 5.558 1.096 11.061-5.629 17.601-9.506 6.858-4.069 17.265-1.968 18.528 1.462 1.094 2.972 2.235 10.25-10.076 15.547-11.369 4.89-31.86 8.85-38.455 8.708z"/>
      <path fill="#381D12" d="M369.572 307.279c.726-1.98.648-3.831-.987-5.103-3.977-3.09-8.526-5.822-14.309-7.961-4.125 3.031-10.6 8.164-14.407 7.413-5.558-1.097-14.668 3.108-15.286 6.581a.617.617 0 00-.009.062c6.184.195 20.78.988 23.322 4.143a12.018 12.018 0 001.876 1.835c5.86-1.439 11.7-3.208 16.147-5.121a30.353 30.353 0 003.653-1.849z"/>
      <path fill="#9A605C" d="M359.255 303.325l6.951 4.771-1.413 5.114-9.591-3.945 4.053-5.94z"/>
      <path fill="#FFB400" d="M362.384 305.472l3.822 2.624-1.413 5.113-4.351-1.789 1.942-5.948z"/>
      <path fill="#4C1233" d="M364.175 306.703s-.361 4.475-1.328 5.819c-.968 1.344.337 13.572.482 15.287.281 3.28 4.253 4.943 6.037 2.129 1.782-2.814 4.448-18.933 2.761-21.023-1.683-2.091-7.952-2.212-7.952-2.212z"/>
      <path fill="#230819" d="M372.129 308.914c1.685 2.092-.981 18.212-2.762 21.024-.458.726-1.065 1.151-1.715 1.331 2.809-6.612 3.031-18.327 2.9-23.431.659.283 1.22.636 1.577 1.076z"/>
      <path fill="#4C2816" d="M357.174 312.246c.685.106 1.352-.293 1.685-1.009.98-2.116 2.894-6.463 2.779-7.961-.154-2.011-26.031-13.15-29.356-14.52-8.16-3.36-20.163-4.436-21.593 3.917-1.685 9.83 13.874 14.509 46.485 19.573z"/>
      <path fill="#230819" d="M362.564 323.841c-.03 0-.058-.024-.072-.057a.11.11 0 01-.004-.054.113.113 0 01.024-.049l3.509-3.811-4.062.86c-.032.006-.065-.012-.08-.046a.111.111 0 01-.008-.054.097.097 0 01.019-.052l4.025-5.278-3.931 2.495c-.038.023-.085.007-.105-.036-.02-.044-.006-.1.033-.124l4.322-2.742c.033-.021.074-.01.098.023a.107.107 0 01.017.06.11.11 0 01-.021.059l-4.173 5.469 4.101-.868c.035-.008.068.013.083.049a.1.1 0 01.006.057.097.097 0 01-.024.051l-3.546 3.849 2.564-.167c.045-.005.078.036.08.085.002.051-.03.093-.072.095l-2.779.183c-.002.003-.002.003-.004.003zM318.716 330.604c-.025 0-.052-.017-.067-.046l-2.161-4.57a.103.103 0 01-.009-.055.094.094 0 01.02-.053.07.07 0 01.091-.018l2.855 1.692-2.494-5.037a.115.115 0 01-.01-.052.117.117 0 01.016-.051c.02-.028.053-.041.083-.031l3.451 1.193-3.068-4.153a.11.11 0 01-.019-.066.103.103 0 01.025-.063c.033-.034.081-.031.109.007l3.242 4.388a.1.1 0 01.006.108.068.068 0 01-.036.035.075.075 0 01-.051.004l-3.518-1.216 2.527 5.103a.103.103 0 01-.011.109.066.066 0 01-.091.017l-2.864-1.693 2.04 4.31c.022.043.009.1-.031.123-.009.013-.022.015-.035.015z"/>
      <path fill="#EA6027" d="M361.884 273.119s1.963.405 2.913-3.112c0 0-.587-2.258 2.368-1.558 2.957.7 6.307 3.154 8.239 7.317 1.93 4.164 1.339 12.146-2.918 12.427-4.258.28-11.827-8.402-12.062-11.904-.234-3.499 1.46-3.17 1.46-3.17z"/>
      <path stroke="#AA391B" stroke-linecap="round" stroke-linejoin="round" stroke-miterlimit="10" stroke-width=".344" d="M364.763 269.806s-.318-1.498 1.339-1.638c1.657-.138 4.914 1.705 6.773 3.793"/>
    </g>
  </g>
  <path fill="#000" fill-opacity=".06" d="M307.75 123.75v44.953c0 7.469-2.344 13.375-7.031 17.719-4.657 4.344-11.031 6.516-19.125 6.516-7.969 0-14.297-2.11-18.985-6.329-4.687-4.218-7.078-10.015-7.171-17.39V123.75H269.5v45.047c0 4.469 1.062 7.734 3.188 9.797 2.156 2.031 5.124 3.047 8.906 3.047 7.906 0 11.922-4.157 12.047-12.469V123.75h14.109zM374.781 192h-14.062l-27.375-44.906V192h-14.063v-68.25h14.063l27.422 45v-45h14.015V192zm26.344-11.297h29.859V192h-43.922v-68.25h14.063v56.953zm79.031-18.281h-27v18.281h31.688V192h-45.75v-68.25h45.656v11.391h-31.594v16.265h27v11.016zm51.469 15.516h-24.656L502.281 192h-14.953l25.406-68.25h13.032L551.312 192h-14.953l-4.734-14.062zm-20.859-11.391h17.062L519.25 141l-8.484 25.547zm72.187.469H571.75V192h-14.062v-68.25h25.359c8.062 0 14.281 1.797 18.656 5.391 4.375 3.593 6.563 8.671 6.563 15.234 0 4.656-1.016 8.547-3.047 11.672-2 3.094-5.047 5.562-9.141 7.406l14.766 27.891V192H595.75l-12.797-24.984zm-11.203-11.391h11.344c3.531 0 6.265-.891 8.203-2.672 1.937-1.812 2.906-4.297 2.906-7.453 0-3.219-.922-5.75-2.765-7.594-1.813-1.844-4.61-2.765-8.391-2.765H571.75v20.484zM674.5 192h-14.062l-27.376-44.906V192H619v-68.25h14.062l27.422 45v-45H674.5V192z"/>
  <g>
    <path fill="#F5F6E8" d="M680.15 140.148l165.819-19.71 11.268 192.918-194.949-9.245 17.862-163.963z"/>
    <path fill="#EAEADA" d="M750.212 344.928c66.85 0 121.038-9.879 121.038-22.066 0-12.186-54.188-22.066-121.038-22.066-66.843 0-121.037 9.88-121.037 22.066 0 12.187 54.194 22.066 121.037 22.066z"/>
    <path fill="#E7E8D4" d="M716.144 164.918l-8.519 70.293 47.262-1.918v4.535s14.426-.349 18.544-1.745c4.125-1.397 6.182-59.13 6.182-59.13l-29.4-8.547-34.069-3.488zm122.269 40.466l2.337 53.9h-71.3l3.019-18.142 65.944-35.758z"/>
    <path fill="#E7E7F7" d="M838.412 205.384h-68.143v49.538h68.143v-49.538z"/>
    <path fill="#656596" d="M836.125 213.477c1.019-1.297 1.025-3.395.006-4.686-1.012-1.291-2.668-1.286-3.687.011-1.025 1.297-1.025 3.394-.013 4.685 1.019 1.291 2.669 1.286 3.694-.01z"/>
    <path fill="#E4E4F2" d="M716.144 164.918l47.944-1.22v66.456s-38.057 5.06-53.994 0l6.05-65.236z"/>
    <path fill="#561537" d="M733.725 192.824l23.631-.522-2.606 27.909h-26.106l5.081-27.387z"/>
    <path fill="#3CA591" d="M741.206 201.991c3.55-4.494 3.557-11.782.025-16.279-3.537-4.496-9.275-4.499-12.825-.005-3.543 4.494-3.556 11.783-.018 16.28 3.531 4.497 9.275 4.499 12.818.004z"/>
    <path fill="#D6C494" d="M732.631 173.29l-11.543 19.013h11.543V173.29z"/>
    <path fill="#656596" d="M721.744 169.954c.237 1.852-1 3.428-2.456 3.125-.888-.185-1.6-1.088-1.744-2.207-.238-1.851 1.006-3.428 2.462-3.125.882.183 1.594 1.087 1.738 2.207z"/>
    <path fill="#fff" d="M750.212 153.057l6.325 82.154 66.494-5.755-5.637-83.55-67.182 7.151z"/>
    <path fill="#7B7BAF" d="M755.412 157.136c.194 1.493-.812 2.765-1.987 2.52-.713-.148-1.281-.877-1.4-1.78-.194-1.493.806-2.765 1.987-2.52.707.146 1.282.877 1.4 1.78zm59.282-4.88c.668-.854.675-2.233.006-3.082-.663-.847-1.75-.843-2.425.011-.675.854-.675 2.233-.013 3.081.669.848 1.757.843 2.432-.01z"/>
    <path fill="#3CA591" d="M768.094 227.667l-5.25-47.582 3.856-.864-6.594-10.815-2.75 12.908 3.325-.744 5.919 47.382c.063.464.375.806.744.806.462 0 .812-.515.75-1.091z"/>
    <path fill="#3CA591" d="M765.425 226.523l44.594-6.136.725 5.339 9.318-9.072-11.068-3.872.625 4.602-44.425 7.073c-.4.079-.694.513-.7 1.026-.007.636.437 1.126.931 1.04z"/>
    <path fill="#561537" d="M811.762 182.884l-1.237-12.384-6.181 10.641 3.85.904c-4.163 17.653-13.588 25.697-21.044 29.351-8.756 4.287-16.781 3.642-16.863 3.635-.118-.009-.212.1-.218.243-.006.143.075.268.187.28.019.002.488.039 1.3.039 2.638 0 8.969-.395 15.725-3.701 5.194-2.54 9.625-6.277 13.169-11.107 3.7-5.048 6.431-11.305 8.15-18.643l3.162.742z"/>
    <path fill="#D21C4B" d="M813.269 264.703v-1.347c0-.698-.444-1.264-.994-1.264h-1.063v-.008H667.306c-2.319 0-4.194 2.389-4.194 5.335v32.09c0 2.947 1.875 5.335 4.194 5.335l145.088-.086c.481 0 .875-.499.875-1.114v-1.65c0-.615-.394-1.115-.875-1.115h-1.182V265.97h1.063c.55 0 .994-.569.994-1.267z"/>
    <path fill="#F4478A" d="M734.981 268.903s-.319-6.414 5.156-6.814l-72.675-.006c-2.406 0-4.35 2.472-4.35 5.521v2.387l71.869-1.088z"/>
    <path fill="#D6C494" d="M743.938 300.833h67.274v-34.868h-67.274c-3.744 0-6.776 3.851-6.776 8.598v17.673c0 4.749 3.032 8.597 6.776 8.597z"/>
    <path fill="#E9E9D9" d="M811.212 274.982h-61.818c-.119 0-.206-.116-.206-.257 0-.141.093-.256.206-.256h61.818c.113 0 .207.115.207.256 0 .141-.094.257-.207.257zm-8.931 4.27h-35.856c-.112 0-.206-.115-.206-.256 0-.141.094-.257.206-.257h35.856c.119 0 .207.116.207.257 0 .141-.088.256-.207.256zm-10.437 6.322h-41.356c-.113 0-.207-.115-.207-.256 0-.142.094-.257.207-.257h41.356c.112 0 .206.115.206.257 0 .141-.094.256-.206.256zm13.05 8.369h-46.575c-.113 0-.206-.116-.206-.257 0-.14.093-.256.206-.256h46.575c.112 0 .206.116.206.256 0 .144-.094.257-.206.257zm-4.256-3.416h-24.044c-.119 0-.206-.116-.206-.256 0-.142.093-.257.206-.257h24.044c.112 0 .2.115.2.257 0 .14-.088.256-.2.256z"/>
    <path fill="#C11A49" d="M734.981 297.227s-.343 7.6 5.725 7.609l-73.806.007c-2.087 0-3.788-2.154-3.788-4.814v-3.463l71.869.661z"/>
    <path fill="#E22D61" d="M734.962 268.903h-71.856v28.323h71.856v-28.323z"/>
    <path fill="#FFB400" d="M724.075 289.219h-50.162c-1.438 0-2.601-1.477-2.601-3.3v-7.582c0-1.821 1.163-3.3 2.601-3.3h50.162c1.438 0 2.6 1.477 2.6 3.3v7.582c0 1.821-1.162 3.3-2.6 3.3z"/>
    <path fill="#3CA591" d="M783.806 247.239v-.626c0-.307-.194-.555-.437-.555l-105.575.014c-.632 0-1.15.652-1.15 1.454v13.151c0 .802.518 1.454 1.15 1.454l105.575-.042c.243 0 .437-.25.437-.555v-.626c0-.307-.194-.554-.437-.554h-1.138v-12.56h1.138c.243 0 .437-.247.437-.555z"/>
    <path fill="#D6C494" d="M782.225 260.354h-61.981c-1.357 0-2.45-1.394-2.45-3.113v-6.331c0-1.72 1.093-3.114 2.45-3.114h61.981v12.558z"/>
    <path fill="#46BCA5" d="M715.931 248.864h-39.268v10.287h39.268v-10.287z"/>
    <path fill="#E9E9D9" d="M782.225 251.709h-55.231c-.113 0-.207-.115-.207-.256 0-.141.094-.257.207-.257h55.231c.113 0 .206.116.206.257 0 .143-.093.256-.206.256zm-11.131 2.564h-27.75c-.113 0-.207-.116-.207-.257 0-.141.094-.257.207-.257h27.75c.118 0 .206.116.206.257 0 .141-.088.257-.206.257zm-5.906 1.878h-33.932c-.112 0-.206-.115-.206-.256 0-.141.094-.256.206-.256h33.932c.118 0 .206.115.206.256 0 .143-.088.256-.206.256z"/>
    <path fill="#4FC6AF" d="M717.794 246.072s-1.856.12-1.856 2.792h-39.257v-1.352c0-.802.519-1.454 1.15-1.454l39.963.014z"/>
    <path fill="#379986" d="M676.681 259.018h39.257s-.288 2.886 1.856 2.979h-39.963c-.631 0-1.15-.652-1.15-1.454v-1.525z"/>
    <g>
      <path fill="#3F56DB" d="M824.319 306.052v-.842c0-.249-.157-.453-.25-.453l-180.232-.048c-.606 0-1.093.622-1.1 1.391l-.087 13.167c-.006.779.487 1.415 1.1 1.415l180.212-.074c.194 0 .357-.203.357-.453v-.708c0-.249-.163-.452-.357-.452h-.937v-12.491h.937c.2-.002.357-.203.357-.452z"/>
      <path fill="#D6C494" d="M746.344 319.004h76.687v-12.425h-76.687c-1.35 0-2.45 1.393-2.45 3.111v6.204c0 1.717 1.1 3.11 2.45 3.11z"/>
      <path fill="#E9E9D9" d="M823.025 309.695h-59.9c-.112 0-.2-.116-.2-.257 0-.141.088-.256.2-.256h59.9c.119 0 .206.115.206.256 0 .141-.087.257-.206.257zm-9.613 3.212h-57.975c-.118 0-.206-.115-.206-.257 0-.14.094-.256.206-.256h57.975c.113 0 .207.116.207.256 0 .142-.094.257-.207.257zm6.732 2.563h-41.081c-.113 0-.207-.115-.207-.256 0-.141.094-.257.207-.257h41.081c.112 0 .206.116.206.257 0 .141-.094.256-.206.256z"/>
      <path fill="#4D6BE8" d="M741.712 307.781h-99.018v10.02h99.018v-10.02z"/>
      <path fill="#5C81F7" d="M741.712 307.781s-.106-3.209 2.613-3.07H643.794c-.607 0-1.1.625-1.1 1.396v1.674h99.018z"/>
      <path fill="#3655BA" d="M744.769 320.605s-3.05.269-3.05-2.805h-99.025l-.05 1.479c-.032.795.468 1.458 1.1 1.458l101.025-.132z"/>
    </g>
    <g>
      <path fill="#0E1323" d="M689.837 198.469s-1.581 2.903-2.268 3.601c-.688.698-1.238-3.139 0-3.664a2.73 2.73 0 012.268.063z"/>
      <path fill="#9A605C" d="M679.875 187.593s-3.987 17.093 2.194 17.791v5.582h4.812l1.1-12.035s2.744.37 2.744-2.616c0-1.569-1.381-1.278-1.375-1.396l.825-5.931-10.3-1.395z"/>
      <path fill="#0E1323" d="M688.394 190.384s-.55 4.71-.275 4.884c.275.173 1.631-.871 2.468.349 0 0 2.201-7.5.826-7.849-1.375-.349-3.019 2.616-3.019 2.616z"/>
      <path fill="#000" d="M688.275 197.627a.064.064 0 01-.056-.041c-.019-.042-.013-.095.019-.12l1.743-1.404c.032-.025.075-.013.094.029.019.041.013.094-.025.12l-1.737 1.403a.065.065 0 01-.038.013z"/>
      <path fill="#000" d="M689.05 197.997c-.031 0-.062-.028-.069-.067l-.156-.864c-.012-.047.012-.095.05-.104.037-.011.075.019.081.065l.156.864c.013.046-.012.095-.049.104-.007 0-.007.002-.013.002zm-6.981 1.893c-.019 0-.575-.007-1.269-.536-.719-.548.638-4.385.794-4.822.019-.043.056-.062.093-.043.032.02.051.072.032.115-.413 1.144-1.369 4.202-.85 4.6.662.503 1.194.51 1.2.51.037 0 .069.04.069.088 0 .049-.032.088-.069.088z"/>
      <path fill="#141A33" d="M679.187 193.349c.55-.871 2.469-1.396 2.057-.698-.407.698-2.607 1.569-2.057.698zm5.732 1.115c-.288-1.057-1.956-2.377-1.756-1.542.2.834 2.037 2.6 1.756 1.542z"/>
      <path fill="#0E1323" d="M680.706 195.247c-.031.432-.244.756-.469.728-.225-.03-.381-.404-.35-.834.038-.432.25-.756.475-.728.225.03.382.404.344.834zm2.45.497c-.037.432-.25.755-.475.728-.225-.03-.381-.404-.344-.834.032-.432.244-.756.469-.729.225.03.382.405.35.835z"/>
      <path fill="#000" d="M681.775 202.102c-.538 0-.95-.287-.975-.303-.031-.023-.044-.076-.025-.117.019-.042.056-.058.094-.035.006.007.818.566 1.612.081.719-.437 1.2-1.558 1.444-3.333.006-.049.044-.079.081-.072.038.009.063.053.057.102-.25 1.835-.763 3-1.519 3.462a1.478 1.478 0 01-.769.215zm.294 3.37c-1.531 0-2.4-1.65-2.407-1.669-.018-.039-.006-.095.026-.12.025-.026.068-.016.093.025.007.016.838 1.588 2.288 1.588 1.469 0 2.55-1.357 2.562-1.371.032-.034.075-.034.1 0a.11.11 0 010 .123c-.044.06-1.137 1.424-2.662 1.424z"/>
      <path fill="#141A33" d="M680.562 190.169s-3.712 1.918-3.575-.522c.138-2.443 1.65-2.443 1.65-2.443s-1.1-1.919.688-3.139c1.787-1.221 2.337.871 2.337.871s.275-3.487 2.332-2.79c2.062.698 1.237 2.443 1.237 2.443s2.475-3.314 3.3-1.22c.819 2.094-.55 3.315-.55 3.315s1.506-1.047 2.056 0c0 0-.412-1.919.825-1.57 1.238.349.963 2.965.963 2.965s.962.35.687 1.919c-.275 1.569-2.062.173-2.062.173s.275 1.745-1.513 1.57c0 0-1.1 1.396-1.925 0-.818-1.397.138-2.617.138-2.617s-2.606 1.918-3.156-.522c0 0-.275 2.616-1.925 2.616-1.644-.002-1.507-1.049-1.507-1.049z"/>
      <path fill="#9A605C" d="M658.581 211.315s-.137-7.327-1.65-8.198c-1.512-.872-4.537-.173-4.675 2.616-.137 2.79 3.713 8.198 3.713 8.198l2.612-2.616z"/>
      <path fill="#D4DCFF" d="M673.281 213.233s-8.518 9.07-9.343 9.768c0 0-.275-1.919-1.65 0l-3.3-13.082-4.807 3.314s-.55 15.874 4.669 19.884c5.225 4.013 13.194-6.104 13.194-6.104l1.237-13.78z"/>
      <path fill="#141A33" d="M652.737 210.444c-.012-.174-.043-9.463.157-10.642.243-1.396 2.718-1.745 2.881.174.156 1.918.075 10.292-.325 10.814-.394.525-2.631.874-2.713-.346z"/>
      <path fill="#232E4F" d="M655.775 199.978c-.087-1.049-.869-1.419-1.594-1.312.556.085 1.05.49 1.119 1.312.163 1.918.081 10.292-.319 10.815-.175.228-.7.423-1.237.469.675.064 1.481-.173 1.706-.469.4-.525.481-8.897.325-10.815z"/>
      <path fill="#9A605C" d="M654.419 206.182a5.771 5.771 0 00-.019-.984c-.137-1.309-.831-2.49-2.088-2.081-1.068.349-.856 6.978.319 6.802 1.175-.173 1.494-.349 1.6-1.396.075-.67.15-1.74.188-2.341z"/>
      <path fill="#000" d="M654.175 209.013c-.012 0-.019-.002-.025-.009-.031-.021-.038-.074-.025-.116 0-.009.05-.194-.019-.397-.075-.215-.3-.488-.943-.575-.032-.005-.051-.047-.051-.095 0-.049.032-.084.057-.079.556.076.906.3 1.031.665.1.287.025.546.025.557-.012.031-.031.049-.05.049zm.112-.996s-.006 0-.006-.003c-.031-.011-.05-.057-.043-.103 0-.003.043-.347-.094-.699-.138-.339-.4-.575-.775-.698-1.038-.339-1.263-.346-1.269-.346-.031 0-.056-.039-.056-.088 0-.048.025-.088.056-.088.006 0 .231.005 1.294.352.406.132.687.395.837.776.163.412.113.809.113.827-.007.042-.032.07-.057.07zm.107-1.387s-.006 0-.013-.003c-.025-.011-.044-.057-.037-.103 0-.017.125-1.105-1.088-1.933-.031-.018-.043-.069-.031-.113.013-.044.044-.064.069-.046 1.312.89 1.162 2.08 1.156 2.131-.013.039-.031.067-.056.067z"/>
      <path fill="#A6B1D1" d="M662.288 225.182a.046.046 0 01-.032-.011c-.037-.025-.044-.079-.025-.12.413-.876 2.882-3.33 2.982-3.435.031-.03.075-.023.1.014a.1.1 0 01.014.063.098.098 0 01-.027.059c-.025.026-2.55 2.539-2.95 3.387-.019.028-.037.043-.062.043z"/>
      <path fill="#C5CEEF" d="M659.475 233.522c5.206 2.836 12.569-6.506 12.569-6.506l1.237-13.78s-3.45 3.668-6.168 6.518c-1.763 6.187-5.607 11.41-7.638 13.768z"/>
      <path fill="#9A605C" d="M660.775 291.9l2.888 5.755 3.3-1.743-2.063-7.15-4.125 3.138z"/>
      <path fill="#3CA591" d="M663.662 297.656l3.301-1.743-1.019-3.534-3.6 2.642 1.318 2.635z"/>
      <path fill="#561537" d="M663.031 296.394s3.132-1.482 3.463-2.027l2.331 4.613c.4.785.175 1.832-.481 2.251-1.644 1.047-4.456 2.854-5.506 3.578-1.238.857-7.732.543-10.038.402-.487-.03-.85-.58-.781-1.192.112-1.078.525-2.64 1.887-3.398 2.2-1.221 6.594-.872 6.594-.872l2.531-3.355z"/>
      <path fill="#141A33" d="M668.825 298.978c-1.725 1.35-5.15 4.012-6.262 4.784-1.238.857-8.107.427-10.544.242 0 .007-.006.015-.006.022-.063.61.3 1.155.787 1.185 2.306.141 8.8.455 10.038-.402 1.043-.723 3.862-2.531 5.506-3.578.656-.42.881-1.468.481-2.253z"/>
      <path fill="#380E26" d="M662.975 300.359l-.013-.001c-4.193-1.202-7.631-.185-7.662-.176-.038.009-.075-.019-.081-.065-.013-.046.012-.094.05-.104.031-.009 3.5-1.038 7.725.173.031.012.056.058.05.105-.007.041-.038.068-.069.068z"/>
      <path fill="#3B4663" d="M660.569 293.209s5.362-2.268 5.5-4.535c.137-2.267-3.575-10.117-3.713-15.698-.137-5.582-.137-15 5.5-16.745 5.631-1.745 15.382-1.57 15.657-4.884.275-3.315-6.182-9.595-6.182-9.595l-3.706 4.013s-21.431 5.447-22.6 14.39c-.825 6.28 3.088 25.902 9.544 33.054z"/>
      <path fill="#414D70" d="M677.331 241.752l-3.706 4.013s-21.431 5.447-22.6 14.39c-.256 1.957-.056 5.209.544 8.977 3.318 2.806 8.375 7.149 12.05 10.625-.663-2.305-1.207-4.699-1.263-6.781-.131-5.582-.131-15 5.5-16.745 5.631-1.745 15.388-1.57 15.663-4.884.268-3.315-6.188-9.595-6.188-9.595z"/>
      <path fill="#3B4663" d="M675.2 248.818v-2.616s-14.975 4.71-17.444 9.069c-2.475 4.361.825 10.116 3.019 8.547 2.2-1.569-2.331-8.198 5.225-10.292 7.556-2.094 9.2-4.708 9.2-4.708zm2.131-7.066l-3.231 3.493c2.544.391 5.863 1.021 7.338 1.828.181.097.343.148.499.162-1.837-2.79-4.606-5.483-4.606-5.483z"/>
      <path fill="#9A605C" d="M677.95 291.727l2.887 5.755 3.294-1.745-2.062-7.151-4.119 3.141z"/>
      <path fill="#3CA591" d="M680.837 297.482l3.294-1.745-1.019-3.531-3.6 2.641 1.325 2.635z"/>
      <path fill="#561537" d="M680.2 296.218s3.137-1.482 3.469-2.027l2.331 4.613c.394.786.169 1.833-.488 2.252-1.637 1.047-4.456 2.854-5.5 3.577-1.237.858-7.731.543-10.037.403-.488-.03-.85-.581-.788-1.193.119-1.077.532-2.64 1.894-3.398 2.2-1.22 6.594-.871 6.594-.871l2.525-3.356z"/>
      <path fill="#141A33" d="M686 298.804c-1.725 1.35-5.15 4.013-6.263 4.785-1.237.857-8.106.427-10.543.242 0 .007-.007.014-.007.021-.062.61.3 1.155.788 1.185 2.306.142 8.8.456 10.037-.402 1.044-.723 3.863-2.53 5.5-3.578.657-.42.882-1.47.488-2.253z"/>
      <path fill="#380E26" d="M680.15 300.186c-.006 0-.013 0-.019-.002-4.194-1.202-7.625-.185-7.662-.175-.038.008-.069-.019-.082-.065-.006-.047.019-.095.057-.104.031-.012 3.493-1.038 7.718.173.038.012.063.058.057.104-.013.042-.038.069-.069.069z"/>
      <path fill="#414D70" d="M680.969 243.236s-.275 4.535-4.257 5.233c-3.981.698-21.568 5.059-19.093 12.908 2.468 7.85 16.9 28.607 20.056 31.573 0 0 7.281-.523 6.456-4.884-.825-4.362-8.412-16.757-10.444-18.664-2.368-2.233-1.65-3.837-.275-4.185 1.375-.35 16.213 2.267 19.513-3.837 3.294-6.105-1.1-18.141-1.1-18.141h-10.856v-.003z"/>
      <path fill="#293247" d="M662.425 271.152c-.019 0-.037-.012-.056-.035-2.856-4.692-4.813-8.404-5.057-11.268-.237-2.782 2.932-5.001 3.069-5.096 4.356-3.738 13.919-5.873 14.75-6.053v-1.627c0-.049.031-.088.069-.088.044 0 .069.039.069.088v1.701c0 .041-.019.078-.057.085-.1.021-10.243 2.171-14.762 6.045-.038.025-3.231 2.262-3 4.927.244 2.824 2.187 6.513 5.031 11.179.019.038.019.093-.012.123a.073.073 0 01-.044.019z"/>
      <path fill="#3B4663" d="M680.969 243.236s-.1 1.653-1.057 3.116c3.882 1.742 11.163 5.732 13.994 12.06 1.138-6.368-2.081-15.176-2.081-15.176h-10.856z"/>
      <path fill="#293247" d="M687.019 256.404c-.013 0-.025-.003-.031-.012-3.05-2.108-1.832-5.658-1.819-5.695.012-.044.056-.063.094-.044.031.021.049.072.031.116-.05.138-1.175 3.441 1.756 5.468.037.023.05.076.031.118-.019.032-.037.049-.062.049zm-7.144 29.305c-.019 0-.031-.007-.044-.024-1.431-1.631-6.106-9.555-7.3-12.585-.956-2.424-1.994-3.383-3.569-4.835a62.128 62.128 0 01-1.493-1.412c-.969-.954-1.388-2.064-1.213-3.206.275-1.759 1.969-3.356 4.531-4.273 4.35-1.554 14.613-2.61 14.713-2.619.038-.003.069.032.075.081.006.048-.025.09-.063.094-.106.012-10.35 1.064-14.687 2.615-2.513.896-4.169 2.445-4.431 4.137-.169 1.072.231 2.124 1.156 3.035.544.54 1.05 1.003 1.487 1.41 1.594 1.467 2.644 2.435 3.613 4.899 1.194 3.016 5.844 10.908 7.269 12.532.025.032.031.088.006.122a.06.06 0 01-.021.021.074.074 0 01-.029.008z"/>
      <path fill="#C5CEEF" d="M671.15 239.765l.069 4.519s11.406 2.789 21.981 2.093v-6.215l-22.05-.397z"/>
      <path fill="#D4DCFF" d="M682.069 208.751s3.156.576 5.012 0l.9 2.217s6.731 1.569 9.75 7.327c3.025 5.755 5.907 17.267 3.713 19.361-2.2 2.095-7.281-1.22-7.281-1.22s1.231 4.884-5.088 5.233c-6.319.349-17.719.173-18.819-2.965-1.1-3.139-.131-20.04 1.238-23.375 1.787-4.361 7.693-4.361 9.75-4.361l.825-2.217z"/>
      <path fill="#C5CEEF" d="M694.162 217.944s-.937 4.573-5.831 4.99c-4.887.416-10.519-.805-12.581 3.032-2.063 3.837-4.531 6.104-1.925 9.768 2.612 3.663 10.881 5.708 14.506 4.335 2.619-.989 3.85-1.084 5.313-.469.943-1.468.512-3.168.512-3.168s1.738 1.127 3.613 1.652c.181-1.715.006-3.832-.313-5.14-.687-2.79-2.744-9.594-3.294-15z"/>
      <path fill="#3CA591" d="M690.194 216.218h-13.219v21.171h13.219v-21.171z"/>
      <path fill="#D6C494" d="M676.569 218.681l.693-1.976h12.719v3.196h-13.412v-1.22z"/>
      <path fill="#3CA591" d="M688.931 239.512h-12c-.425 0-.775-.438-.775-.981v-19.63c0-.31.2-.562.444-.562h12.338c.243 0 .443.252.443.562v20.05c-.006.31-.206.561-.45.561z"/>
      <path fill="#46BCA5" d="M689.269 218.339l1.018-1.951-.093 20.968a.638.638 0 01-.05.245l-.769 1.817c-.094.229-.369.139-.369-.12l.263-20.959z"/>
      <path fill="#46BCA5" d="M690.075 215.998h-12.888c-.15 0-.256.176-.218.358.018.104.094.178.175.178h12.768c-.1.527-.306 1.01-.606 1.4l-.087.114h-12.957c-.056 0-.1.058-.1.13v.371c0 .074.044.135.1.135l12.901.215c.156.002.299-.109.368-.285l.825-2.038c.106-.266-.044-.578-.281-.578z"/>
      <path fill="#9A605C" d="M680.837 223.699s-3.024-2.965-3.574-4.012c-.55-1.047-.55 1.745.275 2.965 0 0-.688-.349-1.65-.522-.963-.174-2.607 2.616-.963 5.755 1.644 3.127 6.462 0 6.462 0l-.55-4.186z"/>
      <path fill="#D4DCFF" d="M680.7 222.652l-2.063 7.151s21.232 14.249 23.394 6.689c2.163-7.56-7.731-10.875-21.331-13.84z"/>
      <path fill="#A6B1D1" d="M694.987 225.356c-.037 0-.068-.035-.068-.081-.407-7.396-1.094-10.07-1.1-10.096-.013-.046.006-.094.044-.11.037-.017.074.008.087.055.006.025.694 2.713 1.106 10.137 0 .049-.025.09-.062.093l-.007.002zm-10.318-13.2c-1.5 0-2.725-.229-2.744-.231-.038-.007-.063-.051-.063-.099.007-.049.044-.081.082-.074.025.004 2.762.515 5.062 0 .038-.01.069.023.081.072.007.048-.018.092-.056.101-.781.174-1.606.231-2.362.231z"/>
    </g>
    <g>
      <path fill="#9A605C" d="M783.825 243.192s4.856.22 7.194 2.661c2.331 2.443-3.575 5.059-5.5 3.836-1.919-1.22-1.694-6.497-1.694-6.497z"/>
      <path fill="#E29E05" d="M789.369 243.236v7.151s19.644 8.548 21.569 6.105c1.925-2.443 1.237-9.943 1.237-9.943s-15.25-2.964-22.806-3.313z"/>
      <path fill="#9A605C" d="M809.481 304.263c-.137-.173 4.257 5.582 4.257 5.582l-1.782 3.488-5.5-4.884 3.025-4.186z"/>
      <path fill="#fff" d="M808.85 310.571l3.106 2.76 1.782-3.488-2.051-2.686-2.837 3.414z"/>
      <path fill="#9B193E" d="M810.587 312.122l2.201-3.525s4.25 1.77 5.212 3.862c0 0-2.331 9.595-4.119 11.687-1.787 2.093-7.143 2.266-8.243 1.568-1.1-.697-2.888-5.059 4.943-7.326 0 .002.013-4.685.006-6.266z"/>
      <path fill="#560F26" d="M816.55 310.786c-.606 3.49-1.969 10.139-3.769 11.792-1.925 1.764-6.168 1.944-7.969 1.937.2.582.532 1.019.826 1.202 1.1.698 6.456.522 8.243-1.57 1.782-2.093 4.119-11.685 4.119-11.685-.275-.596-.812-1.168-1.45-1.676z"/>
      <path fill="#560F26" d="M809.206 321.966a.073.073 0 01-.024-.007.05.05 0 01-.019-.016l-2.75-3.139c-.025-.032-.032-.088 0-.122.025-.035.068-.04.093-.008l2.594 2.962-.644-3.925c-.006-.035 0-.067.025-.088.019-.021.05-.023.075-.005l2.675 1.942-1.531-3.566a.122.122 0 01-.006-.082c.012-.025.031-.043.056-.046l2.056-.349c.038-.006.075.028.082.074.006.049-.025.093-.063.098l-1.962.332 1.599 3.726a.09.09 0 01-.012.104.049.049 0 01-.016.016.058.058 0 01-.022.008c-.007.002-.015.001-.023 0a.054.054 0 01-.02-.01l-2.75-1.997.656 3.996c.006.037-.006.074-.037.093-.007.007-.019.009-.032.009z"/>
      <path fill="#242444" d="M799.694 281.061s11.644 20.147 11.094 23.112c-.55 2.966-4.394 7.327-4.394 7.327s-9.756-4.534-12.781-11.686c-3.019-7.151-3.569-16.047-.132-17.792 3.431-1.743 6.213-.961 6.213-.961z"/>
      <path fill="#191930" d="M798.769 293.795c-1.144-4.444.225-8.214 1.531-10.548-1.025-1.158-2.012-1.747-2.012-1.747s-1.376-1.221-4.807.522c-3.437 1.745-2.887 10.641.132 17.792 1.656 3.911 5.318 7.038 8.306 9.072-.682-3.781-1.888-10.154-3.15-15.091z"/>
      <path fill="#141A33" d="M769.862 261.514l-6.731-25.431h20.331l7.144 25.431h-20.744z"/>
      <path fill="#4D6BE8" d="M771.812 261.514l-6.624-23.626h17.037l7.156 23.626h-17.569z"/>
      <path fill="#fff" d="M784.319 261.514h5.062l-2.012-6.641-3.05 6.641zm.075-16.463l-2.169-7.164h-3.013l-9.018 17.851 1.618 5.776h4.394l8.188-16.463zm-12.475-7.163h-6.731l2.699 9.631 4.032-9.631z"/>
      <path fill="#141A33" d="M829.538 273.041s-1.644 8.024-3.707 9.767c-2.062 1.745 2.744 2.094 2.744 2.094s4.4-7.327 3.713-11.164c-.688-3.839-2.75-.697-2.75-.697zm-22.669 12.732l-7.425 39.401c-.138.721.294 1.414.881 1.414.388 0 .731-.316.856-.783l10.775-40.903-5.087.871zm20.993 0l7.425 39.401c.138.721-.293 1.414-.881 1.414-.387 0-.731-.316-.856-.783l-10.775-40.903 5.087.871z"/>
      <path fill="#311A12" d="M826.725 287.692h-23.356c-1.706 0-3.094-1.757-3.094-3.925s1.388-3.925 3.094-3.925h23.356c1.706 0 3.087 1.757 3.087 3.925s-1.381 3.925-3.087 3.925z"/>
      <path fill="#9A605C" d="M793.138 314.902l2.331 7.151 3.712-.871-.412-7.849-5.631 1.569z"/>
      <path fill="#fff" d="M795.469 322.053l3.712-.871-.187-3.492-4.55 1.222 1.025 3.141z"/>
      <path fill="#9B193E" d="M795.013 320.645l4.093-.774s1.994 4.101 1.857 7.764c0 0-13.876 4.361-20.057 1.919 0 0-2.062-1.919-.687-4.013 1.375-2.094 6.456-2.443 8.244-2.616 1.787-.174 6.55-2.28 6.55-2.28z"/>
      <path fill="#560F26" d="M800.769 325.086c-10.513 3.682-17.913 3.25-20.888 2.822.307.978 1.025 1.646 1.025 1.646 6.181 2.443 20.057-1.919 20.057-1.919.037-.843-.051-1.713-.194-2.549zm-14.506.02c-.019 0-.032-.009-.044-.023l-2.2-2.616c-.025-.033-.031-.088 0-.123.025-.034.068-.037.093-.004l2.125 2.528.925-3.018a.07.07 0 01.051-.053c.018-.007.043.002.062.02l2.119 2.524.931-3.534a.079.079 0 01.037-.053.076.076 0 01.033-.005.066.066 0 01.03.012l2.744 2.094a.113.113 0 01.032.056.112.112 0 01-.007.065c-.019.041-.063.055-.094.03l-2.675-2.037-.937 3.56c-.007.027-.026.05-.044.057a.067.067 0 01-.069-.02l-2.125-2.529-.925 3.019a.085.085 0 01-.015.032.086.086 0 01-.029.021c-.006-.003-.012-.003-.018-.003z"/>
      <path fill="#311A12" d="M830.987 278.583l-1.356-.306c-1.006-.226-1.681-1.448-1.5-2.726l5.388-38.477c.175-1.278 1.137-2.13 2.144-1.904l1.362.305c1.006.227 1.675 1.449 1.5 2.727l-5.388 38.476c-.181 1.278-1.137 2.131-2.15 1.905z"/>
      <path fill="#3D172E" d="M818.487 222.755s-.131 3.909-.681 5.129c-.55 1.221-2.062-2.267-1.237-4.012.825-1.743 1.918-1.117 1.918-1.117z"/>
      <path fill="#242444" d="M810.744 268.771s-20.1-2.537-25.888 9.486c-5.243 10.902 7.863 39.437 7.863 39.437s6.737-1.745 7.562-4.012c.819-2.268-.519-10.221-2.475-15-5.687-13.88 2.338-16.746 10.032-17.095 7.687-.348 21.981 3.664 21.156-7.151-.825-10.814-18.25-5.665-18.25-5.665z"/>
      <path fill="#191930" d="M828.994 274.436c-.825-10.814-19.825-5.798-19.825-5.798s.812 5.695 5.469 6.679c4.293.909 14.568 1.96 14.356-.881zm-32.838 38.985a.063.063 0 01-.037-.014c-.869-.7-1.238-3.407-1.7-6.832-.363-2.674-.775-5.702-1.519-8.406-.231-.844-.487-1.706-.731-2.536-1.544-5.2-3.138-10.576.087-14.977 3.694-5.029 12.744-4.567 12.832-4.562.037.002.068.044.068.09s-.031.083-.068.083h-.007c-.087-.004-9.075-.463-12.725 4.507-3.168 4.32-1.656 9.409-.062 14.794.25.833.5 1.695.731 2.541.75 2.715 1.163 5.752 1.525 8.434.444 3.249.825 6.055 1.644 6.714.031.025.037.078.018.12-.012.027-.031.044-.056.044z"/>
      <path fill="#9A605C" d="M804.344 256.143s-9.894-3.488-13.6-1.396c-3.713 2.091-4.806 4.534-4.263 5.408.55.871.55-1.22 1.513-2.094.962-.871 2.062-1.047 2.062-1.047s-1.512 2.79-.137 3.139c1.375.349 1.65.871 3.844 0 2.2-.872 5.912-1.919 8.243-.174 2.338 1.745 2.338-3.836 2.338-3.836z"/>
      <path fill="#141A33" d="M799.681 262.335h-28.868c-.675 0-1.226-.698-1.226-1.558 0-.86.551-1.558 1.226-1.558h28.868c.675 0 1.225.698 1.225 1.558.006.86-.544 1.558-1.225 1.558z"/>
      <path fill="#9A605C" d="M804.619 213.06s-.55 21.107 7.693 18.315l1.238 5.232 4.256.872 1.925-4.535-2.475-7.676s1.375-.871 1.238-3.314c-.138-2.443-.963-3.315-2.063-2.617 0 0 0-7.327-1.925-8.371-1.919-1.047-9.887 2.094-9.887 2.094z"/>
      <path fill="#3D172E" d="M811.625 211.49s3.569 4.884 3.569 6.629c0 1.746.55 3.315 1.1 2.443.55-.871 1.556-1.248 2.087.25 0 0 .388-13.505-2.087-13.505-2.469-.004-4.669 4.183-4.669 4.183zm-5.069 4.563c-1.269.617-1.894 1.981-1.169 1.627.725-.351 2.444-2.244 1.169-1.627zm2.963-.173c1.268.617 1.893 1.981 1.175 1.627-.732-.354-2.444-2.245-1.175-1.627z"/>
      <path fill="#000" d="M809.287 225.236c-.387 0-.943-.13-1.293-.79-.556-1.062-.031-5.957-.013-6.165.007-.049.044-.08.082-.074.037.007.062.051.056.1-.007.05-.538 5.036-.007 6.044.513.984 1.563.665 1.569.661.038-.012.075.016.088.062.006.047-.013.095-.05.107-.006 0-.182.055-.432.055zm.138 2.736c-.031 0-.056-.027-.063-.066-.012-.047.013-.095.051-.104.118-.035 2.956-.895 2.556-4.089-.006-.049.018-.092.056-.099.037-.01.075.025.081.071.413 3.356-2.637 4.276-2.669 4.286l-.012.001zm7.281-3.836a.07.07 0 01-.037-.014c-.031-.026-.038-.081-.019-.12l1.237-2.443c.019-.04.063-.053.094-.026a.096.096 0 01.019.121l-1.231 2.442a.073.073 0 01-.026.029.07.07 0 01-.037.011z"/>
      <path fill="#000" d="M817.669 223.96c-.013 0-.025-.007-.038-.018l-.587-.574c-.031-.03-.031-.083-.013-.122.025-.037.069-.044.1-.016l.582.573a.1.1 0 01.012.123.061.061 0 01-.056.034zm-6.763 7.731c-1.819 0-2.743-1.225-2.756-1.241a.1.1 0 01.006-.123c.025-.031.069-.03.094.005.012.019 1.375 1.805 4.044.957.025-.009 2.444-.883 2.975-2.737.012-.046.056-.069.087-.053.038.017.057.067.044.112-.556 1.938-2.962 2.808-3.069 2.845a4.66 4.66 0 01-1.425.235z"/>
      <path fill="#0E1323" d="M809.975 219.453c.044.478-.106.892-.331.927-.225.033-.444-.328-.488-.807-.043-.478.1-.892.332-.927.225-.032.443.328.487.807zm-2.75.349c.044.479-.1.892-.331.927-.225.032-.444-.328-.488-.807-.043-.478.107-.892.332-.926.225-.033.443.328.487.806z"/>
      <path fill="#602948" d="M804.612 214.549s-3.699-.095-2.468-4.457c1.237-4.361 6.325-6.28 6.181-4.185 0 0 3.575-3.488 3.712-.871 0 0 4.532-3.315 5.082.697.55 4.013-3.082 6.155-5.044 6.391-1.963.238-7.463 2.425-7.463 2.425z"/>
      <path fill="#FFB400" d="M813.037 234.454l2.025 1.631s3.257-1.278 4.238-4.477c0 0 1.531.116 2.906 2.21 0 0 6.594 10.292 7.413 19.535.825 9.242-.169 11.536-.632 13.266-.468 1.731-8.981 4.35-11.868 3.652-2.888-.697-8.932-3.139-9.482-5.059-.55-1.918 1.101-19.711 3.713-26.34 0 .003.494-1.692 1.687-4.418z"/>
      <path fill="#C4870E" d="M813.55 241.23a.073.073 0 01-.044-.019l-1.375-1.395a.1.1 0 01-.012-.123c.025-.037.068-.044.1-.014l1.293 1.317 1.207-4.59c.012-.046.05-.069.087-.055.038.016.056.065.044.111l-1.238 4.71a.07.07 0 01-.015.033.067.067 0 01-.028.022c-.007 0-.013.003-.019.003zm2.744 0a.058.058 0 01-.019-.004.092.092 0 01-.044-.056l-.962-3.663c-.013-.046.006-.095.043-.111.038-.017.075.009.088.055l.937 3.555c.588-.509 4.5-3.902 5.119-5.485.019-.044.056-.06.094-.039.037.021.05.074.031.118-.687 1.745-5.056 5.457-5.244 5.614a.067.067 0 01-.043.016z"/>
      <path fill="#E29E05" d="M823.012 235.156c-1.656 2.603-9.906 15.328-14.487 16.993-.825 6.157-.606 13.833-.306 14.887.55 1.918 5.956 4.645 8.837 5.343 2.888.698 11.425 1.2 11.894-.533.462-1.734 1.494-9.248.669-18.491-.644-7.241-4.825-15.12-6.607-18.199z"/>
      <path fill="#C4870E" d="M812.862 262.859c-.037 0-.068-.035-.068-.081-.275-4.664 1.9-23.205 1.925-23.393 0-.048.037-.08.075-.073.037.007.062.05.056.099-.019.187-2.194 18.708-1.919 23.353 0 .049-.025.09-.062.093l-.007.002z"/>
      <path fill="#FFB400" d="M801.594 253.353l-2.469 8.198s17.719 13.258 23.769 3.837c6.044-9.419 4.394-27.909 0-26.689-5.956 1.655-5.775 14.827-5.775 14.827s-1.925-1.396-1.506.523c.406 1.92-14.019-.696-14.019-.696z"/>
      <path fill="#C4870E" d="M818.356 257.45c-.019 0-.031-.006-.043-.023l-2.063-2.443c-.031-.032-.031-.087-.006-.122s.068-.037.1-.005l1.85 2.192-.863-2.97c-.012-.047.007-.095.038-.112.037-.016.075.007.087.052l.963 3.314c.012.037 0 .081-.025.101a.066.066 0 01-.017.012.052.052 0 01-.021.004zm-15.525 4.535a.052.052 0 01-.037-.016c-.032-.028-.038-.083-.019-.122 1.081-1.882 1.769-6.546 1.775-6.592.013-.049.044-.079.081-.07.038.01.063.054.056.102-.025.194-.7 4.752-1.8 6.663a.051.051 0 01-.022.026.052.052 0 01-.034.009z"/>
    </g>
  </g>
</svg>
