<svg xmlns="http://www.w3.org/2000/svg" width="2420" height="1350" fill="none" viewBox="0 0 2420 1350">
  <path fill="#fff" d="M0 0h2420v1350H0z"/>
  <path fill="#514D4F" fill-opacity=".15" d="M180 561.4v126c0 12.6 3.1 22.3 9.3 29.1 6.2 6.8 15.3 10.2 27.3 10.2s21.2-3.4 27.6-10.2c6.4-6.8 9.6-16.5 9.6-29.1v-126h51.3v125.7c0 18.8-4 34.7-12 47.7s-18.8 22.8-32.4 29.4c-13.4 6.6-28.4 9.9-45 9.9s-31.5-3.2-44.7-9.6c-13-6.6-23.3-16.4-30.9-29.4-7.6-13.2-11.4-29.2-11.4-48V561.4H180zM529.523 772h-51.3l-85.8-129.9V772h-51.3V561.4h51.3l85.8 130.5V561.4h51.3V772zm88.486-39.6h67.2V772h-118.5V561.4h51.3v171zm142.969-129.9v42.6h68.7v39.6h-68.7v46.2h77.7V772h-129V561.4h129v41.1h-77.7zm242.102 132.3h-78.597l-12.6 37.2h-53.7l76.2-210.6h59.4L1069.98 772h-54.3l-12.6-37.2zm-13.197-39.6l-26.1-77.1-25.8 77.1h51.9zM1200.57 772l-43.8-79.5h-12.3V772h-51.3V561.4h86.1c16.6 0 30.7 2.9 42.3 8.7 11.8 5.8 20.6 13.8 26.4 24 5.8 10 8.7 21.2 8.7 33.6 0 14-4 26.5-12 37.5-7.8 11-19.4 18.8-34.8 23.4l48.6 83.4h-57.9zm-56.1-115.8h31.8c9.4 0 16.4-2.3 21-6.9 4.8-4.6 7.2-11.1 7.2-19.5 0-8-2.4-14.3-7.2-18.9-4.6-4.6-11.6-6.9-21-6.9h-31.8v52.2zM1477.28 772h-51.3l-85.8-129.9V772h-51.3V561.4h51.3l85.8 130.5V561.4h51.3V772z"/>
  <path fill="#FFB000" d="M2076.89 979.586c152.49-148.794 152.49-390.035 0-538.829-152.49-148.793-399.73-148.793-552.22 0-152.49 148.794-152.49 390.035 0 538.829 152.49 148.794 399.73 148.794 552.22 0zM1546.36 364.356c30.82-30.068 30.82-78.819 0-108.887-30.81-30.069-80.77-30.069-111.59 0-30.82 30.068-30.82 78.819 0 108.887 30.82 30.068 80.78 30.068 111.59 0zM2102.1 329.308c33.83-33.01 33.83-86.529 0-119.539-33.83-33.009-88.68-33.009-122.51 0-33.83 33.01-33.83 86.529 0 119.539 33.83 33.01 88.68 33.01 122.51 0zM2225.16 501.69c26.36-4.175 44.26-28.412 39.98-54.135-4.27-25.724-29.11-43.193-55.48-39.018-26.36 4.175-44.26 28.412-39.98 54.136 4.27 25.723 29.11 43.192 55.48 39.017zM1459.49 1115.41c20-19.52 20-51.17 0-70.69-20-19.51-52.44-19.51-72.44 0-20 19.52-20 51.17 0 70.69 20 19.51 52.44 19.51 72.44 0zM2224.73 1005.76c0 26.21-21.78 47.45-48.64 47.45s-48.62-21.25-48.62-47.45c0-26.202 21.77-47.452 48.62-47.452 26.87.004 48.64 21.245 48.64 47.452z"/>
  <path fill="#D3D1CF" d="M1994.57 557.479c-1.57 1.471.7 2.861-40.89-39.523-1.48-1.516-.37-1.699 16.94-17.88 1.57-1.471-.69-2.866 40.89 39.523 1.49 1.516.38 1.699-16.94 17.88zM2178.32 744.066c-1.57 1.47.71 2.852-40.89-39.524-1.48-1.515-.38-1.698 16.94-17.88 1.57-1.47-.7-2.87 40.89 39.524 1.49 1.515.38 1.698-16.94 17.88z"/>
  <path fill="#D3D1CF" d="M2071.73 851.278c-1.31 1.234-3.39 1.212-4.64-.049L1840.6 621.673c-1.24-1.265-1.19-3.29.13-4.528l121.03-113.699c1.32-1.238 3.4-1.216 4.64.049l226.49 229.556c1.25 1.265 1.19 3.29-.12 4.529l-121.04 113.698z"/>
  <path fill="#E8E8E8" d="M2073.68 849.15c-1.31 1.239-3.39 1.216-4.63-.044l-226.17-229.221c-1.24-1.261-1.18-3.286.13-4.524l121.04-113.698c1.31-1.239 3.39-1.216 4.64.049l226.16 229.221c1.24 1.26 1.19 3.285-.13 4.523L2073.68 849.15z"/>
  <path fill="#C9C5C1" d="M2110.83 798.948c-1.29 1.211-3.35 1.167-4.6-.098l-210.32-213.161a3.122 3.122 0 01.07-4.483l73.79-69.316c1.29-1.211 3.35-1.167 4.6.103l210.31 213.16c1.25 1.265 1.22 3.277-.07 4.483l-73.78 69.312z"/>
  <path fill="#D1CCC7" d="M1995.32 753.149a3.104 3.104 0 01-4.32-.081l-55.47-56.219a2.924 2.924 0 01.08-4.22l26.26-24.665c1.22-1.144 3.16-1.109 4.32.08l55.47 56.219a2.932 2.932 0 01-.08 4.22l-26.26 24.666z"/>
  <path fill="#D8D0CA" d="M1995.71 749.89c-1.08 1.014-2.85.921-3.97-.21l-52.75-53.466c-1.12-1.131-1.14-2.865-.06-3.88l23.29-21.88c1.08-1.015 2.86-.921 3.97.21l52.75 53.465c1.12 1.131 1.15 2.87.07 3.885l-23.3 21.876z"/>
  <path fill="#413E3F" d="M1981.89 533.556c-1.24 1.166-1.37.322-14.67-13.146-1.13-1.149.33-1.967 3.83-5.248 1.24-1.167 1.4-.304 14.67 13.146 1.13 1.149-.33 1.967-3.83 5.248zM1997.73 549.608c-1.25 1.166-1.38.322-14.67-13.146-1.13-1.149.33-1.972 3.83-5.248 1.24-1.167 1.38-.322 14.66 13.146 1.13 1.144-.33 1.967-3.82 5.248zM2014.85 566.965c-1.24 1.171-1.38.322-14.67-13.142-1.13-1.149.33-1.967 3.83-5.248 1.24-1.167 1.38-.322 14.67 13.142 1.13 1.144-.34 1.967-3.83 5.248zM2030.69 583.012c-1.24 1.166-1.38.326-14.67-13.146-1.13-1.149.33-1.972 3.83-5.248 1.24-1.167 1.38-.327 14.67 13.141 1.12 1.149-.34 1.972-3.83 5.253zM2047.03 599.573c-1.25 1.167-1.38.322-14.67-13.146-1.13-1.149.33-1.967 3.82-5.248 1.24-1.166 1.38-.317 14.67 13.142 1.13 1.149-.33 1.971-3.82 5.252zM2062.86 615.62c-1.25 1.172-1.42.286-14.67-13.146-1.13-1.149.33-1.967 3.83-5.248 1.24-1.166 1.38-.326 14.66 13.147 1.14 1.144-.33 1.966-3.82 5.247zM2081.01 634.014c-1.24 1.167-1.38.327-14.67-13.146-1.13-1.149.33-1.967 3.83-5.248 1.24-1.166 1.37-.317 14.66 13.147 1.14 1.144-.33 1.966-3.82 5.247zM2096.84 650.061c-1.24 1.167-1.38.322-14.67-13.146-1.21-1.225.67-2.28 3.83-5.248 1.24-1.171 1.41-.286 14.67 13.142 1.12 1.144-.32 1.958-3.83 5.252zM2113.46 667.029c-1.24 1.167-1.39.322-14.67-13.146-1.13-1.149.33-1.967 3.82-5.248 1.25-1.171 1.42-.286 14.67 13.147 1.13 1.148-.33 1.971-3.82 5.247zM2129.29 683.077c-1.24 1.166-1.38.322-14.67-13.146-1.13-1.149.33-1.967 3.83-5.248 1.24-1.167 1.37-.322 14.66 13.146 1.14 1.149-.33 1.971-3.82 5.248zM2145.86 700.054c-1.24 1.167-1.38.322-14.67-13.146-1.21-1.225.67-2.28 3.83-5.248 1.24-1.167 1.38-.322 14.67 13.146 1.13 1.145-.33 1.967-3.83 5.248zM2161.7 716.101c-1.25 1.167-1.38.322-14.67-13.146-1.14-1.144.32-1.962 3.82-5.248 1.24-1.166 1.38-.322 14.67 13.146 1.13 1.145-.33 1.967-3.82 5.248zM2174.5 729.167c-1.26 1.185-1.34.362-11.93-10.366-.9-.916.5-1.788 3.99-5.078 1.26-1.18 1.34-.366 11.93 10.366.91.916-.49 1.788-3.99 5.078zM1925.22 577.755c-.98.921-2.03 1.404-2.35 1.078l-8.85-8.967c-.79-.805 2.42-3.406 8.82-9.414.97-.921 2.03-1.404 2.35-1.077l8.85 8.967c.79.804-2.41 3.397-8.82 9.413z"/>
  <path fill="#514D4F" d="M1925.08 576.709c-.86.809-1.78 1.234-2.07.948l-7.78-7.885c-.7-.711 2.16-3.022 7.75-8.279.87-.809 1.79-1.233 2.07-.947l7.78 7.885c.7.711-2.11 2.981-7.75 8.278z"/>
  <path fill="#413E3F" d="M1938.04 565.713c-.98.921-2.03 1.404-2.36 1.077l-8.84-8.966c-.8-.814 2.5-3.487 8.81-9.414.98-.921 2.03-1.404 2.36-1.078l8.84 8.967c.79.809-2.41 3.397-8.81 9.414z"/>
  <path fill="#514D4F" d="M1937.9 564.671c-.87.81-1.79 1.234-2.07.948l-7.78-7.885c-.7-.715 2.2-3.062 7.75-8.278.86-.81 1.79-1.234 2.07-.948l7.78 7.885c.7.715-2.11 2.973-7.75 8.278z"/>
  <path fill="#413E3F" d="M1951.21 553.34c-.98.921-2.03 1.403-2.35 1.077l-8.84-8.967c-.8-.804 2.4-3.392 8.81-9.414.98-.92 2.03-1.403 2.35-1.077l8.85 8.967c.79.809-2.41 3.397-8.82 9.414z"/>
  <path fill="#514D4F" d="M1951.07 552.299c-.87.809-1.79 1.233-2.07.947l-7.78-7.885c-.7-.715 2.2-3.062 7.75-8.278.86-.809 1.79-1.234 2.07-.948l7.78 7.885c.7.711-2.14 3-7.75 8.279z"/>
  <path fill="#413E3F" d="M1964.65 540.712c-.97.921-2.03 1.404-2.35 1.077l-8.84-8.966c-.79-.805 2.41-3.393 8.81-9.414.98-.921 2.03-1.399 2.35-1.078l8.85 8.967c.79.809-2.41 3.397-8.82 9.414z"/>
  <path fill="#514D4F" d="M1964.51 539.671c-.86.809-1.78 1.234-2.07.948l-7.78-7.885c-.69-.707 2.14-3 7.75-8.279.86-.809 1.79-1.234 2.07-.948l7.78 7.886c.71.715-2.2 3.061-7.75 8.278z"/>
  <path fill="#413E3F" d="M1911.08 591.04c-.98.921-2.03 1.399-2.35 1.077l-8.85-8.966c-.8-.805 2.42-3.407 8.82-9.414.98-.921 2.03-1.404 2.35-1.077l8.85 8.966c.78.809-2.42 3.398-8.82 9.414z"/>
  <path fill="#514D4F" d="M1910.94 589.999c-.87.809-1.79 1.233-2.07.947l-7.78-7.885c-.7-.706 2.13-2.999 7.75-8.278.86-.809 1.78-1.234 2.07-.948l7.78 7.885c.7.715-2.2 3.067-7.75 8.279z"/>
  <path fill="#413E3F" d="M1923.01 602.881c-.98.921-2.03 1.404-2.36 1.077l-8.84-8.966c-.8-.805 2.4-3.398 8.81-9.414.98-.921 2.03-1.404 2.35-1.077l8.85 8.966c.8.809-2.42 3.411-8.81 9.414z"/>
  <path fill="#514D4F" d="M1922.87 601.84c-.87.809-1.79 1.233-2.08.947l-7.77-7.885c-.7-.711 2.15-3.022 7.74-8.278.86-.809 1.79-1.234 2.07-.948l7.78 7.885c.71.715-2.19 3.062-7.74 8.279z"/>
  <path fill="#413E3F" d="M1934.41 614.66c-.98.92-2.03 1.403-2.35 1.077l-8.85-8.967c-.79-.809 2.42-3.406 8.82-9.414.97-.921 2.03-1.403 2.35-1.077l8.84 8.967c.8.809-2.41 3.406-8.81 9.414z"/>
  <path fill="#514D4F" d="M1934.27 613.618c-.86.809-1.78 1.234-2.06.948l-7.78-7.885c-.71-.711 2.16-3.022 7.75-8.279.86-.809 1.79-1.233 2.07-.947l7.78 7.885c.69.715-2.16 3.022-7.76 8.278z"/>
  <path fill="#413E3F" d="M1936.82 589.632c-.98.92-2.03 1.399-2.35 1.077l-8.85-8.967c-.79-.804 2.41-3.393 8.82-9.414.98-.92 2.03-1.399 2.35-1.077l8.84 8.967c.8.809-2.42 3.406-8.81 9.414z"/>
  <path fill="#514D4F" d="M1936.68 588.586c-.86.809-1.79 1.234-2.07.948l-7.78-7.885c-.7-.707 2.13-3 7.75-8.279.86-.809 1.79-1.229 2.07-.947l7.78 7.885c.7.71-2.14 3.004-7.75 8.278z"/>
  <path fill="#413E3F" d="M1948.75 601.473c-.98.921-2.03 1.399-2.35 1.077l-8.85-8.967c-.79-.804 2.41-3.392 8.82-9.413.98-.921 2.03-1.404 2.35-1.078l8.85 8.967c.79.809-2.43 3.406-8.82 9.414z"/>
  <path fill="#514D4F" d="M1948.61 600.431c-.86.809-1.79 1.234-2.07.948l-7.78-7.885c-.7-.711 2.13-3 7.75-8.279.86-.809 1.79-1.233 2.07-.947l7.78 7.885c.69.706-2.11 2.981-7.75 8.278z"/>
  <path fill="#413E3F" d="M1960.16 613.251c-.98.921-2.03 1.404-2.35 1.078l-8.85-8.967c-.8-.805 2.42-3.406 8.81-9.414.98-.921 2.04-1.404 2.35-1.077l8.85 8.967c.79.804-2.41 3.392-8.81 9.413z"/>
  <path fill="#514D4F" d="M1960.01 612.205c-.86.809-1.78 1.234-2.07.948l-7.78-7.885c-.7-.715 2.2-3.062 7.76-8.278.86-.81 1.78-1.234 2.07-.948l7.77 7.885c.7.711-2.11 2.986-7.75 8.278z"/>
  <path fill="#413E3F" d="M1972.2 625.495c-.98.921-2.03 1.403-2.35 1.077l-8.85-8.967c-.79-.804 2.41-3.392 8.82-9.414.97-.92 2.03-1.403 2.35-1.077l8.85 8.967c.79.805-2.42 3.393-8.82 9.414z"/>
  <path fill="#514D4F" d="M1972.05 624.449c-.86.809-1.78 1.233-2.07.947l-7.78-7.885c-.7-.711 2.1-2.968 7.75-8.278.87-.809 1.79-1.23 2.08-.944l7.77 7.886c.7.706-2.12 2.99-7.75 8.274z"/>
  <path fill="#413E3F" d="M1984.13 637.335c-.98.921-2.04 1.399-2.35 1.078l-8.85-8.967c-.79-.805 2.41-3.393 8.82-9.414.98-.921 2.03-1.404 2.35-1.077l8.84 8.967c.8.804-2.4 3.392-8.81 9.413z"/>
  <path fill="#514D4F" d="M1983.99 636.29c-.87.809-1.79 1.233-2.07.947l-7.78-7.885c-.71-.715 2.2-3.062 7.75-8.278.86-.809 1.78-1.234 2.06-.948l7.78 7.885c.7.711-2.1 2.986-7.74 8.279z"/>
  <path fill="#413E3F" d="M1995.54 649.114c-.99.921-2.03 1.404-2.36 1.078l-8.85-8.967c-.8-.809 2.48-3.469 8.82-9.414.97-.921 2.03-1.403 2.35-1.077l8.84 8.967c.81.809-2.41 3.406-8.8 9.413z"/>
  <path fill="#514D4F" d="M1995.39 648.068c-.86.809-1.78 1.234-2.07.948l-7.78-7.885c-.7-.715 2.2-3.062 7.76-8.278.86-.81 1.78-1.234 2.07-.948l7.77 7.885c.71.715-2.15 3.026-7.75 8.278z"/>
  <g>
    <path fill="#413E3F" d="M2008.5 662.278c-.98.921-2.03 1.404-2.36 1.077l-8.85-8.966c-.79-.805 2.41-3.393 8.82-9.41.98-.921 2.03-1.403 2.35-1.077l8.84 8.967c.81.8-2.4 3.393-8.8 9.409z"/>
    <path fill="#514D4F" d="M2008.35 661.232c-.86.809-1.78 1.234-2.07.948l-7.78-7.885c-.69-.711 2.12-2.982 7.76-8.279.86-.809 1.78-1.233 2.07-.947l7.77 7.885c.71.719-2.19 3.066-7.75 8.278z"/>
    <path fill="#413E3F" d="M2020.43 674.119c-.98.916-2.04 1.399-2.36 1.077l-8.84-8.967c-.8-.804 2.42-3.406 8.81-9.409.98-.921 2.03-1.403 2.35-1.077l8.85 8.967c.8.8-2.4 3.392-8.81 9.409z"/>
    <path fill="#514D4F" d="M2020.29 673.073c-.86.809-1.79 1.234-2.07.948l-7.78-7.885c-.7-.707 2.12-2.982 7.75-8.279.86-.809 1.79-1.234 2.07-.947l7.78 7.885c.69.71-2.12 2.981-7.75 8.278z"/>
    <g>
      <path fill="#413E3F" d="M2031.84 685.897c-.98.921-2.04 1.404-2.36 1.078l-8.85-8.967c-.79-.805 2.41-3.397 8.82-9.41.98-.92 2.03-1.403 2.35-1.077l8.85 8.967c.79.8-2.41 3.388-8.81 9.409z"/>
      <path fill="#514D4F" d="M2031.69 684.851c-.86.809-1.79 1.234-2.07.948l-7.78-7.885c-.71-.711 2.15-3.022 7.75-8.279.86-.809 1.79-1.233 2.07-.947l7.78 7.885c.7.715-2.16 3.022-7.75 8.278z"/>
    </g>
  </g>
  <g>
    <path fill="#413E3F" d="M2043.87 698.136c-.97.921-2.02 1.404-2.35 1.078l-8.84-8.967c-.79-.805 2.4-3.393 8.81-9.414.98-.921 2.03-1.404 2.36-1.077l8.84 8.967c.8.809-2.41 3.397-8.82 9.413z"/>
    <path fill="#514D4F" d="M2043.73 697.095c-.86.809-1.78 1.234-2.07.948l-7.78-7.885c-.7-.716 2.2-3.062 7.75-8.279.87-.809 1.79-1.229 2.07-.948l7.78 7.886c.7.715-2.19 3.066-7.75 8.278z"/>
    <path fill="#413E3F" d="M2055.81 709.977c-.98.921-2.04 1.404-2.36 1.078l-8.84-8.967c-.8-.809 2.42-3.406 8.81-9.414.98-.921 2.03-1.403 2.36-1.077l8.84 8.967c.79.809-2.42 3.41-8.81 9.413z"/>
    <path fill="#514D4F" d="M2055.66 708.935c-.86.809-1.78 1.234-2.07.948l-7.78-7.885c-.7-.711 2.16-3.022 7.75-8.279.86-.809 1.79-1.233 2.07-.947l7.78 7.885c.71.711-2.15 3.022-7.75 8.278z"/>
    <g>
      <path fill="#413E3F" d="M2067.22 721.756c-.98.921-2.04 1.403-2.36 1.077l-8.85-8.967c-.79-.809 2.42-3.406 8.82-9.414.98-.92 2.03-1.403 2.35-1.077l8.85 8.967c.79.809-2.38 3.366-8.81 9.414z"/>
      <path fill="#514D4F" d="M2067.07 720.715c-.86.809-1.79 1.233-2.07.947l-7.78-7.885c-.7-.711 2.16-3.022 7.76-8.278.86-.809 1.78-1.234 2.07-.948l7.77 7.885c.71.715-2.19 3.053-7.75 8.279z"/>
    </g>
  </g>
  <g>
    <path fill="#413E3F" d="M1950.02 577.978c-.98.921-2.03 1.4-2.35 1.078l-8.85-8.967c-.79-.805 2.41-3.393 8.82-9.414.98-.921 2.03-1.403 2.35-1.077l8.84 8.967c.79.809-2.41 3.397-8.81 9.413z"/>
    <path fill="#514D4F" d="M1949.87 576.937c-.86.809-1.79 1.234-2.07.948l-7.78-7.885c-.7-.706 2.11-2.982 7.75-8.279.86-.809 1.79-1.233 2.07-.947l7.78 7.885c.7.711-2.15 3.022-7.75 8.278z"/>
    <path fill="#413E3F" d="M1961.95 589.82c-.98.921-2.03 1.399-2.36 1.077l-8.84-8.967c-.8-.804 2.41-3.406 8.81-9.414.98-.92 2.03-1.403 2.35-1.077l8.85 8.967c.8.809-2.42 3.411-8.81 9.414z"/>
    <path fill="#514D4F" d="M1961.8 588.778c-.86.809-1.78 1.234-2.07.947l-7.77-7.885c-.71-.71 2.15-3.021 7.75-8.278.86-.809 1.78-1.234 2.07-.948l7.78 7.885c.69.711-2.12 2.982-7.76 8.279z"/>
    <g>
      <path fill="#413E3F" d="M1973.35 601.598c-.98.921-2.03 1.404-2.35 1.077l-8.85-8.967c-.79-.804 2.41-3.392 8.82-9.413.98-.921 2.03-1.404 2.35-1.078l8.85 8.967c.79.805-2.41 3.397-8.82 9.414z"/>
      <path fill="#514D4F" d="M1973.21 600.557c-.86.809-1.78 1.234-2.07.947l-7.78-7.885c-.7-.715 2.2-3.061 7.75-8.278.86-.809 1.79-1.234 2.07-.948l7.78 7.885c.7.711-2.1 2.973-7.75 8.279z"/>
    </g>
    <g>
      <path fill="#413E3F" d="M1985.4 613.842c-.98.92-2.03 1.403-2.35 1.077l-8.85-8.967c-.8-.814 2.51-3.487 8.81-9.414.99-.921 2.03-1.403 2.36-1.077l8.84 8.967c.79.804-2.41 3.397-8.81 9.414z"/>
      <path fill="#514D4F" d="M1985.25 612.795c-.86.809-1.79 1.234-2.07.948l-7.78-7.885c-.7-.711 2.14-2.999 7.75-8.278.86-.809 1.79-1.234 2.07-.948l7.78 7.885c.71.72-2.2 3.066-7.75 8.278z"/>
      <path fill="#413E3F" d="M1997.33 625.682c-.98.921-2.03 1.404-2.35 1.077l-8.85-8.966c-.8-.805 2.42-3.406 8.81-9.414.98-.921 2.03-1.404 2.36-1.077l8.84 8.966c.79.81-2.42 3.411-8.81 9.414z"/>
      <path fill="#514D4F" d="M1997.18 624.641c-.86.809-1.78 1.234-2.06.947l-7.78-7.885c-.71-.715 2.2-3.061 7.75-8.278.86-.809 1.79-1.234 2.07-.948l7.78 7.885c.7.711-2.16 3.022-7.76 8.279z"/>
      <g>
        <path fill="#413E3F" d="M2008.73 637.461c-.98.921-2.03 1.404-2.35 1.077l-8.85-8.967c-.79-.804 2.41-3.392 8.82-9.409.98-.921 2.03-1.403 2.35-1.077l8.85 8.967c.79.804-2.43 3.401-8.82 9.409z"/>
        <path fill="#514D4F" d="M2008.59 636.42c-.86.809-1.79 1.233-2.07.947l-7.78-7.885c-.71-.715 2.2-3.062 7.75-8.274.86-.809 1.79-1.233 2.07-.947l7.78 7.885c.7.701-2.11 2.977-7.75 8.274z"/>
      </g>
    </g>
    <g>
      <path fill="#413E3F" d="M2021.69 650.625c-.98.921-2.03 1.399-2.35 1.077l-8.85-8.967c-.79-.804 2.42-3.406 8.82-9.413.98-.921 2.03-1.404 2.35-1.078l8.85 8.967c.8.814-2.51 3.491-8.82 9.414z"/>
      <path fill="#514D4F" d="M2021.55 649.583c-.86.809-1.79 1.234-2.07.948l-7.78-7.885c-.7-.715 2.2-3.062 7.75-8.279.86-.809 1.79-1.233 2.07-.947l7.78 7.885c.7.711-2.1 2.972-7.75 8.278z"/>
      <path fill="#413E3F" d="M2033.63 662.466c-.98.921-2.04 1.403-2.36 1.077l-8.84-8.967c-.8-.804 2.41-3.406 8.81-9.413.98-.921 2.03-1.4 2.35-1.078l8.85 8.967c.8.814-2.42 3.406-8.81 9.414z"/>
      <path fill="#514D4F" d="M2033.48 661.424c-.86.809-1.79 1.234-2.07.948l-7.78-7.885c-.7-.715 2.2-3.062 7.75-8.279.86-.809 1.79-1.233 2.07-.947l7.78 7.885c.68.693-1.66 2.557-7.75 8.278z"/>
      <g>
        <path fill="#413E3F" d="M2045.03 674.245c-.98.92-2.03 1.403-2.35 1.077l-8.85-8.967c-.79-.805 2.42-3.406 8.82-9.414.98-.921 2.03-1.403 2.35-1.077l8.85 8.967c.81.827-2.59 3.562-8.82 9.414z"/>
        <path fill="#514D4F" d="M2044.89 673.203c-.86.809-1.79 1.234-2.07.948l-7.78-7.886c-.7-.71 2.15-3.021 7.75-8.278.86-.809 1.78-1.234 2.06-.948l7.78 7.885c.71.711-2.1 2.969-7.74 8.279z"/>
      </g>
    </g>
    <g>
      <path fill="#413E3F" d="M2057.07 686.488c-.98.921-2.03 1.399-2.35 1.077l-8.84-8.967c-.8-.809 2.42-3.406 8.81-9.409.98-.921 2.03-1.399 2.36-1.077l8.84 8.966c.79.801-2.41 3.393-8.82 9.41z"/>
      <path fill="#514D4F" d="M2056.93 685.442c-.87.809-1.79 1.233-2.07.947l-7.78-7.885c-.7-.715 2.2-3.062 7.75-8.278.86-.809 1.79-1.234 2.07-.948l7.78 7.885c.7.715-2.1 2.973-7.75 8.279z"/>
      <path fill="#413E3F" d="M2069.01 698.328c-.98.921-2.04 1.4-2.35 1.078l-8.85-8.967c-.82-.827 2.58-3.558 8.81-9.414.98-.921 2.04-1.403 2.36-1.077l8.84 8.967c.79.804-2.41 3.397-8.81 9.413z"/>
      <path fill="#514D4F" d="M2068.86 697.283c-.86.809-1.79 1.233-2.07.947l-7.78-7.885c-.7-.706 2.12-2.981 7.76-8.278.86-.809 1.78-1.234 2.07-.948l7.78 7.885c.69.711-2.14 3.004-7.76 8.279z"/>
      <g>
        <path fill="#413E3F" d="M2080.41 710.107c-.98.921-2.04 1.399-2.36 1.077l-8.84-8.966c-.79-.805 2.41-3.393 8.81-9.41.98-.92 2.03-1.403 2.35-1.077l8.85 8.967c.8.8-2.4 3.393-8.81 9.409z"/>
        <path fill="#514D4F" d="M2080.27 709.061c-.86.809-1.79 1.234-2.07.948l-7.78-7.885c-.7-.711 2.16-3.022 7.75-8.279.86-.809 1.79-1.233 2.07-.947l7.78 7.885c.7.72-2.21 3.062-7.75 8.278z"/>
      </g>
    </g>
  </g>
  <g>
    <path fill="#413E3F" d="M1963.46 565.682c-.98.92-2.03 1.403-2.35 1.077l-8.85-8.967c-.79-.805 2.42-3.406 8.82-9.414.98-.921 2.03-1.403 2.35-1.077l8.84 8.967c.8.809-2.4 3.397-8.81 9.414z"/>
    <path fill="#514D4F" d="M1963.32 564.64c-.87.809-1.79 1.234-2.07.948l-7.78-7.885c-.7-.711 2.15-3.022 7.75-8.279.86-.809 1.78-1.233 2.07-.947l7.78 7.885c.7.71-2.16 3.021-7.75 8.278z"/>
    <path fill="#413E3F" d="M1975.39 577.523c-.98.921-2.03 1.403-2.35 1.077l-8.84-8.967c-.8-.804 2.4-3.397 8.81-9.409.98-.921 2.03-1.404 2.35-1.077l8.85 8.966c.79.805-2.41 3.389-8.82 9.41z"/>
    <path fill="#514D4F" d="M1975.25 576.481c-.87.809-1.79 1.234-2.07.948l-7.78-7.885c-.7-.711 2.16-3.022 7.75-8.279.86-.809 1.79-1.233 2.07-.947l7.78 7.885c.7.706-2.13 2.999-7.75 8.278z"/>
    <g>
      <path fill="#413E3F" d="M1986.8 589.301c-.98.921-2.03 1.403-2.36 1.077l-8.84-8.967c-.8-.809 2.42-3.406 8.81-9.413.98-.921 2.03-1.4 2.36-1.078l8.84 8.967c.8.814-2.51 3.487-8.81 9.414z"/>
      <path fill="#514D4F" d="M1986.65 588.259c-.86.81-1.78 1.234-2.06.948l-7.78-7.885c-.7-.711 2.1-2.968 7.75-8.278.86-.809 1.79-1.234 2.06-.948l7.78 7.885c.7.706-2.11 2.982-7.75 8.278z"/>
    </g>
    <g>
      <path fill="#413E3F" d="M1998.84 601.545c-.98.92-2.03 1.399-2.35 1.077l-8.85-8.967c-.79-.805 2.41-3.393 8.82-9.414.98-.921 2.03-1.399 2.35-1.077l8.85 8.967c.78.804-2.41 3.392-8.82 9.414z"/>
      <path fill="#514D4F" d="M1998.7 600.498c-.87.81-1.79 1.234-2.07.948l-7.78-7.885c-.7-.711 2.15-3.022 7.75-8.278.86-.809 1.78-1.234 2.07-.948l7.78 7.885c.7.715-2.11 2.973-7.75 8.278z"/>
      <path fill="#413E3F" d="M2010.77 613.385c-.97.921-2.03 1.404-2.35 1.077l-8.84-8.966c-.8-.805 2.4-3.393 8.81-9.414.98-.921 2.03-1.399 2.35-1.077l8.85 8.966c.79.805-2.41 3.393-8.82 9.414z"/>
      <path fill="#514D4F" d="M2010.63 612.34c-.87.809-1.79 1.233-2.08.947l-7.77-7.885c-.71-.711 2.15-3.017 7.75-8.274.86-.809 1.78-1.234 2.07-.947l7.78 7.885c.69.701-2.1 2.968-7.75 8.274z"/>
      <g>
        <path fill="#413E3F" d="M2022.17 625.164c-.97.921-2.03 1.404-2.35 1.077l-8.84-8.966c-.8-.805 2.42-3.407 8.81-9.41.98-.921 2.04-1.403 2.36-1.077l8.84 8.967c.8.8-2.42 3.401-8.82 9.409z"/>
        <path fill="#514D4F" d="M2022.03 624.118c-.86.809-1.78 1.234-2.07.948l-7.78-7.885c-.7-.707 2.11-2.982 7.75-8.279.86-.809 1.79-1.234 2.07-.948l7.78 7.886c.7.71-2.11 2.985-7.75 8.278z"/>
      </g>
    </g>
    <g>
      <path fill="#413E3F" d="M2035.14 638.328c-.98.921-2.03 1.399-2.35 1.077l-8.85-8.967c-.79-.804 2.42-3.397 8.82-9.414.97-.92 2.03-1.403 2.35-1.077l8.85 8.967c.78.805-2.42 3.397-8.82 9.414z"/>
      <path fill="#514D4F" d="M2034.99 637.282c-.86.809-1.78 1.234-2.07.947l-7.78-7.885c-.7-.71 2.1-2.968 7.75-8.278.86-.809 1.79-1.234 2.07-.948l7.78 7.885c.7.711-2.11 2.986-7.75 8.279z"/>
      <path fill="#413E3F" d="M2047.07 650.169c-.98.921-2.04 1.404-2.36 1.077l-8.84-8.966c-.8-.805 2.42-3.407 8.81-9.41.98-.921 2.03-1.403 2.35-1.077l8.85 8.967c.8.8-2.41 3.388-8.81 9.409z"/>
      <path fill="#514D4F" d="M2046.93 649.123c-.87.809-1.79 1.234-2.07.948l-7.78-7.885c-.7-.707 2.11-2.982 7.75-8.279.86-.809 1.78-1.233 2.06-.947l7.78 7.885c.71.71-2.11 2.981-7.74 8.278z"/>
      <g>
        <path fill="#413E3F" d="M2058.47 661.947c-.98.921-2.03 1.404-2.35 1.077l-8.85-8.966c-.79-.805 2.42-3.407 8.82-9.414.98-.921 2.03-1.399 2.35-1.077l8.85 8.966c.8.809-2.42 3.406-8.82 9.414z"/>
        <path fill="#514D4F" d="M2058.33 660.901c-.86.809-1.78 1.234-2.07.948l-7.78-7.885c-.7-.716 2.2-3.062 7.75-8.279.87-.809 1.79-1.233 2.07-.947l7.78 7.885c.7.719-2.2 3.066-7.75 8.278z"/>
      </g>
    </g>
    <g>
      <path fill="#413E3F" d="M2070.52 674.191c-.98.921-2.03 1.403-2.36 1.077l-8.84-8.967c-.8-.804 2.4-3.397 8.81-9.414.98-.92 2.04-1.399 2.35-1.077l8.85 8.967c.79.805-2.41 3.393-8.81 9.414z"/>
      <path fill="#514D4F" d="M2070.38 673.145c-.87.809-1.79 1.233-2.07.947l-7.78-7.885c-.71-.71 2.15-3.021 7.75-8.274.86-.809 1.78-1.233 2.07-.947l7.78 7.885c.69.71-2.11 2.968-7.75 8.274z"/>
      <path fill="#413E3F" d="M2082.45 686.032c-.98.92-2.04 1.399-2.36 1.077l-8.84-8.967c-.8-.805 2.4-3.393 8.81-9.414.98-.921 2.03-1.403 2.35-1.077l8.85 8.967c.8.809-2.42 3.406-8.81 9.414z"/>
      <path fill="#514D4F" d="M2082.31 684.986c-.87.809-1.79 1.233-2.07.947l-7.78-7.885c-.7-.711 2.14-2.999 7.75-8.278.86-.809 1.79-1.234 2.07-.948l7.78 7.885c.69.711-2.12 2.982-7.75 8.279z"/>
      <g>
        <path fill="#413E3F" d="M2093.85 697.81c-.98.921-2.03 1.403-2.35 1.077l-8.85-8.967c-.79-.804 2.41-3.392 8.82-9.413.97-.921 2.03-1.4 2.35-1.078l8.85 8.967c.79.805-2.41 3.397-8.82 9.414z"/>
        <path fill="#514D4F" d="M2093.71 696.764c-.86.809-1.79 1.234-2.07.948l-7.78-7.886c-.69-.71 2.11-2.981 7.75-8.278.86-.809 1.79-1.229 2.07-.948l7.78 7.885c.7.716-2.1 2.973-7.75 8.279z"/>
      </g>
    </g>
  </g>
  <g>
    <path fill="#413E3F" d="M1977.73 554.095c-.97.921-2.03 1.399-2.35 1.078l-8.84-8.967c-.8-.805 2.4-3.397 8.81-9.414.98-.921 2.03-1.399 2.35-1.077l8.85 8.966c.79.805-2.41 3.393-8.82 9.414z"/>
    <path fill="#514D4F" d="M1977.59 553.054c-.86.809-1.79 1.233-2.07.947l-7.78-7.885c-.7-.71 2.16-3.021 7.75-8.278.86-.809 1.79-1.234 2.07-.948l7.78 7.885c.7.711-2.1 2.973-7.75 8.279z"/>
    <path fill="#413E3F" d="M1989.67 565.936c-.98.921-2.04 1.404-2.35 1.078l-8.85-8.967c-.79-.805 2.42-3.406 8.81-9.414.98-.921 2.04-1.399 2.35-1.077l8.85 8.967c.79.809-2.42 3.41-8.81 9.413z"/>
    <path fill="#514D4F" d="M1989.52 564.895c-.86.809-1.78 1.233-2.07.947l-7.77-7.885c-.71-.71 2.14-3.012 7.75-8.278.86-.809 1.78-1.234 2.07-.948l7.78 7.885c.69.707-2.12 2.982-7.76 8.279z"/>
    <g>
      <path fill="#413E3F" d="M2001.07 577.715c-.98.92-2.03 1.399-2.35 1.077l-8.85-8.967c-.79-.804 2.42-3.397 8.82-9.414.98-.92 2.03-1.399 2.35-1.077l8.84 8.967c.81.813-2.5 3.486-8.81 9.414z"/>
      <path fill="#514D4F" d="M2000.93 576.673c-.86.809-1.79 1.234-2.07.948l-7.78-7.886c-.69-.706 2.11-2.981 7.75-8.278.86-.809 1.79-1.234 2.07-.948l7.78 7.885c.7.707-2.11 2.982-7.75 8.279z"/>
    </g>
  </g>
  <g>
    <path fill="#413E3F" d="M2013.11 589.954c-.98.921-2.03 1.403-2.35 1.077l-8.85-8.967c-.79-.804 2.41-3.392 8.82-9.414.98-.92 2.03-1.403 2.35-1.077l8.85 8.967c.79.809-2.42 3.411-8.82 9.414z"/>
    <path fill="#514D4F" d="M2012.97 588.912c-.86.809-1.79 1.234-2.07.948l-7.78-7.886c-.7-.706 2.13-2.999 7.75-8.278.86-.809 1.79-1.234 2.07-.948l7.78 7.885c.7.716-2.2 3.062-7.75 8.279z"/>
    <path fill="#413E3F" d="M2025.05 601.799c-.98.921-2.04 1.404-2.36 1.077l-8.84-8.967c-.81-.813 2.5-3.486 8.81-9.413.98-.921 2.03-1.404 2.35-1.078l8.85 8.967c.79.805-2.4 3.397-8.81 9.414z"/>
    <path fill="#514D4F" d="M2024.9 600.753c-.86.809-1.79 1.234-2.07.948l-7.78-7.885c-.7-.711 2.1-2.969 7.75-8.279.86-.809 1.79-1.234 2.07-.948l7.78 7.886c.7.71-2.11 2.981-7.75 8.278z"/>
    <g>
      <path fill="#413E3F" d="M2036.45 613.578c-.98.92-2.04 1.403-2.35 1.077l-8.85-8.967c-.79-.809 2.42-3.406 8.82-9.414.98-.921 2.03-1.403 2.35-1.077l8.85 8.967c.79.804-2.41 3.392-8.82 9.414z"/>
      <path fill="#514D4F" d="M2036.31 612.532c-.86.809-1.79 1.233-2.07.947l-7.78-7.885c-.71-.715 2.2-3.062 7.75-8.278.86-.809 1.79-1.234 2.07-.948l7.78 7.885c.7.711-2.14 3.004-7.75 8.279z"/>
    </g>
  </g>
  <g>
    <path fill="#413E3F" d="M2049.41 626.742c-.98.921-2.03 1.403-2.35 1.077l-8.85-8.967c-.79-.804 2.41-3.397 8.82-9.414.98-.92 2.03-1.403 2.35-1.077l8.85 8.967c.79.805-2.41 3.397-8.82 9.414z"/>
    <path fill="#514D4F" d="M2049.27 625.696c-.86.809-1.79 1.233-2.07.947l-7.78-7.885c-.7-.706 2.11-2.981 7.75-8.278.86-.809 1.79-1.234 2.07-.948l7.78 7.885c.7.711-2.11 2.982-7.75 8.279z"/>
    <path fill="#413E3F" d="M2061.34 638.583c-.97.921-2.03 1.403-2.35 1.077l-8.85-8.967c-.79-.804 2.41-3.392 8.82-9.413.98-.921 2.03-1.404 2.35-1.078l8.85 8.967c.79.805-2.41 3.397-8.82 9.414z"/>
    <path fill="#514D4F" d="M2061.2 637.537c-.86.809-1.79 1.234-2.07.948l-7.78-7.886c-.7-.71 2.1-2.972 7.75-8.278.86-.809 1.79-1.234 2.07-.948l7.78 7.885c.7.716-2.16 3.027-7.75 8.279z"/>
    <g>
      <path fill="#413E3F" d="M2072.75 650.361c-.98.921-2.03 1.404-2.35 1.078l-8.85-8.967c-.79-.809 2.42-3.411 8.82-9.414.98-.921 2.03-1.404 2.35-1.077l8.85 8.966c.79.805-2.42 3.393-8.82 9.414z"/>
      <path fill="#514D4F" d="M2072.61 649.316c-.86.809-1.79 1.233-2.07.947l-7.78-7.885c-.7-.706 2.11-2.981 7.75-8.274.86-.809 1.79-1.233 2.07-.947l7.78 7.885c.7.71-2.16 3.017-7.75 8.274z"/>
    </g>
  </g>
  <g>
    <path fill="#413E3F" d="M2084.79 662.604c-.98.921-2.03 1.399-2.35 1.078l-8.85-8.967c-.79-.805 2.42-3.406 8.82-9.414.98-.921 2.03-1.399 2.35-1.077l8.85 8.967c.79.804-2.41 3.392-8.82 9.413z"/>
    <path fill="#514D4F" d="M2084.65 661.558c-.87.809-1.79 1.234-2.07.948l-7.78-7.885c-.7-.706 2.11-2.982 7.75-8.278.86-.81 1.78-1.234 2.06-.948l7.78 7.885c.71.715-2.19 3.062-7.74 8.278z"/>
    <path fill="#413E3F" d="M2096.72 674.445c-.98.921-2.03 1.404-2.35 1.078l-8.85-8.967c-.79-.805 2.41-3.393 8.81-9.414.99-.921 2.04-1.404 2.36-1.077l8.85 8.966c.79.805-2.41 3.393-8.82 9.414z"/>
    <path fill="#514D4F" d="M2096.58 673.4c-.86.809-1.79 1.233-2.07.947l-7.77-7.88c-.71-.716 2.19-3.062 7.75-8.279.86-.809 1.78-1.233 2.07-.947l7.78 7.885c.69.706-2.14 2.999-7.76 8.274z"/>
    <g>
      <path fill="#413E3F" d="M2108.13 686.219c-.98.921-2.04 1.404-2.35 1.078l-8.85-8.967c-.77-.787 1.89-2.915 8.82-9.414.98-.921 2.03-1.404 2.35-1.077l8.85 8.967c.79.809-2.42 3.397-8.82 9.413z"/>
      <path fill="#514D4F" d="M2107.98 685.178c-.86.809-1.78 1.234-2.06.948l-7.78-7.885c-.71-.716 2.2-3.058 7.75-8.279.86-.809 1.79-1.234 2.07-.947l7.78 7.885c.69.71-2.12 2.981-7.76 8.278z"/>
    </g>
  </g>
  <g>
    <path fill="#413E3F" d="M2120.35 698.673c-.98.92-2.03 1.399-2.36 1.077l-8.84-8.962c-.8-.809 2.41-3.407 8.81-9.414.98-.921 2.03-1.404 2.35-1.077l8.85 8.966c.79.805-2.42 3.402-8.81 9.41z"/>
    <path fill="#514D4F" d="M2120.2 697.627c-.86.809-1.78 1.233-2.07.947l-7.77-7.885c-.71-.71 2.12-2.99 7.74-8.278.86-.809 1.79-1.234 2.07-.948l7.78 7.885c.71.715-2.15 3.026-7.75 8.279z"/>
    <path fill="#413E3F" d="M2132.28 710.514c-.98.921-2.03 1.403-2.35 1.077l-8.85-8.967c-.79-.804 2.4-3.397 8.81-9.413.98-.921 2.04-1.404 2.36-1.078l8.84 8.967c.8.809-2.41 3.397-8.81 9.414z"/>
    <path fill="#514D4F" d="M2132.13 709.472c-.86.809-1.78 1.229-2.07.948l-7.78-7.886c-.7-.71 2.16-3.021 7.76-8.278.86-.809 1.78-1.234 2.07-.948l7.78 7.885c.7.716-2.2 3.062-7.76 8.279z"/>
    <g>
      <path fill="#413E3F" d="M2143.68 722.292c-.98.921-2.03 1.399-2.35 1.077l-8.84-8.966c-.8-.805 2.4-3.398 8.81-9.414.98-.921 2.03-1.404 2.35-1.077l8.85 8.966c.79.809-2.38 3.362-8.82 9.414z"/>
      <path fill="#514D4F" d="M2143.54 721.251c-.86.809-1.79 1.233-2.07.947l-7.78-7.885c-.7-.715 2.2-3.062 7.75-8.278.86-.809 1.79-1.234 2.07-.948l7.78 7.885c.71.715-2.2 3.062-7.75 8.279z"/>
    </g>
  </g>
  <g>
    <path fill="#413E3F" d="M2111.26 766.433c-.98.921-2.03 1.399-2.35 1.077l-8.84-8.966c-.8-.805 2.4-3.393 8.81-9.414.98-.921 2.03-1.399 2.35-1.077l8.85 8.966c.79.818-2.51 3.487-8.82 9.414z"/>
    <path fill="#514D4F" d="M2111.12 765.392c-.87.809-1.79 1.233-2.07.947l-7.78-7.885c-.7-.711 2.15-3.022 7.75-8.278.86-.809 1.78-1.234 2.06-.948l7.78 7.885c.71.711-2.12 3-7.74 8.279z"/>
  </g>
  <g>
    <path fill="#413E3F" d="M2123.19 778.274c-.98.921-2.03 1.404-2.35 1.078l-8.85-8.967c-.79-.805 2.41-3.393 8.82-9.409.98-.921 2.03-1.404 2.35-1.078l8.85 8.967c.79.805-2.41 3.393-8.82 9.409z"/>
    <path fill="#514D4F" d="M2123.05 777.233c-.86.809-1.79 1.233-2.07.947l-7.77-7.885c-.7-.71 2.13-2.999 7.75-8.278.86-.809 1.78-1.234 2.07-.943l7.78 7.885c.69.706-2.11 2.963-7.76 8.274z"/>
  </g>
  <g>
    <path fill="#413E3F" d="M2091.93 721.559c-.98.921-2.04 1.404-2.36 1.077l-8.85-8.966c-.79-.805 2.42-3.406 8.82-9.414.98-.921 2.03-1.404 2.35-1.077l8.85 8.966c.79.809-2.41 3.398-8.81 9.414z"/>
    <path fill="#514D4F" d="M2091.78 720.518c-.86.809-1.78 1.233-2.07.947l-7.78-7.885c-.7-.71 2.12-2.981 7.76-8.278.86-.809 1.78-1.234 2.07-.948l7.77 7.885c.7.711-2.13 3.004-7.75 8.279z"/>
  </g>
  <g>
    <path fill="#413E3F" d="M2105.42 709.311c-.97.921-2.03 1.399-2.35 1.077l-8.84-8.966c-.8-.809 2.41-3.407 8.81-9.414.98-.921 2.03-1.399 2.35-1.077l8.85 8.966c.79.809-2.41 3.402-8.82 9.414z"/>
    <path fill="#514D4F" d="M2105.28 708.27c-.86.809-1.79 1.233-2.07.947l-7.78-7.885c-.68-.692 1.66-2.556 7.75-8.278.86-.809 1.79-1.234 2.07-.948l7.78 7.885c.71.716-2.2 3.062-7.75 8.279z"/>
  </g>
  <g>
    <path fill="#413E3F" d="M2102.09 730.995c-.98.921-1.96 1.471-2.2 1.23l-6.56-6.643c-.58-.594 2.51-3.2 8.97-9.262.97-.921 1.96-1.47 2.2-1.229l6.55 6.642c.59.599-2.57 3.264-8.96 9.262z"/>
    <path fill="#514D4F" d="M2102.1 730.11c-.86.809-1.73 1.292-1.94 1.082l-5.77-5.842c-.51-.523 2.27-2.87 7.89-8.144.86-.809 1.73-1.292 1.94-1.082l5.76 5.842c.52.528-2.26 2.87-7.88 8.144z"/>
  </g>
  <g>
    <path fill="#413E3F" d="M1963.44 644.081c-.98.921-2.03 1.403-2.35 1.077l-8.85-8.967c-.8-.804 2.42-3.406 8.81-9.413.98-.921 2.04-1.4 2.36-1.078l8.84 8.967c.8.809-2.41 3.406-8.81 9.414z"/>
    <path fill="#514D4F" d="M1963.3 643.039c-.86.809-1.79 1.234-2.07.948l-7.78-7.885c-.7-.711 2.1-2.973 7.75-8.279.86-.809 1.79-1.233 2.07-.947l7.78 7.885c.7.711-2.1 2.968-7.75 8.278z"/>
  </g>
  <g>
    <path fill="#413E3F" d="M1952.08 632.566c-.98.921-2.2 1.234-2.72.702l-14.47-14.666c-1.27-1.283 1.42-3.192 8.44-9.785.98-.921 2.2-1.234 2.72-.702l14.47 14.666c1.27 1.283-1.42 3.192-8.44 9.785z"/>
    <path fill="#514D4F" d="M1951.55 631.131c-.86.809-1.93 1.086-2.39.617l-12.73-12.9c-1.11-1.127 1.26-2.807 7.43-8.605.86-.809 1.93-1.086 2.39-.617l12.73 12.896c1.11 1.135-1.25 2.812-7.43 8.609z"/>
  </g>
  <g>
    <path fill="#413E3F" d="M2045.47 728.251c-.98.92-2.03 1.399-2.35 1.077l-8.84-8.967c-.8-.805 2.4-3.393 8.81-9.414.98-.92 2.03-1.403 2.36-1.077l8.84 8.967c.79.804-2.41 3.393-8.82 9.414z"/>
    <path fill="#514D4F" d="M2045.33 727.205c-.86.809-1.79 1.234-2.06.948l-7.78-7.885c-.7-.711 2.15-3.022 7.75-8.279.86-.809 1.78-1.233 2.06-.947l7.78 7.885c.71.715-2.2 3.062-7.75 8.278z"/>
  </g>
  <g>
    <path fill="#413E3F" d="M2057.41 740.092c-.98.92-2.03 1.399-2.36 1.077l-8.84-8.967c-.8-.805 2.41-3.397 8.81-9.414.98-.92 2.03-1.399 2.36-1.077l8.84 8.962c.8.818-2.48 3.474-8.81 9.419z"/>
    <path fill="#514D4F" d="M2057.26 739.046c-.86.809-1.79 1.229-2.07.947l-7.77-7.885c-.71-.715 2.19-3.057 7.75-8.278.86-.809 1.78-1.234 2.07-.948l7.78 7.885c.69.715-2.16 3.026-7.76 8.279z"/>
  </g>
  <g>
    <path fill="#413E3F" d="M2068.81 751.87c-.98.921-2.03 1.404-2.35 1.077l-8.85-8.967c-.79-.804 2.41-3.392 8.82-9.413.98-.917 2.03-1.399 2.35-1.078l8.85 8.967c.79.805-2.41 3.393-8.82 9.414z"/>
    <path fill="#514D4F" d="M2068.67 750.824c-.86.809-1.79 1.234-2.07.948l-7.78-7.885c-.7-.711 2.15-3.022 7.75-8.279.86-.809 1.79-1.233 2.07-.947l7.78 7.885c.7.711-2.13 3.004-7.75 8.278z"/>
  </g>
  <g>
    <path fill="#413E3F" d="M2097.84 781.287c-.98.921-2.03 1.403-2.35 1.077l-8.85-8.967c-.79-.804 2.41-3.392 8.82-9.409.98-.921 2.03-1.403 2.35-1.077l8.85 8.967c.79.804-2.43 3.401-8.82 9.409z"/>
    <path fill="#514D4F" d="M2097.69 780.245c-.86.809-1.78 1.234-2.06.948l-7.78-7.885c-.7-.711 2.09-2.959 7.75-8.278.86-.81 1.79-1.234 2.07-.948l7.77 7.885c.71.706-2.11 2.981-7.75 8.278z"/>
  </g>
  <g>
    <path fill="#413E3F" d="M2109.17 793.674c-.98.92-2.03 1.403-2.36 1.077l-8.84-8.967c-.79-.805 2.4-3.393 8.81-9.414.98-.921 2.04-1.403 2.35-1.077l8.85 8.967c.8.809-2.42 3.406-8.81 9.414z"/>
    <path fill="#514D4F" d="M2109.03 792.627c-.86.809-1.79 1.229-2.07.948l-7.78-7.885c-.71-.715 2.2-3.062 7.75-8.279.86-.809 1.78-1.233 2.06-.947l7.78 7.885c.71.719-2.19 3.066-7.74 8.278z"/>
  </g>
  <g>
    <path fill="#413E3F" d="M2086.48 769.772c-.98.921-2.2 1.234-2.72.702l-14.47-14.666c-1.27-1.283 1.42-3.192 8.44-9.785.98-.921 2.2-1.234 2.72-.702l14.47 14.671c1.27 1.278-1.42 3.182-8.44 9.78z"/>
    <path fill="#514D4F" d="M2085.95 768.342c-.86.809-1.93 1.086-2.39.617l-12.73-12.901c-1.11-1.126 1.25-2.802 7.43-8.604.86-.809 1.93-1.086 2.39-.617l12.73 12.9c1.13 1.154-1.41 2.95-7.43 8.605z"/>
  </g>
  <g>
    <path fill="#413E3F" d="M2098.44 753.18c-.99.916-2.54.894-3.47-.054l-25.85-26.198a2.349 2.349 0 01.07-3.384l7.62-7.161a2.498 2.498 0 013.47.054l25.85 26.203c.94.947.9 2.463-.08 3.383l-7.61 7.157z"/>
    <path fill="#514D4F" d="M2097.13 750.958c-.86.809-2.23.787-3.05-.049l-22.73-23.038c-1.99-2.012.58-3.456 6.77-9.271.86-.809 2.22-.787 3.04.045l22.74 23.042c1.99 2.021-.61 3.491-6.77 9.271z"/>
  </g>
  <g>
    <path fill="#413E3F" d="M2136.77 765.499c-.99.921-2.23 1.211-2.78.652l-15.23-15.434c-1.33-1.35 1.38-3.241 8.39-9.839.98-.921 2.22-1.211 2.78-.653l15.23 15.435c1.33 1.35-1.37 3.241-8.39 9.839z"/>
    <path fill="#514D4F" d="M2136.19 764.015c-.86.809-1.95 1.064-2.44.572l-13.39-13.575c-1.18-1.189 1.21-2.852 7.38-8.654.86-.809 1.95-1.064 2.43-.572l13.4 13.575c1.17 1.189-1.21 2.852-7.38 8.654z"/>
  </g>
  <g>
    <path fill="#413E3F" d="M2148.85 753.323c-.98.916-2.22 1.211-2.78.653l-15.23-15.435c-1.33-1.35 1.38-3.241 8.39-9.839.98-.916 2.22-1.211 2.78-.652l15.23 15.439c1.33 1.346-1.37 3.241-8.39 9.834z"/>
    <path fill="#514D4F" d="M2148.26 751.834c-.86.809-1.95 1.064-2.43.573l-13.39-13.576c-1.18-1.189 1.21-2.852 7.38-8.649.86-.809 1.95-1.064 2.43-.572l13.4 13.575c1.17 1.189-1.21 2.847-7.39 8.649z"/>
  </g>
  <g>
    <path fill="#413E3F" d="M2162.41 741.196c-.98.916-2.22 1.211-2.77.652l-15.23-15.435c-1.34-1.349 1.37-3.236 8.39-9.834.98-.92 2.22-1.211 2.77-.652l15.23 15.439c1.34 1.341-1.37 3.232-8.39 9.83z"/>
    <path fill="#514D4F" d="M2161.83 739.712c-.86.809-1.95 1.064-2.44.572L2146 726.709c-1.18-1.189 1.21-2.852 7.38-8.65.86-.809 1.95-1.064 2.44-.572l13.39 13.575c1.17 1.189-1.21 2.848-7.38 8.65z"/>
  </g>
  <g>
    <path fill="#413E3F" d="M2033.09 715.574c-2.53 2.378-4.45-1.055-66.23-63.662-2.19-2.222-3.17-4.765-2.19-5.686l7.62-7.161c2.53-2.378 4.45 1.06 66.22 63.662 2.19 2.221 3.18 4.765 2.2 5.686l-7.62 7.161z"/>
    <path fill="#514D4F" d="M2029.43 710.956c-2.23 2.092-3.9-.907-58.24-55.982-1.93-1.953-2.79-4.193-1.93-5.002l6.7-6.294c2.22-2.091 3.89.912 58.24 55.983 1.93 1.953 2.79 4.192 1.93 4.997l-6.7 6.298z"/>
  </g>
  <g>
    <path fill="#413E3F" d="M2137.25 723.754c-18.35-18.591-18.04-19.02-19.3-17.835-9.95 9.337-10.57 9.369-9.44 10.522l6.93 7.018-11.67 10.956c-1.25 1.18.03 1.756 9.76 11.617 1.2 1.22 1.51.242 14.28-11.751 9.88-9.294 10.59-9.365 9.44-10.527z"/>
    <path fill="#514D4F" d="M2104.35 735.519c-.37-.38-.72.188 12.29-12.042-8-8.118-7.88-7.774-7.5-8.127 10.1-9.445 9.55-9.19 9.92-8.823 18.57 18.858 17.97 17.929 17.55 18.309-23.46 22.028-22.08 20.995-22.47 20.606l-9.79-9.923z"/>
  </g>
  <path fill="#E8E8E8" d="M2341.12 647.509c-3.11-3.164-278.5-283.053-281.5-286.101l-90.99 138.002c142.81 145.94 86.98 89.18 227.47 231.192l145.02-83.093z"/>
  <path fill="#262222" d="M1970.55 499.231l89.3-135.441 278.84 283.393-142.33 81.551c-135.9-137.363-84.07-84.653-225.81-229.503z"/>
  <path fill="#A783FF" d="M1980.17 498.333l80.87-122.644 265.52 269.854-128.88 73.844c-130.91-132.307-80.97-81.519-217.51-221.054z"/>
  <path fill="#D3D1CF" d="M2059.62 361.408c4.99-.693-14.89-18.989 280.46 281.958 0 0 3.06 2.986 1.04 4.144l-281.5-286.102z"/>
  <path fill="#6630CE" d="M1986.41 488.378l221.09 225.864-9.71 5.561-217.5-221.055 6.12-10.37z"/>
  <path fill="#F8FCFF" d="M2043.22 572.901l182.98-39.448 25.6 25.416-187.25 36.435-21.33-22.403z" opacity=".3"/>
  <path fill="#F8FCFF" d="M2057.09 587.938l182.97-39.448 25.6 25.412-187.24 36.44-21.33-22.404zM2118.61 649.619l182.97-39.443 25.6 25.412-187.24 36.435-21.33-22.404z" opacity=".3"/>
  <path fill="#F8FCFF" d="M1979.85 508.739l177.14-36.319 16.74 17.804-176.33 36.439-17.55-17.924z" opacity=".2"/>
  <g>
    <path fill="#D4E6FF" d="M1958.06 1020.11h-367.91v53.02h367.91v-53.02z"/>
    <path fill="#E9F3FF" d="M1757.1 1022.28h-166.95v48.91h166.95v-48.91z"/>
    <path fill="#9393E5" d="M1964.51 1019.39c0 7.78 13.74 5.06-373.92 5.06-5.57 0-6.86-5.06-6.36-5.06 0-7.77-13.74-5.06 373.92-5.06 6.36 0 6.28 5.06 6.36 5.06z"/>
    <path fill="#A9A9FF" d="M1754.21 1024.45h-167.09c-3.91 0-3.77-10.12 0-10.12h167.09c3.81 0 3.78 10.12 0 10.12z"/>
    <path fill="#9393E5" d="M1964.51 1073.96c0 7.77 13.74 5.06-373.92 5.06-5.57 0-6.86-5.06-6.36-5.06 0-7.77-13.74-5.06 373.92-5.06 6.36 0 6.28 5.06 6.36 5.06z"/>
    <path fill="#A9A9FF" d="M1754.21 1079.02h-167.09c-3.91 0-3.77-10.12 0-10.12h167.09c3.81 0 3.78 10.12 0 10.12z"/>
    <path fill="#D1DFFF" d="M1958.06 1032.07c-395.97 0-367.91 1.32-367.91-2.39 395.97 0 367.91-1.32 367.91 2.39zM1958.33 1036.04c-395.97 0-367.92 1.31-367.92-2.4 395.97.01 367.92-1.31 367.92 2.4zM1957.93 1040.22c-395.97 0-367.92 1.31-367.92-2.39 395.97 0 367.92-1.32 367.92 2.39zM1958.19 1044.19c-395.97 0-367.91 1.31-367.91-2.4 395.97 0 367.91-1.31 367.91 2.4zM1958.27 1048.45c-395.98 0-367.92 1.32-367.92-2.39 395.97 0 367.92-1.32 367.92 2.39zM1958.53 1052.41c-395.97 0-367.92 1.32-367.92-2.39 395.97.01 367.92-1.31 367.92 2.39zM1958.13 1056.6c-395.97 0-367.92 1.32-367.92-2.39 395.98-.01 367.92-1.33 367.92 2.39zM1958.4 1060.56c-395.97 0-367.92 1.32-367.92-2.39 395.97 0 367.92-1.32 367.92 2.39z"/>
    <path fill="#58997B" d="M1889.09 1044.19s11.42 14.04 13.89 53.52c18.13-5.58 11.31-4.87 29.78-2.26 0 0 .49-31.53-12.9-51.26h-30.77z"/>
    <path fill="#D4E6FF" d="M1581.16 901.114s15.45 30.382 0 61.623l197.08 2.24v-63.863h-197.08z"/>
    <path fill="#E9F3FF" d="M1778.24 901.114v63.863h147.96s-19.96-38.009 0-63.863h-147.96z"/>
    <path fill="#D1DFFF" d="M1916.19 920.898c-352.82 0-327.37 1.234-327.37-2.226 352.81 0 327.37-1.234 327.37 2.226zM1916.42 924.591c-352.81 0-327.37 1.233-327.37-2.227 352.82 0 327.37-1.233 327.37 2.227zM1916.07 928.484c-352.81 0-327.37 1.234-327.37-2.226 352.81 0 327.37-1.239 327.37 2.226zM1916.3 932.176c-352.82 0-327.37 1.234-327.37-2.226 352.82 0 327.37-1.234 327.37 2.226zM1916.19 936.141c-352.82 0-327.37 1.238-327.37-2.226 352.81.004 327.37-1.234 327.37 2.226zM1916.42 939.838c-352.81 0-327.37 1.233-327.37-2.226 352.82-.005 327.37-1.239 327.37 2.226zM1916.07 943.726c-352.81 0-327.37 1.239-327.37-2.226 352.81 0 327.37-1.234 327.37 2.226zM1916.3 947.419c-352.82 0-327.37 1.233-327.37-2.226 352.82 0 327.37-1.234 327.37 2.226z"/>
    <g>
      <path fill="#8DBBFF" d="M1929.84 897.064h-353.4v8.1h353.4v-8.1z"/>
      <path fill="#5B93D6" d="M1778.03 897.064h-202.01v8.1h202.01v-8.1z"/>
    </g>
    <g>
      <path fill="#8DBBFF" d="M1930.06 960.927h-353.4v8.099h353.4v-8.099z"/>
      <path fill="#5B93D6" d="M1778.24 960.927h-202.01v8.099h202.01v-8.099z"/>
    </g>
    <g>
      <path fill="#D4E6FF" d="M1543.22 971.767s15.5 19.529 0 38.893h197.69v-38.893h-197.69z"/>
      <path fill="#E9F3FF" d="M1740.92 971.767v38.893h148.43s-20.02-22.868 0-38.893h-148.43z"/>
      <path fill="#D1DFFF" d="M1879.31 984.032c-353.18 0-328.41.76-328.41-1.381 353.18 0 328.41-.76 328.41 1.381zM1879.54 986.321c-353.18 0-328.4.765-328.4-1.381 353.17.005 328.4-.76 328.4 1.381zM1879.18 988.735c-353.17 0-328.4.764-328.4-1.381 353.17 0 328.4-.76 328.4 1.381zM1879.42 991.024c-353.17 0-328.4.759-328.4-1.377 353.17-.005 328.4-.765 328.4 1.377z"/>
      <g>
        <path fill="#D1DFFF" d="M1879.31 993.482c-353.18 0-328.41.76-328.41-1.381 353.18 0 328.41-.76 328.41 1.381zM1879.54 995.771c-353.18 0-328.4.764-328.4-1.377 353.17 0 328.4-.764 328.4 1.377z"/>
        <g>
          <path fill="#D1DFFF" d="M1879.19 998.185c-353.18 0-328.41.76-328.41-1.377 353.18-.005 328.41-.764 328.41 1.377zM1879.42 1000.47c-353.17 0-328.4.76-328.4-1.378 353.17 0 328.4-.76 328.4 1.378z"/>
        </g>
      </g>
      <g>
        <path fill="#8DBBFF" d="M1893.01 969.255h-354.52v5.02h354.52v-5.02z"/>
        <path fill="#5B93D6" d="M1740.7 969.255h-202.64v5.02h202.64v-5.02z"/>
      </g>
      <g>
        <path fill="#8DBBFF" d="M1893.22 1008.85H1538.7v5.02h354.52v-5.02z"/>
        <path fill="#5B93D6" d="M1740.92 1008.85h-202.65v5.02h202.65v-5.02z"/>
      </g>
      <path fill="#7474CE" d="M1634.05 988.735s-26.46 22.465-27.54 45.825c0 0 15.12-3.69 20.25 1.11 0 0 5.4-34.29 37.54-46.931h-30.25v-.004z"/>
    </g>
    <path fill="#FFC1AE" d="M1916.75 652.976c0 .622-3.41-40.024-28.99-80.585-47.39-65.405-173.74-39.09-173.74-39.09-90.16 14.908-110.73 88.958-115.38 118.933.11 0-17.77 78.873-15.29 104.871l29.76 18.041c38.72-1.239-7.39-4.546 262.29 23.252l-5.54-61.958c11.61 1.471 17.4-4.6 24.57-11.542l2.01 53.797c34.13-21.818 20.31-125.719 20.31-125.719z"/>
    <path fill="#FFE8E3" d="M1786.26 599.108s-18.64-7.085-29.1 12.056c-10.46-19.136-29.1-12.056-29.1-12.056-16.45 9.432 15.59 45.657 29.28 58.678 0-.97 48.8-47.279 28.92-58.678z"/>
    <path fill="#BBF" d="M1585.43 890.248c4.23 11.112 11.06 10.33 14.07 10.719 3.02.393 14.49-6.473 24.54-3.335 10.05 3.138 67.37 4.819 69.57 2.704 2.21-2.114-83.45-30.758-83.45-30.758-15.63 4.975-30.19 6.299-24.73 20.67z"/>
    <path fill="#82442B" d="M1846.27 619.42s2.37 27.58 7.91 29.891l7.7-22.368-15.61-7.523z"/>
    <path fill="#3A1672" d="M1976.12 798.161c-13.27-9.811-43.84-29.037-100.54-7.849l-269.03-20.017s-42.23-32.961-93.3-21.187c0 0-34.58 14.912-24.53 41.593 10.06 26.681 14.88 89.073 235.25 113.404 0 0-2.41-30.606 15.69-41.987l104.56 48.262s124.66-25.894 134.31-71.019c0 0 10.86-31.392-2.41-41.2z"/>
    <path fill="#271056" d="M1553.87 763.237s130.29 42.38 185.79 98.885c187.84-93.248 157.04-65.476 166.55-80.021l-32.66 8.063s-283.5-15.939-319.68-26.927z"/>
    <path fill="#82442B" d="M1723.89 902.156s18.98 6.463 21.8 6.655l4.38-41.883-10.42-4.81c0 .004-18.06 9.642-15.76 40.038z"/>
    <path fill="#BBF" d="M1747.1 865.631s-7.45 33.968-3.19 44.539c0 0 66.6-2.771 77.42 0 10.84 2.772 29.84 11.957 35.7 3.29 5.86-8.663-1.95-34.311-17.58-38.643-15.63-4.336-50.8 4.157-55.77-1.555-4.97-5.722-16.52-16.812-29.83-7.626 0-.005-2.84 1.381-6.75-.005z"/>
    <path fill="#82442B" d="M1835.31 580.768s-9 2.99-1.68 11.76c2.24.644 1.68 2.91 1.68-11.76z"/>
    <path fill="#D6988B" d="M1878.48 652.976s28.6 57.287 27.73 99.667c0 0 1.52 35.237-25.22 26.843-26.73-8.399-32.77-16.249-32.77-16.249l5.86-107.53s11.61 13.357 24.4-2.731z"/>
    <path fill="#fff" d="M1883.22 565.825l-48.81-2.794v57.167s18.96 8.828 38.43 3.884c.42-8.556-1.23 1.717 10.38-58.257z"/>
    <path fill="#965C40" d="M1879.36 594.169c-2.16-9.781-5.75-15.301-3.45-17.545 3.12-3.048 16.45 14.586 13.63 18.703-.79 1.153-1.58 9.252-1.58 12.145 0 2.892 2.37 11.76-1.78 15.229-3.63 6.767-.58 7.88-3.7 11.184-1.63 1.734-4.79 14.46-4.2 16.583.59 2.119-4.13 11.184-8.49 11.953-4.35.773-16.8-.769-17.99-13.884 0 0 2.77-14.076 6.12-17.544 0 0-5.92-8.484-7.31-7.711 0 0-8.1-3.084-6.32-7.326 2.4-5.731 18.65 5.104 25.5 8.291 0 0-9.1-10.607-14.64-12.726-5.53-2.118-8.89-5.784-6.12-8.676 4.36-4.564 22.04 6.419 27.66 9.45l-6.91-12.342s-16.01-4.626-14.23-8.292c4-8.234 15.46-1.457 23.81 2.508z"/>
    <path fill="#82442B" d="M1878.85 593.928c7.2 5.006 8.09 6.115 7.93 9.977 1.99-11.14 1.12-9.495-10.87-27.281 0 0-2.07 2.794 2.18 11.761l.76 5.543zM1876.7 612.295s3.36 2.892 3.75 5.109c.4 2.217.99-3.951 0-5.494-.99-1.542-7.71-12.341-7.71-12.341s-17.96-5.337-17.03-8.212c0 0-3.73 2.915 14.28 8.94l6.71 11.998zM1869.23 623.984c2.94 4.662 5.49 5.368 5.49 7.398 0 0-2.43-9.642-2.75-10.317-.31-.675-15.95-12.243-16.58-12.918-.63-.675-6.83-2.991-7.08-4.242 0 0-1.38 4.68 7.08 7.71 0 0 10.02 6.316 13.84 12.369z"/>
    <path fill="#D6988B" d="M1674 622.249s-29.62 50.538-28.61 134.176c0 0 6.94-162.225 16.36-174.459l12.25 40.283z"/>
    <g>
      <path fill="#D6988B" d="M1658.29 580.661c-5.14 7.268 15.71 41.589 15.71 41.589s-10.57-48.857-15.71-41.589zM1645.71 594.442c-3.86 9.021 28.15 30.83 28.15 30.83s-24.3-39.85-28.15-30.83z"/>
    </g>
    <path fill="#82442B" d="M1656.09 555.633s111.25-75.793 215.57 0c0 0-107.02 32.818-215.57 0z"/>
    <path fill="#B0D4FF" d="M1834.41 558.521v8.502s22.56 7.036 48.03 2.838l1.36-7.643-49.39-3.697z"/>
    <path fill="#8DBBFF" d="M1883.77 562.602c-.34 4.501-49.58.966-49.24-3.545.34-4.501 49.59-.965 49.24 3.545z"/>
    <g>
      <path fill="#8DBBFF" d="M1880.99 780.232c0 8.757-7.27 15.855-16.24 15.855h-228.53c-8.97 0-16.25-7.098-16.25-15.855V655.207c0-8.757 7.28-15.855 16.25-15.855h228.53c8.97 0 16.24 7.098 16.24 15.855v125.025z"/>
      <path fill="#B0D4FF" d="M1880.59 779.186c0 8.444-7.28 15.292-16.25 15.292h-228.53c-8.97 0-16.24-6.848-16.24-15.292V658.608c0-8.448 7.27-15.291 16.24-15.291h228.53c8.97 0 16.25 6.848 16.25 15.291v120.578z"/>
      <path fill="#8DBBFF" d="M1788.08 688.839c0 11.264-74.25 11.268-74.25 0 0-11.265 74.25-11.269 74.25 0zM1872.8 796.007c0 3.374 12 2.168-242.69 2.168-2.94 0-2.94-4.336 0-4.336 254.67 0 242.69-1.203 242.69 2.168z"/>
    </g>
    <g>
      <path fill="#6630CE" d="M1527.8 738.979c3.45-.206 30.87 59.46-54.03 81.658.01 0-26.42-76.898 54.03-81.658zM1952.75 775.449s-38.19 65.803 41.43 72.146c0-.005 8.13-91.175-41.43-72.146z"/>
    </g>
    <g>
      <path fill="#E1E1FF" d="M1743.51 869.793s12.93 3.965 20.69 3.965c7.75 0 19.87 10.303 42.24 7.134 22.38-3.169 51.63 6.611 41.07 36.207 0 0 14.89 9.253 19.63 0 4.75-9.253-4.5-65.544-13.28-69.504-8.79-3.965-97-6.343-97-6.343l-13.35 28.541z"/>
    </g>
    <g>
      <path fill="#351E1A" d="M1752.96 373.468s-27.76-11.778-34.91 7.116c-.43 1.144-.82 2.213-1.19 3.214-6.79 1.775-20.14 7.335-19.22 23.468-14.42 9.99-11.03 20.235-9.2 27.991-5.46 1.949-15.51 7.608-8.05 21.549-5.94 1.99-9 14.354-4.13 23.039-3.49 3.361-6.91 9.092-1.76 16.507-3.98 3.5-.95 7.197.82 10.907-3.05 2.038-6.75 6.03-4.25 12.61-4.68 6.535-6.6 14.778 3.76 18.962 12.52 5.051 40.8 8.077 48.84-6.772 8.04-14.85 10.37-14.041 14.11-17.393 3.73-3.353 8.42-16.66 2.19-24.16.55-19.092 19.99-104.714 12.99-117.038z"/>
      <path fill="#210E0C" d="M1713.66 457.191s-15.26 2.15-8.9 15.345c0 0-17 3.8-10.22 19.646 0 0-17.44 7.415-3.6 24.611 0 0-5.48 13.871 5.04 18.028 0 0 16.62 12.637 29.52-5.896 0 0 17.91-22.015 15.78-40.86-2.15-18.841-15.37-28.282-15.37-28.282l-12.25-2.592z"/>
      <path fill="#82442B" d="M1720.18 443.137s-3.01-6.839-9.04-2.727c-6.03 4.113-2.19 28.112 13.72 26.914l-4.68-24.187zM1733.44 487.868s6.52 19.601-10.53 44.981c0 0 43.09 18.435 63-6.454 0 0-17.99-33.874-16.17-40.99l-36.3 2.463z"/>
      <path fill="#6B3624" d="M1732.23 486.425s5.6 37.369 40.82 19.341l2.59-18.108-43.41-1.233zM1722.4 447.714s-8.41-6.598-10.12-.286c-1.71 6.307 7.13 15.788 12.79 12.815l-2.67-12.529z"/>
      <path fill="#965C40" d="M1735.87 403.873s-31.52 20.691-8.32 75.225c12.01 28.255 50.26 25.671 58.01-8.734 24.64-53.43-15.21-84.202-49.69-66.491z"/>
      <path fill="#491212" d="M1741.85 471.642c10.37-6.262 10.71-1.439 14.17-2.615 1.65-.559 3.54-1.117 5.89-.009 2.35 1.109 5.57 3.576 6.14 3.388 0 0-17.65 2.495-26.2-.764z"/>
      <path fill="#280606" d="M1741.47 471.825s3.43 5.369 7.04 6.352c3.61.984 9.93 1.592 12.21.537 2.28-1.055 6.2-4.086 7.33-6.312 0 .005-14.24 2.374-26.58-.577zM1741.47 471.826s-3.68-3.143-4.37-2.092c-.7 1.05 3.99 2.279 4.37 2.092zM1768.05 472.407s3.17-.756 4.18-1.771c1.01-1.014 1.39 2.875-4.18 1.771z"/>
      <path fill="#6B3624" d="M1762.33 444.992s-2.94-8.98 2.52-13.687c5.46-4.707 15.68-10.429 22.49-1.091 0 0 4.47 5.892-3.01 7.492 0 0-12.47-9.333-22 7.286z"/>
      <path fill="#351E1A" d="M1787.83 428.744s-5.53-3.979-10.23-2.571c-4.68 1.408-12.86 6.857-13.95 6.58-1.09-.277-1.24-3.992.14-4.939 1.38-.948 10.89-5.539 13.33-5.221 2.44.313 8.79 2.557 10.71 6.151z"/>
      <path fill="#000" d="M1777.27 443.704c-.28 9.15-6.55 9.043-6.28-.178.27-9.11 6.55-9.074 6.28.178z"/>
      <path fill="#fff" d="M1779.17 444.232c-.09 2.995-4.56 2.87-4.47-.129.09-3 4.56-2.861 4.47.129z"/>
      <path fill="#351E1A" d="M1857.76 486.384c3.42-8.14-.98-8.108-5.84-17.182 7.54-14.702-1.99-22.301-8.68-25.609-.38-5.99 2.85-10.129-9.55-23.472 4.51-13.271-7.63-19.024-14.92-21.223-.91-4.721 1.06-7.832-6.08-9.472-3.05-9.378-11.01-10.657-15.93-10.478-10.03-7.755-27.37-4.363-27.31-4.363-5.99-2.369-12.27-2.199-19.39 1.395l1.81 23.016c42.71 9.275 29.63 34.383 33.82 40.976 3.31 5.203 1.68 9.11-1.96 12.221-3.64 3.107-3.72 5.579-2.87 11.287.84 5.708-2.9 6.642-3.72 11.537-.82 4.895 1.96 7.617 2.23 10.008.27 2.392-13.7 3.594-12.03 15.815 1.66 12.226 9.4 10.219 8.42 20.571-.99 10.353 16.02 26.158 29.51 15.422a160.54 160.54 0 004.16-3.456c8.35 4.703 19.76 7.765 28.59-2.521 6.72 5.346 14.06 6.902 18.68-2.946 5.41-11.541 8.6-19.051 4.93-26.39 4.82-7.461.01-12.53-3.87-15.136z"/>
      <path fill="#000" d="M1762.33 444.992c8.62-18.412 24.68-5.493 26.6-5.672 0 0-1.3.871-3.23.652 0 0 1.32.979 2.33 1.198 0 0-2.13.792-3.95-.701-1.81-1.502-12.94-7.586-21.75 4.523z"/>
      <path fill="#6B3624" d="M1747.44 444.156s3.47-8.797-1.7-13.807c-5.17-5.007-15.03-11.301-22.39-2.365 0 0-4.81 5.632 2.56 7.653 0 0 13.01-8.61 21.53 8.519z"/>
      <path fill="#000" d="M1732.6 442.024c-.27 9.195 6.01 9.36 6.28.179.28-9.11-6-9.427-6.28-.179z"/>
      <path fill="#fff" d="M1730.68 442.444c-.09 3 4.38 3.116 4.47.13.09-2.995-4.38-3.129-4.47-.13z"/>
      <path fill="#000" d="M1747.44 444.156c-7.48-18.823-24.34-6.888-26.22-7.17 0 0 1.24.943 3.19.836 0 0-1.38.903-2.4 1.06 0 0 2.09.911 3.98-.479 1.9-1.39 13.38-6.834 21.45 5.753z"/>
      <path fill="#351E1A" d="M1723.54 426.428s5.77-3.661 10.36-1.989c4.6 1.667 12.44 7.577 13.54 7.362 1.11-.215 1.47-3.911.15-4.939-1.32-1.024-10.54-6.147-12.99-5.968-2.45.175-8.93 2.052-11.06 5.534z"/>
      <path fill="#6B3624" d="M1760.59 454.401s3.09 3.219-.38 4.582c0 0-2.9-.411-4.22.166-2.58.603-2.42-.832-6.65-.474-3.39-1.56-.11-4.595-.11-4.595-2.97 1.18-4.15 5.708 1.6 5.533-.04.063 2.59 1.212 3.88 1.113.38-.031 3.91-.826 3.94-.894 5.73.51 4.84-4.081 1.94-5.431z"/>
      <path fill="#280606" d="M1756.82 460.199c.11-.036 2.92-1.109 3.6-.496.69.616-3.6.496-3.6.496zM1752.37 460.226c-.11-.04-2.86-1.274-3.58-.698-.71.577 3.58.698 3.58.698z"/>
      <path fill="#210E0C" d="M1751.87 398.991s9.99-15.144 21.04-10.133c11.04 5.006-.27 19.02 11.97 24.808 12.24 5.784 23.46 20.437 15.62 28.492-7.84 8.059-24.58 24.634-14.15 36.301 10.44 11.662 16.34 17.763 7.73 26.167-8.61 8.408.68 28.438 15.98 24.92 15.3-3.522 14.15.939 18.2 1.033 4.05.094 2.29-3.388 14.42 3.241 12.14 6.633-11.55 19.408-32.19 15.309-20.65-4.094-50.3-4.443-49.87-18.273.41-13.817-8.75-131.865-8.75-131.865z"/>
      <path fill="#351E1A" d="M1660.63 522.435c4.85-5.4-2.84-7.13-4.62-16.727-1.79-9.7 5.14-5.351 12.15-10.773 4.18-3.227 2.75-4.791-.85-7.661-17.38-13.844 9.01-10.849 4.73-28.519-3.1-12.766-1.08-14.889 4.93-18.85 3-1.98 5.6-3.692 4.04-7.836-3.35-8.926-.54-16.547 3.96-19.466 5.39-3.482 8.08-5.771 8.72-12.078.42-4.05.94-9.088 8-12.936 9.32-5.078 11.34-8.279 11.36-8.31 11.15-14.693 28.68-13.777 40.05-6.021-.99 1.408-22.83-15.846-39.63 6.294-.06.111-2.05 3.303-11.53 8.47-13.84 7.537-.5 14.514-16.69 24.996-4.23 2.74-6.99 10.29-3.76 18.882 3.36 8.94-11.07 7.38-10.4 18.058.68 10.84 5.11 13.504-.71 20.03-5.74 6.442-10.88 6.674-7.39 12.248 2.65 4.229 8.25 6.128 8.22 9.199-.02 3.5-6.6 6.281-10.32 7.21-3.5.872-5.43 1.35-4.38 6.974.73 3.947 2.54 6.588 4 8.712 6.21 9.042-3.91 7.786-1.46 15.662.93 3.009 3.95 5.458 8.09 6.545-.55 1.984-14.42-5.302-6.51-14.103z"/>
      <path fill="#351E1A" d="M1864.11 531.272c-1.15-1.404 8.45-3.169 5.18-17.299-2.04-8.797-1.55-8.31 2.22-14.434 3.8-6.191-1.09-16.101-5.92-20.588-5.59-5.181-7.53-10.55-5.2-14.358 2.32-3.786 1.73-6.316-1.86-14.376-1.57-3.531-3.57-4.885-5.18-5.976-7.63-5.158 2.01-13.557-6.63-19.976-3.36-2.508-9.56.415-7.39-10.326 1.92-9.535-6.54-17.187-12.69-18.877-3.02-.827-6.78-1.859-9.78-12.636-4.18-15.096-17.98-13.397-22.1-12.516-16.16 3.441-25.04-7.792-34.74-2.834-3.19 1.627-5.49 4.76-6.53 8.122-5.77-11.685-22.22-10.952-35.59-5.633-.02.014-5.72 3.339-14.16 9.776-.74-.921 12.89-9.642 13.94-10.218 13-5.172 28.96-6.276 35.7 4.792 2.62-6.656 9.03-10.46 17.9-7.644 14.21 4.51 16.56 4.613 23.37 3.16 4.23-.903 18.4-2.646 22.7 12.869 3.71 13.379 8.49 11.305 11.75 13.138 4.86 2.726 12.71 8.765 10.72 18.599-3.06 15.18 13.76 1.431 10.96 23.374-.96 7.594 4.62 4.523 8.22 12.614 3.61 8.118 4.24 10.88 1.82 14.827-2.19 3.594-.28 8.735 5.12 13.745 4.88 4.528 10.44 14.157 4.98 22.842-2.78 4.407-2.94 4.676-1.14 12.427 2.12 9.15-.47 13.311-5.67 17.406z"/>
      <path fill="#60342E" d="M1676.72 524.549c-.45-10.652 5.17-4.658 4.66-11.971-.53-7.706-1.75-9.467.49-16.177 2.24-6.687 3.92-4.792 3.07-9.646-.98-5.65-.89-7.523 5.76-12.918 5.2-4.229 6.6-5.36 1.68-14.742-5.39-10.277 1.23-10.692 9.15-15.01 7.81-4.256 2.14-8.194 3.22-23.566 1.08-15.502 4.96-4.779 13.28-16.298 8.39-11.622 2.94-11.121 16.05-12.717 11.37-1.381 16.62 5.257 17.78 6.978 15.62-30.718 33.34-11.85 31.16.907-.5 2.924-.83 4.859 4.45 6.705 7.7 2.691 24.63 11.837 27.87 22.909 4.4 15.028-31.51 32.439-17.9 45.384 8.71 8.287 15.75 19.748 6.52 27.494-6.26 5.257-13.14 13.379-5.64 16.732-.53 1.113-10.89-3.514 5.31-17.107 8.96-7.523 1.91-18.725-6.55-26.766-9.36-8.904 3.51-19.802 15.17-34.142 10.98-13.499-10.05-28.827-24.95-34.043-11.73-4.104 2.55-9.025-10.14-21.166-9.37-8.967-19.88 2.977-25.05 13.71-.71 1.497-3.57-8.855-17.97-7.108-8.95 1.091-8.95 1.091-11.01 4.953-12.34 23.146-16.67 6.392-17.88 23.606-1.25 18.032 6.51 19.369-7.52 25.975-6.36 2.995-8.91 4.689-4.89 12.337 5.27 10.053 3.45 11.046-2.65 16.03-10.02 8.166-1.95 11.255-5.49 16.726-8 12.311.98 22.753-4.94 25.877-1.36.711-2.77 1.453-2.53 7.031l-.51.023z"/>
      <path fill="#874138" d="M1822.74 512.708c-4.67-9.029 8.62-7.948 14.57-21.773 8.28-19.248-25.16-16.839-27.64-24.38-2.16-6.526 14.3-18.309 19.84-37.27 9.19-31.505-33.9-17.509-40.25-33.999-7.12-18.497-22.49-24.773-35.52-9.123-1.14-.885 14.27-17.71 27.46-4.108 13.26 13.656 4.36 17.254 19 20.888 15.96 3.947 51.65 3.084 16.22 50.873-6.06 8.162-9.94 13.245-1.84 15.895 10.59 3.456 20.87 5.619 23.8 11.779 3.41 7.169-4.14 16.749-11.29 21.974-3.88 2.83-6.21 4.542-3.89 9.021l-.46.223z"/>
      <path fill="#FFC200" d="M1719.12 465.791c-.12 4.237-4.43 4.112-4.3-.121.12-4.237 4.43-4.108 4.3.121z"/>
      <path fill="#BC8169" d="M1762.53 487.855c-.11 3.509-11.08 3.2-10.98-.313.11-3.505 11.09-3.201 10.98.313zM1758.69 455.64c.31 1.122-3.2 2.051-3.51.925-.31-1.127 3.21-2.052 3.51-.925z"/>
    </g>
  </g>
  <g>
    <path fill="#7187E2" d="M1420.82 874.924s35.02 34.585 50.26 60.998c15.24 26.408 8.18 28.724 8.4 29.564.23.841-10.57 2.468-10.57 2.468l.8 10.392s21.41 3.956 24.29-1.408c2.88-5.364 5.27-13.499.17-23.422l-46.34-76.777s-43.06-56.067-54.42-55.298l27.41 53.483z"/>
    <path fill="#89F" d="M1390.1 815.519s18.9 15.358 33.69 29.542c14.8 14.183 82.39 116.774 78.56 133.666-3.83 16.896-28.17 14.496-32.78 10.714 0 0-2.54-10.634-3.99-13.222-1.44-2.588 23.48 3.335 27.89-2.843 9.84-13.79-64.7-130.863-98.62-149.36l-4.75-8.497z"/>
    <path fill="#5B76E8" d="M1235.25 851.211s32.39-38.214 77.8-47.489c45.42-9.271 61.91-7.013 67.21-4.559 26.41 12.23 80.04 143.361 80.07 143.406 31.42 65.131 8.98 46.841 1.58 60.031-3.44 6.15-14.28 15.74-17.21 19.27-2.93 3.53-54.12-134.729-58.11-138.359-3.99-3.629-59.15-61.064-81.94-56.138-22.79 4.93-33.56 5.636-69.4 23.838z"/>
    <path fill="#6586EF" d="M1231.36 853.151c22.86-14.536 44.05-31.348 62.64-32.099 16.09-.648 38.9-7.737 47.18-5.668 11.91 2.982 34.29 12.932 31.42 5.346-1.65-4.389 1.57-6.101 5.3-6.888 3.74-.787 9.6-5.802 7.29-9.387-2.31-3.58-.23-6.589-4.33-7.764-4.1-1.176-26.58-3.608-33.24-3.657-6.66-.053-75.21 17.929-81.45 24.362-6.24 6.428-33.3 31.173-34.81 35.755z"/>
    <path fill="#768EF4" d="M1279.35 1073.77s-51.21-82.053-64.65-128.112c-13.43-46.059 2.15-90.294 43.62-112.809 41.46-22.52 89.73-32.837 112.26-7.429 22.53 25.407 41.57 98.21 47.07 111.579 5.5 13.37 30.77 71.831 28.9 79.051-1.86 7.22-20.59 28.68-58.89 45.2-38.29 16.53-92.58 25.74-108.31 12.52z"/>
    <path fill="#9FB1FF" d="M1442.6 1023.01c24.3-18.22 33.13-20.48 35.16-32.885 1.5-9.186-22.73-66.044-22.73-66.044-16.31 5.824-36.64 10.16-38.72 9.306-2.79-1.144 35.75 77.463 26.29 89.623z"/>
    <path fill="#C2CFFF" d="M1416.31 933.388s12.12-.202 16.11-.64c3.98-.438 21.7-4.345 22.85-7.116 1.15-2.767-6.4-4.045-6.4-4.045-4.27 6.2-6.94 4.733-32.56 11.801z"/>
    <path fill="#3F5DB2" d="M1423.28 932.373c18.32-4.877 21.16-3.742 25.95-9.861 17.08 3.464-13.03 9.467-25.95 9.861z"/>
    <path fill="#899FEF" d="M1442.6 1023.01s12.25-8.81 12.58-17.61c.32-8.803-5.16-28.891-.86-29.101 4.3-.21 15.03 24.231 2.57 36.391 0 0-12.46 9.72-14.29 10.32z"/>
    <path fill="#899FEF" d="M1462.81 1008.6c-.39.28 8.1-12.999 5.04-22.234.61-11.363 14.96 8.068-5.04 22.234z"/>
    <path fill="#3F5DB2" d="M1275.65 821.209s28.38-11.85 36.13-13.813c7.75-1.962 40.04-5.466 48.19-4.407 8.14 1.064 20.92 4.863 23.88 7.161 2.96 2.298 38.97 73.478 47.76 95.761 8.8 22.287 7.89 21.594 7.89 21.594l-4.03.885c-2.82-6.32-50.85-113.041-57.58-114.548-3.66-.818-24.16-7.179-27.49-7.205-3.33-.027-32.37-2.562-74.75 14.572z"/>
    <path fill="#A9BAFF" d="M1291.4 1083.09s-51.26-98.401-52.9-111.904c-1.65-13.509-18.92-66.88-5.63-91.917 13.28-25.036 30.64-25.635 46.18-32.103 15.55-6.464 29.62-7.47 39.71-9.959 10.09-2.486 21.45-1.936 27.21 1.774 5.75 3.71 26.29 35.215 33.56 60.113 7.27 24.897 54.74 122.016 50.23 136.936-4.51 14.92-25.23 26.65-44.96 33.54-19.73 6.9-83.47 26.03-93.4 13.52z"/>
    <path fill="#89F" d="M1284.75 1087.02s-47.32-91.151-48.66-103.752c-1.34-12.601-16.93-62.213-3.77-85.846 13.15-23.633 29.77-24.482 44.77-30.79 15-6.307 28.47-7.478 38.18-9.972 9.7-2.494 20.56-2.168 26 1.207 5.45 3.37 24.55 32.488 31.07 55.647 6.52 23.154 50.25 113.166 45.67 127.186-4.58 14.03-24.61 25.34-43.62 32.12-19.01 6.77-80.35 25.73-89.64 14.2z"/>
    <path fill="#6586EF" d="M1228.02 910.564s7.99-20.477 17.18-26.44c9.2-5.968 62.94-25.184 73.19-25.962 10.25-.773 22.06-1.77 24.73 1.278 2.66 3.049-.61-1.872-4.04-7.241-3.44-5.364 1.64-4.863 3.22-5.324 18.97-5.543-8.57-24.209-69.18 2.508-43.51 5.945-51.7 59.317-45.1 61.181z"/>
    <path fill="#3F5DB2" d="M1239.02 878.536s7.57-9.771 17.72-14.451c10.16-4.68 56.85-18.716 62.71-19.668 5.85-.952 10.77-.934 14.85-.228 4.08.706 15.66 7.255 21.72 18.17 0 0-17.45-15.814-31.33-12.069-34.31 9.262-69.7 15.681-85.67 28.246z"/>
    <path fill="#5B76E8" d="M1255.99 996.468s-18.85 16.382-20.02 19.572c-1.16 3.19 23.76-1.43 34.88-3.51 54.1-10.1 7.7-4.78 68.31-11.38l18.56-9.867 8.66-22.815c-41.21 5.932-71.59 15.033-110.39 28z"/>
    <path fill="#4262C6" d="M1241.43 1012.18l15.34-14.747c89.27-23.874 30.57-12.574 104.85-26.435l-15.32 13.043s-24.82 7.894-28.76 8.305c-3.95.412-15.79 3.398-18.5 3.375-4.51-.035-45.59 7.799-57.61 16.459z"/>
    <path fill="#5B76E8" d="M1290.84 950.771c-16.19-46.89-19.76-59.589-17.92-71.842l13.36-5.051s13.77 64.203 26.06 86.665l-21.5-9.772z"/>
    <path fill="#3F5DB2" d="M1279.67 880.373s5.78 33.114 11.13 56.872c0 0-4.03-34.817-11.13-56.872z"/>
    <path fill="#5BAEDD" d="M1286.15 922.008l-62.77 61.509 93.27 90.623 62.77-61.5-93.27-90.632z"/>
    <path fill="#7BCAFF" d="M1317.79 1078.92l60.87-59.65-93.28-90.625-62.77 61.507c101.41 98.528 90.45 89.458 95.18 88.768z"/>
    <path fill="#A9E0FF" d="M1235.1 978.099l-9.35 9.165 93.29 90.616 9.35-9.17-93.29-90.611z"/>
    <path fill="#5BAEDD" d="M1223.39 983.509l3.01 2.928c-5.01 4.917-3.99 5.44-3.01-2.928z"/>
    <path fill="#388BAF" d="M1285.39 928.64l.77-6.642 65.34 63.487-3.72 3.782-62.39-60.627z"/>
    <path fill="#A9E0FF" d="M1224.02 987.416c-.1-4.81-6.97 3.388 62-64.207-.75 6.419 8.24-3.987-62 64.207z"/>
    <path fill="#91D5F2" d="M1285.49 927.737c71.39 68.503 63.4 62.62 66.15 59.478l-65.62-64.001-.53 4.523z"/>
    <path fill="#ABBBFF" d="M1275.74 1083.75s-38.57-59.41-39.77-67.71c0 0 38.95-16.694 55.86-17.529 16.9-.836 26.41-4.926 40.21-7.474 13.81-2.548 16.6-5.472 16.6-5.472s27.27 64.695 34.54 68.925c.01 0-50.47 30.13-107.44 29.26z"/>
    <path fill="#9FB1FF" d="M1366.37 968.468l-17.73 17.098s11.33 56.384 34.54 68.924c12.25-12.88 15.28-16.69 15.05-19.9 0 0-9.02-11.63-31.86-66.122z"/>
    <path fill="#5B76E8" d="M1241.82 1011.8c20.92-8.12 41.31-16.414 62.08-15.967 2.8.058 36.84-9.056 39.21-10.093 2.37-1.033 6.17-4.229 6.17-4.229l2.07 1.44s-3.23 3.155-4.43 3.732c-9.07 4.349-96.25 20.227-110.95 29.367l5.85-4.25z"/>
    <path fill="#E5F" d="M1304.53 995.775l-40.3-17.813-16.31 27.248 1.55 3.63c10.19-3.91.76-1.68 55.06-13.065z"/>
    <path fill="#EEF2FF" d="M1257.44 952.819l17.95-17.331-1.15-6.016-17.34 17.764.54 5.583z"/>
    <path fill="#D7E1FF" d="M1328.9 1019.13c4.47 14.28-55.05 32.03-59.52 17.73-4.47-14.29 55.04-32.03 59.52-17.73z"/>
    <path fill="#7BCAFF" d="M1280.53 1041.28c-29.15-1.71 6.9-28.35 37.22-26.57 29.15 1.71-6.9 28.34-37.22 26.57z"/>
    <g>
      <path fill="#A211B7" d="M1358.99 876.368c2.02 3.424 4.35 2.494 5.46 1.734 1.25-.5 3.31-1.899 1.46-5.413-8.86-16.807-16.58-12.681-6.92 3.679zm.55-7.045c-1.71.912-5.28-5.475-3.56-6.387 1.71-.912 5.28 5.475 3.56 6.387z"/>
      <path fill="#E5F" d="M1359.55 876.069c2.03 3.424 4.35 2.489 5.46 1.734 1.25-.501 3.32-1.9 1.46-5.413-8.84-16.776-16.59-12.704-6.92 3.679zm.56-7.045c-1.72.912-5.29-5.476-3.57-6.388 1.71-.911 5.28 5.476 3.57 6.388z"/>
      <path fill="#EF80FF" d="M1365.24 877.155c-2.03 1.073-3.52 1.609-5.25-1.332-2.27-3.84-5.06-10.375-4.4-12.659.3-1.051-.6.742.99 3.589 2.7 4.85 6.18 2.982 3.48-1.855-1.59-2.834-3.65-3.084-2.56-2.754 2.32.698 6.44 6.527 8.52 10.469 1.88 3.572-.8 4.578-.78 4.542z"/>
    </g>
    <g>
      <path fill="#A211B7" d="M1436.01 932.149c2.02 3.425 4.34 2.49 5.45 1.739 1.25-.5 3.32-1.899 1.46-5.413-8.85-16.812-16.58-12.681-6.91 3.674zm.55-7.044c-1.72.912-5.29-5.476-3.57-6.388 1.72-.912 5.28 5.476 3.57 6.388z"/>
      <path fill="#E5F" d="M1436.57 931.85c2.02 3.424 4.34 2.49 5.45 1.739 1.25-.501 3.32-1.9 1.46-5.413-8.83-16.776-16.59-12.713-6.91 3.674zm.55-7.045c-1.72.912-5.29-5.475-3.56-6.387 1.71-.912 5.28 5.475 3.56 6.387z"/>
      <path fill="#EF80FF" d="M1442.26 932.936c-2.03 1.073-3.52 1.605-5.25-1.332-2.27-3.84-5.06-10.375-4.4-12.659.3-1.073-.61.742.98 3.589 2.65 4.752 6.23 3.067 3.49-1.85-1.59-2.839-3.64-3.084-2.56-2.754 2.32.698 6.44 6.526 8.52 10.469 1.88 3.572-.8 4.573-.78 4.537z"/>
    </g>
    <path fill="#899DE8" d="M1391.69 1045.26c-10.1-20.61-5.11-29.12-.62-15.15 2 6.22.62 15.15.62 15.15zM1389.16 1048.07s-14.52-21.83-16.9-23.92c-2.39-2.09-8.25.3.76 10.86 9 10.56 16.14 13.06 16.14 13.06z"/>
    <g>
      <path fill="#A7BCFC" d="M1276.17 878.035c-3.77 1.422-3.06 1.382-3.37.595 3.76-1.417 3.06-1.377 3.37-.595z"/>
    </g>
    <g>
      <path fill="#A7BCFC" d="M1282.33 875.707c-4.4 1.662-3.67 1.618-3.99.831 4.41-1.663 3.68-1.618 3.99-.831z"/>
    </g>
    <g>
      <path fill="#A7BCFC" d="M1287.62 878.411c-.89.183-.48.822-1.65-4.47.88-.188.47-.822 1.65 4.47z"/>
    </g>
    <g>
      <path fill="#A7BCFC" d="M1289.27 885.599c-.88.192-.46.88-1.77-4.77.89-.192.46-.876 1.77 4.77z"/>
    </g>
    <g>
      <path fill="#A7BCFC" d="M1291.17 893.551c-.84.192-.44.916-1.79-4.653.85-.197.45-.921 1.79 4.653z"/>
    </g>
    <g>
      <path fill="#A7BCFC" d="M1292.38 899.299c-.84.192-.44.916-1.78-4.658.84-.196.44-.916 1.78 4.658z"/>
    </g>
    <g>
      <path fill="#A7BCFC" d="M1294.01 905.419c-.84.196-.44.916-1.79-4.658.85-.192.45-.917 1.79 4.658z"/>
    </g>
    <g>
      <path fill="#A7BCFC" d="M1295.61 912.146c-.87.201-.45.867-1.78-4.658.84-.192.44-.916 1.78 4.658z"/>
    </g>
    <g>
      <path fill="#A7BCFC" d="M1297.44 918.806c-.85.193-.45.917-1.79-4.657.84-.193.44-.93 1.79 4.657z"/>
    </g>
    <g>
      <path fill="#A7BCFC" d="M1299.82 926.481c-.84.193-.44.917-1.79-4.658.88-.201.46-.862 1.79 4.658z"/>
    </g>
    <g>
      <path fill="#A7BCFC" d="M1301.87 934.161c-.88.201-.46.862-1.79-4.658.84-.192.45-.916 1.79 4.658z"/>
    </g>
    <g>
      <path fill="#A7BCFC" d="M1281.59 922.324c-.83.232-.4.939-2.02-4.564.84-.232.4-.938 2.02 4.564z"/>
    </g>
    <g>
      <path fill="#A7BCFC" d="M1279.28 914.792c-.83.233-.4.953-2.02-4.563.86-.246.41-.886 2.02 4.563z"/>
    </g>
    <g>
      <path fill="#A7BCFC" d="M1276.95 907.207c-.83.232-.4.938-2.02-4.564.83-.233.39-.934 2.02 4.564z"/>
    </g>
    <g>
      <path fill="#A7BCFC" d="M1274.49 898.861c-.85.13-.51.881-1.41-4.778.86-.13.52-.885 1.41 4.778z"/>
    </g>
    <g>
      <path fill="#A7BCFC" d="M1273.51 891.266c-.87.076-.57.863-1.12-4.854.87-.076.57-.845 1.12 4.854z"/>
    </g>
    <g>
      <path fill="#A7BCFC" d="M1273.07 885.183c-.86-.013-.66.782-.56-4.944.87.018.66-.777.56 4.944z"/>
    </g>
  </g>
  <g>
    <path fill="#A533FF" d="M2096.69 809.086l-64.48 70.09 141.55 45.509-.4.8s.92.46 1.52-.443l52.95-79.467-131.14-36.489z"/>
    <path fill="#AE5AFF" d="M2223.01 835.218l-5.55 8.336-122.28-34.021-57.57 62.575-10.22-3.285s-.85 4.407 3.31 10.799l142.66 45.867 52.96-79.468c-2.57-3.325-3.31-10.803-3.31-10.803z"/>
    <path fill="#CAD7FF" d="M2170.06 914.685s1.36 9.579 4.65 12.239l52.98-80.473-4.93-13.848-52.7 82.082z"/>
    <path fill="#A533FF" d="M2027.36 868.729l142.66 45.867 52.96-79.472-131.14-36.484-64.48 70.089z"/>
    <path fill="#7E1BDD" d="M2076.93 814.852l133.22 39.528 3.34 10.889 1.31-1.962-3.51-11.47-132.87-38.607-1.49 1.622z"/>
    <path fill="#E5F" d="M2083.69 807.504l132.28 38.142 3.34 10.894-5.14 6.951-3.59-10.72-132.59-39.067 5.7-6.2z"/>
    <path fill="#F088FF" d="M2210.58 852.772l5.39-7.126 3.34 10.894-5.19 7.787-3.54-11.555z"/>
  </g>
  <g>
    <path fill="#B486EA" d="M1444.18 481.883l-116.15 97.705 94.99 60.765 119.09-107.065-97.93-51.405z"/>
    <path fill="#8557BC" d="M1443.99 477.994l-116.16 97.71 95 60.765 119.09-107.07-97.93-51.405z"/>
    <path fill="#B486EA" d="M1438.67 453.141l-112.22 94.402 91.78 58.708 115.06-103.444-94.62-49.666z"/>
    <path fill="#AC7ADC" d="M1438.47 449.029l-112.22 94.397 91.78 58.709 115.06-103.445-94.62-49.661z"/>
    <path fill="#BD8EF4" d="M1333.6 542.957l105.46-88.712 86.46 45.379-107.95 97.048-83.97-53.715z"/>
    <path fill="#B486EA" d="M1326.25 543.426l.2 4.117 9.19 5.882 1.94-2.749-11.33-7.25z"/>
    <path fill="#BE95F9" d="M1418.03 602.135l.2 4.116 115.06-103.444-.2-4.117-115.06 103.445z"/>
    <path fill="#563789" d="M1422.83 636.469l119.09-107.07.19 3.889-119.09 107.065-.19-3.884z"/>
    <path fill="#B486EA" d="M1327.83 575.704l.2 3.884 9.12 5.838 2.68-2.052-12-7.67z"/>
    <path fill="#B486EA" d="M1326.25 543.426s-4.99 20.195 1.78 36.162l1.69-2.682s-4.15-17.616-.54-27.633l-2.93-5.847z"/>
    <path fill="#BDD3FF" d="M1418.23 606.252s-1.65 16.762 4.4 26.221l114.15-102.31s-8.84-10.745-5.73-25.335l-112.82 101.424z"/>
    <path fill="#E1EDFF" d="M1422.63 632.472l-93.2-56.934s-4.12-19.257-.25-26.261l89.05 56.974s-.26 17.782 4.4 26.221z"/>
    <path fill="#99C3FF" d="M1530.27 512.333l-111.94 98.854-90.37-57.578c0 .031-.01.067-.01.098l-.12.34 90.54 57.685 112.2-99.077-.3-.322z"/>
    <path fill="#99C3FF" d="M1418.67 616.041l-91.08-56.474.24-.366 90.79 56.299 111.85-99.064.3.318-112.1 99.287z"/>
    <path fill="#99C3FF" d="M1531.5 519.627l-112.59 100.624-91.32-56.532c.01.032.01.058.01.09.02.152.03.299.04.451l91.32 56.532 112.84-100.847-.3-.318z"/>
    <path fill="#99C3FF" d="M1532.81 523.311l-112.82 101.41-91.77-57.627-.22.331c0 .018 0 .036.01.049l92.03 57.788 113.07-101.634-.3-.317z"/>
    <path fill="#99C3FF" d="M1534.31 526.418l-113.04 102.783-92.2-56.394-.16.242c.01.062.03.129.04.196l92.37 56.501 113.29-103.011-.3-.317z"/>
    <path fill="#743CC6" d="M1490.57 551.776l26.69-23.052 9.84 3.187-22.32 16.593-14.21 3.272z"/>
    <path fill="#D7BBFF" d="M1431.44 476.501l10.06-8.443 55.42 28.384-9.12 9.168-56.36-29.109z"/>
  </g>
  <g>
    <path fill="#2C2A56" d="M2132.15 887.811l-.49 3.607-48.45-22.819c-1.31-.612-2.87-.08-3.5 1.194l-47.01 95.031-1.95-1.711s-1.03 3.879 1.24 6.289c.23.299.52.554.89.742.41.277.9.514 1.47.697l48.02 22.614c1.3.617 2.87.08 3.49-1.194l47.6-96.23c3.07-5.082-1.31-8.22-1.31-8.22z"/>
    <path fill="#47477C" d="M2130.64 889.474l-.15 1.1-47.44-22.578a2.586 2.586 0 00-3.43 1.185l-46.13 94.218-1.91-1.694s-1.01 3.848 1.2 6.231c.22.299.52.55.87.733.4.273.88.505 1.44.688l47.03 22.377c1.28.608 2.81.076 3.43-1.184l46.71-95.403c1.68-2.821 1.08-5.038.22-6.442-.56.367-1.17.658-1.84.769z"/>
    <path fill="#1E1E3D" d="M2085.11 988.042c-.63 1.274-2.19 1.806-3.5 1.193l-49.4-23.266a2.535 2.535 0 01-1.23-3.415l47.97-96.977c.63-1.274 2.2-1.805 3.5-1.193l49.41 23.266c1.3.617 1.85 2.141 1.22 3.415l-47.97 96.977z"/>
    <path fill="#EEF" d="M2082.71 987.438a.439.439 0 01-.19-.049l-49.41-23.266a.502.502 0 01-.24-.684l47.97-96.976c.11-.233.34-.3.51-.291.06.005.13.023.19.049l49.4 23.267c.16.076.24.201.27.295a.53.53 0 01-.02.388l-47.97 96.977a.522.522 0 01-.51.29z"/>
    <path fill="#B0D4FF" d="M2083.55 872.835l-43.87 88.681 40.9 19.264 43.87-88.681-40.9-19.264z"/>
    <path fill="#47477C" d="M2112.11 883.39a.641.641 0 01-.84.304l-14.46-6.419a.6.6 0 01-.31-.813.63.63 0 01.83-.304l14.46 6.423c.32.134.46.501.32.809z"/>
  </g>
  <g>
    <path fill="#7A0384" d="M1655.95 278.99c-1 .487-.78.174-7.71-13.338-.49-.97 1.04-1.359 2.48-2.061.99-.483.77-.192 7.71 13.338.47.917-.75 1.212-2.48 2.061z"/>
    <path fill="#071D3D" d="M1704.57 236.217l-54.92 26.784 8.45 16.482 54.91-26.784-8.44-16.482z"/>
    <path fill="#092649" d="M1705.69 238.405l-54.92 26.785 6.15 12.007 54.92-26.784-6.15-12.008z"/>
    <path fill="#3272B2" d="M1658.17 277.908c-.92.452-1.27-.782-1.74-1.703-.55-1.059-2.86.537 53.86-27.128.92-.447 1.26.769 1.75 1.703.54 1.059 2.85-.545-53.87 27.128z" opacity=".2"/>
    <path fill="#071D3D" d="M1723.5 240.821c-1.43-2.785-.62-1.211-3.05-5.958-3.58 1.747-7.7 4.689-15.18 2.699 1.35 2.638 5.35 10.442 6.91 13.491 2.73-6.719 7.24-8.243 11.32-10.232z"/>
    <path fill="#123C66" d="M1722.12 238.125c-1.39-2.717-1.36-2.641-2.63-5.127-3.59 1.748-7.76 4.582-14.91 3.228 4.29 8.372 1.72 3.374 5.94 11.608 3.12-6.28 7.84-7.871 11.6-9.709z"/>
    <path fill="#0B294C" d="M1723.71 241.228c-1.39-2.718-1.35-2.642-2.63-5.127-3.58 1.752-7.76 4.581-14.91 3.222 4.01 7.823 1.72 3.362 5.94 11.609 3.12-6.276 7.84-7.872 11.6-9.704z"/>
    <path fill="#900A9E" d="M1656.03 275.405l-2.22 1.081 1.06 2.075 2.22-1.081-1.06-2.075zM1720.69 235.336l2.07-1.01s5.73 2.047 5.81 2.62l-5.65 2.753-2.23-4.363z"/>
    <path fill="#AF14C6" d="M1720.74 235.314l1.59-.773s4.87 2.471 4.99 3.021l-4.34 2.115-2.24-4.363z"/>
    <path fill="#478FC9" d="M1669.44 264.995c-.93.451-1.25-.747-1.9-2.007-.5-.979-2.15.196 31.67-16.302.92-.452 1.25.746 1.9 2.007.5.983 2.15-.193-31.67 16.302z" opacity=".2"/>
  </g>
  <g>
    <path fill="#900A9E" d="M1283.03 631.619c-1.41.232-.93.451-5.29-24.76-.24-1.439-2.43-.634 42.28-7.983 1.41-.233.94-.452 5.29 24.759.25 1.439 2.44.635-42.28 7.984z"/>
    <path fill="#7A0384" d="M1282.72 629.384c-1.5.245-1.09-.05-4.63-20.504-.25-1.48-2.25-.689 42.21-7.997 1.5-.246 1.1.076 4.62 20.504.26 1.475 2.25.693-42.2 7.997z"/>
    <path fill="#9B12AF" d="M1324.41 618.286l-43.44 7.143.72 4.122 43.43-7.144-.71-4.121z"/>
    <path fill="#AF14C6" d="M1321.89 603.779l-33.13 5.445s-4.36 6.991 2.75 15.917l33.13-5.444-2.75-15.918z"/>
    <path fill="#FFA766" d="M1321.99 604.36l-32.32 5.31s-4.32 6.388 2.49 14.403l32.32-5.311-2.49-14.402z"/>
    <path fill="#AF14C6" d="M1321.99 604.36l-32.32 5.31s-4.32 6.388 2.49 14.403l32.32-5.311-2.49-14.402z"/>
    <path fill="#900A9E" d="M1322.46 603.212l-32.32 5.31s-4.32 6.388 2.49 14.402l32.32-5.31-2.49-14.402z"/>
    <path fill="#AF14C6" d="M1295.86 618.91c-1.39.228-1.31-1.314-1.82-4.255-.25-1.466-.18-1.028 23.11-4.859 1.39-.228 1.31 1.314 1.82 4.255.25 1.467.17 1.038-23.11 4.859z"/>
  </g>
  <g>
    <path fill="#FFBC00" d="M2132.91 856.441c-.89.796-.79.389-12.14-11.769-.77-.827.41-1.489 1.97-2.879.9-.796.79-.393 12.15 11.774.76.822-.42 1.484-1.98 2.874z"/>
    <path fill="#071D3D" d="M2170.95 797.459l-49.51 43.995 13.87 14.855 49.5-43.996-13.86-14.854z"/>
    <path fill="#092649" d="M2172.78 799.468l-49.5 43.995 10.1 10.819 49.5-43.995-10.1-10.819z"/>
    <path fill="#3272B2" d="M2134.91 854.667c-.84.742-1.58-.447-2.35-1.283-.9-.957-2.83 1.395 48.29-44.047.83-.742 1.57.447 2.35 1.283.9.952 2.83-1.404-48.29 44.047z" opacity=".2"/>
    <path fill="#FFD773" d="M2131.9 852.755l-2 1.777 1.75 1.87 1.99-1.777-1.74-1.87z"/>
    <path fill="#478FC9" d="M2142.82 837.855c-.84.742-1.55-.42-2.61-1.556-.82-.88-2.19.823 28.29-26.265.83-.742 1.54.42 2.61 1.555.82.881 2.19-.818-28.29 26.266z" opacity=".2"/>
    <path fill="#FFBC00" d="M2185.6 812.032c-.84.747-.42.697-14.46-14.34-.8-.858-1.91.599 24.75-23.105.85-.746.44-.702 14.47 14.34.81.862 1.92-.595-24.76 23.105z"/>
    <path fill="#FF9D00" d="M2184.4 810.668c-.89.796-.78.394-12.14-11.769-.82-.881-1.81.483 24.71-23.083.9-.8.77-.407 12.14 11.769.82.881 1.81-.482-24.71 23.083z"/>
    <path fill="#FFD773" d="M2207.42 785.776l-25.91 23.027 2.29 2.459 25.91-23.027-2.29-2.459z"/>
    <path fill="#FF9D00" d="M2199.31 777.086l-19.76 17.562s.17 6.509 8.86 9.495l19.76-17.563-8.86-9.494z"/>
    <path fill="#FFA766" d="M2199.63 777.434l-19.27 17.129s-.07 6.088 8.02 8.591l19.27-17.129-8.02-8.591z"/>
    <path fill="#FF7900" d="M2199.44 776.464l-19.27 17.129s-.07 6.093 8.02 8.592l19.27-17.129-8.02-8.592z"/>
    <path fill="#FF9D00" d="M2188.58 798.143c-.9.801-1.75-.639-3.1-2.083-.81-.876-.56-.621 13.31-12.958.9-.796 1.74.63 3.1 2.083.82.872.58.612-13.31 12.958z"/>
  </g>
  <g>
    <path fill="#89F" d="M1373.37 391.388l-97.45 21.577 91.69 121.06-.83.443s.49.921 1.55.509l93.45-36.229-88.41-107.36z"/>
    <path fill="#A9BAFF" d="M1464.07 487.185l-9.8 3.799-82.45-100.11-87 19.266-6.62-8.739s-3.42 3.232-3.82 11.054l92.41 122.018 93.46-36.23c-.14-4.309 3.82-11.058 3.82-11.058z"/>
    <path fill="#CAD7FF" d="M1370.62 523.414s-4.72 8.886-3.58 13.057l94.1-37.061 4.32-14.577-94.84 38.581z"/>
    <path fill="#89F" d="M1278.23 401.307l92.42 122.013 93.45-36.23-88.42-107.364-97.45 21.581z"/>
    <path fill="#637FF7" d="M1353.14 384.719l88.32 111.151-3.86 11.148 2.31-.894 4.06-11.738-88.57-110.168-2.26.501z"/>
    <path fill="#E5F" d="M1363.36 382.457l88.37 109.429-3.86 11.148-8.6 2.875 3.54-11.148-88.07-110.396 8.62-1.908z"/>
    <path fill="#F088FF" d="M1442.8 494.761l8.93-2.874-3.86 11.148-9.16 3.549 4.09-11.823z"/>
  </g>
  <g>
    <path fill="#89837E" d="M2047.23 1050.4c-4.02 1.34-7.56-8.7-3.54-10.05 4.02-1.34 7.56 8.7 3.54 10.05z"/>
    <path fill="#2D3A5B" d="M2184.92 996.007c12.01-2.159 10.65-.21 1.56 4.453l-1.56-4.453z"/>
    <path fill="#D3D1CF" d="M2187.64 1000.39c-.79-2.246-1.2-3.395-1.77-5.017-5.91 1.023-21.32 4.081-21.32 4.081 2.67 7.576 1.43 4.046 3.7 10.496 0 0 14.07-6.82 19.39-9.56z"/>
    <path fill="#C1BCB8" d="M2188.8 997.197s-10.39 5.393-23.43 11.433l-3.25-12.569 24.65-2.775 2.03 3.911z"/>
    <path fill="#928EEF" d="M2164.51 999.487l-75.95 25.473 3.7 10.5 75.95-25.47-3.7-10.503z"/>
    <path fill="#7777D8" d="M2164.48 999.464l-3.16 1.056 3.7 10.5 3.15-1.06-3.69-10.496z"/>
    <path fill="#99F" d="M2163.26 1005.7l-72.8 24.41 1.26 3.59 72.8-24.41-1.26-3.59z"/>
    <path fill="#7C7CCE" d="M2096.77 1022.11l-5.49 1.84 3.69 10.5 5.5-1.84-3.7-10.5z"/>
    <g>
      <path fill="#8989E8" d="M2050.6 1050.7c-4.42 1.49-5.24-3.76-6.82-8.24-.67-1.89.37-3.94 2.3-4.6l44.38-14.88c4.43-1.48 5.25 3.76 6.83 8.24.66 1.89-.37 3.95-2.3 4.6l-44.39 14.88z"/>
      <path fill="#99F" d="M2098.17 1025.1l-64.33 21.56 2.25 6.39 64.33-21.56-2.25-6.39z"/>
    </g>
  </g>
  <g>
    <path fill="#9E79D8" d="M1545.71 370.889c-7.11 2.793-13.4-1.332-18.28-7.045-18.12-21.174 10.74-45.545-5.62-54.552-3.88-2.136-7.4-6.159-10.77-10.746-19.9 21.827-51.32 18.229-37.78-9.485 15.73-32.157 27.09-8.824 37.89 6.535 8.42-10.209 14.07-25.497 10.94-45.571-10.15-65.244 61.07-83.933 100.04-62.996l-.88 1.556c-37.68-20.245-107.26-2.486-97.36 61.172 2.7 17.334-.49 34.258-11.62 47.399 3.31 4.564 6.75 8.56 10.44 10.59 18.24 10.039-11.43 34.454 6.12 54.963 4.64 5.426 9.27 7.849 13.76 7.192 9.07-1.323 14.93-14.648 14.99-14.787l1.68.689c-.23.531-5.19 11.796-13.55 15.086zm-59.16-95.685c-6.78 2.673-20.41 24.943-12.05 32.859 6.46 6.111 23.39 2.468 35.44-11.054-8.05-11.372-15.19-25.028-23.39-21.805z"/>
    <path fill="#8678A3" d="M1686.39 268.405s-6.73-17.697-26.9-30.91c.31-.496-23.22-13.709-44.29-11.054-43.7 1.511-63.75 50.47-63.75 50.47 3.35 6.558 8.3 4.891 8.3 4.891 22.63-44.101 51.38-43.775 63.5-44.325 9.97-.456 21.8 6.893 27.49 10.035 3.85 2.414 17.42 9.754 21.89 19.074 5.13 10.723 18.81 35.407-10.68 75.467 0 0 .8 5.051 8.3 4.89.01.009 35.1-40.078 16.14-78.538z"/>
    <path fill="#67617A" d="M1656.72 242.989c.16-.232.35-.063-1.36-.939-1.61-1.081-1.36-.97-1.49-.746-68.47-33.762-100.05 39.036-100.05 39.036l7.61 5.029c11.49-13.799 22.7-33.851 39.89-40.967 13.12-5.432 22.65-2.289 33.62 1.89 11.37 4.341 18.75 1.766 28.97 13.5 6.61 7.576 8.37 15.037 9.71 24.786 3 21.934 3.96 15.466-1.84 31.692-1.16 3.25-1.69 6.195-3.13 9.669-2.03 4.921-7.23 11.152-10.11 16.758l9.32 4.867c-.01.005 51.34-61.14-11.14-104.575z"/>
    <path fill="#9E79D8" d="M1665.34 342.687s-14.81 18.595-21.76 19.02l-11.15 14.733c10.72-7.769 28.63-21.089 36.19-31.817l-3.28-1.936z"/>
    <path fill="#E1D7FF" d="M1632.31 377.482l-.91-1.332c28.12-18.207 41.42-36.811 47.62-49.215 6.71-13.423 6.78-22.672 6.78-22.761h1.64c.02 16.507-15.32 47.538-55.13 73.308z"/>
    <path fill="#584091" d="M1644.99 364.108c.48-2.557-.96-10.205-1.47-12.749l-42.36 30.955c5.46 4.617 10.58 6.235 10.58 6.235 13.58-4.085 27.23-15.345 33.25-24.441z"/>
    <path fill="#413075" d="M1646.09 355.132s-14.97 20.785-42.96 31.535l-4.15-6.025 44.54-33.163 2.57 7.653z"/>
    <path fill="#7354AF" d="M1644.18 348.306c6.49-1.068-26.9 28.908-43.63 36.042 0 0-1.37-.403-.76-2.839l44.39-33.203z"/>
    <path fill="#9E79D8" d="M1644.18 348.306s-.55-8.372-9.8-10.5c0 0-33.78 10.858-43.94 34.776 0 0-.6 8.212 9.47 10.474 0 0 21.87-12.463 44.27-34.75z"/>
    <path fill="#B799F2" d="M1641.51 340.175s-34.94 11.577-50.97 39.197c0 0-6.82-4.023-1.9-13.713 4.92-9.687 42.36-38.326 52.87-25.484z"/>
    <path fill="#8567BF" d="M1640.36 338.276s-35.16 13.369-51.84 41.477c0 0-1.59-4.958-.82-7.653.77-2.691 23.57-41.535 52.66-33.824z"/>
    <path fill="#E1D7FF" d="M1609.8 387.928c-.47-1.148 11.03-3.017 25.77-17.276 9.73-9.405 8.36-10.871 9.42-10.192-4.21 6.41-17.37 20.589-35.19 27.468z"/>
    <path fill="#E1D7FF" d="M1624.28 341.954s-12.13 5.95-17.64 10.751c0 0 2.12 9.86 13.53 16.512 0 0 12.45-9.964 16.8-14.04 0 0-3.52-6.768-12.69-13.223z" opacity=".3"/>
    <g>
      <path fill="#9E79D8" d="M1558.33 279.607s-9.98 21.438-7.14 27.638l-8.17 16.485c2.06-12.882 5.81-34.539 12.03-46.059l3.28 1.936z"/>
      <path fill="#E1D7FF" d="M1542.13 324.32l1.63.161c3.43-32.756 14.13-52.894 22.5-64.019 9.05-12.038 17.4-16.405 17.49-16.45l-.76-1.412c-14.85 7.585-35.97 35.107-40.86 81.72z"/>
      <path fill="#584091" d="M1548.37 307.146c1.95-1.56 9.82-3.965 12.25-4.667l-8.38 50.985c-6.73-2.57-10.58-6.235-10.58-6.235-2.6-13.545 1.2-30.624 6.71-40.083z"/>
      <path fill="#413075" d="M1555.99 301.997s-11.89 22.622-8.63 51.793l7.4.787 9.37-53.877-8.14 1.297z"/>
      <path fill="#7354AF" d="M1563.07 300.486c-2.05-6.111-13.7 36.739-12.39 54.458 0 0 .99.987 2.92-.671l9.47-53.787z"/>
      <path fill="#9E79D8" d="M1563.07 300.486s7.85-3.415 14.09 3.585c0 0 5.86 34.231-11.11 54.127 0 0-7.17 4.34-13.91-3.304.01 0 1.13-24.687 10.93-54.408z"/>
      <path fill="#B799F2" d="M1571.69 299.015s5.75 35.564-11.85 62.258c0 0 6.83 4.023 13.33-4.733 6.49-8.757 15.06-54.418-1.48-57.525z"/>
      <path fill="#8567BF" d="M1573.95 299.122s4.23 36.591-13.51 64.077c0 0 5.23-.934 7.32-2.852 2.09-1.917 26.72-39.68 6.19-61.225z"/>
      <path fill="#E1D7FF" d="M1543.12 348.623c1.27-.134-2.4-10.889 3.68-30.297 4.01-12.776 5.98-12.27 4.87-12.874-4.67 8.185-10.47 25.72-8.55 43.171z"/>
      <path fill="#E1D7FF" d="M1578.09 314.723s.25 13.245-1.55 20.24c0 0-9.93 2.754-21.27-4.009 0 0 3.25-15.386 4.92-21.041 0 0 7.78-.107 17.9 4.81z" opacity=".3"/>
    </g>
    <path fill="#CABDEF" d="M1584.02 244.312l-.55-.599c.07-.063 7.44-6.348 20.05-9.646 45.05-11.783 90.2 26.426 84.32 70.156l-.81-.103c3.71-27.642-14.17-51.069-31.04-61.288-32.22-17.339-60.25-8.573-71.97 1.48z"/>
    <path fill="#CABDEF" d="M1587.54 248.835c-.65.438-.46.295-7.35-9.413-.24-.336.02-.733.14-.756.65-.438.47-.299 7.35 9.414.38.532-.26.773-.14.755zM1679.12 302.842c-.1.764-.06.545 11.96 1.967.54.062.59-.47.62-.474.09-.769.03-.541-11.96-1.967-.51-.058-.65.478-.62.474z"/>
    <path fill="#413075" d="M1554.94 357.421s3.13 1.618 3.97 1.765c-3.58 4.649-7.17-.152-3.97-1.765z"/>
    <g>
      <path fill="#8B89AF" d="M1647.49 202.634c-.92 1.551-2.02.38-15.88-7.474-1.32-.746-1.18-2.043-.96-2.078.92-1.552 2.02-.385 15.88 7.473.91.514 1.34 1.444.96 2.079z"/>
      <path fill="#797499" d="M1635.72 194.249l-1.54 2.574 6.94 3.932 1.53-2.574-6.93-3.932z"/>
      <path fill="#625F84" d="M1635.32 193.979l-1.53 2.574 6.93 3.933 1.53-2.575-6.93-3.932z"/>
      <path fill="#413075" d="M1622.21 184.984l-2.93 4.933 14.38 8.15 2.93-4.932-14.38-8.151z"/>
      <path fill="#4C3E89" d="M1621.69 185.875l-1.82 3.058 14.38 8.15 1.82-3.057-14.38-8.151z"/>
    </g>
  </g>
  <g>
    <path fill="#DCFEFF" d="M1362.03 775.789l-42.71-53.711 132.17-72.043-89.46 125.754zM1451.49 650.035l-145.17 57.015-42.26-33.557 187.43-23.458z"/>
    <path fill="#fff" d="M1392.97 673.002l58.52-22.967c-247.8 31.013-231.91 23.624-58.52 22.967z"/>
    <path fill="#4DC1C1" d="M1451.49 650.035c-153.6 83.723-127.97 66.361-145.18 89.078V707.05l145.18-57.015z"/>
    <path fill="#7ADFE2" d="M1392.57 673.158l-1.01 9.543c-83.96 45.764-68.04 33.704-85.24 56.412v-32.064l86.25-33.891z"/>
    <path fill="#4DC1C1" d="M1328.5 733.628l-22.18 5.484 13-17.035 9.18 11.551z"/>
    <path fill="#fff" d="M1396.18 680.18l-34.15 95.609 89.46-125.754-55.31 30.145z"/>
  </g>
  <path fill="#B0D4FF" d="M1969.43 352.512s193.4 115.997 196.16 334.566l-125.74-127.802s-26.17-108.115-104.58-165.653l34.16-41.111z" opacity=".4"/>
  <g>
    <path fill="#4E2CB7" d="M1932.54 392.697s.92 1.502 2.73.926l34.16-41.111s.26-1.6-1.66-2.23l-35.23 42.415z"/>
    <path fill="#4C28A5" d="M1877.62 357.291s-11.86 39.126 17.14 62.602l-.37 1.041 2.07.287s4.69-15.176 17.27-40.677l-36.11-23.253z"/>
    <path fill="#6630CE" d="M1875.55 357.005s-12.32 40.632 18.84 63.925c0 0 4.69-15.176 17.27-40.677l-36.11-23.248z"/>
    <path fill="#4C28A5" d="M1918.39 306.825s36.78-19.409 66.32 3.415l.96-.568.72 1.918s-14.25 7.617-37.22 24.898l-30.78-29.663z"/>
    <path fill="#6630CE" d="M1917.68 304.907s38.19-20.159 67.99 4.765c0 0-14.24 7.617-37.21 24.898l-30.78-29.663z"/>
    <path fill="#99B6FF" d="M1803.47 256.792s13.75 77.613 116.09 126.975l35.24-42.416c-70.66-87.496-151.33-84.559-151.33-84.559z"/>
    <path fill="#C0D5FF" d="M1814.6 243.404s13.74 77.613 116.08 126.975l35.24-42.416c-70.66-87.495-151.32-84.559-151.32-84.559z"/>
    <path fill="#6630CE" d="M1919.47 383.874l35.24-42.416s4.85-.572 7.83 2.852l-37.74 45.415c.01-.004-3.68-.849-5.33-5.851z"/>
    <path fill="#6E3FE0" d="M1967.78 350.282l-35.24 42.416s-4.85.572-7.84-2.852l37.74-45.415s3.68.845 5.34 5.851z"/>
    <path fill="#6630CE" d="M1828.28 309.283s8.3-20.061 33.1-39.845l-11-3.947s-21.91 16.686-27.79 35.438l5.69 8.354zM1877.09 291.265c7.88 6.235 9.09 17.522 2.7 25.215-6.39 7.688-17.96 8.868-25.84 2.637-7.88-6.235-9.09-17.522-2.7-25.215 6.39-7.693 17.95-8.873 25.84-2.637z"/>
    <path fill="#9FDAFF" d="M1877.59 314.741c-5.4 6.495-15.2 7.496-21.86 2.231-6.66-5.266-7.69-14.836-2.29-21.335 5.4-6.495 15.2-7.497 21.86-2.231s7.69 14.836 2.29 21.335z"/>
    <path fill="#BDE5F9" d="M1859.4 291.247l12.92 27.58s5.67-2.07 7.94-8.82l-11.76-19.699c0-.004-5.52-1.144-9.1.939z"/>
    <path fill="#C2ACF9" d="M1873.77 366.061s22.47 17.996 37.46 19.614l2.5-5.131-38.18-23.535c0-.004-1.6 7.537-1.78 9.052zM1926.26 301.537s22.49 17.638 27.08 31.522l-4.65 3.406-31.17-31.406s7.26-3.044 8.74-3.522zM1930.4 370.714s9.53 5.646 15.57 5.811l8.25-9.923s-1.88-6.102-9.41-13.236l-14.41 17.348z"/>
    <g>
      <path fill="#8765EF" d="M1892.17 326.095l71.57 56.617s-24.36-45.907-71.57-56.617z"/>
      <path fill="#6B3CDD" d="M1892.17 326.095l71.57 56.617s-51.07-13.768-71.57-56.617z"/>
    </g>
  </g>
  <g>
    <path fill="#A4A4FF" d="M1306.07 474.266c58.16-31.661 52.63-28.004 51.71-29.596-58.15 31.661-52.62 28-51.71 29.596z"/>
    <path fill="#928EEF" d="M1358.38 445.075l-52.64 28.655 1.37 2.389 52.64-28.655-1.37-2.389z"/>
    <path fill="#1A1A42" d="M1305.44 473.162l1.71 2.999s-21.73 9.959-24.66 16.419c-2.92 6.459-5.83 30.221-9.86 33.073-4.03 2.847-9.89 6.508-4.16-7.282 12.65-30.413 6.03-27.745 36.97-45.209z"/>
    <path fill="#28285B" d="M1269.4 526.896c3.2-1.748 4.02-2.164 5.89-8.614 2.42-8.363 4.45-21.366 6.54-25.988 2.59-5.713 18.52-13.705 24.32-16.445l-.98-1.717c-29.99 17.004-23.41 14.17-36.03 44.503-3.12 7.501-2.29 8.73-2.09 8.9.43.375 2.39-.621 2.35-.639z"/>
    <path fill="#A4A4FF" d="M1302.41 478.034c-58.16 31.661-52.06 28.988-52.97 27.397 58.15-31.661 52.06-28.988 52.97-27.397z"/>
    <path fill="#928EEF" d="M1302.08 477.501l-52.64 28.655 1.37 2.389 52.64-28.655-1.37-2.389z"/>
    <path fill="#5252B5" d="M1248.63 505.229l-3.39 1.851s2.06 2.392 4.55 3.299l2.49-1.359-3.65-3.791z"/>
    <path fill="#1A1A42" d="M1301.78 476.935l1.71 2.999s20.1-12.815 27.27-11.854c7.17.965 29.42 11.027 34.02 9.176 4.6-1.85 10.88-4.796-4.16-7.281-33.17-5.467-27.36-9.561-58.84 6.96z"/>
    <path fill="#28285B" d="M1367.57 475.222c-3.19 1.739-4.01 2.209-10.61.371-8.54-2.378-20.97-7.523-26.09-8.215-6.34-.85-21.68 8.175-27.12 11.554l-.98-1.716c30.56-15.962 24.62-12.011 57.74-6.544 8.17 1.35 8.81 2.682 8.86 2.937.11.648-2.04 1.747-1.8 1.613z"/>
    <path fill="#9FD1FF" d="M1244.08 496.746s-1.24 3.473 5.41 9.378c6.64 5.9 18.7 16.552 20.64 16.869 1.93.318 19.58-6.718 31.39-16.968 0 0-2.02-23.172-7.35-32.496 0 0 .02-3.787-4.95-3-4.96.782-21.88 7.072-22.44 7.617-.55.541-21.44 11.206-22.7 18.6z" opacity=".3"/>
    <path fill="#928EEF" d="M1283.59 519.346c-.03.004-12 6.294-14.06 4.818-6.34-4.541-27.18-20.436-26.79-28.214.88-2.195 15.78-20.316 45.25-26.154.91-.255 2.81-.747 3.73-.59 7.81 4.188 10.88 37.083 10.34 37.579-.78.702-9.95 7.916-18.47 12.561zm-13.46 3.647c8.42-.415 26.39-13.235 30.79-16.945-.62-6.907-3.54-32.014-9.61-35.586-.97.013-2.9.568-3.03.594-21.4 4.703-38.66 16.629-44.22 25.202-.08 6.924 20.36 22.592 26.07 26.735z"/>
    <path fill="#6A6AD3" d="M1283.37 518.742c-.41.612-12.03 5.865-13.67 4.685-6.2-4.461-26.43-19.874-26.04-27.428.87-2.141 15.46-19.78 43.99-25.426.87-.241 2.75-.728 3.63-.572 7.58 4.059 10.6 36.033 10.05 36.533-.75.675-9.67 7.698-17.96 12.208zm-13.08 3.545c8.26-.407 25.54-12.762 29.93-16.472-.61-6.763-3.45-31.129-9.34-34.598-.88.009-2.45.452-2.95.581-20.83 4.117-37.51 16.088-42.99 24.5-.07 6.732 19.81 21.97 25.35 25.989z"/>
    <mask id="a" width="17" height="37" x="1278" y="476" maskUnits="userSpaceOnUse" style="mask-type:alpha">
      <path fill="url(#paint0_linear)" d="M1281.06 478.021s8.03-5.342 10.94 4.376c2.9 9.718 4.66 19.735-.17 24.303 0 0-9.19 8.229-12.93 4.296 0-.005 13.22-13.339 2.16-32.975z"/>
    </mask>
    <g mask="url(#a)">
      <path fill="url(#paint1_linear)" d="M1281.06 478.021s8.03-5.342 10.94 4.376c2.9 9.718 4.66 19.735-.17 24.303 0 0-9.19 8.229-12.93 4.296 0-.005 13.22-13.339 2.16-32.975z" opacity=".3"/>
    </g>
    <mask id="b" width="17" height="37" x="1339" y="441" maskUnits="userSpaceOnUse" style="mask-type:alpha">
      <path fill="url(#paint2_linear)" d="M1341.72 443.298s8.03-5.342 10.94 4.376c2.91 9.713 4.67 19.735-.17 24.303 0 0-9.19 8.23-12.92 4.296 0-.005 13.22-13.334 2.15-32.975z"/>
    </mask>
    <g mask="url(#b)">
      <path fill="url(#paint3_linear)" d="M1341.72 443.298s8.03-5.342 10.94 4.376c2.91 9.713 4.67 19.735-.17 24.303 0 0-9.19 8.23-12.92 4.296 0-.005 13.22-13.334 2.15-32.975z" opacity=".3"/>
    </g>
  </g>
  <g>
    <path fill="#C8C2FF" d="M2218.97 459.198c-8.11-2.352-18.24 5.846-18.24 5.846l1.48 3.272c3.57-2.056 8.95-4.461 13.39-3.567 7.37 1.489 18.36 25.175 20.26 30.865 1.47 4.39-7.56 11.703-14.7 14.519l1.79 3.951c6.96 1.279 23.1-9.968 20.55-16.834-2.54-6.87-16.43-35.701-24.53-38.052z"/>
    <path fill="#B3A6FF" d="M2198.25 470.886l17.39 40.373c1.46.148 3.41-.295 5.52-1.131l-18.95-41.816c-2.37 1.363-3.96 2.574-3.96 2.574zM2243.5 497.25s-2.8 10.693-16.3 13.911l4.03 6.902c-.01-.005 17.81-8.726 12.27-20.813z"/>
    <path fill="#B3A6FF" d="M2201.2 468.87s11.61-7.742 16.19-3.383c0 0-9.96 1.524-15.05 8.354l-1.14-4.971z"/>
    <path fill="#C8C2FF" d="M2196.1 455.617c-2.46-4.229-19.95.943-39.05 11.55-19.1 10.608-32.59 22.636-30.12 26.865l41.82 71.708 69.17-38.416-41.82-71.707z"/>
    <g>
      <path fill="#D4D2FF" d="M2195.23 438.122l-36.46 20.249 54.59 93.595 36.46-20.25-54.59-93.594z"/>
      <path fill="#DEDEFF" d="M2211.93 433.101l-36.47 20.252 54.59 93.594 36.47-20.252-54.59-93.594z"/>
    </g>
    <path fill="#B3A6FF" d="M2237.93 527.324c2.46 4.229-11.02 16.258-30.13 26.865-19.1 10.607-36.58 15.779-39.05 11.55-2.46-4.228 11.02-16.257 30.13-26.864 19.1-10.607 36.59-15.779 39.05-11.551z"/>
    <path fill="#938AED" d="M2232.69 530.516c1.78 3.035-9.87 12.766-26.02 21.729-16.14 8.962-30.66 13.772-32.44 10.732-1.77-3.035 9.89-12.766 26.02-21.728 16.15-8.967 30.68-13.772 32.44-10.733z"/>
  </g>
  <defs>
    <linearGradient id="paint0_linear" x1="1276.41" x2="1291.29" y1="480.527" y2="507.861" gradientUnits="userSpaceOnUse">
      <stop stop-color="#fff"/>
      <stop offset="1"/>
    </linearGradient>
    <linearGradient id="paint1_linear" x1="1276.41" x2="1291.29" y1="480.527" y2="507.861" gradientUnits="userSpaceOnUse">
      <stop stop-color="#fff"/>
      <stop offset="1" stop-color="#fff"/>
    </linearGradient>
    <linearGradient id="paint2_linear" x1="1337.07" x2="1351.95" y1="445.807" y2="473.142" gradientUnits="userSpaceOnUse">
      <stop stop-color="#fff"/>
      <stop offset="1"/>
    </linearGradient>
    <linearGradient id="paint3_linear" x1="1337.07" x2="1351.95" y1="445.807" y2="473.142" gradientUnits="userSpaceOnUse">
      <stop stop-color="#fff"/>
      <stop offset="1" stop-color="#fff"/>
    </linearGradient>
  </defs>
</svg>
