<svg xmlns="http://www.w3.org/2000/svg" width="1474" height="1374" fill="none" viewBox="0 0 1474 1374">
  <path fill="#fff" d="M0 0h1474v1374H0z"/>
  <path fill="#F5F6E8" d="M876.589 163.505L1350.72 110l32.21 523.683-557.409-25.096 51.068-445.082z"/>
  <path fill="#EAEADA" d="M1076.92 719.386c191.14 0 346.08-26.817 346.08-59.898s-154.94-59.898-346.08-59.898c-191.127 0-346.07 26.817-346.07 59.898s154.943 59.898 346.07 59.898z"/>
  <path fill="#E7E8D4" d="M979.505 230.744L955.15 421.557l135.13-5.208v12.31s41.25-.947 53.03-4.737c11.79-3.789 17.68-160.509 17.68-160.509l-84.07-23.202-97.415-9.467zM1329.11 340.59l6.68 146.311h-203.87l8.64-49.245 188.55-97.066z"/>
  <path fill="#E7E7F7" d="M1329.11 340.59h-194.83v134.472h194.83V340.59z"/>
  <path fill="#656596" d="M1322.56 362.557c2.93-3.52 2.94-9.214.03-12.719-2.91-3.504-7.63-3.491-10.55.03-2.92 3.52-2.93 9.214-.03 12.719 2.91 3.504 7.63 3.491 10.55-.03z"/>
  <path fill="#E4E4F2" d="M979.505 230.744l137.095-3.313v180.398s-108.82 13.734-154.381 0l17.286-177.085z"/>
  <path fill="#561537" d="M1029.79 306.497l67.56-1.418-7.46 75.759h-74.64l14.54-74.341z"/>
  <path fill="#3CA591" d="M1051.17 331.381c10.14-12.2 10.17-31.985.06-44.191-10.1-12.206-26.52-12.212-36.66-.013-10.14 12.2-10.17 31.985-.06 44.191 10.11 12.207 26.52 12.212 36.66.013z"/>
  <path fill="#D6C494" d="M1026.64 253.469l-32.992 51.61h32.992v-51.61z"/>
  <path fill="#656596" d="M995.527 244.415c.682 5.025-2.868 9.304-7.038 8.483-2.524-.502-4.559-2.956-4.971-5.992-.682-5.026 2.868-9.305 7.038-8.483 2.524.496 4.559 2.949 4.971 5.992z"/>
  <path fill="#fff" d="M1076.93 198.546L1095 421.557l190.12-15.622-16.1-226.801-192.09 19.412z"/>
  <path fill="#7B7BAF" d="M1091.79 209.62c.55 4.053-2.32 7.503-5.68 6.838-2.03-.401-3.67-2.378-4.01-4.831-.55-4.053 2.32-7.503 5.68-6.838 2.03.395 3.67 2.377 4.01 4.831zM1261.28 196.371c1.93-2.317 1.94-6.061.03-8.362-1.91-2.302-5.01-2.29-6.94.027-1.92 2.317-1.93 6.061-.02 8.363 1.9 2.301 5.01 2.289 6.93-.028z"/>
  <path fill="#3CA591" d="M1128.04 401.078l-15-129.164 11.02-2.346-18.85-29.356-7.85 35.04 9.49-2.02 16.93 128.618c.17 1.261 1.07 2.19 2.13 2.19 1.31 0 2.31-1.399 2.13-2.962z"/>
  <path fill="#3CA591" d="M1120.42 397.973l127.51-16.658 2.06 14.494 26.65-24.626-31.65-10.509 1.78 12.491-127.02 19.199c-1.14.213-1.99 1.393-1.99 2.786-.02 1.725 1.24 3.055 2.66 2.823z"/>
  <path fill="#561537" d="M1252.91 279.512l-3.53-33.616-17.68 28.885 11 2.454c-11.89 47.921-38.84 69.755-60.17 79.674-25.03 11.638-47.97 9.888-48.21 9.869-.33-.025-.6.27-.63.659-.02.389.23.728.55.759.05.006 1.38.107 3.7.107 7.55 0 25.65-1.073 44.97-10.045 14.85-6.895 27.52-17.041 37.65-30.153 10.58-13.703 18.4-30.687 23.31-50.607l9.04 2.014z"/>
  <g>
    <path fill="#D21C4B" d="M1257.22 501.614v-3.658c0-1.895-1.28-3.432-2.85-3.432h-3.04v-.019H839.871c-6.626 0-11.998 6.481-11.998 14.481v87.109c0 7.999 5.372 14.48 11.998 14.48l414.839-.232c1.38 0 2.51-1.355 2.51-3.024v-4.48c0-1.669-1.13-3.024-2.51-3.024h-3.38v-94.763h3.04c1.58 0 2.85-1.544 2.85-3.438z"/>
    <path fill="#F4478A" d="M1033.37 513.014s-.9-17.41 14.74-18.496l-207.801-.018c-6.871 0-12.436 6.713-12.436 14.988v6.481l205.497-2.955z"/>
    <path fill="#D6C494" d="M1058.97 599.69h192.37v-94.65h-192.37c-10.69 0-19.36 10.452-19.36 23.339v47.972c0 12.893 8.67 23.339 19.36 23.339z"/>
    <path fill="#E9E9D9" d="M1251.34 529.515h-176.77c-.33 0-.59-.314-.59-.696 0-.383.27-.697.59-.697h176.77c.32 0 .59.314.59.697 0 .382-.27.696-.59.696zM1225.8 541.109h-102.52c-.33 0-.59-.314-.59-.696 0-.383.26-.697.59-.697h102.52c.33 0 .59.314.59.697.01.382-.26.696-.59.696zM1195.95 558.269h-118.24c-.33 0-.59-.314-.59-.697 0-.382.27-.696.59-.696h118.24c.33 0 .59.314.59.696 0 .383-.27.697-.59.697zM1233.27 580.987H1100.1c-.32 0-.58-.314-.58-.697 0-.383.26-.696.58-.696h133.17c.32 0 .58.313.58.696 0 .389-.26.697-.58.697zM1221.09 571.713h-68.74c-.33 0-.59-.313-.59-.696 0-.383.26-.696.59-.696h68.74c.33 0 .59.313.59.696 0 .383-.27.696-.59.696z"/>
    <path fill="#C11A49" d="M1033.37 589.903s-.98 20.629 16.36 20.654l-211.014.019c-5.986 0-10.842-5.848-10.842-13.069v-9.399l205.496 1.795z"/>
    <path fill="#E22D61" d="M1033.32 513.014H827.869v76.883h205.451v-76.883z"/>
    <path fill="#FFB400" d="M1002.19 568.163H858.751c-4.102 0-7.433-4.009-7.433-8.959v-20.579c0-4.944 3.326-8.959 7.433-8.959h143.439c4.11 0 7.44 4.009 7.44 8.959v20.579c0 4.944-3.33 8.959-7.44 8.959z"/>
    <g>
      <path fill="#3CA591" d="M1172.98 454.208v-1.701c0-.834-.57-1.505-1.25-1.505l-301.882.037c-1.806 0-3.274 1.77-3.274 3.947v35.699c0 2.177 1.468 3.946 3.274 3.946l301.882-.112c.69 0 1.25-.678 1.25-1.506v-1.7c0-.835-.57-1.506-1.25-1.506h-3.27v-34.093h3.27c.68 0 1.25-.672 1.25-1.506z"/>
      <path fill="#D6C494" d="M1168.45 489.807H991.232c-3.872 0-7.011-3.784-7.011-8.451v-17.185c0-4.668 3.139-8.451 7.011-8.451h177.218v34.087z"/>
      <path fill="#46BCA5" d="M978.906 458.618H866.615v27.926h112.291v-27.926z"/>
      <path fill="#E9E9D9" d="M1168.45 466.342h-157.91c-.33 0-.59-.314-.59-.697 0-.382.27-.696.59-.696h157.91c.33 0 .59.314.59.696 0 .389-.26.697-.59.697zM1136.63 473.3h-79.34c-.33 0-.59-.313-.59-.696 0-.383.26-.697.59-.697h79.34c.33 0 .59.314.59.697 0 .383-.26.696-.59.696zM1119.74 478.401h-97.02c-.33 0-.59-.314-.59-.697 0-.382.27-.696.59-.696h97.02c.33 0 .59.314.59.696 0 .389-.26.697-.59.697z"/>
      <path fill="#4FC6AF" d="M984.22 451.039s-5.309.326-5.309 7.579H866.683v-3.67c0-2.177 1.468-3.947 3.274-3.947l114.263.038z"/>
      <path fill="#379986" d="M866.682 486.18h112.229s-.812 7.837 5.309 8.088H869.956c-1.806 0-3.274-1.77-3.274-3.947v-4.141z"/>
    </g>
    <g>
      <path fill="#3F56DB" d="M1288.81 613.857v-2.284c0-.678-.45-1.23-.71-1.23l-515.34-.132c-1.723 0-3.128 1.688-3.144 3.777l-.25 35.744c-.015 2.114 1.395 3.839 3.144 3.839l515.28-.2c.56 0 1.01-.552 1.01-1.23v-1.92c0-.678-.45-1.23-1.01-1.23h-2.68v-33.905h2.68c.57-.006 1.02-.552 1.02-1.229z"/>
      <path fill="#D6C494" d="M1065.86 649.016h219.26v-33.729h-219.26c-3.86 0-7 3.783-7 8.445v16.84c0 4.661 3.13 8.444 7 8.444z"/>
      <path fill="#E9E9D9" d="M1285.12 623.745h-171.27c-.33 0-.59-.314-.59-.696 0-.383.27-.697.59-.697h171.27c.32 0 .59.314.59.697 0 .382-.27.696-.59.696zM1257.62 632.466h-165.77c-.32 0-.58-.314-.58-.696 0-.383.26-.697.58-.697h165.77c.33 0 .59.314.59.697 0 .382-.26.696-.59.696zM1276.87 639.424h-117.45c-.33 0-.59-.314-.59-.697 0-.382.26-.696.59-.696h117.45c.32 0 .59.314.59.696 0 .383-.26.697-.59.697z"/>
      <path fill="#4D6BE8" d="M1052.62 618.55H769.497v27.198h283.123V618.55z"/>
      <path fill="#5C81F7" d="M1052.62 618.55s-.3-8.709 7.46-8.332H772.641c-1.733 0-3.144 1.694-3.144 3.789v4.543h283.123z"/>
      <path fill="#3655BA" d="M1061.35 653.365s-8.72.728-8.72-7.616H769.503l-.151 4.015c-.083 2.158 1.349 3.959 3.144 3.959l288.854-.358z"/>
    </g>
  </g>
  <g>
    <path fill="#0E1323" d="M904.291 321.818s-4.529 7.881-6.491 9.775c-1.962 1.895-3.534-8.52 0-9.944 3.534-1.418 6.491.169 6.491.169z"/>
    <path fill="#9A605C" d="M875.803 292.293s-11.394 46.403 6.283 48.298v15.152h13.746l3.144-32.669s7.855 1.004 7.855-7.103c0-4.26-3.951-3.469-3.93-3.789l2.358-16.099-29.456-3.79z"/>
    <path fill="#0E1323" d="M900.158 299.872s-1.572 12.787-.786 13.257c.786.471 4.664-2.365 7.068.948 0 0 6.283-20.36 2.358-21.307-3.93-.947-8.64 7.102-8.64 7.102z"/>
    <path fill="#000" d="M899.83 319.535a.19.19 0 01-.167-.113c-.057-.113-.031-.257.063-.326l4.971-3.809c.088-.069.213-.037.27.076.058.113.031.257-.062.326l-4.971 3.808a.167.167 0 01-.104.038z"/>
    <path fill="#000" d="M902.037 320.538c-.089 0-.172-.075-.193-.182l-.453-2.346c-.026-.125.042-.257.146-.282.104-.032.213.05.234.175l.453 2.347c.026.125-.041.257-.146.282-.015 0-.026.006-.041.006zM882.086 325.677c-.068 0-1.65-.019-3.639-1.456-2.056-1.487 1.827-11.902 2.28-13.088.047-.119.161-.169.26-.119.099.057.141.195.099.314-1.181 3.106-3.919 11.406-2.436 12.485 1.89 1.368 3.42 1.387 3.436 1.387.109 0 .197.107.197.238 0 .132-.088.239-.197.239z"/>
    <path fill="#141A33" d="M873.835 307.921c1.572-2.365 7.069-3.789 5.893-1.894-1.177 1.894-7.459 4.26-5.893 1.894zM890.221 310.946c-.812-2.868-5.59-6.45-5.012-4.185.577 2.265 5.824 7.058 5.012 4.185z"/>
    <path fill="#0E1323" d="M878.192 313.073c-.099 1.173-.708 2.052-1.353 1.976-.646-.081-1.093-1.097-.989-2.264.099-1.174.708-2.052 1.353-1.977.646.082 1.088 1.098.989 2.265zM885.183 314.422c-.099 1.173-.708 2.051-1.354 1.976-.645-.082-1.093-1.098-.989-2.265.099-1.173.708-2.052 1.354-1.976.645.081 1.093 1.098.989 2.265z"/>
    <path fill="#000" d="M881.247 331.681c-1.54 0-2.722-.778-2.795-.821-.093-.063-.13-.208-.078-.32.052-.113.172-.157.266-.095.026.019 2.352 1.538 4.622.22 2.045-1.186 3.435-4.229 4.122-9.047.021-.132.125-.213.229-.195.11.025.177.145.162.276-.713 4.982-2.176 8.144-4.347 9.399a4.359 4.359 0 01-2.181.583zM882.086 340.829c-4.378 0-6.861-4.48-6.882-4.53-.057-.107-.031-.257.058-.326.088-.069.213-.044.27.069.021.044 2.395 4.31 6.554 4.31 4.184 0 7.292-3.683 7.323-3.721.078-.094.203-.094.276 0 .073.094.078.245 0 .333-.125.163-3.248 3.865-7.599 3.865z"/>
    <path fill="#141A33" d="M877.765 299.288s-10.608 5.208-10.212-1.418c.39-6.631 4.716-6.631 4.716-6.631s-3.144-5.208 1.962-8.521c5.106-3.312 6.678 2.366 6.678 2.366s.786-9.468 6.678-7.573c5.893 1.895 3.535 6.632 3.535 6.632s7.068-8.997 9.426-3.313c2.358 5.684-1.572 8.997-1.572 8.997s4.321-2.842 5.893 0c0 0-1.177-5.208 2.358-4.26 3.534.947 2.748 8.049 2.748 8.049s2.748.948 1.962 5.208c-.786 4.26-5.892.47-5.892.47s.786 4.737-4.32 4.261c0 0-3.144 3.789-5.502 0-2.358-3.79.39-7.103.39-7.103s-7.464 5.208-9.036-1.418c0 0-.786 7.103-5.502 7.103-4.7-.007-4.31-2.849-4.31-2.849z"/>
    <path fill="#9A605C" d="M814.913 356.69s-.39-19.889-4.716-22.254c-4.32-2.366-12.961-.471-13.356 7.102-.391 7.573 10.608 22.254 10.608 22.254l7.464-7.102z"/>
    <path fill="#D4DCFF" d="M856.945 361.897s-24.355 24.62-26.713 26.515c0 0-.786-5.208-4.716 0L816.09 352.9l-13.747 8.997s-1.572 43.091 13.356 53.976c14.929 10.892 37.711-16.57 37.711-16.57l3.535-37.406z"/>
    <path fill="#141A33" d="M798.21 354.325c-.032-.471-.12-25.686.458-28.886.687-3.79 7.766-4.737 8.224.47.458 5.208.229 27.939-.916 29.357-1.14 1.424-7.537 2.371-7.766-.941z"/>
    <path fill="#232E4F" d="M806.892 325.916c-.25-2.849-2.478-3.853-4.56-3.564 1.603.232 3.014 1.33 3.207 3.564.458 5.207.229 27.938-.917 29.356-.494.621-1.988 1.148-3.534 1.274 1.936.175 4.242-.471 4.888-1.274 1.14-1.424 1.369-24.149.916-29.356z"/>
    <path fill="#9A605C" d="M803.019 342.755c.063-.891.047-1.788-.052-2.672-.39-3.551-2.379-6.758-5.975-5.647-3.056.947-2.442 18.941.916 18.465 3.357-.471 4.273-.948 4.58-3.79.203-1.819.417-4.724.531-6.356z"/>
    <path fill="#000" d="M802.317 350.441a.101.101 0 01-.068-.025c-.078-.056-.109-.201-.073-.314.005-.025.151-.527-.052-1.079-.219-.583-.864-1.324-2.696-1.562-.083-.013-.146-.126-.141-.257.005-.132.084-.226.167-.214 1.587.207 2.576.816 2.941 1.807.286.778.067 1.481.062 1.512-.031.082-.083.132-.14.132zM802.65 347.737c-.011 0-.021 0-.032-.006-.083-.032-.135-.157-.114-.283 0-.006.125-.941-.276-1.895-.39-.922-1.135-1.562-2.207-1.894-2.977-.923-3.612-.941-3.633-.941-.083 0-.151-.107-.151-.239s.068-.238.151-.238c.026 0 .661.012 3.696.953 1.16.358 1.972 1.073 2.404 2.108.469 1.117.318 2.196.313 2.247-.016.113-.084.188-.151.188zM802.952 343.972c-.011 0-.021 0-.032-.006-.083-.032-.135-.157-.114-.283.005-.043.364-2.999-3.113-5.245-.078-.05-.114-.188-.083-.307s.125-.176.198-.126c3.742 2.416 3.315 5.647 3.295 5.785-.021.107-.084.182-.151.182z"/>
    <path fill="#A6B1D1" d="M825.521 394.334a.199.199 0 01-.099-.031c-.093-.069-.125-.214-.067-.327 1.181-2.378 8.234-9.041 8.536-9.323.083-.081.208-.063.276.038.068.1.052.251-.031.332-.073.069-7.298 6.889-8.443 9.192-.042.075-.104.119-.172.119z"/>
    <path fill="#C5CEEF" d="M817.474 416.971c14.892 7.698 35.936-17.662 35.936-17.662l3.535-37.405s-9.849 9.956-17.63 17.692c-5.039 16.796-16.037 30.975-21.841 37.375z"/>
    <path fill="#9A605C" d="M821.201 575.441l8.25 15.622 9.427-4.73-5.893-19.412-11.784 8.52z"/>
    <path fill="#3CA591" d="M829.451 591.064l9.427-4.731-2.91-9.593-10.296 7.171 3.779 7.153z"/>
    <path fill="#561537" d="M827.64 587.638s8.963-4.022 9.905-5.503l6.673 12.523c1.135 2.134.489 4.976-1.385 6.111-4.689 2.843-12.747 7.749-15.735 9.713-3.539 2.327-22.106 1.474-28.706 1.091-1.39-.081-2.426-1.574-2.238-3.237.333-2.924 1.509-7.165 5.408-9.223 6.282-3.313 18.853-2.365 18.853-2.365l7.225-9.11z"/>
    <path fill="#141A33" d="M844.213 594.652c-4.935 3.664-14.726 10.892-17.906 12.988-3.545 2.327-23.184 1.16-30.153.658 0 .019-.006.038-.006.057-.187 1.656.854 3.137 2.239 3.218 6.595.383 25.161 1.236 28.706-1.091 2.988-1.964 11.045-6.87 15.735-9.712 1.879-1.142 2.52-3.984 1.385-6.118z"/>
    <path fill="#380E26" d="M827.484 598.404c-.016 0-.032 0-.042-.006-11.993-3.263-21.81-.502-21.909-.477-.104.025-.213-.05-.234-.176-.026-.125.042-.257.146-.282.099-.025 10.004-2.817 22.085.47.105.032.172.157.146.283-.021.113-.104.188-.192.188z"/>
    <path fill="#3B4663" d="M820.613 578.992s15.318-6.155 15.714-12.309c.396-6.155-10.212-27.462-10.608-42.614-.39-15.152-.39-40.718 15.714-45.455 16.105-4.737 43.994-4.26 44.78-13.257.786-8.997-17.676-26.044-17.676-26.044l-10.609 10.892s-61.264 14.788-64.616 39.062c-2.358 17.047 8.838 70.313 27.301 89.725z"/>
    <path fill="#414D70" d="M868.537 439.313l-10.609 10.892s-61.264 14.788-64.616 39.062c-.734 5.314-.151 14.142 1.556 24.368 9.489 7.617 23.944 19.406 34.453 28.842-1.884-6.255-3.451-12.755-3.597-18.408-.39-15.152-.39-40.718 15.714-45.455 16.105-4.737 43.994-4.26 44.78-13.257.781-8.997-17.681-26.044-17.681-26.044z"/>
    <path fill="#3B4663" d="M862.447 458.493v-7.102s-42.818 12.786-49.887 24.619c-7.068 11.839 2.358 27.462 8.641 23.201 6.283-4.26-6.678-22.254 14.928-27.938 21.607-5.684 26.318-12.78 26.318-12.78zM868.537 439.313l-9.234 9.48c7.261 1.06 16.755 2.773 20.976 4.963.516.263.984.401 1.416.439-5.247-7.573-13.158-14.882-13.158-14.882z"/>
    <path fill="#9A605C" d="M870.301 574.97l8.25 15.623 9.427-4.737-5.892-19.412-11.785 8.526z"/>
    <path fill="#3CA591" d="M878.551 590.593l9.427-4.737-2.91-9.586-10.296 7.171 3.779 7.152z"/>
    <path fill="#561537" d="M876.74 587.161s8.963-4.022 9.905-5.503l6.673 12.523c1.135 2.134.49 4.976-1.384 6.111-4.69 2.843-12.748 7.749-15.736 9.713-3.539 2.327-22.106 1.474-28.706 1.091-1.39-.081-2.426-1.574-2.238-3.237.333-2.924 1.509-7.165 5.408-9.223 6.283-3.313 18.853-2.365 18.853-2.365l7.225-9.11z"/>
    <path fill="#141A33" d="M893.318 594.181c-4.934 3.664-14.725 10.892-17.905 12.988-3.545 2.327-23.184 1.16-30.154.658 0 .019-.005.038-.005.057-.187 1.656.854 3.137 2.238 3.219 6.595.382 25.162 1.236 28.707-1.092 2.987-1.964 11.045-6.87 15.735-9.712 1.874-1.142 2.519-3.991 1.384-6.118z"/>
    <path fill="#380E26" d="M876.589 597.934c-.016 0-.031 0-.042-.006-11.992-3.263-21.809-.502-21.908-.477-.109.025-.214-.05-.234-.176-.026-.125.041-.257.145-.282.099-.032 10.005-2.817 22.086.47.104.032.172.157.146.283-.021.113-.105.188-.193.188z"/>
    <path fill="#414D70" d="M878.942 443.341s-.786 12.31-12.175 14.204c-11.394 1.895-61.671 13.734-54.602 35.041 7.068 21.307 48.319 77.654 57.35 85.704 0 0 20.821-1.418 18.463-13.258-2.358-11.839-24.058-45.486-29.857-50.663-6.787-6.06-4.716-10.414-.786-11.362 3.93-.947 46.352 6.155 55.779-10.415 9.426-16.57-3.144-49.245-3.144-49.245h-31.028v-.006z"/>
    <path fill="#293247" d="M825.912 519.118c-.058 0-.115-.031-.156-.094-8.173-12.736-13.758-22.812-14.46-30.586-.682-7.554 8.38-13.577 8.765-13.834 12.456-10.145 39.804-15.942 42.188-16.432v-4.417c0-.131.088-.238.198-.238.109 0 .197.107.197.238v4.618c0 .113-.067.213-.166.232-.292.057-29.3 5.891-42.214 16.407-.109.069-9.234 6.142-8.578 13.376.692 7.667 6.251 17.68 14.382 30.348.067.1.052.251-.037.332a.182.182 0 01-.119.05z"/>
    <path fill="#3B4663" d="M878.942 443.341s-.292 4.486-3.024 8.457c11.087 4.731 31.912 15.56 40.012 32.738 3.242-17.285-5.955-41.195-5.955-41.195h-31.033z"/>
    <path fill="#293247" d="M896.228 479.084a.145.145 0 01-.094-.032c-8.703-5.722-5.226-15.358-5.189-15.459.041-.119.161-.169.26-.119.099.056.141.194.099.314-.141.376-3.357 9.342 5.023 14.844.094.063.13.207.078.32-.042.088-.109.132-.177.132zM875.803 558.633a.165.165 0 01-.13-.063c-4.086-4.429-17.453-25.937-20.862-34.162-2.733-6.581-5.705-9.185-10.208-13.125-1.265-1.111-2.701-2.366-4.273-3.834-2.764-2.591-3.961-5.602-3.456-8.702.775-4.774 5.616-9.11 12.95-11.601 12.446-4.216 41.777-7.083 42.068-7.108.104-.006.203.088.214.22.01.131-.073.244-.183.257-.296.031-29.586 2.886-41.995 7.096-7.188 2.434-11.925 6.638-12.674 11.23-.474 2.911.671 5.766 3.31 8.238a150.43 150.43 0 004.263 3.827c4.549 3.984 7.553 6.613 10.327 13.301 3.399 8.188 16.709 29.608 20.774 34.018a.275.275 0 01.016.333.175.175 0 01-.141.075z"/>
    <path fill="#C5CEEF" d="M850.865 433.917l.193 12.266s32.605 7.573 62.852 5.685v-16.871l-63.045-1.08z"/>
    <path fill="#D4DCFF" d="M882.086 349.731s9.015 1.563 14.324 0l2.566 6.017s19.249 4.26 27.89 19.889c8.64 15.622 16.89 46.873 10.608 52.558-6.283 5.684-20.821-3.313-20.821-3.313s3.534 13.257-14.533 14.205c-18.067.947-50.672.47-53.816-8.05-3.144-8.52-.37-54.396 3.534-63.45 5.107-11.839 21.997-11.839 27.89-11.839l2.358-6.017z"/>
    <path fill="#C5CEEF" d="M916.653 374.683s-2.681 12.417-16.662 13.546c-13.981 1.129-30.085-2.183-35.978 8.232-5.892 10.415-12.961 16.569-5.502 26.514 7.465 9.944 31.101 15.497 41.475 11.77 7.485-2.685 11.004-2.943 15.184-1.274 2.712-3.984 1.478-8.601 1.478-8.601s4.955 3.061 10.327 4.485c.51-4.655.021-10.402-.901-13.953-1.957-7.573-7.849-26.044-9.421-40.719z"/>
    <path fill="#3CA591" d="M905.311 369.997h-37.794v57.471h37.794v-57.471z"/>
    <path fill="#D6C494" d="M866.361 376.685l1.978-5.364h36.363v8.677h-38.341v-3.313z"/>
    <path fill="#3CA591" d="M901.709 433.233h-34.317c-1.224 0-2.212-1.192-2.212-2.666v-53.286c0-.841.567-1.524 1.264-1.524h35.27c.698 0 1.265.683 1.265 1.524v54.428c-.005.84-.572 1.524-1.27 1.524z"/>
    <path fill="#46BCA5" d="M902.672 375.757l2.91-5.295-.271 56.918c0 .232-.052.464-.14.665l-2.202 4.931c-.276.621-1.057.377-1.046-.326l.749-56.893z"/>
    <path fill="#46BCA5" d="M904.977 369.401h-36.858c-.421 0-.734.477-.629.973.057.282.27.483.515.483h36.509c-.287 1.43-.885 2.741-1.739 3.802l-.244.307h-37.056c-.161 0-.291.157-.291.352v1.01c0 .2.135.364.296.364l36.874.583c.447.006.858-.295 1.061-.772l2.358-5.533c.302-.722-.13-1.569-.796-1.569z"/>
    <path fill="#9A605C" d="M878.551 390.306s-8.64-8.049-10.212-10.891c-1.572-2.843-1.572 4.737.786 8.049 0 0-1.963-.947-4.716-1.418-2.754-.47-7.464 7.103-2.748 15.623 4.695 8.488 18.462 0 18.462 0l-1.572-11.363z"/>
    <path fill="#D4DCFF" d="M878.161 387.464l-5.892 19.412s60.702 38.679 66.886 18.157c6.178-20.523-22.106-29.52-60.994-37.569z"/>
    <path fill="#A6B1D1" d="M919.011 394.805c-.104 0-.187-.095-.198-.22-1.161-20.077-3.113-27.336-3.133-27.405-.037-.126.02-.257.124-.301.105-.044.214.025.25.15.021.069 1.983 7.366 3.155 27.518.005.132-.073.245-.183.251-.005.007-.01.007-.015.007zM889.514 358.973c-4.289 0-7.793-.621-7.85-.627-.109-.019-.182-.138-.166-.27.015-.132.119-.219.223-.201.079.013 7.902 1.399 14.471 0 .104-.025.208.063.229.195.021.132-.052.251-.162.276-2.217.47-4.585.627-6.745.627z"/>
  </g>
  <g>
    <path fill="#9A605C" d="M1173.03 443.221s13.89.596 20.56 7.222c6.68 6.631-10.21 13.734-15.71 10.415-5.5-3.313-4.85-17.637-4.85-17.637z"/>
    <path fill="#E29E05" d="M1188.88 443.341v19.412s56.17 23.201 61.67 16.57c5.5-6.632 3.53-26.991 3.53-26.991s-43.6-8.044-65.2-8.991z"/>
    <path fill="#9A605C" d="M1246.39 609.001c-.39-.471 12.17 15.151 12.17 15.151l-5.1 9.468-15.72-13.257 8.65-11.362z"/>
    <path fill="#fff" d="M1244.58 626.123l8.88 7.491 5.1-9.467s-2.89-3.602-5.86-7.291l-8.12 9.267z"/>
    <path fill="#9B193E" d="M1249.55 630.333l6.3-9.568s12.15 4.806 14.9 10.484c0 0-6.68 26.043-11.79 31.721-5.1 5.685-20.42 6.155-23.56 4.261-3.15-1.895-8.25-13.734 14.14-19.889-.01.006.03-12.718.01-17.009z"/>
    <path fill="#560F26" d="M1266.61 626.707c-1.74 9.473-5.64 27.524-10.79 32.01-5.5 4.787-17.64 5.276-22.78 5.257.57 1.582 1.52 2.767 2.35 3.263 3.14 1.895 18.46 1.418 23.57-4.26 5.11-5.684 11.78-31.722 11.78-31.722-.78-1.618-2.32-3.168-4.13-4.548z"/>
    <path fill="#560F26" d="M1245.6 657.054a.182.182 0 01-.13-.063l-7.85-8.52a.274.274 0 01-.02-.332c.08-.094.2-.107.28-.019l7.41 8.037-1.84-10.653a.236.236 0 01.08-.239.159.159 0 01.21-.012l7.65 5.27-4.39-9.681a.28.28 0 010-.22c.03-.069.08-.119.15-.125l5.89-.947c.11-.019.21.075.22.2.02.132-.06.251-.17.264l-5.61.903 4.58 10.114c.04.094.02.207-.04.282a.167.167 0 01-.23.038l-7.87-5.421 1.87 10.848a.251.251 0 01-.09.251.173.173 0 01-.1.025z"/>
    <path fill="#242444" d="M1218.41 546.015s33.28 54.691 31.71 62.741c-1.57 8.05-12.57 19.889-12.57 19.889s-27.89-12.31-36.53-31.722-10.21-43.561-.39-48.298c9.82-4.73 17.78-2.61 17.78-2.61z"/>
    <path fill="#191930" d="M1215.75 580.586c-3.26-12.065.66-22.298 4.38-28.635-2.93-3.143-5.75-4.743-5.75-4.743s-3.93-3.313-13.75 1.418c-9.82 4.737-8.25 28.886.39 48.298 4.73 10.615 15.21 19.104 23.74 24.625-1.94-10.264-5.39-27.562-9.01-40.963z"/>
    <path fill="#141A33" d="M1133.1 492.956l-19.25-69.034h58.14l20.43 69.034h-59.32z"/>
    <path fill="#4D6BE8" d="M1138.68 492.956l-18.94-64.133h48.71l20.46 64.133h-50.23z"/>
    <path fill="#fff" d="M1174.44 492.955h14.47l-5.75-18.025-8.72 18.025zM1174.66 448.266l-6.21-19.444h-8.61l-25.79 48.455 4.63 15.679h12.56l23.42-44.69zM1138.99 428.823h-19.25l7.72 26.144 11.53-26.144z"/>
    <path fill="#141A33" d="M1303.74 524.245s-4.72 21.783-10.61 26.514c-5.89 4.737 7.86 5.684 7.86 5.684s12.57-19.888 10.6-30.303c-1.96-10.422-7.85-1.895-7.85-1.895zM1238.93 558.808l-21.24 106.954c-.39 1.958.84 3.84 2.51 3.84 1.12 0 2.1-.86 2.45-2.127l30.81-111.032-14.53 2.365zM1298.94 558.808l21.23 106.954c.39 1.958-.84 3.84-2.51 3.84-1.12 0-2.1-.86-2.45-2.127l-30.81-111.032 14.54 2.365z"/>
    <path fill="#311A12" d="M1295.69 564.016h-66.78c-4.88 0-8.84-4.768-8.84-10.653 0-5.886 3.96-10.654 8.84-10.654h66.78c4.88 0 8.84 4.768 8.84 10.654 0 5.885-3.96 10.653-8.84 10.653z"/>
    <path fill="#9A605C" d="M1199.65 637.88l6.67 19.412 10.61-2.365-1.18-21.307-16.1 4.26z"/>
    <path fill="#fff" d="M1206.32 657.292l10.61-2.365-.53-9.48-13.01 3.319 2.93 8.526z"/>
    <path fill="#9B193E" d="M1205.01 653.471l11.72-2.101s5.69 11.13 5.3 21.074c0 0-39.67 11.839-57.35 5.208 0 0-5.89-5.208-1.96-10.892 3.93-5.684 18.46-6.632 23.57-7.102 5.11-.471 18.72-6.187 18.72-6.187z"/>
    <path fill="#560F26" d="M1221.48 665.524c-30.06 9.994-51.22 8.821-59.72 7.66.87 2.654 2.92 4.467 2.92 4.467 17.68 6.632 57.35-5.207 57.35-5.207.1-2.29-.14-4.649-.55-6.92zM1180 665.58a.17.17 0 01-.13-.063l-6.29-7.102a.289.289 0 01-.01-.332c.08-.095.2-.101.28-.013l6.07 6.864 2.65-8.194a.209.209 0 01.14-.144c.06-.019.13.006.18.056l6.06 6.851 2.65-9.593a.275.275 0 01.12-.144.165.165 0 01.17.019l7.86 5.684c.09.069.12.213.06.326-.05.113-.17.151-.27.082l-7.64-5.527-2.67 9.662a.228.228 0 01-.14.156c-.07.019-.14 0-.19-.056l-6.07-6.864-2.65 8.194a.192.192 0 01-.14.144c-.01-.006-.02-.006-.04-.006z"/>
    <path fill="#311A12" d="M1307.88 539.29l-3.88-.828c-2.88-.615-4.8-3.934-4.29-7.404l15.4-104.444c.51-3.47 3.26-5.785 6.14-5.17l3.88.828c2.88.615 4.8 3.934 4.29 7.404l-15.4 104.444c-.51 3.469-3.25 5.785-6.14 5.17z"/>
    <path fill="#3D172E" d="M1272.13 387.746s-.37 10.61-1.94 13.922c-1.57 3.313-5.89-6.154-3.53-10.891 2.36-4.731 5.47-3.031 5.47-3.031z"/>
    <path fill="#242444" d="M1250 512.656s-57.47-6.889-74.02 25.749c-15 29.595 22.49 107.054 22.49 107.054s19.24-4.737 21.6-10.892c2.36-6.154-1.47-27.743-7.07-40.718-16.25-37.676 6.68-45.456 28.68-46.403 22-.948 62.85 9.944 60.49-19.412-2.35-29.356-52.17-15.378-52.17-15.378z"/>
    <path fill="#191930" d="M1302.17 528.035c-2.36-29.357-56.68-15.742-56.68-15.742s2.33 15.459 15.65 18.132c12.26 2.466 41.65 5.32 41.03-2.39zM1208.29 633.859a.173.173 0 01-.11-.038c-2.48-1.901-3.53-9.248-4.86-18.546-1.04-7.259-2.22-15.478-4.34-22.819-.67-2.29-1.39-4.63-2.1-6.882-4.41-14.117-8.96-28.71.26-40.656 10.55-13.653 36.43-12.398 36.69-12.385.11.006.19.119.19.245-.01.125-.1.225-.2.225h-.01c-.26-.012-25.96-1.254-36.38 12.235-9.06 11.726-4.75 25.541-.19 40.16.71 2.259 1.44 4.599 2.1 6.895 2.13 7.372 3.32 15.616 4.36 22.894 1.26 8.822 2.35 16.438 4.69 18.226.09.069.12.214.06.327-.04.075-.1.119-.16.119z"/>
    <path fill="#9A605C" d="M1231.7 478.375s-28.29-9.467-38.89-3.789c-10.61 5.678-13.75 12.31-12.18 14.681 1.57 2.366 1.57-3.312 4.32-5.684 2.75-2.365 5.89-2.842 5.89-2.842s-4.32 7.573-.39 8.52c3.93.947 4.72 2.365 11 0s16.89-5.208 23.57-.471 6.68-10.415 6.68-10.415z"/>
    <path fill="#141A33" d="M1218.36 495.183h-82.54c-1.93 0-3.51-1.894-3.51-4.228 0-2.334 1.58-4.229 3.51-4.229h82.54c1.94 0 3.51 1.895 3.51 4.229.01 2.334-1.56 4.228-3.51 4.228z"/>
    <path fill="#9A605C" d="M1232.48 361.426s-1.57 57.295 22 49.716l3.53 14.205 12.18 2.365 5.5-12.31-7.07-20.836s3.93-2.365 3.53-8.997c-.39-6.632-2.74-8.997-5.89-7.102 0 0 0-19.889-5.5-22.725-5.5-2.842-28.28 5.684-28.28 5.684z"/>
    <path fill="#3D172E" d="M1252.52 357.167s10.21 13.257 10.21 17.994 1.57 8.997 3.14 6.631c1.57-2.365 4.45-3.388 5.96.678 0 0 1.11-36.659-5.96-36.659-7.07-.013-13.35 11.356-13.35 11.356zM1238.03 369.551c-3.63 1.676-5.43 5.377-3.36 4.417 2.08-.953 6.99-6.092 3.36-4.417zM1246.49 369.081c3.63 1.675 5.43 5.377 3.36 4.417-2.08-.96-6.99-6.092-3.36-4.417z"/>
    <path fill="#000" d="M1245.83 394.478c-1.11 0-2.7-.351-3.69-2.146-1.6-2.879-.1-16.168-.03-16.732.01-.132.11-.22.22-.201.11.019.18.138.17.27-.02.138-1.55 13.671-.04 16.406 1.48 2.673 4.48 1.807 4.51 1.795.1-.032.21.043.24.169.02.125-.04.257-.14.289-.02 0-.53.15-1.24.15zM1246.23 401.907c-.09 0-.17-.075-.19-.182-.03-.125.04-.257.15-.282.34-.094 8.44-2.428 7.31-11.099-.02-.132.06-.251.16-.27.1-.025.21.069.22.195 1.2 9.11-7.52 11.607-7.61 11.632-.01.006-.03.006-.04.006zM1267.05 391.492a.195.195 0 01-.11-.038.252.252 0 01-.05-.326l3.53-6.632c.06-.106.18-.144.27-.069.1.069.12.22.06.327l-3.53 6.631c-.04.069-.1.107-.17.107z"/>
    <path fill="#000" d="M1269.8 391.015a.201.201 0 01-.12-.05l-1.66-1.556a.26.26 0 01-.04-.332c.07-.101.19-.12.28-.044l1.66 1.556a.26.26 0 01.04.332.19.19 0 01-.16.094zM1250.46 412.002c-5.2 0-7.84-3.325-7.88-3.369a.29.29 0 01.01-.333.178.178 0 01.28.013c.04.05 3.92 4.9 11.57 2.597.06-.025 6.98-2.396 8.5-7.428.04-.126.15-.188.25-.145.11.044.16.182.12.302-1.59 5.264-8.48 7.623-8.77 7.723-1.5.458-2.86.64-4.08.64z"/>
    <path fill="#0E1323" d="M1247.79 378.781c.13 1.298-.29 2.421-.94 2.515-.65.088-1.27-.89-1.4-2.189-.12-1.299.3-2.422.95-2.516.65-.088 1.27.891 1.39 2.19zM1239.94 379.728c.12 1.299-.3 2.422-.95 2.516-.64.088-1.27-.891-1.39-2.19-.13-1.298.29-2.421.94-2.516.65-.087 1.27.891 1.4 2.19z"/>
    <path fill="#602948" d="M1232.46 365.467s-10.58-.257-7.05-12.096c3.54-11.839 18.07-17.047 17.68-11.363 0 0 10.21-9.467 10.61-2.365 0 0 12.96-8.997 14.53 1.895 1.57 10.892-8.81 16.708-14.42 17.348-5.61.646-21.35 6.581-21.35 6.581z"/>
    <path fill="#FFB400" d="M1256.56 419.499l5.78 4.43s9.32-3.47 12.12-12.153c0 0 4.37.314 8.3 5.998 0 0 18.86 27.939 21.21 53.028 2.36 25.09-.48 31.314-1.81 36.014-1.34 4.699-25.69 11.807-33.94 9.913-8.25-1.895-25.53-8.521-27.1-13.734-1.57-5.208 3.15-53.506 10.61-71.5 0 .007 1.41-4.592 4.83-11.996z"/>
    <path fill="#C4870E" d="M1258.02 437.894a.228.228 0 01-.13-.05l-3.93-3.789a.275.275 0 01-.03-.333c.07-.1.19-.119.28-.038l3.7 3.577 3.45-12.461c.04-.125.14-.188.25-.15.1.044.16.175.12.301l-3.53 12.786a.208.208 0 01-.13.151c-.02 0-.04.006-.05.006zM1265.87 437.895a.213.213 0 01-.06-.012c-.06-.026-.1-.082-.13-.151l-2.74-9.944c-.04-.126.02-.258.12-.302.11-.044.21.026.25.151l2.67 9.65c1.69-1.381 12.87-10.591 14.65-14.889.05-.119.17-.163.26-.106.1.056.14.2.09.319-1.96 4.737-14.46 14.814-14.99 15.24a.186.186 0 01-.12.044z"/>
    <path fill="#E29E05" d="M1285.07 421.407c-4.72 7.065-28.32 41.609-41.42 46.127-2.35 16.714-1.74 37.55-.87 40.411 1.57 5.208 17.02 12.611 25.27 14.506 8.25 1.894 32.67 3.256 34-1.45 1.33-4.705 4.28-25.102 1.92-50.192-1.84-19.657-13.8-41.045-18.9-49.402z"/>
    <path fill="#C4870E" d="M1256.05 496.607c-.1 0-.19-.094-.2-.219-.77-12.661 5.44-62.992 5.5-63.5.02-.132.12-.219.23-.201.11.019.18.138.16.27-.06.508-6.27 50.782-5.49 63.393 0 .132-.08.245-.18.251-.01.006-.01.006-.02.006z"/>
    <path fill="#FFB400" d="M1223.84 470.803l-7.07 22.254s50.67 35.988 67.96 10.415c17.29-25.567 12.57-75.76 0-72.447-17.03 4.492-16.5 40.248-16.5 40.248s-5.5-3.789-4.32 1.418c1.18 5.214-40.07-1.888-40.07-1.888z"/>
    <path fill="#C4870E" d="M1271.76 481.926a.182.182 0 01-.13-.063l-5.89-6.632a.26.26 0 01-.01-.332c.07-.094.19-.1.27-.013l5.29 5.948-2.46-8.062c-.04-.125.01-.257.11-.301.1-.044.22.019.25.138l2.75 8.997c.03.1 0 .219-.08.276-.02.031-.06.044-.1.044zM1227.37 494.236c-.04 0-.07-.013-.11-.044-.09-.075-.11-.226-.04-.333 3.08-5.107 5.05-17.768 5.07-17.893.02-.132.13-.214.23-.189.11.026.18.145.16.277-.08.527-2.01 12.899-5.14 18.088-.05.062-.1.094-.17.094z"/>
  </g>
  <g>
    <path fill="#D6C494" d="M547.28 745.968s56.773-27.426 77.414-49.051l34.249 28.481s-5.16 191.999-7.976 208.878c-2.816 16.879-63.339 41.139-63.339 41.139L547.28 745.968z"/>
    <path fill="#C4B287" d="M590.637 722.232c-21.517 13.175-43.357 23.729-43.357 23.729l40.348 229.448s60.523-24.267 63.339-41.14c1.306-7.835 3.121-53.44 4.688-100.039l-65.018-111.998zM624.632 696.973c-.143 16.397-.634 44.851-2.288 50.044 0 0 20.982-5.284 36.593-21.604v-.021l-34.249-28.482c-.013.021-.038.042-.056.063z"/>
    <path fill="#D6C494" d="M624.694 696.91s5.16 38.504 1.877 44.837l32.372-16.348s-19.708-20.046-34.249-28.489z"/>
    <path fill="#A08F6D" d="M567.92 773.129c-.279 0-.547-.189-.652-.503-.143-.406.031-.867.397-1.028l52.08-23.211c.361-.161.771.035.914.447.143.405-.031.867-.398 1.027l-52.079 23.212a.593.593 0 01-.262.056zM577.774 798.976c-.261 0-.51-.168-.634-.448-.168-.391-.025-.866.329-1.055.597-.322 14.635-7.954 19.771-10.051 2.138-.873 4.979-1.3 7.982-1.747 4.371-.65 8.89-1.328 11.564-3.432 4.768-3.753 23.873-7.367 24.688-7.513.379-.077.746.216.808.65.062.433-.193.838-.578.908-.193.035-19.603 3.705-24.11 7.255-2.953 2.321-7.647 3.027-12.185 3.705-2.922.44-5.689.852-7.685 1.663-5.066 2.069-19.496 9.911-19.639 9.988a.623.623 0 01-.311.077zM584.346 827.464a.665.665 0 01-.56-.314c-.236-.35-.174-.846.137-1.111.485-.42 12.061-10.198 22.076-9.121 5.739.615 10.588-2.069 15.282-4.662 3.108-1.72 6.043-3.341 8.952-3.775 6.92-1.034 11.16-2.09 11.203-2.097.38-.09.753.175.84.602.087.426-.156.845-.535.943-.044.014-4.333 1.077-11.321 2.125-2.686.405-5.521 1.971-8.517 3.627-4.645 2.566-9.904 5.473-16.04 4.816-9.463-1.006-20.977 8.709-21.088 8.807a.687.687 0 01-.429.16zM582.934 851.2a.692.692 0 01-.609-.391c-.199-.378-.087-.86.249-1.083.988-.65 24.252-15.95 33.77-14.343 7.2 1.216 14.324-.713 20.61-2.418 1.747-.475 3.4-.923 4.955-1.272.379-.091.752.189.827.622.074.426-.168.846-.554.93-1.523.342-3.164.789-4.899 1.258-6.092 1.649-13.683 3.704-21.15 2.446-9.033-1.524-32.614 13.986-32.851 14.139a.563.563 0 01-.348.112z"/>
    <path fill="#F2E2AF" d="M349.517 846.448s177.352-101.801 207.381-175.651l94.305 315.431-209.724 111.302s-73.193-225.236-91.962-251.082z"/>
    <path fill="#D6C494" d="M566.876 704.193c-40.069 82.894-121.928 232.362-157.62 296.997 17.731 51.77 32.217 96.34 32.217 96.34l209.724-111.302-84.321-282.035z"/>
    <path fill="#A08E68" d="M388.696 867.025a.678.678 0 01-.491-.224.863.863 0 01-.018-1.118c.13-.154 13.497-15.538 36.344-27.07 15.35-7.751 29.251-20.011 42.699-31.865 6.733-5.941 13.093-11.546 19.589-16.593 19.559-15.181 43.103-24.274 43.339-24.365.367-.139.771.084.895.497.125.412-.074.859-.441 1.006-.236.091-23.6 9.114-42.991 24.169-6.459 5.019-12.807 10.61-19.521 16.537-13.51 11.917-27.479 24.239-42.991 32.068-22.586 11.399-35.779 26.573-35.909 26.727a.702.702 0 01-.504.231zM405.116 882.317a.67.67 0 01-.51-.245.864.864 0 01.025-1.118c.105-.112 10.681-11.295 32.608-20.738 24.259-10.442 47.622-33.206 54.206-39.937 10.295-10.519 43.824-26.378 45.241-27.042.361-.168.771.021.92.427.149.405-.019.866-.379 1.034-.348.161-34.728 16.418-44.837 26.755-6.627 6.773-30.159 29.698-54.648 40.238-21.641 9.317-32.036 20.297-32.141 20.402a.64.64 0 01-.485.224zM405.116 925.574a.638.638 0 01-.33-.091c-.342-.203-.472-.685-.292-1.069.087-.182 8.847-18.319 30.488-24.135 15.12-4.06 35.505-18.515 50.395-29.061 6.08-4.306 11.327-8.031 14.672-9.911 11.054-6.214 51.993-45.39 52.41-45.788.298-.286.739-.245.994.091a.857.857 0 01-.081 1.118c-1.691 1.615-41.479 39.693-52.689 45.997-3.282 1.846-8.505 5.55-14.554 9.834-14.97 10.61-35.468 25.141-50.817 29.265-21.033 5.654-29.488 23.163-29.568 23.338a.716.716 0 01-.628.412zM424.351 939.812a.664.664 0 01-.547-.294c-.243-.342-.199-.838.105-1.111 1.673-1.509 41.101-37.078 56.538-42.341 15.232-5.187 58.067-32.879 58.502-33.158.336-.217.765-.091.963.293.193.378.081.86-.261 1.084-1.765 1.146-43.413 28.062-58.794 33.304-15.176 5.172-55.654 41.692-56.065 42.055a.675.675 0 01-.441.168zM424.351 983.062a.682.682 0 01-.305-.077c-.348-.189-.497-.664-.323-1.055.292-.678 7.547-16.796 40.759-29.419 32.838-12.483 65.191-37.106 65.514-37.358.324-.245.759-.154.976.21.218.363.137.852-.186 1.097-.323.252-32.832 24.994-65.857 37.547-32.564 12.378-39.869 28.447-39.944 28.608-.124.286-.373.447-.634.447z"/>
    <g>
      <path fill="#FFB400" d="M672.316 870.715s98.061-137.67 109.786-151.383c0 0 27.212 5.277 49.264 33.758 0 0-73.659 113.41-90.551 129.234-16.891 15.817-68.499-11.609-68.499-11.609z"/>
      <path fill="#EA6027" d="M772.957 756.515l4.694-5.801-11.788-9.939a6149.235 6149.235 0 00-3.873 5.277l10.967 10.463zM742.456 799.241l4.694-5.801-12.129-10.225c-1.269 1.754-2.543 3.522-3.818 5.291l11.253 10.735zM708.207 846.189l4.694-5.802-11.806-9.952c-1.3 1.817-2.574 3.592-3.818 5.332l10.93 10.422z"/>
      <g>
        <path fill="#F2E2AF" d="M834.418 774.45l59.118-38.505-16.892 63.296s-50.202 40.091-42.226-24.791z"/>
        <path fill="#D21C4B" d="M863.974 755.201s3.481 17.11 20.274 15.545l9.288-34.793-29.562 19.248z"/>
        <path fill="#B71C48" d="M834.418 774.451l7.504 15.824-76.942 86.507-9.207-12.706 78.645-89.625zM859.286 802.408l17.358-3.167-68.033 77.541-19.701-3.167 70.376-71.207z"/>
        <path fill="#D21C4B" d="M841.922 790.274l17.364 12.133-70.376 71.208-23.929 3.166 76.941-86.507z"/>
      </g>
    </g>
    <path fill="#EAEADA" d="M731.197 1265c205.224 0 371.593-30.23 371.593-67.52 0-37.29-166.369-67.51-371.593-67.51-205.223 0-371.59 30.22-371.59 67.51 0 37.29 166.367 67.52 371.59 67.52z"/>
    <g>
      <path fill="#3CA591" d="M1105.84 757.305s-70.85 26.902-67.09 125.012c0 0 68.97-25.847 67.09-125.012zM1013.11 959.473s9.3-41.006 49.72-54.545c40.42-13.538 56.94-28.552 56.94-28.552s-22.36 95.979-106.66 83.097zM1010.45 977.862s1.61-79.553-47.253-105.61c0 0-20.908 65.708 47.253 105.61z"/>
      <path fill="#33917F" d="M1039.2 883.799c4.14-22.254 34.76-69.377 35.07-69.845.23-.349.16-.846-.15-1.104-.31-.259-.75-.182-.98.168-1.27 1.943-31.1 47.87-35.31 70.46-2.07 11.127-8.4 28.09-14.52 44.487-4.38 11.742-8.59 23.016-10.74 31.012a.863.863 0 00-.16.58c-.79 3.012-1.27 5.536-1.34 7.395-.09 2.439-.56 5.493-1.26 8.834-9.8-11.7-28.018-55.544-28.21-55.999-.162-.398-.585-.566-.933-.384-.354.182-.503.657-.342 1.048.796 1.923 19.26 46.333 29.085 57.139-3.21 14.076-9.93 32.11-10.017 32.34-.15.4.018.87.373 1.03.087.05.18.07.274.07.27 0 .53-.18.65-.49.35-.94 6.79-18.217 10.01-32.182a.642.642 0 00.29-.216.85.85 0 00-.02-1.056c.83-3.795 1.4-7.29 1.5-10.071.06-1.769.53-4.194 1.3-7.115 2.55-2.146 24.75-20.549 48.06-28.923.37-.132.57-.58.45-.992-.11-.419-.51-.643-.88-.51-20.91 7.52-40.92 23.002-46.92 27.88 2.26-7.695 6.11-18.039 10.12-28.768 6.15-16.481 12.5-33.514 14.6-44.788z"/>
      <path fill="#46BCA5" d="M940.922 918.977s-18.297-36.394 5.16-72.795c23.457-36.394 42.226-61.185 42.226-61.185s13.132 66.462-47.386 133.98zM953.592 973.305s-8.915-56.963 72.258-85.976c0 0-14.08 86.507-72.258 85.976zM947.959 953.266s-35.188-48.527-94.305-24.267c0 0 37.065 50.638 94.305 24.267z"/>
      <path fill="#3CA591" d="M988.42 930.132c-.218-.364-.659-.447-.976-.203-.237.182-23.134 18.033-33.771 41.412-4.781-17.026-9.779-36.093-12.055-52.483-4.588-32.997 20.69-66.015 20.945-66.343a.865.865 0 00-.068-1.118.654.654 0 00-.995.076c-.062.084-6.571 8.52-12.409 20.989-5.403 11.533-11.321 28.992-8.872 46.648 1.437 10.33 3.942 21.695 6.789 32.948-20.59-8.15-53.957-14.79-54.299-14.86-.386-.07-.746.21-.814.643-.069.434.186.839.572.916.348.07 34.641 6.891 55.02 15.174 2.624 10.218 5.496 20.29 8.082 29.327 3.693 12.931 6.615 23.142 7.168 28.132.044.4.348.69.697.69h.087c.385-.06.659-.45.609-.89-.572-5.14-3.507-15.414-7.224-28.421-.852-2.978-1.735-6.081-2.63-9.254 10.152-23.722 33.715-42.09 33.951-42.279.33-.251.41-.741.193-1.104z"/>
      <path fill="#6F1E49" d="M956.874 1124.16h-5.16c-63.743 0-115.419-58.09-115.419-129.754h235.995c0 71.664-51.67 129.754-115.416 129.754z"/>
      <path fill="#561537" d="M1038.85 994.406H836.295c0 38.214 14.691 72.554 38.067 96.304l152.898-84.69 11.59-11.614z"/>
      <path fill="#561537" d="M836.295 994.406c0 19.814 3.954 38.584 11.023 55.384l222.362-.08c3.95-16.16 2.62-35.49 2.62-55.304H836.295z"/>
      <path fill="#4C1233" d="M1048.51 994.406H836.289c0 12.914 1.685 25.394 4.812 37.174v.01c.019.05.038.11.05.17a139.558 139.558 0 004.868 14.83l1.063 3.19h100.61l100.528-55.304.29-.07z"/>
    </g>
    <g>
      <path fill="#3F56DB" d="M1105.44 1115.15c1.08 0 1.96-.98 1.96-2.2v-2.46c0-1.21-.88-2.2-1.96-2.2l-270.083.06v58.55l270.083-.02c1.08 0 1.96-.99 1.96-2.21v-2.46c0-1.21-.88-2.2-1.96-2.2h-2.65v-44.84h2.65v-.02z"/>
      <path fill="#D6C494" d="M1102.6 1160H980.083c-3.712 0-6.721-3.38-6.721-7.56v-29.73c0-4.17 3.009-7.56 6.721-7.56H1102.6c.11 0 .19.1.19.21v44.42c0 .12-.08.22-.19.22z"/>
      <path fill="#E9E9D9" d="M1102.79 1128.39H996.52c-.391 0-.702-.36-.702-.79 0-.44.317-.79.702-.79h106.27c.39 0 .7.35.7.79 0 .43-.31.79-.7.79zM1090.12 1137.61h-80.23c-.39 0-.7-.36-.7-.79 0-.43.32-.79.7-.79h80.23c.4 0 .71.36.71.79 0 .43-.32.79-.71.79zM1102.79 1146.05h-75.07c-.39 0-.71-.35-.71-.79 0-.44.32-.79.71-.79h75.07c.39 0 .7.36.7.79.01.44-.31.79-.7.79z"/>
      <path fill="#597DEF" d="M972.56 1108.34s-4.955.75-4.955 6l-93.783.07 8.25-6.13 90.488.06z"/>
      <path fill="#3655BA" d="M972.56 1166.89s-4.955-.02-4.955-4.87H866.461l.161 5.25 105.938-.38z"/>
      <path fill="#4D6BE8" d="M967.431 1161.88H835.593v-47.47l132.018-.07-.18 47.54z"/>
    </g>
    <g>
      <path fill="#141A33" d="M877.303 1167.16H460.484l49.258-287.66c1.504-8.771 8.33-15.111 16.276-15.111h384.689c10.115 0 17.868 10.1 16.394 21.346l-34.964 267.015c-1.082 8.28-7.398 14.41-14.834 14.41z"/>
      <path fill="#fff" d="M877.409 1166.89H481.361l45.254-273.04c1.461-8.821 8.312-15.223 16.294-15.223h351.932c10.084 0 17.831 10.036 16.407 21.261l-33.839 267.002z"/>
      <path fill="#C09C44" d="M875.003 921.618H549.394c-5.31 0-9.618-4.843-9.618-10.812 0-5.969 4.308-10.813 9.618-10.813h325.609c5.309 0 9.618 4.844 9.618 10.813s-4.309 10.812-9.618 10.812z"/>
      <path fill="#F2E2AF" d="M712.665 1139.99H509.511c-5.309 0-9.617-4.85-9.617-10.81 0-5.97 4.308-10.82 9.617-10.82h203.154c5.309 0 9.617 4.85 9.617 10.82 0 5.96-4.308 10.81-9.617 10.81zM719.702 1094.63H516.549c-5.309 0-9.618-4.85-9.618-10.82 0-5.96 4.309-10.81 9.618-10.81h203.153c5.309 0 9.618 4.85 9.618 10.81 0 5.97-4.302 10.82-9.618 10.82z"/>
      <path fill="#FFB400" d="M727.212 1049.27H524.059c-5.309 0-9.617-4.85-9.617-10.82 0-5.97 4.308-10.81 9.617-10.81h203.153c5.31 0 9.618 4.84 9.618 10.81 0 5.97-4.308 10.82-9.618 10.82zM737.533 1003.9H534.38c-5.31 0-9.618-4.846-9.618-10.815 0-5.969 4.308-10.813 9.618-10.813h203.153c5.309 0 9.617 4.844 9.617 10.813 0 5.976-4.308 10.815-9.617 10.815z"/>
      <path fill="#C09C44" d="M744.57 958.536H541.417c-5.309 0-9.618-4.843-9.618-10.812 0-5.969 4.309-10.813 9.618-10.813H744.57c5.309 0 9.618 4.844 9.618 10.813 0 5.976-4.309 10.812-9.618 10.812z"/>
      <path fill="#F2E2AF" d="M859.128 1048.82c19.568-21.88 19.656-57.45.198-79.438-19.458-21.987-51.095-22.069-70.662-.182-19.568 21.887-19.656 57.45-.198 79.44 19.459 21.99 51.095 22.07 70.662.18z"/>
      <path fill="#45BCBF" d="M823.862 1012.86c-15.679 0-28.387 18.66-28.387 41.68 0 .2.006.41.013.61 8.057 6.26 17.836 9.93 28.374 9.93s20.317-3.67 28.374-9.93c0-.2.013-.4.013-.61 0-23.01-12.714-41.68-28.387-41.68zM836.499 1001.5c7.158-8.036 7.179-21.06.047-29.086-7.133-8.025-18.718-8.013-25.876.028-7.157 8.04-7.178 21.064-.046 29.088 7.133 8.03 18.717 8.01 25.875-.03zM852.249 1128.91H781.4c-11.141 0-20.175-10.16-20.175-22.68 0-12.53 9.034-22.68 20.175-22.68h70.849c11.141 0 20.174 10.15 20.174 22.68 0 12.52-9.033 22.68-20.174 22.68z"/>
      <path fill="#3BA8A8" d="M862.55 1086.73c1.797 3.39 2.829 7.35 2.829 11.59 0 12.52-9.033 22.68-20.174 22.68h-70.849c-3.768 0-7.287-1.16-10.308-3.18 3.519 6.64 9.966 11.09 17.346 11.09h70.848c11.141 0 20.175-10.16 20.175-22.68.006-8.29-3.954-15.55-9.867-19.5z"/>
      <path fill="#222D51" d="M730.625 870.218c.647 3.271-1.89 6.123-4.799 5.396-1.467-.363-2.649-1.698-2.972-3.341-.646-3.271 1.89-6.122 4.8-5.396 1.467.357 2.648 1.692 2.971 3.341z"/>
      <path fill="#252F51" d="M867.729 1178.49H353.975c-13.218 0-23.93-12.04-23.93-26.9h561.613c0 14.86-10.712 26.9-23.929 26.9z"/>
      <path fill="#36446B" d="M698.826 1178.49H353.975c-13.218 0-23.93-12.04-23.93-26.9h392.704c.006 14.86-10.712 26.9-23.923 26.9z"/>
      <path fill="#141A33" d="M841.456 1164.78H741.99c-2.07 0-3.755-1.89-3.755-4.22s1.679-4.22 3.755-4.22h99.466c2.07 0 3.755 1.88 3.755 4.22 0 2.33-1.685 4.22-3.755 4.22z"/>
    </g>
    <g>
      <path fill="#1C0D09" d="M420.739 958.955s1.417 10.785 4.998 17.907c3.581 7.122 8.045-14.349 4.856-17.355-3.196-3.012-9.854-.552-9.854-.552z"/>
      <path fill="#9A605C" d="M420.422 999.752l7.777-37.288s-7.964 1.349-9.593-5.885c-1.629-7.234 4.247-9.38 4.247-9.38s-.61-13.342.814-18.039c1.424-4.697 22.288-14.412 29.767-4.62 7.473 9.792 6.441 62.359-10.289 59.081l-3.898 20.209-18.825-4.078z"/>
      <path fill="#1C0D09" d="M419.949 949.38s2.064-1.873 2.904-2.181c.839-.307 4.47-.594 5.707 2.09 0 0 2.754-16.145 1.654-18.347-1.101-2.209-6.087-8.212-8.493-3.676-2.4 4.522-1.772 22.114-1.772 22.114z"/>
      <path fill="#000" d="M427.901 959.361c-.087.035-.187 0-.249-.091l-4.451-6.898a.27.27 0 01.049-.35c.1-.084.237-.056.311.056l4.452 6.899a.27.27 0 01-.05.349.302.302 0 01-.062.035z"/>
      <path fill="#000" d="M423.406 958.739a.19.19 0 01-.212-.049.275.275 0 01-.024-.35l2.145-2.782a.207.207 0 01.31-.027c.094.09.1.244.025.349l-2.145 2.782a.207.207 0 01-.099.077z"/>
      <path fill="#311A12" d="M425.464 932.151s-6.82-2.725-2.593-8.967c4.228-6.241 13.927-16.055 26.025-9.52 12.104 6.536 16.711 13.476 15.256 19.347 0 0-.659 11.847-7.479 9.121-6.82-2.726-3.307-6.619-3.307-6.619s-7.15 4.18-10.32-1.964c0 .007-4.787 5.927-17.582-1.398z"/>
      <path fill="#000" d="M448.361 964.387a6.787 6.787 0 01-1.449.363c-.124.014-.23-.084-.242-.224-.013-.132.075-.258.199-.272.037-.007 3.854-.455 3.873-3.334.019-3.083-1.163-11.966-1.175-12.057-.019-.133.062-.265.187-.279.118-.021.23.069.248.209.05.364 1.2 9.01 1.181 12.134-.012 2.034-1.591 3.005-2.822 3.46zM447.615 971.809c-.006 0-.019.007-.025.007-2.064.447-3.712.084-4.905-1.069-2.151-2.09-2.021-5.976-2.015-6.144.007-.14.106-.245.23-.238.125.007.218.119.212.259 0 .035-.125 3.816 1.865 5.745 1.082 1.049 2.605 1.377 4.526.958.118-.028.236.063.261.195a.27.27 0 01-.149.287zM446.937 983.705a6.171 6.171 0 01-3.848.154c-4.066-1.14-7.212-5.606-7.342-5.794a.276.276 0 01.037-.35c.093-.084.236-.063.311.042.031.042 3.183 4.522 7.1 5.619 3.867 1.084 6.559-2.152 6.59-2.187a.205.205 0 01.31-.014.272.272 0 01.013.349c-.019.021-1.219 1.468-3.171 2.181z"/>
      <path fill="#1C0D09" d="M443.642 948.464s-4.209 3.103-4.196 1.538c.012-1.573 3.226-5.634 5.191-4.508 1.672.957-.995 2.97-.995 2.97zM454.174 945.214c-1.542 1.202 1.343 2.796 1.343 2.796s1.206.65 2.35 1.062a93.978 93.978 0 00-.031-2.963c-1.213-.993-2.698-1.643-3.662-.895zM454.939 955.803c-.112 1.091-.697 1.909-1.3 1.832-.603-.077-1.007-1.028-.895-2.118.112-1.09.696-1.908 1.299-1.831.61.084 1.008 1.027.896 2.117zM446.253 954.958c-.111 1.09-.696 1.908-1.299 1.831-.603-.077-1.007-1.028-.895-2.118.112-1.09.696-1.908 1.299-1.831.603.084 1.007 1.027.895 2.118z"/>
      <path fill="#EA6027" d="M422.498 989.758l18.26 6.842 1.753 8.98s32.614 9.63 55.623 41.69c38.645 53.86-9.027 42.83-23.226 34.85-7.983-4.48-24.446 28.17-39.46 31.15-9.947 1.97-30.811-25.91-58.259-34.95-13.97-4.6-44.017 9.18-46.323 6.47-6.764-7.99 7.019-85.666 86.92-85.666l4.712-9.366z"/>
      <path fill="#AA391B" d="M435.927 1007.67c-9.798 0-15.996-5.3-16.065-5.37-.093-.08-.112-.23-.037-.35.075-.1.211-.12.311-.04.081.07 8.026 6.86 20.137 4.92.118-.02.23.07.248.21a.254.254 0 01-.186.28c-1.536.25-3.009.35-4.408.35z"/>
      <path fill="#CE4D20" d="M478.961 1059.7c-8.828-2.48-7.317-20.58-7.317-20.58s-59.155 6.17-73.722 1.7c-14.566-4.46-23.568-16.37-23.568-16.37-9.643 18.49-3.78 76.89 4.861 95.69 23.637 8.22 48.313 12.96 56.128 11.41 14.541-2.89 20.839-3.3 30.09-5.7 5.446-13.55 19.49-64.47 13.528-66.15z"/>
      <path fill="#AA391B" d="M374.969 1054.96c-.112 0-.205-.09-.217-.22-.019-.14-1.76-15.06-.883-27.84.883-12.9 8.872-17.53 8.952-17.57.112-.07.243-.02.299.11.056.13.012.27-.1.34-.081.04-7.846 4.56-8.71 17.16-.87 12.73.864 27.6.883 27.74.019.13-.068.26-.193.28h-.031z"/>
      <path fill="#FFB400" d="M428.697 1030.45c-.603-.1-1.15-.5-1.411-1.11-.255-.6-.162-1.2 1.541-.93 3.09.5 5.627 1.17 6.565.08.939-1.08 2.263.91.056 1.9-1.691.77-5.209.31-6.751.06z"/>
      <path fill="#fff" d="M451.358 1021.2s7.721-12.75 14.38-15.09l2.841 11.48-17.221 3.61z"/>
      <path fill="#F2E2AF" d="M451.358 1021.2s9.86-8.73 18.744-12.02l6.994 4.12-22.711 11.43-3.027-3.53z"/>
      <path fill="#F2E2AF" d="M451.961 1021.07s-6.087-15.38-29.444-17.86l-5.888 8.81s31.44 13.79 35.332 9.05z"/>
      <path fill="#3F56DB" d="M454.429 1022.25l24.041-11.9-5.303 53-24.837 6.42 6.099-47.52zM449.15 1021.15l-33.776-13.13-5.733 52 32.963 9.14 6.546-48.01z"/>
      <path fill="#3750B7" d="M449.151 1021.15s3.549-.92 5.278 1.1l-6.093 47.52s-3.133 2.42-5.732-.61l6.547-48.01z"/>
      <path fill="#9A605C" d="M413.72 1046.9s15.511-20.39 14.243-16.14c-1.181 3.98-4.911 8.69-2.735 9.04 0 0 14.889-14.74 13.634-11-1.256 3.75-7.162 9.33-7.162 9.33s11.663-9.13 11.507-7.1c-.155 2.03-11.085 10.04-11.085 10.04s11.875-7.67 11.788-5.14c-.087 2.53-9.556 8.25-9.556 8.25s9.033-5.64 9.083-2.13c.05 3.5-16.755 11.05-20.609 12.25-3.855 1.21-10.482 4.92-9.108-7.4z"/>
      <path fill="#EA6027" d="M413.969 1042.34l7.099 15.31s-68.057 49.71-86.435 32.21c-13.316-12.68-6.378-34.09 79.336-47.52z"/>
      <path fill="#9A605C" d="M482.492 1058.08s-10.861-23.9-10.506-19.42c.329 4.17 2.978 9.74.789 9.51 0 0-11.427-18.24-10.979-14.27.448 3.97 5.036 10.95 5.036 10.95s-9.45-11.93-9.724-9.91c-.267 2.02 8.704 12.66 8.704 12.66s-9.96-10.56-10.395-8.08c-.441 2.48 7.579 10.53 7.579 10.53s-8.362-6.87-8.393-4.46c-.031 2.49 14.001 15.14 17.501 17.31 3.5 2.18 9.176 7.51 10.388-4.82zM369.523 1161.63l-21.753 8.3 1.535 14.5 28.76-4.43-8.542-18.37z"/>
      <path fill="#FFB400" d="M359.731 1165.37l-11.961 4.56 1.535 14.5 13.044-2.01-2.618-17.05z"/>
      <path fill="#4C1233" d="M354.124 1167.5s-1.119 12.15.957 16.33c2.077 4.19-7.392 35.91-8.617 40.38-2.343 8.55-14.274 10.46-17.93 1.85-3.661-8.62-3.475-53.2 2.245-57.7 5.72-4.5 23.345-.86 23.345-.86z"/>
      <path fill="#230819" d="M330.779 1168.36c-5.72 4.5-5.906 49.08-2.245 57.7.945 2.22 2.438 3.74 4.178 4.63-4.731-19.38.212-50.7 3.003-64.2-1.996.34-3.73.92-4.936 1.87z"/>
      <path fill="#4C2816" d="M374.242 1184.65c-2.313-.05-4.358-1.71-5.129-4.16-1.704-5.42-4.352-15.39-3.115-21.98 1.766-9.43 27.809-20.84 43.706-17.87 15.89 2.98 31.626-15.27 50.326-25.8 19.609-11.04 49.363-5.34 52.975 3.97 3.128 8.07 6.391 27.82-28.809 42.2-32.509 13.27-91.098 24.02-109.954 23.64z"/>
      <path fill="#381D12" d="M494.634 1155.99c2.077-5.38 1.853-10.4-2.822-13.86-11.371-8.38-24.377-15.8-40.914-21.61-11.794 8.23-30.308 22.17-41.194 20.12-15.891-2.97-41.94 8.44-43.706 17.87a1.99 1.99 0 00-.025.17c17.682.53 59.416 2.68 66.684 11.24 1.498 1.77 3.326 3.44 5.365 4.99 16.755-3.91 33.454-8.71 46.168-13.91 3.966-1.61 7.423-3.29 10.444-5.01z"/>
      <path fill="#9A605C" d="M465.135 1145.25l19.875 12.95-4.041 13.88-27.423-10.7 11.589-16.13z"/>
      <path fill="#FFB400" d="M474.081 1151.08l10.929 7.12-4.041 13.88-12.44-4.85 5.552-16.15z"/>
      <path fill="#4C1233" d="M479.204 1154.42s-1.032 12.15-3.799 15.8c-2.767 3.65.964 36.84 1.38 41.49.802 8.91 12.161 13.42 17.259 5.78 5.098-7.64 12.72-51.39 7.895-57.07-4.812-5.67-22.735-6-22.735-6z"/>
      <path fill="#230819" d="M501.945 1160.42c4.819 5.68-2.803 49.44-7.895 57.07-1.312 1.97-3.046 3.13-4.905 3.62 8.032-17.95 8.666-49.75 8.293-63.61 1.884.77 3.488 1.73 4.507 2.92z"/>
      <path fill="#4C2816" d="M459.185 1169.47c1.958.29 3.867-.8 4.818-2.74 2.804-5.75 8.275-17.54 7.945-21.61-.441-5.46-74.43-35.7-83.935-39.42-23.333-9.12-57.651-12.04-61.741 10.64-4.819 26.68 39.67 39.38 132.913 53.13z"/>
      <g>
        <path fill="#230819" d="M474.597 1200.94a.23.23 0 01-.205-.15.266.266 0 01.056-.28l10.034-10.35-11.614 2.34a.23.23 0 01-.23-.13.268.268 0 01.031-.28l11.508-14.33-11.24 6.77a.213.213 0 01-.299-.1c-.056-.12-.018-.27.094-.33l12.359-7.45a.222.222 0 01.28.07c.068.09.062.23-.013.32l-11.93 14.84 11.725-2.35c.1-.02.193.03.236.13a.26.26 0 01-.049.29l-10.14 10.45 7.33-.45c.13-.01.223.1.23.23.006.14-.087.25-.206.26l-7.945.49c-.006.01-.006.01-.012.01z"/>
      </g>
      <g>
        <path fill="#230819" d="M349.225 1219.3c-.075 0-.149-.05-.193-.12l-6.18-12.41a.27.27 0 01.031-.29c.069-.08.174-.1.262-.05l8.162 4.59-7.13-13.67a.28.28 0 01.018-.28c.056-.08.149-.11.236-.08l9.867 3.23-8.772-11.27a.274.274 0 01.018-.35c.094-.09.23-.09.311.02l9.27 11.91c.062.08.074.2.018.29-.049.09-.155.14-.248.11l-10.059-3.3 7.224 13.85c.049.1.037.22-.031.3-.069.08-.174.09-.262.04l-8.187-4.59 5.831 11.7c.062.11.025.27-.087.33-.025.04-.062.04-.099.04z"/>
      </g>
      <path fill="#EA6027" d="M472.651 1063.26s5.614 1.1 8.331-8.45c0 0-1.679-6.13 6.77-4.23 8.455 1.9 18.035 8.56 23.556 19.86 5.521 11.3 3.83 32.97-8.343 33.73-12.173.77-33.814-22.8-34.486-32.31-.671-9.5 4.172-8.6 4.172-8.6z"/>
      <path stroke="#AA391B" stroke-linecap="round" stroke-linejoin="round" stroke-miterlimit="10" stroke-width=".55" d="M480.882 1054.26s-.907-4.07 3.83-4.44c4.737-.38 14.05 4.62 19.366 10.29"/>
    </g>
  </g>
  <g>
    <path fill="#E7E8D4" d="M594.476 162.077h-43.984v467.147h43.984V162.077z"/>
    <path fill="#F5F6E8" d="M550.492 162.077h-43.985v467.147h43.985V162.077zM638.46 162.077h-43.984v467.147h43.984V162.077z"/>
    <path fill="#E7E8D4" d="M418.539 162.077h-43.984v467.147h43.984V162.077z"/>
    <path fill="#F5F6E8" d="M374.555 162.077h-43.984v467.147h43.984V162.077z"/>
    <path fill="#E7E8D4" d="M506.507 162.077h-43.984v467.147h43.984V162.077z"/>
    <path fill="#F5F6E8" d="M462.523 162.077h-43.984v467.147h43.984V162.077z"/>
    <path fill="#E7E8D4" d="M242.602 162.077h-43.984v467.147h43.984V162.077z"/>
    <path fill="#F5F6E8" d="M198.618 162.077h-43.984v467.148h43.984V162.077z"/>
    <path fill="#E7E8D4" d="M330.571 162.077h-43.984v467.147h43.984V162.077z"/>
    <path fill="#F5F6E8" d="M286.587 162.077h-43.984v467.147h43.984V162.077z"/>
    <path fill="#EAEADA" d="M393.25 719.218c189.572 0 343.25-26.184 343.25-58.484S582.822 602.25 393.25 602.25 50 628.434 50 660.734s153.678 58.484 343.25 58.484z"/>
    <g>
      <path fill="#141A33" d="M673.489 508.2H405.227c-12.721 0-23.029-11.576-23.029-25.848V322.556c0-14.278 10.314-25.848 23.029-25.848h268.267c12.721 0 23.029 11.576 23.029 25.848v159.79c0 14.278-10.314 25.854-23.034 25.854z"/>
      <path fill="#fff" d="M664.279 497.699h-247.29c-11.463 0-20.757-10.432-20.757-23.299V331.944c0-12.868 9.294-23.299 20.757-23.299h247.29c11.464 0 20.758 10.431 20.758 23.299V474.4c0 12.867-9.294 23.299-20.758 23.299z"/>
      <path fill="#3F56DB" d="M601.093 497.699L685.037 383.4v-57.175c0-8.319-5.152-15.284-12.067-17.112L534.699 497.699h66.394zM483.991 308.645h-72.097c-8.651 0-15.668 7.869-15.668 17.586v67.986l87.765-85.572zM618.036 308.645h-54.991l-166.812 144.79v26.684c0 9.71 7.011 17.586 15.668 17.586h39.064l167.071-189.06z"/>
    </g>
    <g>
      <path fill="#311A12" d="M458.122 458.548H135.28c-16.322 0-29.556-14.854-29.556-33.174V168.517c0-18.32 13.234-33.174 29.556-33.174h322.842c16.322 0 29.555 14.854 29.555 33.174v256.857c0 18.32-13.233 33.174-29.555 33.174z"/>
      <path fill="#FFFFF8" d="M445.345 447.572H148.457c-16.322 0-29.555-14.853-29.555-33.174V179.5c0-18.321 13.233-33.174 29.555-33.174h296.888c16.322 0 29.555 14.853 29.555 33.174v234.892c.006 18.327-13.228 33.18-29.555 33.18z"/>
      <path fill="#45BCBF" d="M224.984 442.081h-73.878c-10.5 0-19.01-9.552-19.01-21.338V281.766c0-11.785 8.51-21.338 19.01-21.338h73.884c10.5 0 19.011 9.553 19.011 21.338v138.977c0 11.786-8.517 21.338-19.017 21.338z"/>
      <path fill="#fff" d="M217.438 371.521h-58.34c-8.51 0-15.415-7.744-15.415-17.302v-65.481c0-9.553 6.899-17.302 15.415-17.302h58.34c8.51 0 15.414 7.743 15.414 17.302v65.481c0 9.552-6.898 17.302-15.414 17.302zM223.936 437.577H152.6c-4.926 0-8.917-4.479-8.917-10.008 0-5.529 3.991-10.008 8.917-10.008h71.336c4.926 0 8.916 4.479 8.916 10.008 0 5.529-3.99 10.008-8.916 10.008zM223.936 404.549H152.6c-4.926 0-8.917-4.479-8.917-10.008 0-5.529 3.991-10.008 8.917-10.008h71.336c4.926 0 8.916 4.479 8.916 10.008 0 5.529-3.99 10.008-8.916 10.008z"/>
      <path fill="#3F56DB" d="M210.84 346.295c12.102-13.592 12.105-35.611.007-49.183-12.098-13.571-31.716-13.555-43.818.037-12.102 13.591-12.106 35.611-.008 49.182 12.098 13.571 31.717 13.555 43.819-.036z"/>
      <path fill="#45BCBF" d="M187.301 286.998l1.415 34.483 27.527-16.201c-5.231-10.912-15.494-18.327-27.302-18.327a23.44 23.44 0 00-1.64.045z"/>
      <path fill="#EA6027" d="M214.896 340.706c3.173-5.459 5.027-11.975 5.027-18.978 0-5.89-1.308-11.437-3.613-16.296l-27.6 16.049 26.186 19.225z"/>
      <path fill="#FFB400" d="M188.716 321.475l18.323 28.474c3.128-2.531 5.822-5.706 7.919-9.344l-26.242-19.13z"/>
      <path fill="#F2E2AF" d="M188.936 356.509c6.786 0 13.053-2.454 18.159-6.604l-18.379-28.423-16.807 29.302c4.887 3.612 10.737 5.725 17.027 5.725z"/>
      <g>
        <path fill="#C09C44" d="M220.137 216.026h-80.816c-3.996 0-7.231-3.631-7.231-8.116 0-4.485 3.235-8.117 7.231-8.117h80.816c3.996 0 7.232 3.632 7.232 8.117 0 4.485-3.236 8.116-7.232 8.116zM211.632 191.203h-61.676c-3.996 0-7.231-3.631-7.231-8.116 0-4.486 3.235-8.117 7.231-8.117h61.676c3.996 0 7.231 3.631 7.231 8.117 0 4.478-3.241 8.116-7.231 8.116zM220.137 244.19h-80.816c-3.996 0-7.231-3.631-7.231-8.117 0-4.485 3.235-8.116 7.231-8.116h80.816c3.996 0 7.232 3.631 7.232 8.116 0 4.486-3.236 8.117-7.232 8.117z"/>
      </g>
      <path fill="#D21C4B" d="M252.269 222.187l2.322-6.162-22.545 4.296 13.183 20.528 2.565-6.813c6.199 5.472 23.908 23.406 26.354 51.69.006 0 1.2-43.852-21.879-63.539z"/>
      <g>
        <path fill="#3F56DB" d="M278.353 311.72c.665 7.547-4.937 13.842-11.667 13.095-4.976-.55-9.001-5.073-9.497-10.659-.665-7.547 4.938-13.841 11.667-13.095 4.982.557 9.007 5.073 9.497 10.659z"/>
        <path fill="#FFB400" d="M278.353 429.164c.665 7.547-4.938 13.841-11.667 13.095-4.977-.551-9.001-5.074-9.497-10.66-.665-7.547 4.937-13.841 11.667-13.095 4.982.557 9.006 5.074 9.497 10.66z"/>
        <path fill="#45BCBF" d="M278.353 390.018c.665 7.547-4.938 13.842-11.667 13.095-4.977-.55-9.001-5.073-9.497-10.659-.665-7.547 4.937-13.842 11.667-13.095 4.982.557 9.006 5.073 9.497 10.659z"/>
        <path fill="#FFB400" d="M278.353 350.873c.665 7.547-4.938 13.841-11.667 13.095-4.977-.55-9.001-5.074-9.497-10.659-.665-7.547 4.937-13.842 11.667-13.095 4.982.55 9.006 5.073 9.497 10.659z"/>
        <path fill="#45BCBF" d="M267.774 312.943l10.116-3.676c-1.285-4.466-4.852-7.775-9.153-8.211l-.963 11.887z"/>
        <path fill="#3F56DB" d="M278.409 352.088c0-6.592-4.763-11.938-10.635-11.938v23.869c5.872.006 10.635-5.34 10.635-11.931z"/>
        <path fill="#FFB400" d="M267.171 403.151l.608-11.912-10.348 2.752c1.06 5.048 4.977 8.857 9.74 9.16z"/>
        <path fill="#3F56DB" d="M267.774 391.24l4.875-10.603a9.66 9.66 0 00-4.875-1.328c-.107 0-.209.006-.31.006l.31 11.925z"/>
      </g>
      <g>
        <path fill="#C09C44" d="M445.942 311.505H303.135c-9.193 0-16.644-8.363-16.644-18.681V178.373c0-10.318 7.451-18.681 16.644-18.681h142.807c9.193 0 16.644 8.363 16.644 18.681V292.83c-.006 10.312-7.457 18.675-16.644 18.675z"/>
        <path fill="#fff" d="M441.619 304.824h-14.727c-3.708 0-6.713-3.372-6.713-7.534V196.826c0-4.163 3.005-7.534 6.713-7.534h14.727c3.709 0 6.713 3.371 6.713 7.534V297.29c0 4.162-3.004 7.534-6.713 7.534z"/>
        <path fill="#F2E2AF" d="M441.619 304.824h-14.727c-3.708 0-6.713-3.372-6.713-7.534v-80.31h28.153v80.31c0 4.162-3.004 7.534-6.713 7.534z"/>
        <path fill="#fff" d="M403.795 304.825h-14.727c-3.709 0-6.713-3.372-6.713-7.535v-78.025c0-4.163 3.004-7.535 6.713-7.535h14.727c3.709 0 6.713 3.372 6.713 7.535v78.025c0 4.163-3.01 7.535-6.713 7.535z"/>
        <path fill="#F2E2AF" d="M403.795 304.824h-14.727c-3.709 0-6.713-3.371-6.713-7.534v-58.826h28.153v58.826c0 4.163-3.01 7.534-6.713 7.534z"/>
        <path fill="#fff" d="M362.888 304.825h-14.727c-3.708 0-6.712-3.372-6.712-7.535v-89.007c0-4.163 3.004-7.535 6.712-7.535h14.727c3.709 0 6.713 3.372 6.713 7.535v89.007c0 4.163-3.01 7.535-6.713 7.535z"/>
        <path fill="#F2E2AF" d="M362.888 304.824h-14.727c-3.708 0-6.712-3.371-6.712-7.534v-46.414h28.152v46.414c0 4.163-3.01 7.534-6.713 7.534z"/>
        <path fill="#fff" d="M321.542 304.824h-14.727c-3.709 0-6.713-3.372-6.713-7.534V187.754c0-4.162 3.004-7.534 6.713-7.534h14.727c3.708 0 6.713 3.372 6.713 7.534V297.29c0 4.162-3.01 7.534-6.713 7.534z"/>
        <path fill="#F2E2AF" d="M321.542 304.824h-14.727c-3.709 0-6.713-3.371-6.713-7.534v-82.22h28.153v82.22c0 4.163-3.01 7.534-6.713 7.534z"/>
      </g>
      <g>
        <path fill="#F2E2AF" d="M458.015 370.23H294.032c-4.165 0-7.547-3.789-7.547-8.464V346.71c0-4.675 3.377-8.471 7.547-8.471h163.983c4.165 0 7.546 3.79 7.546 8.471v15.05c0 4.681-3.381 8.47-7.546 8.47z"/>
        <path fill="#45BCBF" d="M441.377 422.743H306.849c-3.726 0-6.747-3.391-6.747-7.573v-22.571c0-4.182 3.021-7.572 6.747-7.572h134.528c3.725 0 6.746 3.39 6.746 7.572v22.571c0 4.188-3.021 7.573-6.746 7.573z"/>
        <path fill="#3F56DB" d="M441.377 422.743h-71.945v-37.716h71.945c3.725 0 6.746 3.391 6.746 7.572v22.571c0 4.188-3.021 7.573-6.746 7.573z"/>
      </g>
    </g>
    <g>
      <path fill="#311A12" d="M679.936 186.9H510.222v16.233h169.714V186.9z"/>
      <path fill="#45BCBF" d="M619.106 172.578H514.049v14.323h105.057v-14.323z"/>
      <path fill="#3F56DB" d="M615.279 159.211h-91.023v13.367h91.023v-13.367z"/>
      <path fill="#D21C4B" d="M611.875 144.415h-73.157v14.803h73.157v-14.803z"/>
      <path fill="#FFB400" d="M600.822 159.211h-4.255v13.367h4.255v-13.367zM543.824 172.578h-3.827v14.323h3.827v-14.323zM573.171 144.415H546.8v14.803h26.371v-14.803zM647.602 135.817h-13.183V186.9h13.183v-51.083z"/>
      <path fill="#45BCBF" d="M662.921 119.11h-15.314v67.79h15.314v-67.79z"/>
      <path fill="#EA6027" d="M676.955 125.316h-14.034v61.585h14.034v-61.585z"/>
      <path fill="#FFB400" d="M535.319 172.578h-5.957v14.323h5.957v-14.323z"/>
    </g>
    <g>
      <path fill="#FFB400" d="M705.022 335.689a.543.543 0 01-.434-.234c-8.256-11.735-5.76-22.28-.665-38.254 2.587-8.103 9.063-35.438-16.164-46.762-6.763-3.036-12.337-3.176-16.553-.405-6.273 4.118-7.44 13.405-7.451 13.5-.04.335-.316.569-.62.531-.299-.044-.513-.354-.474-.689.046-.405 1.24-9.97 7.981-14.398 4.526-2.973 10.421-2.866 17.523.322 10.077 4.524 16.356 11.963 18.667 22.11 1.741 7.654 1.076 16.966-1.877 26.215-4.949 15.518-7.575 25.608.49 37.071.186.265.147.658-.09.866a.498.498 0 01-.333.127z"/>
      <path fill="#324DA0" d="M597.204 275.181l55.008-23.463 48.409 23.463-48.956 17.289-54.461-17.289z"/>
      <path fill="#3F56DB" d="M624.161 274.56v22.843s5.501 7.408 25.853 7.408c20.933 0 25.853-7.408 25.853-7.408V274.56s-6.6-5.554-25.853-4.941c-19.253.62-25.853 4.941-25.853 4.941z"/>
      <path fill="#FEC655" d="M704.476 346.804s-11.002-12.969-2.751-18.523c9.266-6.244 13.752 12.348 13.752 12.348s-3.855 7.408-11.001 6.175z"/>
    </g>
    <g>
      <path fill="#141A33" d="M103.594 534.935s-1.274 21.009 14.462 21.964v-5.731s-10.207-.475-10.207-16.233h-4.255z"/>
      <path fill="#311A12" d="M105.64 539.161c-2.7.177-5.011-2.138-5.169-5.162l-3.95-76.254c-.159-3.031 1.904-5.624 4.598-5.801 2.7-.178 5.011 2.138 5.169 5.162l3.951 76.254c.157 3.024-1.9 5.624-4.599 5.801z"/>
      <path fill="#141A33" d="M119.33 556.9l-11.583 79.86c-.169 1.183.643 2.252 1.708 2.252.801 0 1.499-.62 1.685-1.493l16.7-79.19-8.51-1.429zM169.401 556.9l11.582 79.86c.169 1.183-.643 2.252-1.708 2.252-.8 0-1.499-.62-1.685-1.493l-16.7-79.19 8.511-1.429z"/>
      <path fill="#311A12" d="M166.972 561.194h-46.786c-3.759 0-6.802-3.422-6.802-7.635 0-4.22 3.049-7.636 6.802-7.636h46.786c3.759 0 6.802 3.423 6.802 7.636s-3.049 7.635-6.802 7.635z"/>
      <path fill="#9A605C" d="M192.915 604.161v19.098l11.058-.481v-20.047l-11.058 1.43z"/>
      <path fill="#fff" d="M203.973 613.118c-4.216 1.107-8.376.437-11.058-.297v10.432l11.058-.475v-9.66z"/>
      <path fill="#3F56DB" d="M188.237 540.666s3.381 11.267.546 18.491c-3.584 9.141 2.007 39.753 2.007 45.004 0 5.25 11.909 4.295 14.462 1.429 0 0 1.274-42.966 1.274-47.262 0-4.295-2.553-30.554-18.289-17.662z"/>
      <path fill="#324DB2" d="M188.237 540.666s2.429 8.35 1.527 14.107c1.308 1.322 3.179 3.846 2.305 7.383-2.125 8.59 0 11.937 6.803 21.008 2.548 3.391 4.853 6.921 6.746 10.002.378-13.044.913-32.048.913-34.831-.005-4.302-2.558-30.561-18.294-17.669z"/>
      <path fill="#141A33" d="M192.915 618.888s3.404 2.316 11.058 0c0 0 11.852 5.89 19.585 8.762 2.643.98 4.582 3.517 5.084 6.591 0 0-25.949.475-36.579-1.91 0 0-.851-8.743.852-13.443z"/>
      <path fill="#45BCBF" d="M191.895 629.642c.061 1.601.169 2.682.169 2.682 10.635 2.385 36.578 1.911 36.578 1.911a9.152 9.152 0 00-1.02-2.967c-9.514.24-28.959-1.12-35.727-1.626z"/>
      <path fill="#9A605C" d="M226.94 603.205l8.933 18.143 10.213-.481-8.083-19.092-11.063 1.43z"/>
      <path fill="#fff" d="M241.909 611.005c-2.947 2.037-7.022 2.6-9.784 2.727l3.754 7.616 10.207-.474-4.177-9.869z"/>
      <path fill="#141A33" d="M234.171 618.407s3.404 2.315 11.058 0c0 0 11.853 5.889 19.585 8.761 2.644.981 4.583 3.518 5.084 6.592 0 0-25.948.474-36.578-1.91 0 0-.846-8.743.851-13.443z"/>
      <path fill="#45BCBF" d="M233.156 629.167c.062 1.601.17 2.683.17 2.683 10.635 2.385 36.578 1.91 36.578 1.91a9.152 9.152 0 00-1.02-2.967c-9.514.234-28.964-1.119-35.728-1.626z"/>
      <path fill="#3F56DB" d="M115.717 513.224s-12.974 41.284 21.479 39.373c34.454-1.91 56.694-8.211 57.781-2.948 4.921 23.875 26.062 47.901 30.621 55.214 3.016 4.839 7.727 8.369 16.232-2.138 0 0-20.414-75.907-40.833-84.978-20.414-9.072-52.743-2.866-52.743-2.866l-32.537-1.657z"/>
      <path fill="#324DB2" d="M158.867 513.464c-6.375.607-10.613 1.423-10.613 1.423l-32.537-1.657s-3.528 11.241-2.012 21.724c8.815-4.005 25.824-7.497 34.126-10.989 5.924-2.505 9.272-7.091 11.036-10.501z"/>
      <path fill="#2B4393" d="M198.444 602.965c-.119 0-.214-.107-.214-.24 0-.101-.029-10.103-2.542-19.503-2.548-9.521-1.319-12.912-1.268-13.051.045-.12.174-.177.281-.127.107.051.158.19.113.31-.011.032-1.206 3.416 1.285 12.728 2.531 9.47 2.559 19.542 2.559 19.643 0 .133-.096.24-.214.24zM121.821 534.713c-.26 0-.524-.006-.795-.012-.118-.007-.208-.114-.208-.247a.238.238 0 01.219-.234c4.543.164 8.026-1.05 10.365-3.593 2.982-3.246 3.027-7.579 3.027-7.623 0-.133.096-.241.214-.241s.214.108.214.241c0 .183-.034 4.574-3.151 7.964-2.288 2.486-5.613 3.745-9.885 3.745z"/>
      <path fill="#2B4393" d="M233.748 604.875c-.067 0-.129-.038-.175-.101-.214-.341-21.738-34.464-25.531-41.549-2.007-3.752-2.519-8.091-3.06-12.684-.502-4.239-1.071-9.046-2.909-14.082-3.86-10.596-20.718-4.776-30.79-1.297-10.979 3.79-35.575-.424-35.823-.468-.118-.019-.197-.139-.18-.272.017-.126.129-.215.242-.196.248.044 24.748 4.245 35.632.487 10.212-3.523 27.301-9.426 31.308 1.569 1.854 5.092 2.429 9.932 2.937 14.202.563 4.745 1.048 8.837 3.004 12.5 3.781 7.073 25.294 41.177 25.509 41.518.067.108.045.26-.051.335a.163.163 0 01-.113.038z"/>
      <path fill="#9A605C" d="M212.483 478.127s-6.38 3.821-12.76 4.776c-6.38.955-3.404 9.546.423 10.027 3.827.474 8.505 2.865 11.058-1.911 2.553-4.776 1.279-12.892 1.279-12.892z"/>
      <path fill="#D4DCFF" d="M203.122 480.986l-.852 13.367s-35.304 5.251-48.487-4.776c-13.183-10.027-5.106-35.331 0-30.555 5.106 4.776 13.183 15.278 17.015 14.322 3.827-.948 18.29 8.123 32.324 7.642z"/>
      <path fill="#C5CEEF" d="M163.708 469.245c-3.404-3.233-7.112-7.591-9.925-10.217-5.106-4.776-13.183 20.528 0 30.555 4.041 3.075 10.156 4.707 16.7 5.504-4.464-6.978-6.149-17.897-6.775-25.842z"/>
      <path fill="#9A605C" d="M140.172 441.841l5.957-11.457s-4.678-1.43-2.976-6.206c1.703-4.776 6.803-18.143 8.505-19.573 1.702-1.429 23.396 5.732 23.819 10.982.422 5.251-10.207 38.672-20.843 32.466l-2.976 7.161c0-.006-14.039-1.436-11.486-13.373z"/>
      <path fill="#1C0D09" d="M143.148 424.178s1.274-3.821 4.678-3.821 3.404 4.776 4.255 5.732c.851.955 9.356-15.278 9.784-16.707.423-1.43-13.183-8.117-14.462-4.777-1.274 3.341-4.255 19.573-4.255 19.573z"/>
      <path fill="#311A12" d="M165.27 410.33c-.417-.101-21.694-1.429-17.439-10.501 4.256-9.072 12.338-10.982 13.183-10.027.851.955-2.125 2.866-.422 4.776 1.702 1.911 6.38 4.296 11.486 5.251 5.106.955 9.362 12.317 3.404 16.422-.005 0-2.13-4.01-10.212-5.921z"/>
      <path fill="#000" d="M163.139 432.054c-.118 0-.214-.108-.214-.241 0-.132.096-.24.214-.24 2.339 0 2.756-1.657 2.773-1.727l1.274-6.199c.028-.127.141-.209.253-.178.113.032.186.159.158.285l-1.274 6.206c-.016.089-.496 2.094-3.184 2.094zM148.254 427.759c-.118 0-.214-.108-.214-.241v-5.25c0-.133.096-.241.214-.241s.214.108.214.241v5.25c0 .133-.096.241-.214.241z"/>
      <path fill="#000" d="M148.254 425.981c-.017 0-.034 0-.051-.006l-2.124-.614c-.113-.032-.181-.164-.153-.291.029-.126.147-.202.26-.171l2.125.614c.112.032.18.164.152.291-.028.107-.113.177-.209.177zM157.441 449.065c-.857 0-1.843-.209-2.903-.804-3.477-1.955-3.522-8.983-3.522-9.286 0-.133.096-.241.214-.241s.214.108.214.241c0 .069.04 7.034 3.286 8.856 3.235 1.816 5.63-.164 5.732-.247.096-.082.225-.057.299.045a.261.261 0 01-.04.335c-.022.019-1.319 1.101-3.28 1.101zM164.171 435.679h-.023c-1.589-.202-2.773-.886-3.523-2.037-1.256-1.923-.834-4.435-.817-4.536.023-.126.135-.215.248-.19.113.026.192.152.169.279-.005.025-.4 2.416.744 4.169.677 1.037 1.764 1.657 3.224 1.841.118.012.203.132.186.265-.011.12-.101.209-.208.209z"/>
      <path fill="#141A33" d="M170.742 425.228c-.287.867-.873 1.417-1.319 1.234-.439-.184-.563-1.031-.276-1.898.288-.867.874-1.417 1.319-1.234.44.178.564 1.032.276 1.898zM165.213 423.318c-.287.867-.874 1.417-1.319 1.233-.439-.183-.563-1.031-.276-1.897.287-.867.874-1.417 1.319-1.234.445.183.563 1.031.276 1.898z"/>
      <path fill="#311A12" d="M161.014 418.447c0-.955 4.255-1.911 4.678-.955.429.955-4.678 1.91-4.678.955zM173.955 421.673c.282-.905-3.461-3.372-4.143-2.625-.676.746 3.867 3.53 4.143 2.625z"/>
      <path fill="#A9B5D8" d="M173.774 476.932a.218.218 0 01-.152-.07c-1.657-1.86-5.191-3.713-5.224-3.732-.108-.057-.153-.197-.102-.317.051-.12.175-.171.282-.114.146.076 3.641 1.911 5.349 3.828a.254.254 0 010 .335.22.22 0 01-.153.07zM195.89 494.119c-.107 0-.197-.088-.208-.208-.423-3.796-.006-11.425 0-11.501.006-.133.107-.234.225-.222.119.007.209.121.198.253-.006.076-.417 7.661 0 11.413.017.132-.068.253-.186.265h-.029z"/>
      <path fill="#D4DCFF" d="M152.859 452.323s-9.706-8.098-11.194-13.348h-8.719s-.422 0 0 2.866c0 0-15.313 7.635-18.289 25.304-2.976 17.662-2.125 26.259-4.255 30.555-2.125 4.295-2.976 13.847 7.654 16.232 10.635 2.385 32.329 6.687 36.578.955 4.255-5.731 3.675-48.742-1.775-62.564z"/>
      <path fill="#A9B5D8" d="M151.23 458.788h-.017c-11.475-.955-17.973-15.739-18.041-15.891-.051-.12-.006-.259.101-.316.107-.057.231-.007.282.114.062.145 6.397 14.537 17.512 15.606l1.234-5.206c.028-.127.146-.203.259-.171.113.031.18.164.152.291l-1.279 5.402a.212.212 0 01-.203.171zM115.925 491.728a.188.188 0 01-.141-.063.255.255 0 01-.016-.336c.135-.171 3.252-4.232-.017-9.736-3.416-5.75-1.325-14.429-1.302-14.518.034-.126.146-.202.259-.164.113.038.18.164.146.291-.022.082-2.062 8.559 1.246 14.126 3.455 5.813.017 10.273-.017 10.318a.186.186 0 01-.158.082zM157.187 488.869s-.005 0 0 0c-.124 0-.214-.114-.214-.241.231-14.031-1.832-26.215-1.854-26.335-.023-.127.051-.253.169-.278.113-.026.225.057.248.189.022.121 2.097 12.349 1.865 26.437-.005.12-.101.228-.214.228z"/>
      <path fill="#273359" d="M218.863 519.181l-19.14-4.295h-29.775l20.414 4.295h28.501z"/>
      <path fill="#1D2744" d="M218.858 519.183h-28.497v1.91h28.497v-1.91zM236.301 474.78l1.703 1.436-17.444 44.877h-1.697v-1.91l17.438-44.403z"/>
      <path fill="#141A33" d="M169.948 514.886l20.414 4.295v1.911l-20.414-4.776v-1.43zM199.723 514.887l13.183-39.626 23.395-.481-17.438 44.403-19.14-4.296z"/>
      <path fill="#fff" d="M214.18 478.126l-11.058 34.37 14.89 3.346 13.183-36.76-17.015-.956z"/>
      <path fill="#3F56DB" d="M219.866 478.443l-8.91 9.704-4.43 13.772 22.882-22.938-9.542-.538zM226.348 492.588l-19.822 20.673 11.486 2.581 8.336-23.254z"/>
      <path fill="#9A605C" d="M173.352 505.816s3.404 2.385 12.337 1.43c8.933-.956 13.707 5.731 14.885 7.635 0 0 .626 1.405-.535 1.202-.417-.069-.789-.335-1.06-.702-.687-.93-2.395-2.992-4.362-3.359 0 0 3.652 2.967 3.528 4.586-.124 1.62-3.528 1.62-5.23 1.145-1.702-.474-7.868-3.58-11.695-4.055-3.827-.474-9.993 1.196-13.826-1.67-3.827-2.872 5.958-6.212 5.958-6.212z"/>
      <path fill="#D4DCFF" d="M175.048 503.425l-5.957 14.797s-33.603-.475-41.256-21.009c-7.654-20.528-5.958-43.448 2.124-46.307 8.083-2.866 21.265 21.483 20.843 26.259-.423 4.777-1.274 5.732 3.404 7.162 4.678 1.429 4.255 2.865 4.678 8.116.428 5.257 16.164 10.982 16.164 10.982z"/>
      <path fill="#C5CEEF" d="M131.667 498.655c-6.583-11.083-7.485-29.492-7.44-39.43-2.468 9.122-1.572 24.108 3.607 38 3.98 10.673 14.97 15.923 24.608 18.51-7.203-3.378-15.894-8.869-20.775-17.08z"/>
      <path fill="#A9B5D8" d="M158.985 493.221a.217.217 0 01-.197-.146c-.197-.537-.209-.828-.237-1.537a50.747 50.747 0 00-.191-2.884c-.265-2.784-2.328-3.467-3.433-3.834a7.672 7.672 0 01-.406-.139 6.937 6.937 0 00-.76-.228c-1.116-.297-2.807-.746-3.269-2.119-.355-1.044-.226-2.056-.079-3.22.09-.709.186-1.506.186-2.417 0-2.296-3.867-9.862-3.906-9.938a.262.262 0 01.079-.329c.101-.063.231-.025.293.089.163.316 3.968 7.755 3.962 10.178 0 .943-.101 1.759-.192 2.48-.141 1.151-.259 2.056.057 2.986.383 1.132 1.944 1.55 2.97 1.828.321.089.597.158.806.241.101.038.231.082.383.132 1.116.374 3.438 1.139 3.737 4.239a47.58 47.58 0 01.197 2.916c.028.69.034.918.203 1.373.045.12-.006.259-.118.31a.202.202 0 01-.085.019zM162.897 513.464c-.017 0-.028 0-.045-.006-.113-.025-.186-.152-.164-.285 1.032-5.465 5.58-12.646 5.625-12.721a.2.2 0 01.299-.057.26.26 0 01.05.335c-.045.069-4.542 7.174-5.551 12.538-.023.12-.113.196-.214.196z"/>
    </g>
    <g>
      <path fill="#9A605C" d="M519.583 387.284s-8.071-38.241-10.759-33.212c-2.688 5.029.896 13.588.896 13.588s-7.62 6.541-6.724 13.082c.896 6.542 4.036 14.089 7.175 15.094 3.134 1.006 9.412-8.552 9.412-8.552z"/>
      <path fill="#9A605C" d="M516.444 368.661s-4.481 15.094-.896 12.582c3.584-2.517 5.382-14.088 3.584-15.094-1.792-1.005-2.688 2.512-2.688 2.512z"/>
      <path fill="#000" d="M506.068 384.185c-1.088 0-2.176-2.784-2.384-3.347-.045-.126.005-.278.118-.329a.218.218 0 01.293.133c.479 1.297 1.426 3.094 1.995 3.037.277-.026.536-.57.716-1.487 0-.019.434-3.005 0-5.94-.022-.139.062-.266.186-.291.124-.025.237.069.259.209.451 3.023.017 5.997 0 6.123-.242 1.228-.608 1.841-1.116 1.892h-.067z"/>
      <path fill="#000" d="M508.367 382.698a.615.615 0 01-.152-.019c-.817-.171-1.217-1.657-1.257-1.828-.033-.133.034-.272.153-.31.118-.038.242.038.276.171.09.354.451 1.379.907 1.474.288.056.592-.292.795-.589 1.279-1.917.856-8.818.851-8.888-.011-.139.084-.259.208-.266.124-.012.231.095.237.234.017.291.44 7.162-.941 9.23-.35.519-.71.791-1.077.791z"/>
      <path fill="#000" d="M510.875 380.37c-.614 0-1.065-.455-1.087-.481a.273.273 0 01-.012-.354.207.207 0 01.316-.013c.023.026.53.525 1.11.285.609-.253 1.432-1.347 1.883-5.13.349-2.936.045-5.118-.879-6.314-.722-.93-1.55-.949-1.59-.949-.124 0-.225-.114-.225-.253s.101-.253.225-.253c.045 0 1.06.013 1.916 1.114 1.032 1.328 1.37 3.586.998 6.724-.383 3.245-1.116 5.112-2.175 5.542a1.49 1.49 0 01-.48.082zM514.871 381.774a.42.42 0 01-.129-.012c-1.798-.791.101-8.072.501-9.527.034-.133.164-.209.282-.165.119.038.186.183.147.316-.941 3.429-1.809 8.452-.801 8.895-.017-.007 1.156.145 2.548-2.885.056-.126.192-.171.304-.107.113.063.152.215.096.341-1.33 2.891-2.553 3.144-2.948 3.144z"/>
      <path fill="#FFB400" d="M507.026 394.831l13.899-10.064 6.724 38.241s4.48-2.012 3.584 1.512c-.896 3.523-3.139 6.041 3.585 3.017 6.724-3.017 18.379-5.029 18.379-5.029l-6.279 28.182s-33.625 7.547-35.417 1.512c-1.781-6.047-4.475-57.371-4.475-57.371z"/>
      <path fill="#C6880C" d="M509.72 398.602a.226.226 0 01-.197-.127.266.266 0 01.084-.341l10.314-6.542c.107-.069.243-.025.305.095a.268.268 0 01-.085.342l-10.314 6.541a.178.178 0 01-.107.032zM524.515 435.337a.212.212 0 01-.169-.083.27.27 0 01.017-.354l4.48-4.529a.216.216 0 01.243-.045.26.26 0 01.135.228v3.524c0 .139-.102.253-.226.253-.124 0-.225-.114-.225-.253v-2.961l-4.109 4.15a.181.181 0 01-.146.07z"/>
      <path fill="#1C0D09" d="M584.945 383.805s-2.598 7.503-3.94 8.009c-1.347.506-3.584-6.042-.896-8.053 2.689-2.012 4.836.044 4.836.044z"/>
      <path fill="#9A605C" d="M558.14 365.143s-2.689 38.747 9.863 35.73l.451 12.076 13.002-4.023v-23.147s3.585.506 4.036-4.024c.451-4.529-.896-15.093-.896-15.093l-15.691-5.03-10.765 3.511z"/>
      <path fill="#1C0D09" d="M574.276 368.661s3.139 4.529 3.585 8.053c.45 3.523 1.392 4.428 2.243 2.517.896-2.011 5.382-2.011 5.382 2.012 0 0 4.481-14.594.896-16.606-3.584-2.012-12.106 4.024-12.106 4.024z"/>
      <path fill="#311A12" d="M554.104 361.62c3.585-4.024 8.071-2.518 8.071-2.518s-3.139-4.53.451-5.535c3.585-1.006 7.175 2.011 7.175 2.011s0-6.541 4.481-5.535c4.48 1.006 3.139 5.029 3.139 5.029s1.792-3.017 6.279-2.012c4.486 1.006.896 5.536.896 5.536s3.584-3.018 5.382 1.512c1.793 4.529-5.331 6.914-5.331 6.914s1.301 2.651-3.63 3.657c-4.932 1.005-10.76 1.005-9.863-3.524 0 0-.451 4.023-3.14 3.017-2.688-1.005-1.347-3.523-1.347-3.523s-4.035 5.535-6.724 4.023c-2.536-1.423.451-3.523.451-3.523s-9.88-1.506-6.29-5.529z"/>
      <path fill="#000" d="M581.451 383.507a.203.203 0 01-.13-.044.266.266 0 01-.05-.348l2.243-3.523c.073-.114.214-.14.31-.057.101.082.124.24.05.348l-2.243 3.523a.22.22 0 01-.18.101z"/>
      <path fill="#000" d="M583.243 383.002a.207.207 0 01-.152-.064l-.891-.917a.272.272 0 01-.011-.354.207.207 0 01.316-.013l.89.918c.09.094.096.253.011.354a.206.206 0 01-.163.076z"/>
      <path fill="#1C0D09" d="M558.568 378.2s-.439-1.012 1.375-2.999c1.815-1.986 2.689.038 1.336 1.025-1.358.987-2.271 2.986-2.711 1.974zM569.063 378.2s.439-1.012-1.376-2.999c-1.814-1.986-2.688.038-1.335 1.025 1.358.987 2.277 2.986 2.711 1.974z"/>
      <path fill="#000" d="M565.76 389.549c-.079 0-1.899-.012-2.846-1.082-.936-1.05.157-7.496.389-8.78.022-.139.14-.228.264-.196.124.025.198.158.175.297-.513 2.866-1.099 7.661-.507 8.325.823.924 2.514.93 2.531.93.124 0 .225.114.225.253s-.107.253-.231.253z"/>
      <path fill="#141A33" d="M566.656 382.249c.495 0 .896-.677.896-1.512s-.401-1.512-.896-1.512-.896.677-.896 1.512.401 1.512.896 1.512zM560.828 382.249c.495 0 .896-.677.896-1.512s-.401-1.512-.896-1.512-.896.677-.896 1.512.401 1.512.896 1.512z"/>
      <path fill="#000" d="M564.61 393.124c-.4 0-.665-.057-.688-.064-.124-.025-.197-.158-.174-.297.022-.139.141-.228.265-.196.017.006 1.589.335 2.992-.772 1.116-.879 1.832-2.41 2.125-4.555.017-.139.135-.227.254-.208.124.019.208.151.186.284-.316 2.29-1.094 3.935-2.317 4.897a4.229 4.229 0 01-2.643.911zM566.594 401.378c-1.82 0-3.145-1.195-3.218-1.347-.051-.101-.034-.24.045-.316.096-.095.208-.089.338.025a.173.173 0 01.062.082c.378.323 2.046 1.582 4.109.81 2.057-.772 3.658-2.613 4.261-3.309l.129-.151c.091-.102.231-.102.316 0 .084.101.09.259 0 .354l-.13.145c-.625.722-2.282 2.626-4.441 3.435a4.027 4.027 0 01-1.471.272z"/>
      <path fill="#9A605C" d="M552.019 620.115l1.787 20.218 8.071-.234 1.781-20.851-11.639.867z"/>
      <path fill="#324DA0" d="M552.983 631.008l.823 9.318 8.065-.234.789-9.217c-3.511 1.259-7.13.803-9.677.133z"/>
      <path fill="#45BCBF" d="M553.265 636.082s5.765 2.132 8.922.361c0 0 3.319 5.687.851 15.891 0 0-35.818 2.638-40.806.114-4.988-2.525-5.174-11.052 4.684-11.337 9.857-.284 26.349-5.029 26.349-5.029z"/>
      <path fill="#141A33" d="M518.907 647.646c.192 1.948 1.398 3.82 3.325 4.795 4.988 2.524 40.806-.114 40.806-.114.4-1.664.648-3.201.783-4.618-25.689 2.979-40.202.879-44.914-.063z"/>
      <path fill="#E09D0A" d="M546.93 450.684l6.278-28.183s-7.603 1.316-14.068 3.41c-.36 6.889.344 16.075-6.103 21.249a171.118 171.118 0 01-9.7 7.218c10.308-.708 23.593-3.694 23.593-3.694z"/>
      <path fill="#414D70" d="M548.141 484.75l2.576 137.534s10.416 4.498 13.893-.398c3.478-4.903 6.617-29.043 6.82-36.463.248-9.072-7.288-25.393-3.404-32.44 3.883-7.048 10.252-23.23 11.74-37.141 1.487-13.911 1.504-33.648-6.189-36.621-7.682-2.98-25.436 5.529-25.436 5.529z"/>
      <path fill="#3B4663" d="M578.385 524.193l-16.26-15.309c6.284 20.616-7.604 41.821-1.55 51.779 4.762 7.837 7.383 28.087 9.395 39.733.705-5.56 1.527-12.209 1.465-14.973-.236-10.66-7.287-25.393-3.404-32.44 3.117-5.668 7.846-17.239 10.354-28.79z"/>
      <path fill="#9A605C" d="M579.72 635.847l1.787 20.218 8.071-.234 1.781-20.85-11.639.866z"/>
      <path fill="#324DA0" d="M580.684 646.747l.823 9.319 8.065-.234.789-9.217c-3.511 1.252-7.129.797-9.677.132z"/>
      <path fill="#45BCBF" d="M580.966 651.815s5.766 2.132 8.922.36c0 0 3.32 5.687.851 15.891 0 0-35.817 2.638-40.805.114-4.988-2.524-5.174-11.051 4.683-11.336 9.863-.285 26.349-5.029 26.349-5.029z"/>
      <path fill="#141A33" d="M546.608 663.385c.192 1.948 1.398 3.82 3.326 4.795 4.988 2.524 40.805-.114 40.805-.114.4-1.664.648-3.201.783-4.618-25.689 2.973-40.202.873-44.914-.063z"/>
      <path fill="#414D70" d="M567.856 482.877l11.104 156.931s10.674 4.428 13.847-1.411c3.168-5.839 4.808-33.629 4.549-42.125-.316-10.381-8.849-28.506-5.411-36.818 3.438-8.312 8.792-27.24 9.418-43.232.62-15.993-.586-38.539-8.448-41.411-7.863-2.872-25.059 8.066-25.059 8.066z"/>
      <path fill="#2A3347" d="M578.903 639.859c-.118 0-.214-.101-.225-.234l-8.657-122.979-8.037-7.572a.272.272 0 01-.028-.354.206.206 0 01.315-.032l8.111 7.636a.272.272 0 01.078.17l8.669 123.086c.011.14-.085.26-.209.272-.005.007-.011.007-.017.007z"/>
      <path fill="#3B4663" d="M548.339 495.137l53.159 12.652s-.355-29.271-7.062-32.111c-6.707-2.847-46.159 9.23-46.159 9.23l.062 10.229z"/>
      <path fill="#2A3347" d="M589.826 626.738h-.017c-.124-.013-.214-.133-.208-.266.011-.158.992-16.137.755-26.664-.107-4.77-1.251-10.609-2.458-16.789-1.499-7.667-3.201-16.353-3.398-25.178-.35-15.834 2.773-35.666 2.801-35.869.023-.139.141-.227.259-.202.124.025.203.158.181.291-.034.196-3.145 19.984-2.796 35.767.192 8.781 1.888 17.441 3.387 25.083 1.218 6.206 2.362 12.07 2.469 16.884.231 10.552-.75 26.551-.761 26.715a.217.217 0 01-.214.228zM593.101 510.37c-.017 0-.034 0-.051-.006-11.334-2.891-10.782-13.19-10.776-13.292.011-.139.118-.246.242-.234.124.013.214.133.208.272-.028.405-.518 9.977 10.427 12.766.119.032.198.165.169.304-.028.114-.118.19-.219.19z"/>
      <path fill="#FFB400" d="M568.15 404.94s-3.737.962-7.327 5.997c0 0-16.142 8.553-18.38 22.648-2.243 14.088-1.792 34.723 1.793 42.27 3.584 7.547 51.435 16.726 55.532 10.628 4.098-6.098 9.48-42.328 5.89-53.904-3.585-11.577-3.585-16.606-20.177-21.635 0 0 .45-8.174-4.036-6.858 0 0-9.204 5.061-13.121 5.706l-.174-4.852z"/>
      <path fill="#C6880C" d="M565.76 419.737a.202.202 0 01-.102-.025c-1.809-1.019-5.298-5.409-5.444-5.593a.272.272 0 01.017-.354.206.206 0 01.315.019c.034.044 3.298 4.15 5.09 5.339l2.542-7.831c.039-.133.169-.197.287-.152.119.044.175.19.135.322l-2.632 8.11a.223.223 0 01-.129.146.162.162 0 01-.079.019zM571.588 419.737a.212.212 0 01-.091-.019.232.232 0 01-.118-.139l-1.347-4.023a.261.261 0 01.13-.323c.118-.051.248.019.287.145l1.263 3.783c1.301-.588 8.33-3.821 12.737-7.42.102-.082.242-.057.316.057a.274.274 0 01-.051.354c-4.898 3.998-12.969 7.547-13.053 7.579-.017 0-.045.006-.073.006zM560.377 447.92c-.124 0-.225-.114-.225-.253 0-6.542 2.559-11.274 4.819-15.449.716-1.322 1.386-2.568 1.933-3.783 2.181-4.902 1.33-11.355 1.324-11.425-.016-.139.068-.265.186-.284.124-.019.237.076.254.209.011.063.879 6.68-1.364 11.722-.552 1.233-1.229 2.492-1.95 3.821-2.226 4.118-4.751 8.787-4.751 15.189 0 .139-.102.253-.226.253z"/>
      <path fill="#F2E2AF" d="M541.998 487.42c.451-1.006 12.552-48.306 15.691-51.83 3.139-3.523 23.311 5.029 30.04 12.077 0 0-12.106 48.305-15.69 50.323-3.591 2.012-30.041-10.57-30.041-10.57z"/>
      <path fill="#9A605C" d="M563.517 466.284s-11.656-13.588-14.795-11.577c-3.139 2.012-7.175 17.612-4.481 19.624 2.689 2.011 16.142 3.523 16.142 3.523l3.134-11.57z"/>
      <path fill="#FFB400" d="M589.522 422.508s5.1-8.553 11.069-3.018c5.969 5.536 22.11 46.295 20.313 58.371-1.793 12.076-8.968 20.629-28.694 15.094-19.726-5.535-35.417-14.594-35.417-14.594l4.931-16.1 33.175 6.541s-3.585-6.541 0-5.535c0 0-11.656-26.165-5.377-40.759z"/>
      <path fill="#C6880C" d="M562.621 478.114a.274.274 0 01-.074-.013c-.118-.044-.18-.19-.135-.322l3.585-11.577c.039-.133.169-.202.287-.158.118.044.18.19.141.322l-3.585 11.577c-.039.101-.124.171-.219.171zM601.628 472.578c-.017 0-.034 0-.051-.006l-4.035-1.006c-.119-.031-.197-.164-.169-.297.028-.133.146-.221.265-.19l3.55.886-2.451-5.048a.27.27 0 01.09-.342c.107-.07.242-.019.304.101l2.689 5.536a.294.294 0 01-.017.272.22.22 0 01-.175.094z"/>
      <path fill="#E09D0A" d="M620.903 477.861c.778-5.244-1.82-15.891-5.506-26.715 1.995 10.4 3.59 22.875 1.471 29.233-3.004 8.983-17.624 12.506-33.05 9.951 2.688.923 5.495 1.815 8.392 2.631 19.726 5.529 26.901-3.024 28.693-15.1z"/>
      <path fill="#C6880C" d="M594.679 467.29a.23.23 0 01-.192-.12c-1.741-3.17-1.527-4.011-1.212-4.365.389-.443 1.167-.184 1.747.101-1.363-2.834-6.177-13.544-7.512-25.741-1.573-14.309 4.069-17.612 4.311-17.744.113-.064.243-.013.299.113a.262.262 0 01-.102.336c-.056.031-5.591 3.308-4.063 17.232 1.544 14.088 7.755 26.158 7.817 26.278a.28.28 0 01-.034.304.204.204 0 01-.27.038c-.598-.405-1.607-.86-1.866-.569-.112.126-.349.771 1.28 3.745a.267.267 0 01-.074.347.236.236 0 01-.129.045z"/>
      <path fill="#141A33" d="M549.066 640.541c-.057.038-.136.051-.198.013l-6.932-3.422 3.224 5.839c.062.113.034.259-.068.329-.101.069-.231.038-.293-.076l-3.579-6.497a.264.264 0 01.023-.285.202.202 0 01.248-.063l7.039 3.473-3.06-7.231a.254.254 0 01.101-.316c.107-.057.231-.007.282.114l3.309 7.812a.254.254 0 01-.04.266c-.028.025-.039.038-.056.044zM576.339 658.292a.201.201 0 01-.197-.012l-6.443-4.473 2.463 6.288c.046.12 0 .259-.107.316-.107.051-.231 0-.281-.12l-2.74-6.99a.255.255 0 01.057-.278.202.202 0 01.253-.026l6.538 4.542-2.13-7.642c-.034-.126.028-.259.141-.297.112-.038.231.032.265.158l2.299 8.25a.248.248 0 01-.073.259c-.017.006-.034.019-.045.025z"/>
    </g>
  </g>
</svg>
