<svg xmlns="http://www.w3.org/2000/svg" width="2496" height="2459" fill="none" viewBox="0 0 2496 2459">
  <path fill="#FFB000" d="M1892.33 1855.9c332.87-332.87 332.87-872.561 0-1205.433-332.88-332.872-872.57-332.872-1205.44 0-332.872 332.872-332.872 872.563 0 1205.433 332.87 332.87 872.56 332.87 1205.44 0zM734.245 479.545c67.267-67.267 67.267-176.329 0-243.596s-176.329-67.267-243.596 0-67.267 176.329 0 243.596 176.329 67.267 243.596 0zM1947.35 401.138c73.85-73.848 73.85-193.578 0-267.425-73.85-73.848-193.58-73.848-267.42 0-73.85 73.847-73.85 193.577 0 267.425 73.84 73.847 193.57 73.847 267.42 0zM2215.98 786.781c57.54-9.34 96.62-63.562 87.28-121.109-9.34-57.548-63.56-96.628-121.1-87.288-57.55 9.339-96.63 63.562-87.29 121.109 9.34 57.547 63.56 96.627 121.11 87.288zM544.605 2159.75c43.664-43.66 43.664-114.46 0-158.12-43.664-43.67-114.458-43.67-158.122 0-43.664 43.66-43.664 114.46 0 158.12 43.664 43.66 114.458 43.66 158.122 0zM2215.04 1914.46c0 58.63-47.53 106.15-106.16 106.15-58.63 0-106.15-47.53-106.15-106.15 0-58.62 47.53-106.16 106.15-106.16 58.64.01 106.16 47.53 106.16 106.16z"/>
  <path fill="#D3D1CF" d="M1712.64 911.59c-3.43 3.29 1.53 6.4-89.26-88.42-3.24-3.39-.82-3.8 36.98-40 3.43-3.29-1.52-6.41 89.26 88.42 3.25 3.39.82 3.8-36.98 40zM2113.74 1329.01c-3.43 3.29 1.55 6.38-89.26-88.42-3.24-3.39-.83-3.8 36.98-40 3.43-3.29-1.52-6.42 89.26 88.42 3.24 3.39.83 3.8-36.98 40z"/>
  <path fill="#D3D1CF" d="M1881.07 1568.86c-2.87 2.76-7.41 2.71-10.13-.11l-494.4-513.55c-2.72-2.83-2.6-7.36.27-10.13l264.21-254.361c2.87-2.77 7.41-2.72 10.13.11l494.4 513.551c2.72 2.83 2.6 7.36-.27 10.13l-264.21 254.36z"/>
  <path fill="#E8E8E8" d="M1885.33 1564.1c-2.87 2.77-7.4 2.72-10.12-.1l-493.69-512.8c-2.71-2.82-2.59-7.35.28-10.12l264.21-254.36c2.87-2.77 7.4-2.721 10.12.109l493.69 512.801c2.72 2.82 2.59 7.35-.28 10.12l-264.21 254.35z"/>
  <path fill="#C9C5C1" d="M1966.41 1451.79c-2.82 2.71-7.3 2.61-10.04-.22l-459.09-476.871c-2.73-2.83-2.66-7.329.15-10.029l161.07-155.071c2.81-2.71 7.3-2.61 10.03.23l459.1 476.871c2.73 2.83 2.66 7.33-.15 10.03l-161.07 155.06z"/>
  <path fill="#D1CCC7" d="M1714.27 1349.33c-2.65 2.56-6.88 2.48-9.44-.18l-121.08-125.77a6.67 6.67 0 01.18-9.44l57.32-55.18c2.66-2.56 6.89-2.48 9.44.18l121.08 125.77a6.67 6.67 0 01-.18 9.44l-57.32 55.18z"/>
  <path fill="#D8D0CA" d="M1715.13 1342.04c-2.36 2.27-6.24 2.06-8.67-.47l-115.15-119.61c-2.44-2.53-2.5-6.41-.14-8.68l50.85-48.95c2.36-2.27 6.24-2.06 8.67.47l115.15 119.61c2.43 2.53 2.49 6.42.14 8.69l-50.85 48.94z"/>
  <path fill="#413E3F" d="M1684.96 858.069c-2.71 2.61-3 .721-32.02-29.409-2.47-2.57.72-4.4 8.35-11.74 2.71-2.61 3.05-.681 32.02 29.409 2.47 2.57-.72 4.4-8.35 11.74zM1719.53 893.98c-2.72 2.61-3.01.719-32.02-29.411-2.47-2.57.72-4.41 8.35-11.74 2.71-2.61 3.01-.719 32.02 29.411 2.46 2.56-.73 4.4-8.35 11.74zM1756.91 932.81c-2.71 2.62-3.01.72-32.02-29.4-2.47-2.57.72-4.4 8.35-11.74 2.71-2.61 3.01-.721 32.02 29.399 2.47 2.56-.73 4.401-8.35 11.741zM1791.48 968.709c-2.71 2.61-3.02.731-32.02-29.409-2.47-2.57.72-4.41 8.35-11.74 2.71-2.61 3.02-.73 32.02 29.399 2.46 2.57-.73 4.41-8.35 11.75zM1827.14 1005.76c-2.71 2.61-3.01.72-32.02-29.41-2.47-2.57.72-4.4 8.35-11.74 2.71-2.61 3.01-.71 32.02 29.4 2.47 2.57-.73 4.41-8.35 11.75zM1861.7 1041.66c-2.72 2.62-3.09.64-32.02-29.41-2.47-2.57.72-4.4 8.35-11.74 2.71-2.611 3.02-.731 32.02 29.41 2.47 2.56-.72 4.4-8.35 11.74zM1901.32 1082.81c-2.71 2.61-3.02.73-32.02-29.41-2.47-2.57.72-4.4 8.35-11.74 2.71-2.61 3-.71 32.02 29.41 2.47 2.56-.73 4.4-8.35 11.74zM1935.88 1118.71c-2.71 2.61-3.01.72-32.02-29.41-2.64-2.74 1.45-5.1 8.35-11.74 2.72-2.62 3.09-.64 32.02 29.4 2.46 2.56-.68 4.38-8.35 11.75zM1972.15 1156.67c-2.71 2.61-3.02.72-32.02-29.41-2.47-2.57.72-4.4 8.35-11.74 2.72-2.62 3.09-.64 32.02 29.41 2.46 2.57-.73 4.41-8.35 11.74zM2006.71 1192.57c-2.71 2.61-3.01.72-32.02-29.41-2.47-2.57.73-4.4 8.35-11.74 2.71-2.61 3.01-.72 32.02 29.41 2.47 2.57-.73 4.41-8.35 11.74zM2042.89 1230.55c-2.71 2.61-3.02.72-32.02-29.41-2.64-2.74 1.45-5.1 8.35-11.74 2.71-2.61 3.02-.72 32.02 29.41 2.46 2.56-.72 4.4-8.35 11.74zM2077.45 1266.45c-2.71 2.61-3.01.72-32.02-29.41-2.47-2.56.71-4.39 8.35-11.74 2.71-2.61 3.01-.72 32.02 29.41 2.47 2.56-.72 4.4-8.35 11.74zM2105.4 1295.68c-2.75 2.65-2.93.81-26.04-23.19-1.97-2.05 1.08-4 8.71-11.36 2.75-2.64 2.93-.82 26.04 23.19 1.98 2.05-1.07 4-8.71 11.36zM1561.26 956.949c-2.14 2.06-4.44 3.14-5.14 2.41l-19.31-20.059c-1.74-1.8 5.28-7.621 19.24-21.061 2.13-2.06 4.44-3.14 5.14-2.41l19.31 20.061c1.73 1.8-5.26 7.599-19.24 21.059z"/>
  <path fill="#514D4F" d="M1560.95 954.61c-1.88 1.81-3.9 2.76-4.52 2.12l-16.98-17.64c-1.53-1.59 4.71-6.761 16.92-18.521 1.88-1.81 3.9-2.76 4.51-2.12l16.98 17.641c1.53 1.59-4.61 6.67-16.91 18.52z"/>
  <path fill="#413E3F" d="M1589.23 930.01c-2.14 2.06-4.43 3.14-5.14 2.41l-19.31-20.061c-1.75-1.82 5.46-7.799 19.24-21.059 2.14-2.06 4.44-3.14 5.14-2.41l19.31 20.059c1.73 1.81-5.26 7.601-19.24 21.061z"/>
  <path fill="#514D4F" d="M1588.92 927.68c-1.88 1.81-3.9 2.76-4.51 2.12l-16.98-17.64c-1.54-1.6 4.8-6.85 16.92-18.52 1.88-1.81 3.9-2.76 4.52-2.12l16.98 17.64c1.52 1.6-4.6 6.65-16.93 18.52z"/>
  <path fill="#413E3F" d="M1617.99 902.329c-2.14 2.06-4.44 3.14-5.13 2.41l-19.31-20.059c-1.74-1.8 5.25-7.591 19.24-21.061 2.14-2.06 4.44-3.14 5.13-2.41l19.31 20.061c1.73 1.81-5.26 7.599-19.24 21.059z"/>
  <path fill="#514D4F" d="M1617.67 900c-1.88 1.81-3.9 2.76-4.51 2.12l-16.98-17.64c-1.54-1.6 4.8-6.85 16.92-18.52 1.88-1.81 3.9-2.76 4.52-2.12l16.98 17.64c1.52 1.59-4.67 6.71-16.93 18.52z"/>
  <path fill="#413E3F" d="M1647.33 874.079c-2.13 2.06-4.43 3.14-5.13 2.41l-19.31-20.059c-1.73-1.8 5.26-7.591 19.24-21.061 2.14-2.06 4.43-3.13 5.13-2.41l19.31 20.06c1.73 1.81-5.26 7.6-19.24 21.06z"/>
  <path fill="#514D4F" d="M1647.02 871.75c-1.88 1.81-3.9 2.76-4.52 2.12l-16.98-17.64c-1.52-1.58 4.66-6.71 16.92-18.52 1.88-1.81 3.9-2.76 4.52-2.12l16.98 17.64c1.54 1.6-4.8 6.85-16.92 18.52z"/>
  <path fill="#413E3F" d="M1530.38 986.67c-2.13 2.06-4.43 3.129-5.13 2.409l-19.31-20.059c-1.74-1.8 5.28-7.621 19.24-21.061 2.14-2.06 4.44-3.139 5.14-2.409l19.31 20.06c1.72 1.81-5.27 7.6-19.25 21.06z"/>
  <path fill="#514D4F" d="M1530.07 984.34c-1.88 1.81-3.9 2.76-4.52 2.12l-16.98-17.641c-1.52-1.58 4.66-6.709 16.92-18.519 1.88-1.81 3.9-2.76 4.52-2.12l16.98 17.639c1.53 1.6-4.8 6.861-16.92 18.521z"/>
  <path fill="#413E3F" d="M1556.42 1013.16c-2.13 2.06-4.43 3.14-5.14 2.41l-19.31-20.06c-1.73-1.8 5.25-7.601 19.24-21.061 2.14-2.06 4.44-3.139 5.13-2.409l19.31 20.059c1.75 1.81-5.27 7.631-19.23 21.061z"/>
  <path fill="#514D4F" d="M1556.11 1010.83c-1.88 1.81-3.9 2.76-4.52 2.12l-16.98-17.64c-1.53-1.59 4.7-6.76 16.91-18.52 1.88-1.81 3.9-2.76 4.52-2.12l16.98 17.64c1.55 1.6-4.79 6.849-16.91 18.52z"/>
  <path fill="#413E3F" d="M1581.32 1039.51c-2.14 2.06-4.43 3.14-5.14 2.41l-19.31-20.06c-1.74-1.81 5.28-7.62 19.24-21.06 2.13-2.06 4.43-3.14 5.13-2.41l19.31 20.06c1.74 1.81-5.28 7.62-19.23 21.06z"/>
  <path fill="#514D4F" d="M1581.01 1037.18c-1.88 1.81-3.9 2.76-4.51 2.12l-16.98-17.64c-1.54-1.59 4.71-6.76 16.92-18.52 1.88-1.81 3.9-2.76 4.52-2.12l16.98 17.64c1.52 1.6-4.72 6.76-16.93 18.52z"/>
  <path fill="#413E3F" d="M1586.57 983.519c-2.13 2.06-4.43 3.131-5.13 2.411l-19.31-20.061c-1.73-1.8 5.25-7.589 19.24-21.059 2.14-2.06 4.43-3.131 5.13-2.411l19.31 20.06c1.74 1.81-5.28 7.62-19.24 21.06z"/>
  <path fill="#514D4F" d="M1586.26 981.18c-1.88 1.81-3.9 2.76-4.52 2.12l-16.98-17.64c-1.52-1.58 4.65-6.71 16.92-18.52 1.88-1.81 3.9-2.75 4.52-2.12l16.98 17.64c1.52 1.59-4.66 6.72-16.92 18.52z"/>
  <path fill="#413E3F" d="M1612.62 1010.01c-2.14 2.06-4.43 3.13-5.14 2.41l-19.31-20.061c-1.73-1.8 5.25-7.589 19.24-21.059 2.14-2.06 4.44-3.14 5.14-2.41l19.31 20.059c1.73 1.81-5.29 7.621-19.24 21.061z"/>
  <path fill="#514D4F" d="M1612.3 1007.68c-1.88 1.81-3.9 2.76-4.52 2.12l-16.98-17.64c-1.52-1.59 4.66-6.71 16.92-18.52 1.88-1.81 3.9-2.76 4.52-2.12l16.98 17.64c1.52 1.58-4.61 6.67-16.92 18.52z"/>
  <path fill="#413E3F" d="M1637.51 1036.36c-2.13 2.06-4.43 3.14-5.13 2.41l-19.31-20.06c-1.74-1.8 5.28-7.62 19.24-21.06 2.13-2.06 4.44-3.141 5.13-2.411l19.31 20.061c1.73 1.8-5.26 7.59-19.24 21.06z"/>
  <path fill="#514D4F" d="M1637.2 1034.02c-1.88 1.81-3.9 2.76-4.52 2.12l-16.98-17.64c-1.54-1.6 4.8-6.85 16.92-18.52 1.88-1.81 3.9-2.76 4.52-2.12l16.98 17.64c1.52 1.59-4.62 6.68-16.92 18.52z"/>
  <path fill="#413E3F" d="M1663.8 1063.75c-2.14 2.06-4.43 3.14-5.13 2.41l-19.31-20.06c-1.73-1.8 5.25-7.59 19.24-21.06 2.13-2.06 4.44-3.14 5.14-2.41l19.31 20.06c1.72 1.8-5.27 7.59-19.25 21.06z"/>
  <path fill="#514D4F" d="M1663.48 1061.41c-1.88 1.81-3.9 2.76-4.52 2.12l-16.98-17.64c-1.53-1.59 4.58-6.64 16.92-18.52 1.88-1.81 3.9-2.75 4.52-2.11l16.98 17.64c1.53 1.58-4.63 6.69-16.92 18.51z"/>
  <path fill="#413E3F" d="M1689.84 1090.24c-2.14 2.06-4.44 3.13-5.13 2.41l-19.31-20.06c-1.73-1.8 5.26-7.59 19.24-21.06 2.14-2.06 4.43-3.14 5.13-2.41l19.31 20.06c1.74 1.8-5.25 7.59-19.24 21.06z"/>
  <path fill="#514D4F" d="M1689.53 1087.9c-1.88 1.81-3.9 2.76-4.52 2.12l-16.98-17.64c-1.54-1.6 4.8-6.85 16.92-18.52 1.88-1.81 3.9-2.76 4.51-2.12l16.98 17.64c1.53 1.59-4.6 6.68-16.91 18.52z"/>
  <path fill="#413E3F" d="M1714.74 1116.59c-2.14 2.06-4.43 3.14-5.14 2.41l-19.31-20.06c-1.75-1.81 5.41-7.76 19.24-21.06 2.13-2.06 4.43-3.14 5.13-2.41l19.31 20.06c1.75 1.81-5.27 7.62-19.23 21.06z"/>
  <path fill="#514D4F" d="M1714.43 1114.25c-1.88 1.81-3.9 2.76-4.52 2.12l-16.98-17.64c-1.54-1.6 4.8-6.85 16.92-18.52 1.88-1.81 3.9-2.76 4.52-2.12l16.98 17.64c1.53 1.6-4.71 6.77-16.92 18.52z"/>
  <g>
    <path fill="#413E3F" d="M1743.03 1146.04c-2.14 2.06-4.43 3.14-5.14 2.41l-19.31-20.06c-1.73-1.8 5.25-7.59 19.24-21.05 2.14-2.06 4.43-3.14 5.13-2.41l19.31 20.06c1.75 1.79-5.24 7.59-19.23 21.05z"/>
    <path fill="#514D4F" d="M1742.72 1143.7c-1.88 1.81-3.9 2.76-4.52 2.12l-16.98-17.64c-1.52-1.59 4.61-6.67 16.92-18.52 1.88-1.81 3.9-2.76 4.52-2.12l16.98 17.64c1.54 1.61-4.8 6.86-16.92 18.52z"/>
    <path fill="#413E3F" d="M1769.08 1172.53c-2.14 2.05-4.44 3.13-5.14 2.41l-19.31-20.06c-1.74-1.8 5.28-7.62 19.24-21.05 2.14-2.06 4.43-3.14 5.13-2.41l19.31 20.06c1.74 1.79-5.24 7.59-19.23 21.05z"/>
    <path fill="#514D4F" d="M1768.77 1170.19c-1.88 1.81-3.9 2.76-4.51 2.12l-16.98-17.64c-1.53-1.58 4.62-6.67 16.92-18.52 1.88-1.81 3.9-2.76 4.52-2.12l16.98 17.64c1.51 1.59-4.63 6.67-16.93 18.52z"/>
    <g>
      <path fill="#413E3F" d="M1793.98 1198.88c-2.14 2.06-4.44 3.14-5.14 2.41l-19.31-20.06c-1.73-1.8 5.25-7.6 19.24-21.05 2.14-2.06 4.44-3.14 5.14-2.41l19.31 20.06c1.73 1.79-5.26 7.58-19.24 21.05z"/>
      <path fill="#514D4F" d="M1793.66 1196.54c-1.88 1.81-3.9 2.76-4.52 2.12l-16.98-17.64c-1.54-1.59 4.7-6.76 16.92-18.52 1.88-1.81 3.9-2.76 4.51-2.12l16.98 17.64c1.54 1.6-4.7 6.76-16.91 18.52z"/>
    </g>
  </g>
  <g>
    <path fill="#413E3F" d="M1820.26 1226.26c-2.13 2.06-4.43 3.14-5.13 2.41l-19.31-20.06c-1.73-1.8 5.25-7.59 19.24-21.06 2.14-2.06 4.43-3.14 5.14-2.41l19.31 20.06c1.73 1.81-5.26 7.6-19.25 21.06z"/>
    <path fill="#514D4F" d="M1819.95 1223.93c-1.88 1.81-3.9 2.76-4.52 2.12l-16.98-17.64c-1.54-1.6 4.79-6.85 16.92-18.52 1.88-1.81 3.9-2.75 4.51-2.12l16.98 17.64c1.54 1.6-4.79 6.86-16.91 18.52z"/>
    <path fill="#413E3F" d="M1846.31 1252.75c-2.14 2.06-4.44 3.14-5.14 2.41l-19.31-20.06c-1.74-1.81 5.28-7.62 19.24-21.06 2.14-2.06 4.43-3.14 5.14-2.41l19.31 20.06c1.73 1.81-5.28 7.63-19.24 21.06z"/>
    <path fill="#514D4F" d="M1845.99 1250.42c-1.88 1.81-3.9 2.76-4.52 2.12l-16.98-17.64c-1.53-1.59 4.71-6.76 16.92-18.52 1.88-1.81 3.9-2.76 4.52-2.12l16.98 17.64c1.54 1.59-4.71 6.76-16.92 18.52z"/>
    <g>
      <path fill="#413E3F" d="M1871.21 1279.1c-2.14 2.06-4.44 3.14-5.14 2.41l-19.31-20.06c-1.74-1.81 5.28-7.62 19.24-21.06 2.14-2.06 4.44-3.14 5.14-2.41l19.31 20.06c1.73 1.81-5.19 7.53-19.24 21.06z"/>
      <path fill="#514D4F" d="M1870.89 1276.77c-1.88 1.81-3.9 2.76-4.51 2.12l-16.98-17.64c-1.53-1.59 4.7-6.76 16.92-18.52 1.88-1.81 3.9-2.76 4.52-2.12l16.98 17.64c1.53 1.6-4.79 6.83-16.93 18.52z"/>
    </g>
  </g>
  <g>
    <path fill="#413E3F" d="M1615.38 957.449c-2.14 2.06-4.43 3.13-5.13 2.41l-19.31-20.059c-1.73-1.8 5.26-7.591 19.24-21.061 2.14-2.06 4.44-3.14 5.13-2.41l19.31 20.061c1.73 1.81-5.26 7.599-19.24 21.059z"/>
    <path fill="#514D4F" d="M1615.06 955.12c-1.88 1.81-3.9 2.76-4.52 2.12l-16.98-17.64c-1.53-1.58 4.61-6.671 16.92-18.521 1.88-1.81 3.9-2.759 4.52-2.119l16.98 17.64c1.53 1.59-4.7 6.76-16.92 18.52z"/>
    <path fill="#413E3F" d="M1641.42 983.939c-2.14 2.06-4.43 3.13-5.14 2.41l-19.31-20.059c-1.74-1.8 5.28-7.621 19.24-21.061 2.13-2.06 4.43-3.14 5.13-2.41l19.31 20.061c1.75 1.81-5.27 7.629-19.23 21.059z"/>
    <path fill="#514D4F" d="M1641.11 981.61c-1.88 1.81-3.9 2.76-4.52 2.12l-16.98-17.64c-1.53-1.59 4.7-6.761 16.92-18.521 1.88-1.81 3.9-2.76 4.52-2.12l16.98 17.641c1.52 1.59-4.61 6.67-16.92 18.52z"/>
    <g>
      <path fill="#413E3F" d="M1666.32 1010.29c-2.14 2.06-4.44 3.14-5.14 2.41l-19.31-20.06c-1.73-1.8 5.25-7.591 19.24-21.061 2.14-2.06 4.44-3.139 5.14-2.409l19.31 20.059c1.73 1.8-5.26 7.601-19.24 21.061z"/>
      <path fill="#514D4F" d="M1666.01 1007.96c-1.88 1.81-3.9 2.76-4.52 2.12l-16.98-17.641c-1.54-1.6 4.8-6.849 16.92-18.519 1.88-1.81 3.9-2.76 4.51-2.12l16.98 17.639c1.53 1.59-4.58 6.651-16.91 18.521z"/>
    </g>
    <g>
      <path fill="#413E3F" d="M1692.61 1037.68c-2.14 2.06-4.43 3.14-5.13 2.41l-19.31-20.06c-1.75-1.82 5.47-7.8 19.24-21.061 2.14-2.06 4.43-3.139 5.13-2.409l19.31 20.06c1.73 1.8-5.27 7.6-19.24 21.06z"/>
      <path fill="#514D4F" d="M1692.29 1035.34c-1.88 1.81-3.9 2.76-4.52 2.12l-16.98-17.64c-1.52-1.59 4.66-6.71 16.92-18.52 1.88-1.81 3.9-2.76 4.52-2.12l16.98 17.64c1.54 1.61-4.8 6.86-16.92 18.52z"/>
      <path fill="#413E3F" d="M1718.65 1064.17c-2.13 2.06-4.43 3.14-5.13 2.41l-19.31-20.06c-1.74-1.8 5.28-7.62 19.24-21.06 2.13-2.06 4.43-3.14 5.14-2.41l19.31 20.06c1.72 1.81-5.29 7.63-19.25 21.06z"/>
      <path fill="#514D4F" d="M1718.34 1061.84c-1.88 1.81-3.9 2.76-4.51 2.12l-16.98-17.64c-1.54-1.6 4.8-6.85 16.92-18.52 1.88-1.81 3.9-2.76 4.51-2.12l16.98 17.64c1.53 1.59-4.71 6.76-16.92 18.52z"/>
      <g>
        <path fill="#413E3F" d="M1743.55 1090.52c-2.14 2.06-4.44 3.14-5.14 2.41l-19.31-20.06c-1.73-1.8 5.25-7.59 19.24-21.05 2.14-2.06 4.44-3.14 5.14-2.41l19.31 20.06c1.73 1.8-5.29 7.61-19.24 21.05z"/>
        <path fill="#514D4F" d="M1743.23 1088.19c-1.88 1.81-3.9 2.76-4.52 2.12l-16.98-17.64c-1.54-1.6 4.8-6.85 16.92-18.51 1.88-1.81 3.9-2.76 4.52-2.12l16.98 17.64c1.53 1.57-4.61 6.66-16.92 18.51z"/>
      </g>
    </g>
    <g>
      <path fill="#413E3F" d="M1771.84 1119.97c-2.14 2.06-4.43 3.13-5.14 2.41l-19.31-20.06c-1.74-1.8 5.28-7.62 19.24-21.06 2.14-2.06 4.44-3.14 5.14-2.41l19.31 20.06c1.75 1.82-5.48 7.81-19.24 21.06z"/>
      <path fill="#514D4F" d="M1771.53 1117.64c-1.88 1.81-3.9 2.76-4.52 2.12l-16.98-17.64c-1.54-1.6 4.8-6.85 16.92-18.52 1.88-1.81 3.9-2.76 4.52-2.12l16.98 17.64c1.53 1.59-4.59 6.65-16.92 18.52z"/>
      <path fill="#413E3F" d="M1797.89 1146.46c-2.14 2.06-4.44 3.14-5.14 2.41l-19.31-20.06c-1.74-1.8 5.28-7.62 19.24-21.06 2.14-2.06 4.44-3.13 5.14-2.41l19.31 20.06c1.74 1.82-5.29 7.62-19.24 21.06z"/>
      <path fill="#514D4F" d="M1797.57 1144.13c-1.88 1.81-3.9 2.76-4.52 2.12l-16.98-17.64c-1.54-1.6 4.8-6.85 16.92-18.52 1.88-1.81 3.9-2.76 4.51-2.12l16.98 17.64c1.5 1.55-3.62 5.72-16.91 18.52z"/>
      <g>
        <path fill="#413E3F" d="M1822.78 1172.81c-2.14 2.06-4.43 3.14-5.13 2.41l-19.31-20.06c-1.74-1.8 5.28-7.62 19.24-21.06 2.14-2.06 4.44-3.14 5.14-2.41l19.31 20.06c1.77 1.85-5.64 7.97-19.25 21.06z"/>
        <path fill="#514D4F" d="M1822.47 1170.48c-1.88 1.81-3.9 2.76-4.52 2.12l-16.98-17.64c-1.53-1.59 4.71-6.76 16.92-18.52 1.88-1.81 3.9-2.76 4.51-2.12l16.98 17.64c1.54 1.59-4.58 6.64-16.91 18.52z"/>
      </g>
    </g>
    <g>
      <path fill="#413E3F" d="M1849.07 1200.2c-2.14 2.06-4.43 3.13-5.13 2.41l-19.31-20.06c-1.73-1.81 5.29-7.62 19.24-21.05 2.14-2.06 4.43-3.13 5.14-2.41l19.31 20.06c1.72 1.79-5.27 7.59-19.25 21.05z"/>
      <path fill="#514D4F" d="M1848.75 1197.86c-1.88 1.81-3.9 2.76-4.51 2.12l-16.98-17.64c-1.54-1.6 4.79-6.85 16.92-18.52 1.88-1.81 3.9-2.76 4.52-2.12l16.98 17.64c1.52 1.6-4.59 6.65-16.93 18.52z"/>
      <path fill="#413E3F" d="M1875.12 1226.69c-2.14 2.06-4.44 3.13-5.13 2.41l-19.31-20.06c-1.78-1.85 5.64-7.96 19.24-21.06 2.14-2.06 4.44-3.14 5.14-2.41l19.31 20.06c1.72 1.8-5.27 7.6-19.25 21.06z"/>
      <path fill="#514D4F" d="M1874.8 1224.35c-1.88 1.81-3.9 2.76-4.51 2.12l-16.98-17.64c-1.53-1.58 4.61-6.67 16.92-18.52 1.88-1.81 3.9-2.76 4.52-2.12l16.98 17.64c1.51 1.59-4.67 6.72-16.93 18.52z"/>
      <g>
        <path fill="#413E3F" d="M1900.01 1253.04c-2.14 2.06-4.44 3.13-5.14 2.41l-19.31-20.06c-1.73-1.8 5.26-7.59 19.24-21.05 2.13-2.06 4.43-3.14 5.13-2.41l19.31 20.06c1.75 1.79-5.24 7.59-19.23 21.05z"/>
        <path fill="#514D4F" d="M1899.7 1250.7c-1.88 1.81-3.9 2.76-4.51 2.12l-16.98-17.64c-1.53-1.59 4.71-6.76 16.92-18.52 1.88-1.81 3.9-2.76 4.52-2.12l16.98 17.64c1.52 1.61-4.82 6.85-16.93 18.52z"/>
      </g>
    </g>
  </g>
  <g>
    <path fill="#413E3F" d="M1644.73 929.939c-2.14 2.06-4.44 3.14-5.14 2.41l-19.31-20.059c-1.74-1.8 5.28-7.621 19.24-21.061 2.14-2.06 4.44-3.14 5.13-2.41l19.31 20.061c1.74 1.81-5.25 7.599-19.23 21.059z"/>
    <path fill="#514D4F" d="M1644.41 927.61c-1.88 1.81-3.9 2.76-4.52 2.12l-16.98-17.64c-1.53-1.59 4.71-6.761 16.92-18.521 1.88-1.81 3.9-2.76 4.52-2.12l16.98 17.641c1.53 1.59-4.71 6.76-16.92 18.52z"/>
    <path fill="#413E3F" d="M1670.77 956.43c-2.14 2.06-4.43 3.139-5.13 2.409l-19.31-20.059c-1.74-1.8 5.25-7.601 19.24-21.051 2.13-2.06 4.44-3.14 5.13-2.41l19.31 20.061c1.73 1.8-5.26 7.58-19.24 21.05z"/>
    <path fill="#514D4F" d="M1670.45 954.1c-1.88 1.81-3.9 2.759-4.51 2.119l-16.98-17.64c-1.53-1.59 4.71-6.759 16.92-18.519 1.88-1.81 3.9-2.761 4.52-2.121l16.98 17.64c1.52 1.58-4.66 6.711-16.93 18.521z"/>
    <g>
      <path fill="#413E3F" d="M1695.67 982.78c-2.14 2.06-4.43 3.139-5.14 2.409l-19.31-20.06c-1.74-1.81 5.28-7.62 19.24-21.06 2.13-2.06 4.43-3.129 5.14-2.409l19.31 20.059c1.74 1.82-5.48 7.801-19.24 21.061z"/>
      <path fill="#514D4F" d="M1695.35 980.449c-1.88 1.81-3.9 2.76-4.51 2.12l-16.98-17.639c-1.53-1.59 4.59-6.64 16.92-18.52 1.88-1.81 3.9-2.76 4.51-2.12l16.98 17.64c1.53 1.58-4.61 6.669-16.92 18.519z"/>
    </g>
    <g>
      <path fill="#413E3F" d="M1721.95 1010.17c-2.14 2.06-4.43 3.13-5.13 2.41l-19.31-20.061c-1.73-1.8 5.25-7.59 19.24-21.06 2.14-2.06 4.43-3.129 5.14-2.409l19.31 20.059c1.72 1.8-5.26 7.591-19.25 21.061z"/>
      <path fill="#514D4F" d="M1721.64 1007.83c-1.88 1.81-3.9 2.76-4.52 2.12l-16.98-17.64c-1.53-1.59 4.7-6.76 16.92-18.52 1.88-1.81 3.9-2.76 4.52-2.12l16.98 17.64c1.53 1.6-4.59 6.649-16.92 18.52z"/>
      <path fill="#413E3F" d="M1748 1036.66c-2.13 2.06-4.43 3.14-5.13 2.41l-19.31-20.06c-1.73-1.8 5.25-7.59 19.24-21.061 2.14-2.06 4.44-3.129 5.14-2.409l19.31 20.06c1.72 1.8-5.27 7.59-19.25 21.06z"/>
      <path fill="#514D4F" d="M1747.68 1034.32c-1.88 1.81-3.9 2.76-4.52 2.12l-16.98-17.64c-1.53-1.59 4.71-6.75 16.92-18.51 1.88-1.81 3.9-2.76 4.52-2.12l16.98 17.64c1.52 1.57-4.58 6.64-16.92 18.51z"/>
      <g>
        <path fill="#413E3F" d="M1772.89 1063.01c-2.13 2.06-4.43 3.14-5.13 2.41l-19.31-20.06c-1.74-1.8 5.28-7.62 19.24-21.05 2.14-2.06 4.44-3.14 5.14-2.41l19.31 20.06c1.73 1.79-5.29 7.61-19.25 21.05z"/>
        <path fill="#514D4F" d="M1772.58 1060.67c-1.88 1.81-3.9 2.76-4.52 2.12l-16.98-17.64c-1.53-1.58 4.61-6.67 16.92-18.52 1.88-1.81 3.9-2.76 4.52-2.12l16.98 17.64c1.53 1.59-4.61 6.68-16.92 18.52z"/>
      </g>
    </g>
    <g>
      <path fill="#413E3F" d="M1801.19 1092.46c-2.13 2.06-4.43 3.13-5.13 2.41l-19.31-20.06c-1.73-1.8 5.27-7.6 19.24-21.06 2.13-2.06 4.43-3.14 5.14-2.41l19.31 20.06c1.72 1.8-5.27 7.6-19.25 21.06z"/>
      <path fill="#514D4F" d="M1800.87 1090.12c-1.88 1.81-3.9 2.76-4.52 2.12l-16.98-17.64c-1.53-1.59 4.58-6.64 16.92-18.52 1.88-1.81 3.9-2.76 4.52-2.12l16.98 17.64c1.53 1.59-4.61 6.68-16.92 18.52z"/>
      <path fill="#413E3F" d="M1827.23 1118.95c-2.14 2.06-4.44 3.14-5.14 2.41l-19.31-20.06c-1.74-1.8 5.28-7.62 19.24-21.05 2.13-2.06 4.43-3.14 5.13-2.41l19.31 20.06c1.75 1.79-5.25 7.58-19.23 21.05z"/>
      <path fill="#514D4F" d="M1826.92 1116.61c-1.88 1.81-3.9 2.76-4.52 2.12l-16.98-17.64c-1.52-1.58 4.61-6.67 16.92-18.52 1.88-1.81 3.9-2.76 4.51-2.12l16.98 17.64c1.54 1.59-4.61 6.67-16.91 18.52z"/>
      <g>
        <path fill="#413E3F" d="M1852.13 1145.3c-2.14 2.06-4.44 3.14-5.14 2.41l-19.31-20.06c-1.74-1.8 5.28-7.62 19.24-21.06 2.14-2.06 4.44-3.13 5.14-2.41l19.31 20.06c1.74 1.81-5.28 7.62-19.24 21.06z"/>
        <path fill="#514D4F" d="M1851.82 1142.96c-1.88 1.81-3.9 2.76-4.52 2.12l-16.98-17.64c-1.54-1.6 4.8-6.85 16.92-18.52 1.88-1.81 3.9-2.76 4.52-2.12l16.98 17.64c1.53 1.61-4.8 6.86-16.92 18.52z"/>
      </g>
    </g>
    <g>
      <path fill="#413E3F" d="M1878.42 1172.69c-2.13 2.06-4.43 3.14-5.14 2.41l-19.31-20.06c-1.73-1.8 5.25-7.6 19.24-21.06 2.13-2.06 4.44-3.13 5.13-2.41l19.31 20.06c1.74 1.8-5.25 7.59-19.23 21.06z"/>
      <path fill="#514D4F" d="M1878.11 1170.35c-1.88 1.81-3.9 2.76-4.52 2.12l-16.98-17.64c-1.54-1.59 4.7-6.76 16.92-18.51 1.88-1.81 3.9-2.76 4.52-2.12l16.98 17.64c1.52 1.59-4.59 6.64-16.92 18.51z"/>
      <path fill="#413E3F" d="M1904.46 1199.18c-2.14 2.06-4.44 3.13-5.14 2.41l-19.31-20.06c-1.73-1.8 5.25-7.59 19.24-21.06 2.14-2.06 4.43-3.14 5.14-2.41l19.31 20.06c1.74 1.81-5.29 7.62-19.24 21.06z"/>
      <path fill="#514D4F" d="M1904.15 1196.84c-1.88 1.81-3.9 2.76-4.51 2.12l-16.98-17.64c-1.52-1.59 4.66-6.71 16.92-18.52 1.88-1.81 3.9-2.76 4.51-2.12l16.98 17.64c1.52 1.59-4.62 6.67-16.92 18.52z"/>
      <g>
        <path fill="#413E3F" d="M1929.36 1225.53c-2.14 2.06-4.44 3.14-5.14 2.41l-19.31-20.06c-1.73-1.8 5.25-7.59 19.24-21.06 2.13-2.06 4.44-3.13 5.14-2.41l19.31 20.06c1.73 1.8-5.26 7.6-19.24 21.06z"/>
        <path fill="#514D4F" d="M1929.04 1223.19c-1.88 1.81-3.9 2.76-4.51 2.12l-16.98-17.64c-1.52-1.59 4.61-6.67 16.92-18.52 1.88-1.81 3.9-2.75 4.52-2.12l16.98 17.64c1.52 1.6-4.59 6.65-16.93 18.52z"/>
      </g>
    </g>
  </g>
  <g>
    <path fill="#413E3F" d="M1675.88 904.019c-2.13 2.06-4.44 3.131-5.13 2.411l-19.31-20.061c-1.74-1.8 5.25-7.599 19.24-21.059 2.14-2.06 4.44-3.131 5.13-2.411l19.31 20.06c1.74 1.8-5.25 7.59-19.24 21.06z"/>
    <path fill="#514D4F" d="M1675.57 901.689c-1.88 1.81-3.9 2.761-4.52 2.121l-16.98-17.64c-1.53-1.59 4.71-6.76 16.92-18.52 1.88-1.81 3.9-2.76 4.52-2.12l16.98 17.64c1.53 1.59-4.58 6.649-16.92 18.519z"/>
    <path fill="#413E3F" d="M1701.93 930.509c-2.14 2.06-4.44 3.141-5.13 2.411l-19.31-20.061c-1.73-1.8 5.28-7.619 19.24-21.059 2.14-2.06 4.44-3.131 5.13-2.411l19.31 20.06c1.73 1.81-5.28 7.63-19.24 21.06z"/>
    <path fill="#514D4F" d="M1701.62 928.18c-1.88 1.81-3.9 2.76-4.52 2.12l-16.98-17.64c-1.53-1.59 4.68-6.74 16.92-18.52 1.88-1.81 3.9-2.76 4.52-2.12l16.98 17.64c1.52 1.58-4.62 6.67-16.92 18.52z"/>
    <g>
      <path fill="#413E3F" d="M1726.83 956.859c-2.14 2.06-4.43 3.13-5.14 2.41l-19.31-20.06c-1.73-1.8 5.27-7.6 19.24-21.06 2.14-2.06 4.44-3.13 5.13-2.41l19.31 20.061c1.76 1.82-5.46 7.799-19.23 21.059z"/>
      <path fill="#514D4F" d="M1726.51 954.53c-1.88 1.81-3.9 2.76-4.51 2.12l-16.98-17.64c-1.52-1.58 4.61-6.67 16.92-18.52 1.88-1.81 3.9-2.76 4.51-2.12l16.98 17.64c1.53 1.58-4.61 6.67-16.92 18.52z"/>
    </g>
  </g>
  <g>
    <path fill="#413E3F" d="M1753.11 984.239c-2.14 2.06-4.44 3.141-5.14 2.411l-19.31-20.061c-1.73-1.8 5.25-7.589 19.24-21.059 2.14-2.06 4.44-3.141 5.14-2.411l19.31 20.061c1.74 1.81-5.28 7.629-19.24 21.059z"/>
    <path fill="#514D4F" d="M1752.8 981.91c-1.88 1.81-3.9 2.76-4.52 2.12l-16.98-17.64c-1.52-1.58 4.65-6.71 16.92-18.52 1.88-1.81 3.9-2.76 4.52-2.12l16.98 17.64c1.53 1.6-4.8 6.85-16.92 18.52z"/>
    <path fill="#413E3F" d="M1779.16 1010.74c-2.14 2.06-4.44 3.14-5.14 2.41l-19.31-20.061c-1.75-1.82 5.46-7.799 19.24-21.059 2.14-2.06 4.43-3.141 5.14-2.411l19.31 20.061c1.73 1.8-5.25 7.599-19.24 21.06z"/>
    <path fill="#514D4F" d="M1778.84 1008.4c-1.88 1.81-3.9 2.76-4.52 2.12l-16.98-17.64c-1.53-1.59 4.58-6.64 16.92-18.52 1.88-1.81 3.9-2.76 4.52-2.12l16.98 17.64c1.53 1.59-4.61 6.67-16.92 18.52z"/>
    <g>
      <path fill="#413E3F" d="M1804.05 1037.09c-2.14 2.06-4.44 3.14-5.13 2.41l-19.31-20.06c-1.74-1.81 5.28-7.62 19.24-21.06 2.14-2.06 4.44-3.141 5.14-2.411l19.31 20.061c1.73 1.8-5.26 7.59-19.25 21.06z"/>
      <path fill="#514D4F" d="M1803.74 1034.75c-1.88 1.81-3.9 2.76-4.52 2.12l-16.98-17.64c-1.54-1.6 4.8-6.85 16.92-18.52 1.88-1.81 3.9-2.76 4.52-2.12l16.98 17.64c1.53 1.59-4.66 6.72-16.92 18.52z"/>
    </g>
  </g>
  <g>
    <path fill="#413E3F" d="M1832.35 1066.54c-2.14 2.06-4.43 3.14-5.14 2.41l-19.31-20.06c-1.73-1.8 5.25-7.6 19.24-21.06 2.14-2.06 4.44-3.14 5.14-2.41l19.31 20.06c1.73 1.8-5.26 7.6-19.24 21.06z"/>
    <path fill="#514D4F" d="M1832.04 1064.2c-1.88 1.81-3.9 2.76-4.52 2.12l-16.98-17.64c-1.53-1.58 4.61-6.67 16.91-18.52 1.88-1.81 3.9-2.76 4.52-2.12l16.98 17.64c1.53 1.59-4.61 6.67-16.91 18.52z"/>
    <path fill="#413E3F" d="M1858.39 1093.03c-2.13 2.06-4.43 3.14-5.14 2.41l-19.31-20.06c-1.73-1.8 5.26-7.59 19.24-21.06 2.14-2.06 4.44-3.14 5.14-2.41l19.31 20.06c1.74 1.8-5.25 7.6-19.24 21.06z"/>
    <path fill="#514D4F" d="M1858.08 1090.69c-1.88 1.81-3.9 2.76-4.52 2.12l-16.98-17.64c-1.53-1.59 4.58-6.65 16.92-18.52 1.88-1.81 3.9-2.76 4.52-2.12l16.98 17.64c1.53 1.6-4.71 6.77-16.92 18.52z"/>
    <g>
      <path fill="#413E3F" d="M1883.29 1119.38c-2.14 2.06-4.44 3.14-5.13 2.41l-19.31-20.06c-1.73-1.81 5.28-7.63 19.24-21.06 2.14-2.06 4.44-3.14 5.14-2.41l19.31 20.06c1.72 1.8-5.27 7.59-19.25 21.06z"/>
      <path fill="#514D4F" d="M1882.98 1117.04c-1.88 1.81-3.9 2.76-4.52 2.12l-16.98-17.64c-1.53-1.58 4.61-6.67 16.92-18.51 1.88-1.81 3.9-2.76 4.52-2.12l16.98 17.64c1.53 1.59-4.71 6.75-16.92 18.51z"/>
    </g>
  </g>
  <g>
    <path fill="#413E3F" d="M1909.58 1146.77c-2.14 2.06-4.44 3.13-5.14 2.41l-19.31-20.06c-1.74-1.8 5.28-7.62 19.24-21.06 2.14-2.06 4.44-3.13 5.14-2.41l19.31 20.06c1.73 1.8-5.26 7.59-19.24 21.06z"/>
    <path fill="#514D4F" d="M1909.26 1144.43c-1.88 1.81-3.9 2.76-4.52 2.12l-16.98-17.64c-1.53-1.58 4.61-6.67 16.92-18.52 1.88-1.81 3.9-2.76 4.51-2.12l16.98 17.64c1.55 1.6-4.79 6.85-16.91 18.52z"/>
    <path fill="#413E3F" d="M1935.62 1173.26c-2.14 2.06-4.44 3.14-5.14 2.41l-19.31-20.06c-1.73-1.8 5.26-7.59 19.24-21.06 2.14-2.06 4.44-3.14 5.14-2.41l19.31 20.06c1.74 1.8-5.25 7.59-19.24 21.06z"/>
    <path fill="#514D4F" d="M1935.31 1170.92c-1.88 1.81-3.9 2.76-4.51 2.12l-16.98-17.63c-1.54-1.6 4.79-6.85 16.92-18.52 1.88-1.81 3.9-2.76 4.52-2.12l16.98 17.64c1.51 1.58-4.67 6.71-16.93 18.51z"/>
    <g>
      <path fill="#413E3F" d="M1960.52 1199.6c-2.14 2.06-4.44 3.14-5.13 2.41l-19.31-20.06c-1.69-1.76 4.13-6.52 19.24-21.06 2.14-2.06 4.44-3.14 5.14-2.41l19.31 20.06c1.72 1.81-5.27 7.6-19.25 21.06z"/>
      <path fill="#514D4F" d="M1960.2 1197.27c-1.88 1.81-3.9 2.76-4.51 2.12l-16.98-17.64c-1.54-1.6 4.8-6.84 16.92-18.52 1.88-1.81 3.9-2.76 4.52-2.12l16.98 17.64c1.52 1.59-4.62 6.67-16.93 18.52z"/>
    </g>
  </g>
  <g>
    <path fill="#413E3F" d="M1987.19 1227.46c-2.14 2.06-4.43 3.13-5.14 2.41l-19.31-20.05c-1.74-1.81 5.28-7.62 19.23-21.06 2.14-2.06 4.44-3.14 5.14-2.41l19.31 20.06c1.74 1.8-5.28 7.61-19.23 21.05z"/>
    <path fill="#514D4F" d="M1986.88 1225.12c-1.88 1.81-3.9 2.76-4.52 2.12l-16.98-17.64c-1.53-1.59 4.64-6.69 16.91-18.52 1.88-1.81 3.9-2.76 4.52-2.12l16.98 17.64c1.54 1.6-4.7 6.77-16.91 18.52z"/>
    <path fill="#413E3F" d="M2013.24 1253.95c-2.14 2.06-4.44 3.14-5.14 2.41l-19.31-20.06c-1.73-1.8 5.25-7.6 19.24-21.06 2.13-2.06 4.44-3.14 5.14-2.41l19.31 20.06c1.73 1.81-5.26 7.6-19.24 21.06z"/>
    <path fill="#514D4F" d="M2012.92 1251.62c-1.88 1.81-3.9 2.75-4.52 2.12l-16.98-17.64c-1.54-1.59 4.7-6.76 16.92-18.52 1.88-1.81 3.9-2.76 4.52-2.12l16.98 17.64c1.54 1.6-4.8 6.85-16.92 18.52z"/>
    <g>
      <path fill="#413E3F" d="M2038.13 1280.3c-2.14 2.06-4.44 3.13-5.13 2.41l-19.31-20.06c-1.73-1.8 5.25-7.6 19.24-21.06 2.14-2.06 4.44-3.14 5.13-2.41l19.31 20.06c1.74 1.81-5.18 7.52-19.24 21.06z"/>
      <path fill="#514D4F" d="M2037.82 1277.97c-1.88 1.81-3.9 2.76-4.52 2.12l-16.98-17.64c-1.54-1.6 4.8-6.85 16.92-18.52 1.88-1.81 3.9-2.76 4.52-2.12l16.98 17.64c1.54 1.6-4.81 6.85-16.92 18.52z"/>
    </g>
  </g>
  <g>
    <path fill="#413E3F" d="M1967.36 1379.05c-2.14 2.06-4.44 3.13-5.13 2.41l-19.31-20.06c-1.74-1.8 5.25-7.59 19.24-21.06 2.13-2.06 4.44-3.13 5.14-2.41l19.31 20.06c1.73 1.83-5.48 7.8-19.25 21.06z"/>
    <path fill="#514D4F" d="M1967.04 1376.72c-1.88 1.81-3.9 2.76-4.52 2.12l-16.98-17.64c-1.53-1.59 4.71-6.76 16.92-18.52 1.88-1.81 3.9-2.76 4.51-2.12l16.98 17.64c1.54 1.59-4.64 6.71-16.91 18.52z"/>
  </g>
  <g>
    <path fill="#413E3F" d="M1993.4 1405.54c-2.14 2.06-4.44 3.14-5.13 2.41l-19.31-20.06c-1.73-1.8 5.26-7.59 19.24-21.05 2.14-2.06 4.44-3.14 5.13-2.41l19.31 20.06c1.74 1.8-5.26 7.59-19.24 21.05z"/>
    <path fill="#514D4F" d="M1993.09 1403.21c-1.88 1.81-3.9 2.76-4.51 2.12l-16.98-17.64c-1.52-1.59 4.66-6.71 16.92-18.52 1.88-1.81 3.9-2.76 4.52-2.11l16.98 17.64c1.52 1.58-4.6 6.63-16.93 18.51z"/>
  </g>
  <g>
    <path fill="#413E3F" d="M1925.15 1278.66c-2.14 2.06-4.44 3.14-5.14 2.41l-19.31-20.06c-1.74-1.8 5.28-7.62 19.24-21.06 2.14-2.06 4.44-3.14 5.14-2.41l19.31 20.06c1.73 1.81-5.25 7.6-19.24 21.06z"/>
    <path fill="#514D4F" d="M1924.84 1276.33c-1.88 1.81-3.9 2.76-4.52 2.12l-16.98-17.64c-1.53-1.59 4.61-6.67 16.92-18.52 1.88-1.81 3.9-2.76 4.52-2.12l16.98 17.64c1.52 1.59-4.66 6.72-16.92 18.52z"/>
  </g>
  <g>
    <path fill="#413E3F" d="M1954.61 1251.26c-2.13 2.06-4.44 3.13-5.13 2.41l-19.31-20.06c-1.74-1.81 5.28-7.62 19.24-21.06 2.14-2.06 4.43-3.13 5.13-2.41l19.31 20.06c1.73 1.81-5.24 7.61-19.24 21.06z"/>
    <path fill="#514D4F" d="M1954.3 1248.93c-1.88 1.81-3.9 2.76-4.52 2.12l-16.98-17.64c-1.49-1.55 3.62-5.72 16.92-18.52 1.88-1.81 3.9-2.76 4.52-2.12l16.98 17.64c1.54 1.6-4.8 6.85-16.92 18.52z"/>
  </g>
  <g>
    <path fill="#413E3F" d="M1947.34 1299.77c-2.14 2.06-4.29 3.29-4.81 2.75l-14.31-14.86c-1.28-1.33 5.48-7.16 19.57-20.72 2.13-2.06 4.29-3.29 4.8-2.75l14.31 14.86c1.29 1.34-5.62 7.3-19.56 20.72z"/>
    <path fill="#514D4F" d="M1947.36 1297.79c-1.88 1.81-3.77 2.89-4.23 2.42l-12.59-13.07c-1.13-1.17 4.95-6.42 17.21-18.22 1.88-1.81 3.78-2.89 4.23-2.42l12.58 13.07c1.14 1.18-4.94 6.42-17.2 18.22z"/>
  </g>
  <g>
    <path fill="#413E3F" d="M1644.68 1105.33c-2.14 2.06-4.44 3.14-5.14 2.41l-19.31-20.06c-1.74-1.8 5.28-7.62 19.24-21.06 2.14-2.06 4.44-3.13 5.14-2.41l19.31 20.06c1.74 1.81-5.28 7.62-19.24 21.06z"/>
    <path fill="#514D4F" d="M1644.37 1103c-1.88 1.81-3.9 2.76-4.52 2.12l-16.98-17.64c-1.53-1.59 4.59-6.65 16.92-18.52 1.88-1.81 3.9-2.76 4.52-2.12l16.98 17.64c1.53 1.59-4.59 6.64-16.92 18.52z"/>
  </g>
  <g>
    <path fill="#413E3F" d="M1619.88 1079.57c-2.13 2.06-4.79 2.76-5.94 1.57l-31.59-32.81c-2.77-2.87 3.11-7.14 18.43-21.89 2.14-2.06 4.8-2.76 5.94-1.57l31.59 32.81c2.77 2.87-3.1 7.14-18.43 21.89z"/>
    <path fill="#514D4F" d="M1618.73 1076.36c-1.88 1.81-4.22 2.43-5.22 1.38l-27.78-28.86c-2.43-2.52 2.74-6.28 16.21-19.25 1.88-1.81 4.22-2.43 5.22-1.38l27.78 28.85c2.43 2.54-2.73 6.29-16.21 19.26z"/>
  </g>
  <g>
    <path fill="#413E3F" d="M1823.75 1293.63c-2.14 2.06-4.44 3.13-5.13 2.41l-19.31-20.06c-1.73-1.8 5.25-7.59 19.24-21.06 2.14-2.06 4.44-3.14 5.14-2.41l19.31 20.06c1.72 1.8-5.26 7.59-19.25 21.06z"/>
    <path fill="#514D4F" d="M1823.44 1291.29c-1.88 1.81-3.9 2.76-4.51 2.12l-16.98-17.64c-1.53-1.59 4.71-6.76 16.92-18.52 1.88-1.81 3.9-2.76 4.51-2.12l16.98 17.64c1.54 1.6-4.8 6.85-16.92 18.52z"/>
  </g>
  <g>
    <path fill="#413E3F" d="M1849.8 1320.12c-2.14 2.06-4.43 3.13-5.14 2.41l-19.31-20.06c-1.73-1.8 5.26-7.6 19.24-21.06 2.14-2.06 4.44-3.13 5.14-2.41l19.31 20.05c1.74 1.83-5.42 7.77-19.24 21.07z"/>
    <path fill="#514D4F" d="M1849.48 1317.78c-1.88 1.81-3.9 2.75-4.51 2.12l-16.98-17.64c-1.54-1.6 4.8-6.84 16.92-18.52 1.88-1.81 3.9-2.76 4.52-2.12l16.98 17.64c1.52 1.6-4.71 6.77-16.93 18.52z"/>
  </g>
  <g>
    <path fill="#413E3F" d="M1874.69 1346.47c-2.13 2.06-4.43 3.14-5.13 2.41l-19.31-20.06c-1.73-1.8 5.26-7.59 19.24-21.06 2.14-2.05 4.44-3.13 5.14-2.41l19.31 20.06c1.73 1.8-5.26 7.59-19.25 21.06z"/>
    <path fill="#514D4F" d="M1874.38 1344.13c-1.88 1.81-3.9 2.76-4.52 2.12l-16.98-17.64c-1.53-1.59 4.7-6.76 16.92-18.52 1.88-1.81 3.9-2.76 4.52-2.12l16.98 17.64c1.53 1.59-4.65 6.72-16.92 18.52z"/>
  </g>
  <g>
    <path fill="#413E3F" d="M1938.06 1412.28c-2.14 2.06-4.44 3.14-5.13 2.41l-19.31-20.06c-1.74-1.8 5.26-7.59 19.24-21.05 2.14-2.06 4.43-3.14 5.14-2.41l19.31 20.06c1.72 1.8-5.3 7.61-19.25 21.05z"/>
    <path fill="#514D4F" d="M1937.74 1409.95c-1.88 1.81-3.9 2.76-4.51 2.12l-16.98-17.64c-1.53-1.59 4.56-6.62 16.92-18.52 1.88-1.81 3.9-2.76 4.51-2.12l16.98 17.64c1.53 1.58-4.61 6.67-16.92 18.52z"/>
  </g>
  <g>
    <path fill="#413E3F" d="M1962.79 1439.99c-2.13 2.06-4.43 3.14-5.14 2.41l-19.31-20.06c-1.73-1.8 5.25-7.59 19.24-21.06 2.13-2.06 4.44-3.14 5.13-2.41l19.31 20.06c1.75 1.81-5.27 7.62-19.23 21.06z"/>
    <path fill="#514D4F" d="M1962.48 1437.65c-1.88 1.81-3.9 2.75-4.52 2.12l-16.98-17.64c-1.54-1.6 4.8-6.85 16.92-18.52 1.88-1.81 3.9-2.76 4.51-2.12l16.98 17.64c1.55 1.61-4.79 6.86-16.91 18.52z"/>
  </g>
  <g>
    <path fill="#413E3F" d="M1913.26 1386.52c-2.13 2.06-4.8 2.76-5.94 1.57l-31.59-32.81c-2.76-2.87 3.11-7.14 18.43-21.89 2.14-2.06 4.8-2.76 5.94-1.57l31.59 32.82c2.76 2.86-3.1 7.12-18.43 21.88z"/>
    <path fill="#514D4F" d="M1912.11 1383.32c-1.88 1.81-4.22 2.43-5.23 1.38l-27.78-28.86c-2.43-2.52 2.73-6.27 16.21-19.25 1.88-1.81 4.22-2.43 5.23-1.38l27.78 28.86c2.48 2.58-3.08 6.6-16.21 19.25z"/>
  </g>
  <g>
    <path fill="#413E3F" d="M1939.36 1349.4c-2.14 2.05-5.53 2-7.57-.12l-56.43-58.61c-2.05-2.13-1.97-5.51.16-7.57l16.64-16.02c2.13-2.06 5.52-2 7.57.12l56.43 58.62c2.04 2.12 1.97 5.51-.17 7.57l-16.63 16.01z"/>
    <path fill="#514D4F" d="M1936.51 1344.43c-1.88 1.81-4.86 1.76-6.66-.11l-49.62-51.54c-4.33-4.5 1.27-7.73 14.78-20.74 1.88-1.81 4.86-1.76 6.65.1l49.62 51.55c4.36 4.52-1.33 7.81-14.77 20.74z"/>
  </g>
  <g>
    <path fill="#413E3F" d="M2023.03 1376.96c-2.14 2.06-4.85 2.71-6.05 1.46l-33.25-34.53c-2.91-3.02 3-7.25 18.32-22.01 2.14-2.06 4.84-2.71 6.05-1.46l33.25 34.53c2.91 3.02-2.99 7.25-18.32 22.01z"/>
    <path fill="#514D4F" d="M2021.77 1373.64c-1.88 1.81-4.26 2.38-5.32 1.28l-29.24-30.37c-2.56-2.66 2.64-6.38 16.11-19.36 1.88-1.81 4.26-2.38 5.32-1.28l29.24 30.37c2.55 2.66-2.64 6.38-16.11 19.36z"/>
  </g>
  <g>
    <path fill="#413E3F" d="M2049.4 1349.72c-2.14 2.05-4.84 2.71-6.05 1.46l-33.25-34.53c-2.91-3.02 3-7.25 18.32-22.01 2.13-2.05 4.84-2.71 6.05-1.46l33.25 34.54c2.91 3.01-2.99 7.25-18.32 22z"/>
    <path fill="#514D4F" d="M2048.13 1346.39c-1.88 1.81-4.26 2.38-5.32 1.28l-29.23-30.37c-2.56-2.66 2.64-6.38 16.11-19.35 1.88-1.81 4.26-2.38 5.32-1.28l29.24 30.37c2.55 2.66-2.64 6.37-16.12 19.35z"/>
  </g>
  <g>
    <path fill="#413E3F" d="M2079.01 1322.59c-2.14 2.05-4.84 2.71-6.05 1.46l-33.25-34.53c-2.91-3.02 2.99-7.24 18.32-22 2.14-2.06 4.85-2.71 6.05-1.46l33.25 34.54c2.91 3-2.99 7.23-18.32 21.99z"/>
    <path fill="#514D4F" d="M2077.74 1319.27c-1.88 1.81-4.26 2.38-5.32 1.28l-29.24-30.37c-2.56-2.66 2.64-6.38 16.12-19.35 1.88-1.81 4.26-2.38 5.32-1.28l29.24 30.37c2.55 2.66-2.64 6.37-16.12 19.35z"/>
  </g>
  <g>
    <path fill="#413E3F" d="M1796.72 1265.27c-5.52 5.32-9.72-2.36-144.57-142.42-4.78-4.97-6.93-10.66-4.79-12.72l16.64-16.02c5.53-5.32 9.71 2.37 144.56 142.42 4.78 4.97 6.93 10.66 4.79 12.72l-16.63 16.02z"/>
    <path fill="#514D4F" d="M1788.72 1254.94c-4.86 4.68-8.51-2.03-127.13-125.24-4.21-4.37-6.09-9.38-4.21-11.19l14.63-14.08c4.85-4.68 8.5 2.04 127.13 125.24 4.21 4.37 6.09 9.38 4.21 11.18l-14.63 14.09z"/>
  </g>
  <g>
    <path fill="#413E3F" d="M2024.08 1283.57c-40.04-41.59-39.37-42.55-42.12-39.9-21.71 20.89-23.07 20.96-20.6 23.54l15.11 15.7-25.46 24.51c-2.74 2.64.06 3.93 21.31 25.99 2.62 2.73 3.29.54 31.16-26.29 21.58-20.79 23.11-20.95 20.6-23.55z"/>
    <path fill="#514D4F" d="M1952.28 1309.89c-.81-.85-1.59.42 26.83-26.94-17.48-18.16-17.21-17.39-16.39-18.18 22.05-21.13 20.86-20.56 21.66-19.74 40.54 42.19 39.22 40.11 38.32 40.96-51.21 49.28-48.21 46.97-49.05 46.1l-21.37-22.2z"/>
  </g>
  <path fill="#E8E8E8" d="M2469.12 1113c-6.8-7.08-607.94-633.23-614.49-640.05l-198.62 308.73c311.73 326.49 189.86 199.51 496.55 517.21L2469.12 1113z"/>
  <path fill="#262222" d="M1660.2 781.28l194.94-303 608.67 633.99-310.69 182.44c-296.65-307.301-183.51-189.38-492.92-513.43z"/>
  <path fill="#A783FF" d="M1681.2 779.27l176.52-274.37 579.6 603.7-281.33 165.2c-285.75-295.99-176.74-182.37-474.79-494.53z"/>
  <path fill="#D3D1CF" d="M1854.63 472.95c10.9-1.55-32.5-42.481 612.22 630.78 0 0 6.68 6.68 2.27 9.27l-614.49-640.05z"/>
  <path fill="#6630CE" d="M1694.83 757l482.6 505.29-21.18 12.44-474.78-494.531L1694.83 757z"/>
  <path fill="#F8FCFF" d="M1818.84 946.089l399.41-88.25 55.88 56.86-408.73 81.51-46.56-50.12z" opacity=".3"/>
  <path fill="#F8FCFF" d="M1849.1 979.729l399.42-88.25 55.87 56.85-408.73 81.521-46.56-50.121zM1983.39 1117.72l399.42-88.24 55.88 56.85-408.73 81.51-46.57-50.12z" opacity=".3"/>
  <path fill="#F8FCFF" d="M1680.51 802.55l386.66-81.25 36.55 39.83-384.92 81.52-38.29-40.1z" opacity=".2"/>
  <g>
    <path fill="#D4E6FF" d="M1632.94 1946.56H829.817v118.62h803.123v-118.62z"/>
    <path fill="#E9F3FF" d="M1194.27 1951.41H829.817v109.43h364.453v-109.43z"/>
    <path fill="#9393E5" d="M1647.02 1944.95c0 17.4 29.98 11.32-816.243 11.32-12.14 0-14.97-11.32-13.88-11.32 0-17.39-29.98-11.32 816.243-11.32 13.87 0 13.71 11.32 13.88 11.32z"/>
    <path fill="#A9A9FF" d="M1187.96 1956.27H823.217c-8.53 0-8.24-22.64 0-22.64h364.743c8.31 0 8.24 22.64 0 22.64z"/>
    <path fill="#9393E5" d="M1647.02 2067.03c0 17.39 29.98 11.32-816.243 11.32-12.14 0-14.97-11.32-13.88-11.32 0-17.39-29.98-11.32 816.243-11.32 13.87 0 13.71 11.32 13.88 11.32z"/>
    <path fill="#A9A9FF" d="M1187.96 2078.34H823.217c-8.53 0-8.24-22.64 0-22.64h364.743c8.31.01 8.24 22.64 0 22.64z"/>
    <path fill="#D1DFFF" d="M1632.94 1973.32c-864.363 0-803.123 2.95-803.123-5.35 864.363 0 803.123-2.95 803.123 5.35zM1633.52 1982.19c-864.363 0-803.123 2.95-803.123-5.35 864.363.01 803.123-2.95 803.123 5.35zM1632.65 1991.54c-864.363 0-803.123 2.95-803.123-5.34 864.363 0 803.123-2.96 803.123 5.34zM1633.23 2000.42c-864.363 0-803.123 2.95-803.123-5.35 864.363 0 803.123-2.95 803.123 5.35zM1633.38 2009.96c-864.363 0-803.123 2.95-803.123-5.35 864.363 0 803.123-2.95 803.123 5.35zM1633.96 2018.83c-864.363 0-803.123 2.95-803.123-5.35 864.363.01 803.123-2.94 803.123 5.35zM1633.09 2028.19c-864.363 0-803.123 2.95-803.123-5.35 864.363-.01 803.123-2.96 803.123 5.35zM1633.67 2037.06c-864.363 0-803.123 2.95-803.123-5.35 864.363 0 803.123-2.95 803.123 5.35z"/>
    <path fill="#58997B" d="M1482.38 2000.42s24.92 31.41 30.33 119.75c39.56-12.5 24.68-10.9 64.99-5.07 0 0 1.08-70.52-28.16-114.68h-67.16z"/>
    <path fill="#D4E6FF" d="M810.207 1680.35s33.71 67.97 0 137.86l430.193 5.01v-142.87H810.207z"/>
    <path fill="#E9F3FF" d="M1240.4 1680.35v142.87h322.99s-43.58-85.03 0-142.87H1240.4z"/>
    <path fill="#D1DFFF" d="M1541.53 1724.61c-770.163 0-714.613 2.76-714.613-4.98 770.153 0 714.613-2.76 714.613 4.98zM1542.04 1732.87c-770.154 0-714.614 2.76-714.614-4.98 770.164 0 714.614-2.76 714.614 4.98zM1541.27 1741.58c-770.153 0-714.613 2.76-714.613-4.98 770.153 0 714.613-2.77 714.613 4.98zM1541.78 1749.84c-770.163 0-714.613 2.76-714.613-4.98 770.163 0 714.613-2.76 714.613 4.98zM1541.53 1758.71c-770.163 0-714.613 2.77-714.613-4.98 770.153.01 714.613-2.76 714.613 4.98zM1542.04 1766.98c-770.154 0-714.614 2.76-714.614-4.98 770.164-.01 714.614-2.77 714.614 4.98zM1541.27 1775.68c-770.153 0-714.613 2.77-714.613-4.98 770.153 0 714.613-2.76 714.613 4.98zM1541.78 1783.94c-770.163 0-714.613 2.76-714.613-4.98 770.163 0 714.613-2.76 714.613 4.98z"/>
    <g>
      <path fill="#8DBBFF" d="M1571.34 1671.29H799.907v18.12h771.433v-18.12z"/>
      <path fill="#5B93D6" d="M1239.94 1671.29H798.977v18.12h440.963v-18.12z"/>
    </g>
    <g>
      <path fill="#8DBBFF" d="M1571.82 1814.16H800.377v18.12h771.443v-18.12z"/>
      <path fill="#5B93D6" d="M1240.4 1814.16H799.437v18.12H1240.4v-18.12z"/>
    </g>
    <g>
      <path fill="#D4E6FF" d="M727.387 1838.41s33.82 43.69 0 87.02h431.543v-87.02H727.387z"/>
      <path fill="#E9F3FF" d="M1158.94 1838.41v87.02h324.02s-43.72-51.17 0-87.02h-324.02z"/>
      <path fill="#D1DFFF" d="M1461.02 1865.85c-770.953 0-716.873 1.7-716.873-3.09 770.943 0 716.873-1.7 716.873 3.09zM1461.54 1870.97c-770.953 0-716.873 1.71-716.873-3.09 770.943.01 716.873-1.7 716.873 3.09zM1460.76 1876.37c-770.943 0-716.883 1.71-716.883-3.09 770.953 0 716.883-1.7 716.883 3.09zM1461.28 1881.49c-770.943 0-716.873 1.7-716.873-3.08 770.943-.01 716.873-1.71 716.873 3.08z"/>
      <g>
        <path fill="#D1DFFF" d="M1461.02 1886.99c-770.953 0-716.873 1.7-716.873-3.09 770.943 0 716.873-1.7 716.873 3.09zM1461.54 1892.11c-770.953 0-716.873 1.71-716.873-3.08 770.943 0 716.873-1.71 716.873 3.08z"/>
        <g>
          <path fill="#D1DFFF" d="M1460.76 1897.51c-770.943 0-716.883 1.7-716.883-3.08 770.953-.01 716.883-1.71 716.883 3.08zM1461.28 1902.63c-770.943 0-716.873 1.7-716.873-3.09 770.943 0 716.873-1.7 716.873 3.09z"/>
        </g>
      </g>
      <g>
        <path fill="#8DBBFF" d="M1490.94 1832.79H717.057v11.23h773.883v-11.23z"/>
        <path fill="#5B93D6" d="M1158.47 1832.79H716.117v11.23h442.353v-11.23z"/>
      </g>
      <g>
        <path fill="#8DBBFF" d="M1491.4 1921.37H717.517v11.24H1491.4v-11.24z"/>
        <path fill="#5B93D6" d="M1158.94 1921.37H716.587v11.24h442.353v-11.24z"/>
      </g>
      <path fill="#7474CE" d="M925.657 1876.37s-57.77 50.25-60.12 102.52c0 0 33.01-8.25 44.21 2.49 0 0 11.78-76.71 81.93-105h-66.02v-.01z"/>
    </g>
    <path fill="#FFC1AE" d="M1542.76 1125.23c0 1.39-7.44-89.54-63.29-180.281-103.43-146.32-379.25-87.449-379.25-87.449-196.803 33.349-241.703 199.01-251.863 266.07.24 0-38.78 176.45-33.38 234.61l64.97 40.36c84.53-2.77-16.14-10.17 572.553 52.02l-12.1-138.61c25.34 3.29 37.98-10.29 53.64-25.82l4.38 120.35c74.5-48.81 44.34-281.25 44.34-281.25z"/>
    <path fill="#FFE8E3" d="M1257.92 1004.72s-40.69-15.851-63.52 26.97c-22.83-42.811-63.53-26.97-63.53-26.97-35.9 21.1 34.04 102.14 63.91 131.27 0-2.17 106.53-105.77 63.14-131.27z"/>
    <path fill="#BBF" d="M819.527 1656.04c9.22 24.86 24.14 23.11 30.72 23.98 6.58.88 31.61-14.48 53.55-7.46 21.94 7.02 147.063 10.78 151.883 6.05 4.82-4.73-182.173-68.81-182.173-68.81-34.12 11.13-65.9 14.09-53.98 46.24z"/>
    <path fill="#82442B" d="M1388.91 1050.16s5.18 61.7 17.26 66.87l16.82-50.04-34.08-16.83z"/>
    <path fill="#3A1672" d="M1672.35 1450.03c-28.96-21.95-95.68-64.96-219.46-17.56l-587.273-44.78s-92.17-73.74-203.65-47.4c0 0-75.5 33.36-53.55 93.05 21.95 59.69 32.48 199.27 513.533 253.7 0 0-5.27-68.47 34.24-93.93l228.24 107.97s272.13-57.93 293.2-158.88c-.01 0 23.69-70.23-5.28-92.17z"/>
    <path fill="#271056" d="M750.627 1371.9s284.423 94.81 405.563 221.22c410.03-208.61 342.8-146.48 363.57-179.02l-71.29 18.04c-.01 0-618.853-35.66-697.843-60.24z"/>
    <path fill="#82442B" d="M1121.76 1682.68s41.44 14.46 47.59 14.89l9.57-93.7-22.74-10.76c0 .01-39.44 21.57-34.42 89.57z"/>
    <path fill="#BBF" d="M1172.44 1600.97s-16.28 75.99-6.98 99.64c0 0 145.38-6.2 169.02 0 23.65 6.2 65.13 26.75 77.92 7.36 12.79-19.38-4.26-76.76-38.38-86.45-34.11-9.7-110.88 9.3-121.73-3.48-10.86-12.8-36.06-37.61-65.13-17.06.01-.01-6.19 3.09-14.72-.01z"/>
    <path fill="#82442B" d="M1364.98 963.689s-19.63 6.691-3.67 26.311c4.89 1.44 3.67 6.509 3.67-26.311z"/>
    <path fill="#D6988B" d="M1459.22 1125.23s62.44 128.16 60.53 222.97c0 0 3.31 78.83-55.04 60.05-58.35-18.79-71.54-36.35-71.54-36.35l12.78-240.56s25.36 29.88 53.27-6.11z"/>
    <path fill="#fff" d="M1469.57 930.26l-106.54-6.25v127.89s41.37 19.75 83.88 8.69c.91-19.14-2.69 3.84 22.66-130.33z"/>
    <path fill="#965C40" d="M1461.14 993.67c-4.71-21.88-12.56-34.23-7.53-39.25 6.82-6.82 35.9 32.63 29.76 41.84-1.72 2.58-3.45 20.7-3.45 27.17 0 6.47 5.17 26.31-3.88 34.07-7.93 15.14-1.28 17.63-8.08 25.02-3.57 3.88-10.47 32.35-9.18 37.1 1.29 4.74-9 25.02-18.52 26.74-9.51 1.73-36.69-1.72-39.28-31.06 0 0 6.04-31.49 13.37-39.25 0 0-12.94-18.98-15.96-17.25 0 0-17.68-6.9-13.8-16.39 5.24-12.82 40.71 11.42 55.66 18.55 0 0-19.87-23.73-31.95-28.47-12.08-4.74-19.41-12.94-13.37-19.41 9.52-10.21 48.12 14.36 60.39 21.14l-15.08-27.61s-34.96-10.35-31.08-18.55c8.75-18.42 33.75-3.26 51.98 5.61z"/>
    <path fill="#82442B" d="M1460.03 993.13c15.71 11.2 17.66 13.68 17.31 22.32 4.35-24.921 2.44-21.24-23.72-61.03 0 0-4.53 6.249 4.75 26.309l1.66 12.401zM1455.34 1034.22s7.33 6.47 8.19 11.43c.86 4.96 2.16-8.84 0-12.29-2.16-3.45-16.83-27.61-16.83-27.61s-39.21-11.94-37.18-18.37c0 0-8.15 6.52 31.16 20l14.66 26.84zM1439.02 1060.37c6.42 10.43 12 12.01 12 16.55 0 0-5.32-21.57-6-23.08-.69-1.51-34.83-27.39-36.2-28.9-1.37-1.51-14.91-6.69-15.46-9.49 0 0-3 10.47 15.46 17.25 0 0 21.87 14.13 30.2 27.67z"/>
    <path fill="#D6988B" d="M1012.87 1056.49s-64.663 113.06-62.463 300.17c0 0 15.16-362.92 35.72-390.29l26.743 90.12z"/>
    <g>
      <path fill="#D6988B" d="M978.567 963.449c-11.21 16.26 34.293 93.041 34.293 93.041s-23.083-109.301-34.293-93.041zM951.097 994.279c-8.41 20.181 61.453 68.971 61.453 68.971s-53.043-89.151-61.453-68.971z"/>
    </g>
    <path fill="#82442B" d="M973.767 907.459s242.853-169.56 470.573 0c0 0-233.61 73.42-470.573 0z"/>
    <path fill="#B0D4FF" d="M1363.03 913.92v19.019s49.24 15.741 104.84 6.351l2.96-17.101-107.8-8.269z"/>
    <path fill="#8DBBFF" d="M1470.78 923.05c-.75 10.07-108.24 2.16-107.5-7.93.74-10.07 108.25-2.16 107.5 7.93z"/>
    <g>
      <path fill="#8DBBFF" d="M1464.71 1409.92c0 19.59-15.88 35.47-35.47 35.47H930.397c-19.59 0-35.47-15.88-35.47-35.47v-279.7c0-19.59 15.89-35.47 35.47-35.47h498.843c19.59 0 35.47 15.88 35.47 35.47v279.7z"/>
      <path fill="#B0D4FF" d="M1463.82 1407.58c0 18.89-15.89 34.21-35.47 34.21H929.507c-19.59 0-35.47-15.32-35.47-34.21v-269.75c0-18.9 15.88-34.21 35.47-34.21h498.843c19.59 0 35.47 15.32 35.47 34.21v269.75z"/>
      <path fill="#8DBBFF" d="M1261.88 1205.46c0 25.2-162.08 25.21-162.08 0 0-25.2 162.08-25.21 162.08 0zM1446.83 1445.21c0 7.55 26.19 4.85-529.783 4.85-6.42 0-6.42-9.7 0-9.7 555.933 0 529.783-2.69 529.783 4.85z"/>
    </g>
    <g>
      <path fill="#6630CE" d="M693.727 1317.63c7.53-.46 67.37 133.02-117.94 182.68.01 0-57.67-172.03 117.94-182.68zM1621.34 1399.22s-83.36 147.21 90.45 161.4c-.01-.01 17.73-203.97-90.45-161.4z"/>
    </g>
    <g>
      <path fill="#E1E1FF" d="M1164.59 1610.28s28.24 8.87 45.16 8.87c16.93 0 43.38 23.05 92.22 15.96 48.85-7.09 112.7 14.79 89.65 81 0 0 32.5 20.7 42.85 0 10.36-20.7-9.83-146.63-29-155.49-19.17-8.87-211.73-14.19-211.73-14.19l-29.15 63.85z"/>
    </g>
    <g>
      <path fill="#351E1A" d="M1185.23 499.93s-60.61-26.351-76.21 15.919c-.94 2.56-1.8 4.95-2.59 7.19-14.83 3.97-43.97 16.41-41.96 52.5-31.48 22.35-24.07 45.27-20.09 62.62-11.91 4.36-33.85 17.021-17.56 48.211-12.97 4.45-19.65 32.11-9.02 51.54-7.62 7.52-15.08 20.339-3.84 36.929-8.69 7.83-2.08 16.101 1.78 24.401-6.65 4.56-14.72 13.489-9.27 28.209-10.223 14.62-14.423 33.061 8.21 42.421 27.32 11.3 89.05 18.069 106.6-15.151 17.56-33.22 22.65-31.409 30.8-38.909 8.15-7.5 18.39-37.27 4.79-54.05 1.2-42.71 43.64-234.26 28.36-261.83z"/>
      <path fill="#210E0C" d="M1099.43 687.229s-33.31 4.811-19.43 34.331c0 0-37.11 8.5-22.29 43.95 0 0-38.07 16.589-7.86 55.059 0 0-11.96 31.031 10.99 40.331 0 0 36.28 28.269 64.45-13.191 0 0 39.09-49.249 34.43-91.409-4.68-42.15-33.55-63.27-33.55-63.27l-26.74-5.801z"/>
      <path fill="#82442B" d="M1113.66 655.79s-6.56-15.3-19.72-6.1c-13.17 9.2-4.78 62.89 29.95 60.21l-10.23-54.11zM1142.62 755.859s14.22 43.851-23 100.631c0 0 94.08 41.24 137.53-14.44 0 0-39.26-75.781-35.29-91.701l-79.24 5.51z"/>
      <path fill="#6B3624" d="M1139.97 752.63s12.23 83.6 89.1 43.27l5.66-40.51-94.76-2.76zM1118.52 666.03s-18.37-14.76-22.1-.64c-3.72 14.11 15.56 35.32 27.92 28.67l-5.82-28.03z"/>
      <path fill="#965C40" d="M1147.91 567.95s-68.8 46.29-18.16 168.29c26.23 63.21 109.72 57.429 126.63-19.541 53.8-119.53-33.19-188.369-108.47-148.749z"/>
      <path fill="#491212" d="M1160.97 719.56c22.63-14.01 23.38-3.221 30.94-5.851 3.59-1.25 7.73-2.5 12.85-.02 5.12 2.48 12.17 8 13.41 7.58 0 0-38.54 5.581-57.2-1.709z"/>
      <path fill="#280606" d="M1160.14 719.969s7.48 12.011 15.36 14.211c7.88 2.2 21.69 3.56 26.66 1.2 4.97-2.36 13.53-9.14 16.01-14.12 0 .01-31.08 5.309-58.03-1.291zM1160.14 719.969s-8.02-7.029-9.54-4.679c-1.52 2.35 8.71 5.099 9.54 4.679zM1218.17 721.27s6.91-1.69 9.12-3.96c2.2-2.27 3.04 6.43-9.12 3.96z"/>
      <path fill="#6B3624" d="M1205.68 659.939s-6.41-20.089 5.5-30.619c11.92-10.53 34.22-23.33 49.1-2.44 0 0 9.75 13.18-6.57 16.76 0 0-27.22-20.881-48.03 16.299z"/>
      <path fill="#351E1A" d="M1261.34 623.59s-12.08-8.9-22.32-5.75c-10.23 3.15-28.09 15.34-30.47 14.72-2.38-.62-2.69-8.93.32-11.05 3.01-2.12 23.76-12.39 29.09-11.68 5.33.7 19.2 5.72 23.38 13.76z"/>
      <path fill="#000" d="M1238.29 657.06c-.6 20.47-14.29 20.23-13.71-.4.6-20.38 14.3-20.3 13.71.4z"/>
      <path fill="#fff" d="M1242.44 658.24c-.19 6.7-9.95 6.42-9.76-.29.2-6.71 9.95-6.4 9.76.29z"/>
      <path fill="#351E1A" d="M1414 752.54c7.46-18.21-2.15-18.141-12.75-38.441 16.45-32.89-4.34-49.889-18.95-57.289-.84-13.4 6.21-22.661-20.86-52.511 9.85-29.69-16.64-42.559-32.56-47.479-1.99-10.56 2.32-17.52-13.28-21.19-6.64-20.98-24.02-23.841-34.77-23.441-21.89-17.35-59.75-9.76-59.61-9.76-13.08-5.3-26.79-4.92-42.33 3.12l3.95 51.49c93.24 20.75 64.69 76.92 73.84 91.67 7.22 11.64 3.65 20.381-4.29 27.341-7.95 6.95-8.11 12.48-6.27 25.25 1.84 12.77-6.33 14.859-8.12 25.809-1.79 10.95 4.29 17.04 4.87 22.39.59 5.35-29.89 8.04-26.26 35.38 3.63 27.35 20.53 22.861 18.38 46.021-2.15 23.16 34.97 58.52 64.42 34.5 3.22-2.63 6.23-5.22 9.08-7.73 18.23 10.52 43.14 17.37 62.41-5.64 14.67 11.96 30.69 15.439 40.77-6.591 11.82-25.82 18.79-42.619 10.77-59.039 10.53-16.69.03-28.03-8.44-33.86z"/>
      <path fill="#000" d="M1205.68 659.939c18.82-41.19 53.88-12.29 58.06-12.69 0 0-2.83 1.95-7.05 1.46 0 0 2.89 2.191 5.09 2.681 0 0-4.66 1.769-8.62-1.571-3.95-3.36-28.26-16.97-47.48 10.12z"/>
      <path fill="#6B3624" d="M1173.17 658.069s7.57-19.68-3.71-30.89c-11.28-11.2-32.81-25.279-48.87-5.289 0 0-10.51 12.6 5.58 17.12.01 0 28.4-19.261 47 19.059z"/>
      <path fill="#000" d="M1140.79 653.3c-.59 20.57 13.11 20.939 13.7.399.6-20.38-13.09-21.089-13.7-.399z"/>
      <path fill="#fff" d="M1136.59 654.24c-.19 6.71 9.57 6.97 9.76.29.2-6.7-9.57-7-9.76-.29z"/>
      <path fill="#000" d="M1173.17 658.069c-16.33-42.11-53.13-15.409-57.22-16.039 0 0 2.7 2.11 6.95 1.87 0 0-3.01 2.02-5.23 2.37 0 0 4.55 2.039 8.69-1.071 4.15-3.11 29.2-15.29 46.81 12.87z"/>
      <path fill="#351E1A" d="M1121.01 618.41s12.58-8.19 22.61-4.45c10.03 3.73 27.15 16.95 29.56 16.47 2.41-.48 3.21-8.75.33-11.05-2.88-2.29-23.01-13.75-28.37-13.35-5.35.39-19.48 4.59-24.13 12.38z"/>
      <path fill="#6B3624" d="M1201.87 680.99s6.76 7.2-.83 10.25c0 0-6.31-.921-9.21.369-5.62 1.35-5.27-1.859-14.51-1.059-7.4-3.49-.23-10.28-.23-10.28-6.49 2.64-9.06 12.77 3.49 12.38-.1.14 5.65 2.71 8.47 2.49.83-.07 8.52-1.85 8.59-2 12.51 1.14 10.57-9.13 4.23-12.15z"/>
      <path fill="#280606" d="M1193.64 693.959c.25-.08 6.38-2.479 7.87-1.109 1.5 1.38-7.87 1.109-7.87 1.109zM1183.93 694.02c-.24-.09-6.23-2.851-7.8-1.561-1.56 1.29 7.8 1.561 7.8 1.561z"/>
      <path fill="#210E0C" d="M1182.85 557.03s21.81-33.881 45.92-22.671c24.11 11.2-.58 42.55 26.14 55.5 26.72 12.94 51.2 45.72 34.09 63.74-17.11 18.03-53.66 55.111-30.88 81.211 22.79 26.09 35.66 39.739 16.87 58.539-18.79 18.81 1.47 63.62 34.87 55.75 33.4-7.88 30.9 2.101 39.74 2.311 8.84.21 4.99-7.58 31.48 7.25 26.49 14.84-25.21 43.42-70.28 34.25-45.07-9.16-109.8-9.94-108.86-40.88.9-30.91-19.09-295-19.09-295z"/>
      <path fill="#351E1A" d="M983.677 833.189c10.59-12.08-6.21-15.949-10.09-37.419-3.91-21.701 11.22-11.97 26.523-24.1 9.12-7.22 6.01-10.72-1.853-17.14-37.93-30.97 19.673-24.271 10.323-63.801-6.77-28.56-2.36-33.309 10.76-42.169 6.56-4.43 12.23-8.26 8.83-17.53-7.32-19.97-1.19-37.021 8.65-43.551 11.76-7.79 17.62-12.909 19.03-27.019.91-9.06 2.04-20.33 17.46-28.94 20.35-11.36 24.76-18.521 24.8-18.591 24.34-32.87 62.61-30.819 87.43-13.469-2.17 3.15-49.85-35.451-86.51 14.079-.14.25-4.49 7.39-25.18 18.95-30.21 16.86-1.08 32.47-36.42 55.92-9.25 6.13-15.27 23.021-8.22 42.241 7.34 20-24.17 16.51-22.7 40.4 1.48 24.25 11.15 30.209-1.54 44.809-12.543 14.41-23.763 14.93-16.133 27.4 5.78 9.46 17.993 13.71 17.943 20.58-.06 7.83-14.413 14.05-22.533 16.13-7.64 1.95-11.85 3.02-9.57 15.6 1.59 8.83 5.56 14.741 8.73 19.491 13.57 20.23-8.52 17.419-3.18 35.039 2.03 6.73 8.63 12.21 17.65 14.64-1.19 4.44-31.46-11.86-14.2-31.55z"/>
      <path fill="#351E1A" d="M1427.86 852.959c-2.52-3.14 18.43-7.089 11.29-38.699-4.45-19.68-3.37-18.591 4.86-32.291 8.29-13.85-2.38-36.019-12.93-46.059-12.19-11.59-16.43-23.6-11.34-32.12 5.06-8.47 3.76-14.13-4.06-32.16-3.43-7.9-7.8-10.93-11.32-13.37-16.64-11.54 4.4-30.33-14.46-44.69-7.35-5.61-20.87.929-16.14-23.101 4.2-21.33-14.27-38.45-27.71-42.23-6.59-1.85-14.79-4.16-21.33-28.27-9.14-33.77-39.25-29.97-48.26-28-35.26 7.7-54.65-17.429-75.83-6.339-6.96 3.64-11.98 10.649-14.25 18.169-12.59-26.14-48.5-24.499-77.68-12.599-.05.03-12.5 7.47-30.92 21.87-1.61-2.06 28.13-21.57 30.43-22.86 28.37-11.57 63.22-14.04 77.93 10.72 5.73-14.89 19.71-23.4 39.07-17.1 31.03 10.09 36.16 10.32 51.01 7.07 9.25-2.02 40.17-5.92 49.56 28.79 8.11 29.93 18.53 25.29 25.66 29.39 10.59 6.1 27.73 19.61 23.4 41.61-6.69 33.96 30.02 3.199 23.92 52.289-2.11 16.99 10.07 10.12 17.93 28.22 7.88 18.16 9.26 24.341 3.99 33.171-4.8 8.04-.63 19.54 11.16 30.75 10.65 10.13 22.79 31.669 10.87 51.099-6.05 9.86-6.41 10.461-2.49 27.801 4.63 20.47-1.02 29.779-12.36 38.939z"/>
      <path fill="#60342E" d="M1018.8 837.92c-.97-23.83 11.28-10.42 10.18-26.78-1.17-17.24-3.83-21.181 1.07-36.191 4.89-14.96 8.55-10.719 6.7-21.579-2.15-12.64-1.94-16.83 12.56-28.9 11.36-9.46 14.42-11.99 3.68-32.98-11.77-22.99 2.67-23.92 19.97-33.58 17.05-9.52 4.68-18.33 7.02-52.72 2.36-34.68 10.84-10.69 28.99-36.46 18.32-26 6.42-24.88 35.04-28.45 24.82-3.09 36.29 11.76 38.81 15.61 34.09-68.72 72.78-26.51 68.03 2.03-1.09 6.54-1.81 10.87 9.71 15 16.8 6.02 53.77 26.48 60.83 51.25 9.6 33.62-68.78 72.569-39.08 101.529 19.02 18.54 34.38 44.181 14.25 61.511-13.67 11.76-28.7 29.93-12.31 37.43-1.16 2.49-23.79-7.86 11.58-38.27 19.57-16.83 4.17-41.89-14.29-59.88-20.43-19.92 7.65-44.3 33.11-76.38 23.97-30.2-21.95-64.49-54.46-76.16-25.61-9.18 5.56-20.19-22.14-47.35-20.45-20.06-43.4 6.66-54.67 30.67-1.57 3.35-7.8-19.81-39.23-15.9-19.54 2.44-19.54 2.44-24.03 11.08-26.94 51.78-36.4 14.3-39.03 52.81-2.73 40.34 14.2 43.33-16.43 58.11-13.88 6.7-19.44 10.49-10.68 27.6 11.51 22.49 7.55 24.709-5.78 35.859-21.86 18.27-4.25 25.181-11.98 37.421-17.47 27.54 2.15 50.9-10.78 57.89-2.97 1.59-6.04 3.25-5.53 15.73l-1.11.05z"/>
      <path fill="#874138" d="M1337.55 811.43c-10.19-20.2 18.81-17.781 31.79-48.711 18.08-43.06-54.9-37.669-60.33-54.539-4.7-14.6 31.23-40.961 43.31-83.381 20.06-70.48-74-39.17-87.86-76.06-15.53-41.38-49.08-55.419-77.54-20.409-2.48-1.98 31.15-39.62 59.95-9.19 28.94 30.55 9.52 38.599 41.47 46.729 34.85 8.83 112.74 6.901 35.41 113.811-13.22 18.26-21.7 29.629-4.01 35.559 23.11 7.73 45.56 12.57 51.95 26.35 7.44 16.04-9.04 37.47-24.65 49.16-8.46 6.33-13.56 10.161-8.5 20.181l-.99.5z"/>
      <path fill="#FFC200" d="M1111.36 706.47c-.27 9.48-9.67 9.2-9.39-.27.27-9.48 9.67-9.19 9.39.27z"/>
      <path fill="#BC8169" d="M1206.12 755.83c-.24 7.85-24.2 7.16-23.97-.7.23-7.84 24.21-7.16 23.97.7zM1197.74 683.76c.68 2.51-7 4.59-7.67 2.07-.68-2.52 7-4.59 7.67-2.07z"/>
    </g>
  </g>
  <g>
    <path fill="#7187E2" d="M460.187 1621.76s76.46 77.37 109.72 136.46c33.26 59.08 17.85 64.26 18.34 66.14.49 1.88-23.08 5.52-23.08 5.52l1.76 23.25s46.73 8.85 53.02-3.15c6.28-12 11.49-30.2.36-52.4l-101.14-171.76s-94-125.43-118.8-123.71l59.82 119.65z"/>
    <path fill="#89F" d="M393.147 1488.86s41.24 34.36 73.54 66.09c32.3 31.73 179.84 261.24 171.48 299.03-8.36 37.8-61.5 32.43-71.56 23.97 0 0-5.54-23.79-8.7-29.58-3.15-5.79 51.25 7.46 60.88-6.36 21.48-30.85-141.23-292.76-215.27-334.14l-10.37-19.01z"/>
    <path fill="#5B76E8" d="M55.127 1568.71s70.7-85.49 169.83-106.24c99.14-20.74 135.14-15.69 146.71-10.2 57.65 27.36 174.72 320.72 174.77 320.82 68.6 145.71 19.6 104.79 3.46 134.3-7.52 13.75-31.18 35.22-37.57 43.11-6.39 7.89-118.15-301.41-126.86-309.53-8.71-8.12-129.1-136.61-178.86-125.59-49.75 11.03-73.26 12.61-151.48 53.33z"/>
    <path fill="#6586EF" d="M46.627 1573.05c49.89-32.52 96.15-70.13 136.73-71.81 35.13-1.45 84.93-17.31 103-12.68 26 6.67 74.85 28.93 68.59 11.96-3.62-9.82 3.41-13.65 11.56-15.41 8.16-1.76 20.95-12.98 15.91-21-5.04-8.01-.49-14.74-9.45-17.37-8.95-2.63-58.02-8.07-72.56-8.18-14.54-.12-164.18 40.11-177.79 54.5-13.62 14.38-72.69 69.74-75.99 79.99z"/>
    <path fill="#768EF4" d="M151.387 2066.61S39.597 1883.04 10.267 1780c-29.32-103.04 4.69-202 95.2-252.37 90.51-50.38 195.88-73.46 245.06-16.62 49.19 56.84 90.74 219.71 102.74 249.62 12.01 29.91 67.17 160.7 63.1 176.85-4.07 16.16-44.95 64.16-128.55 101.12-83.58 36.97-202.1 57.57-236.43 28.01z"/>
    <path fill="#9FB1FF" d="M507.747 1953.04c53.03-40.76 72.31-45.81 76.74-73.56 3.28-20.55-49.62-147.75-49.62-147.75-35.59 13.03-79.98 22.73-84.52 20.82-6.08-2.56 78.04 173.29 57.4 200.49z"/>
    <path fill="#C2CFFF" d="M450.357 1752.55s26.45-.45 35.15-1.43 47.37-9.72 49.89-15.92c2.52-6.19-13.98-9.05-13.98-9.05-9.31 13.87-15.15 10.59-71.06 26.4z"/>
    <path fill="#3F5DB2" d="M465.567 1750.28c40-10.91 46.19-8.37 56.65-22.06 37.27 7.75-28.45 21.18-56.65 22.06z"/>
    <path fill="#899FEF" d="M507.747 1953.04s26.74-19.7 27.45-39.39c.71-19.69-11.26-64.63-1.87-65.1 9.39-.47 32.8 54.21 5.6 81.42.01-.01-27.19 21.74-31.18 23.07z"/>
    <path fill="#899FEF" d="M551.857 1920.82c-.85.62 17.68-29.09 10.99-49.75 1.34-25.42 32.66 18.05-10.99 49.75z"/>
    <path fill="#3F5DB2" d="M143.317 1501.59s61.95-26.51 78.86-30.9c16.91-4.39 87.41-12.23 105.19-9.86 17.78 2.38 45.67 10.88 52.12 16.02 6.46 5.14 85.08 164.38 104.27 214.23 19.2 49.86 17.21 48.31 17.21 48.31l-8.78 1.98c-6.16-14.14-111.01-252.89-125.7-256.26-8-1.83-52.74-16.06-60.01-16.12-7.26-.06-70.66-5.73-163.16 32.6z"/>
    <path fill="#A9BAFF" d="M177.677 2087.46s-111.88-220.14-115.47-250.35c-3.59-30.22-41.29-149.62-12.29-205.63 29-56.01 66.88-57.35 100.82-71.82 33.94-14.46 64.64-16.71 86.67-22.28 22.03-5.56 46.82-4.33 59.39 3.97 12.56 8.3 57.39 78.78 73.26 134.48 15.87 55.7 119.5 272.96 109.65 306.34-9.84 33.38-55.07 59.62-98.14 75.04-43.07 15.43-182.21 58.24-203.89 30.25z"/>
    <path fill="#89F" d="M163.167 2096.24s-103.3-203.91-106.22-232.1c-2.92-28.19-36.96-139.18-8.23-192.05 28.72-52.87 64.99-54.77 97.73-68.88 32.74-14.11 62.16-16.73 83.34-22.31 21.17-5.58 44.89-4.85 56.77 2.7 11.89 7.54 53.58 72.68 67.81 124.49 14.23 51.8 109.69 253.16 99.7 284.54-10 31.38-53.73 56.69-95.22 71.84-41.49 15.16-175.4 57.57-195.68 31.77z"/>
    <path fill="#6586EF" d="M39.337 1701.49s17.44-45.81 37.51-59.15c20.07-13.35 137.38-56.34 159.75-58.08 22.38-1.73 48.17-3.96 53.98 2.86 5.81 6.82-1.33-4.19-8.82-16.2-7.49-12 3.58-10.88 7.03-11.91 41.41-12.4-18.69-54.16-151.01 5.61-94.97 13.3-112.84 132.7-98.44 136.87z"/>
    <path fill="#3F5DB2" d="M63.357 1629.84s16.51-21.86 38.68-32.33c22.18-10.47 124.09-41.87 136.87-44 12.78-2.13 23.52-2.09 32.43-.51 8.9 1.58 34.17 16.23 47.41 40.65 0 0-38.1-35.38-68.39-27-74.9 20.72-152.15 35.08-187 63.19z"/>
    <path fill="#5B76E8" d="M100.397 1893.67s-41.15 36.66-43.7 43.79c-2.54 7.13 51.86-3.21 76.14-7.85 118.09-22.61 16.8-10.71 149.11-25.47l40.52-22.07 18.89-51.04c-89.96 13.27-156.26 33.63-240.96 62.64z"/>
    <path fill="#4262C6" d="M68.607 1928.82l33.49-32.99c194.86-53.41 66.72-28.13 228.87-59.14l-33.43 29.18s-54.18 17.66-62.8 18.58c-8.61.92-34.46 7.6-40.38 7.55-9.84-.08-99.5 17.44-125.75 36.82z"/>
    <path fill="#5B76E8" d="M176.457 1791.44c-35.33-104.9-43.12-133.31-39.12-160.72l29.18-11.3s30.05 143.63 56.88 193.88l-46.94-21.86z"/>
    <path fill="#3F5DB2" d="M152.077 1633.95s12.63 74.08 24.3 127.23c0 0-8.8-77.89-24.3-127.23z"/>
    <path fill="#5BAEDD" d="M166.218 1727.09L29.198 1864.7l203.609 202.74 137.02-137.6-203.609-202.75z"/>
    <path fill="#7BCAFF" d="M235.297 2078.12l132.87-133.44-203.61-202.74-137.02 137.6c221.37 220.42 197.43 200.14 207.76 198.58z"/>
    <path fill="#A9E0FF" d="M54.8 1852.58l-20.41 20.5 203.637 202.72 20.41-20.5-203.638-202.72z"/>
    <path fill="#5BAEDD" d="M29.227 1864.68l6.58 6.55c-10.95 11-8.71 12.17-6.58-6.55z"/>
    <path fill="#388BAF" d="M164.557 1741.93l1.69-14.86 142.63 142.03-8.12 8.46-136.2-135.63z"/>
    <path fill="#A9E0FF" d="M30.607 1873.42c-.23-10.76-15.21 7.58 135.33-143.64-1.63 14.36 17.99-8.92-135.33 143.64z"/>
    <path fill="#91D5F2" d="M164.787 1739.91c155.84 153.25 138.4 140.09 144.4 133.06l-143.25-143.18-1.15 10.12z"/>
    <path fill="#ABBBFF" d="M143.497 2088.93s-84.19-132.9-86.8-151.47c0 0 85.02-37.35 121.92-39.22 36.9-1.87 57.65-11.02 87.78-16.72 30.14-5.7 36.23-12.24 36.23-12.24s59.54 144.72 75.41 154.19c.01 0-110.17 67.4-234.54 65.46z"/>
    <path fill="#9FB1FF" d="M341.347 1831.03l-38.72 38.25s24.75 126.14 75.41 154.19c26.74-28.82 33.34-37.34 32.84-44.51.01 0-19.69-26.03-69.53-147.93z"/>
    <path fill="#5B76E8" d="M69.457 1927.98c45.67-18.17 90.18-36.73 135.51-35.73 6.11.13 80.42-20.26 85.6-22.58 5.17-2.31 13.47-9.46 13.47-9.46l4.52 3.22s-7.05 7.06-9.68 8.35c-19.8 9.73-210.11 45.26-242.18 65.69l12.76-9.49z"/>
    <path fill="#E5F" d="M206.347 1892.12l-87.97-39.85-35.61 60.95 3.39 8.13c22.24-8.75 1.66-3.75 120.19-29.23z"/>
    <path fill="#EEF2FF" d="M103.547 1796.02l39.19-38.77-2.5-13.46-37.87 39.74 1.18 12.49z"/>
    <path fill="#D7E1FF" d="M259.537 1944.36c9.76 31.96-120.15 71.67-129.91 39.68-9.77-31.97 120.14-71.67 129.91-39.68z"/>
    <path fill="#7BCAFF" d="M153.957 1993.92c-63.64-3.83 15.06-63.42 81.24-59.45 63.65 3.83-15.06 63.42-81.24 59.45z"/>
    <g>
      <path fill="#A211B7" d="M325.227 1624.99c4.42 7.66 9.49 5.58 11.91 3.88 2.73-1.12 7.23-4.25 3.19-12.11-19.33-37.6-36.19-28.37-15.1 8.23zm1.21-15.76c-3.75 2.04-11.54-12.25-7.79-14.29 3.74-2.04 11.53 12.25 7.79 14.29z"/>
      <path fill="#E5F" d="M326.457 1624.32c4.42 7.66 9.49 5.57 11.91 3.88 2.73-1.12 7.24-4.25 3.19-12.11-19.29-37.53-36.22-28.42-15.1 8.23zm1.21-15.76c-3.75 2.04-11.54-12.25-7.79-14.29 3.74-2.04 11.53 12.25 7.79 14.29z"/>
      <path fill="#EF80FF" d="M338.867 1626.75c-4.43 2.4-7.67 3.6-11.46-2.98-4.95-8.59-11.04-23.21-9.6-28.32.65-2.35-1.32 1.66 2.15 8.03 5.91 10.85 13.5 6.67 7.6-4.15-3.46-6.34-7.97-6.9-5.58-6.16 5.07 1.56 14.05 14.6 18.59 23.42 4.11 7.99-1.73 10.24-1.7 10.16z"/>
    </g>
    <g>
      <path fill="#A211B7" d="M493.347 1749.78c4.41 7.66 9.48 5.57 11.91 3.89 2.73-1.12 7.24-4.25 3.19-12.11-19.33-37.61-36.19-28.37-15.1 8.22zm1.2-15.76c-3.74 2.04-11.54-12.25-7.79-14.29 3.75-2.04 11.54 12.25 7.79 14.29z"/>
      <path fill="#E5F" d="M494.567 1749.11c4.42 7.66 9.49 5.57 11.91 3.89 2.73-1.12 7.24-4.25 3.19-12.11-19.29-37.53-36.22-28.44-15.1 8.22zm1.21-15.76c-3.75 2.04-11.54-12.25-7.78-14.29 3.74-2.04 11.53 12.25 7.78 14.29z"/>
      <path fill="#EF80FF" d="M506.987 1751.54c-4.43 2.4-7.68 3.59-11.46-2.98-4.95-8.59-11.04-23.21-9.6-28.32.67-2.4-1.32 1.66 2.15 8.03 5.79 10.63 13.6 6.86 7.61-4.14-3.46-6.35-7.95-6.9-5.58-6.16 5.07 1.56 14.05 14.6 18.59 23.42 4.1 7.99-1.74 10.23-1.71 10.15z"/>
    </g>
    <path fill="#899DE8" d="M396.607 2002.83c-22.05-46.12-11.15-65.16-1.35-33.9 4.37 13.92 1.35 33.9 1.35 33.9zM391.077 2009.11s-31.69-48.84-36.89-53.51c-5.2-4.68-17.99.68 1.66 24.29 19.65 23.62 35.23 29.22 35.23 29.22z"/>
    <g>
      <path fill="#A7BCFC" d="M144.437 1628.72c-8.22 3.18-6.68 3.09-7.36 1.33 8.22-3.17 6.68-3.08 7.36-1.33z"/>
    </g>
    <g>
      <path fill="#A7BCFC" d="M157.887 1623.51c-9.61 3.72-8.02 3.62-8.7 1.86 9.61-3.72 8.02-3.62 8.7-1.86z"/>
    </g>
    <g>
      <path fill="#A7BCFC" d="M169.427 1629.56c-1.93.41-1.05 1.84-3.6-10 1.93-.42 1.04-1.84 3.6 10z"/>
    </g>
    <g>
      <path fill="#A7BCFC" d="M173.037 1645.64c-1.93.43-1 1.97-3.86-10.67 1.93-.43 1.01-1.96 3.86 10.67z"/>
    </g>
    <g>
      <path fill="#A7BCFC" d="M177.187 1663.43c-1.84.43-.97 2.05-3.9-10.41 1.84-.44.97-2.06 3.9 10.41z"/>
    </g>
    <g>
      <path fill="#A7BCFC" d="M179.837 1676.29c-1.84.43-.97 2.05-3.9-10.42 1.84-.44.97-2.05 3.9 10.42z"/>
    </g>
    <g>
      <path fill="#A7BCFC" d="M183.387 1689.98c-1.84.44-.97 2.05-3.9-10.42 1.84-.43.97-2.05 3.9 10.42z"/>
    </g>
    <g>
      <path fill="#A7BCFC" d="M186.887 1705.03c-1.91.45-.99 1.94-3.9-10.42 1.84-.43.97-2.05 3.9 10.42z"/>
    </g>
    <g>
      <path fill="#A7BCFC" d="M190.867 1719.93c-1.84.43-.97 2.05-3.9-10.42 1.84-.43.96-2.08 3.9 10.42z"/>
    </g>
    <g>
      <path fill="#A7BCFC" d="M196.067 1737.1c-1.84.43-.97 2.05-3.9-10.42 1.91-.45 1-1.93 3.9 10.42z"/>
    </g>
    <g>
      <path fill="#A7BCFC" d="M200.537 1754.28c-1.91.45-.99 1.93-3.9-10.42 1.84-.43.97-2.05 3.9 10.42z"/>
    </g>
    <g>
      <path fill="#A7BCFC" d="M156.277 1727.8c-1.82.52-.87 2.1-4.41-10.21 1.82-.52.87-2.1 4.41 10.21z"/>
    </g>
    <g>
      <path fill="#A7BCFC" d="M151.227 1710.95c-1.81.52-.86 2.13-4.41-10.21 1.89-.55.9-1.98 4.41 10.21z"/>
    </g>
    <g>
      <path fill="#A7BCFC" d="M146.147 1693.98c-1.82.52-.87 2.1-4.41-10.21 1.81-.52.86-2.09 4.41 10.21z"/>
    </g>
    <g>
      <path fill="#A7BCFC" d="M140.777 1675.31c-1.86.29-1.12 1.97-3.08-10.69 1.87-.29 1.13-1.98 3.08 10.69z"/>
    </g>
    <g>
      <path fill="#A7BCFC" d="M138.627 1658.32c-1.88.17-1.24 1.93-2.43-10.86 1.89-.17 1.24-1.89 2.43 10.86z"/>
    </g>
    <g>
      <path fill="#A7BCFC" d="M137.677 1644.71c-1.89-.03-1.44 1.75-1.23-11.06 1.9.04 1.45-1.74 1.23 11.06z"/>
    </g>
  </g>
  <g>
    <path fill="#A533FF" d="M1935.56 1474.47l-140.77 156.8 309 101.81-.87 1.79s1.99 1.03 3.3-.99l115.6-177.78-286.26-81.63z"/>
    <path fill="#AE5AFF" d="M2211.3 1532.93l-12.12 18.65-266.92-76.11-125.68 139.99-22.31-7.35s-1.85 9.86 7.22 24.16l311.43 102.61 115.6-177.78c-5.61-7.44-7.22-24.17-7.22-24.17z"/>
    <path fill="#CAD7FF" d="M2095.7 1710.71s2.97 21.43 10.15 27.38l115.66-180.03-10.76-30.98-115.05 183.63z"/>
    <path fill="#A533FF" d="M1784.21 1607.9l311.42 102.61 115.6-177.79-286.26-81.62-140.76 156.8z"/>
    <path fill="#7E1BDD" d="M1892.41 1487.37l290.82 88.43 7.28 24.36 2.86-4.39-7.67-25.66-290.03-86.37-3.26 3.63z"/>
    <path fill="#E5F" d="M1907.17 1470.93l288.76 85.33 7.28 24.37-11.21 15.55-7.84-23.98-289.44-87.4 12.45-13.87z"/>
    <path fill="#F088FF" d="M2184.16 1572.2l11.77-15.94 7.28 24.37-11.33 17.42-7.72-25.85z"/>
  </g>
  <g>
    <path fill="#B486EA" d="M511.187 742.469L257.637 961.05l207.36 135.94 259.97-239.521-213.78-115z"/>
    <path fill="#8557BC" d="M510.767 733.77l-253.55 218.589 207.37 135.941 259.96-239.53-213.78-115z"/>
    <path fill="#B486EA" d="M499.167 678.17l-244.97 211.189 200.35 131.341 251.17-231.42-206.55-111.11z"/>
    <path fill="#AC7ADC" d="M498.727 668.969L253.757 880.15l200.35 131.34 251.17-231.421-206.55-111.1z"/>
    <path fill="#BD8EF4" d="M269.797 879.099l230.21-198.459 188.73 101.52-235.64 217.11-183.3-120.171z"/>
    <path fill="#B486EA" d="M253.757 880.15l.44 9.209 20.07 13.161 4.23-6.15-24.74-16.22z"/>
    <path fill="#BE95F9" d="M454.107 1011.49l.44 9.21 251.17-231.42-.44-9.211-251.17 231.421z"/>
    <path fill="#563789" d="M464.587 1088.3l259.96-239.53.42 8.699-259.97 239.521-.41-8.69z"/>
    <path fill="#B486EA" d="M257.217 952.359l.42 8.691 19.91 13.059 5.85-4.589-26.18-17.161z"/>
    <path fill="#B486EA" d="M253.757 880.15s-10.88 45.18 3.88 80.9l3.7-6s-9.06-39.411-1.17-61.821l-6.41-13.079z"/>
    <path fill="#BDD3FF" d="M454.547 1020.7s-3.6 37.5 9.61 58.66l249.17-228.881s-19.3-24.039-12.51-56.679l-246.27 226.9z"/>
    <path fill="#E1EDFF" d="M464.157 1079.36l-203.46-127.37s-8.98-43.08-.53-58.75l194.38 127.46s-.58 39.78 9.61 58.66z"/>
    <path fill="#99C3FF" d="M699.117 810.589l-244.36 221.151-197.26-128.81-.03.22c-.08.25-.16.51-.25.76l197.63 129.05 244.92-221.65-.65-.721z"/>
    <path fill="#99C3FF" d="M455.497 1042.6l-198.81-126.34.52-.821 198.19 125.951 244.16-221.62.65.709-244.71 222.121z"/>
    <path fill="#99C3FF" d="M701.797 826.91l-245.77 225.11-199.34-126.47.03.2c.03.34.05.67.07 1.01l199.34 126.47 246.32-225.61-.65-.71z"/>
    <path fill="#99C3FF" d="M704.657 835.15l-246.27 226.87-200.33-128.921-.48.74c.01.04.01.08.02.11l200.9 129.281 246.82-227.371-.66-.709z"/>
    <path fill="#99C3FF" d="M707.937 842.099l-246.76 229.941-201.27-126.16-.34.54c.03.14.06.289.08.439l201.65 126.401 247.3-230.45-.66-.711z"/>
    <path fill="#743CC6" d="M612.457 898.829l58.25-51.569 21.49 7.13-48.72 37.12-31.02 7.319z"/>
    <path fill="#D7BBFF" d="M483.377 730.43l21.96-18.89 120.97 63.5-19.89 20.51-123.04-65.12z"/>
  </g>
  <g>
    <path fill="#2C2A56" d="M2012.95 1650.59l-1.07 8.07-105.76-51.05a5.72 5.72 0 00-7.64 2.67l-102.61 212.6-4.25-3.83s-2.25 8.68 2.7 14.07c.5.67 1.14 1.24 1.93 1.66.91.62 1.97 1.15 3.21 1.56l104.82 50.59c2.85 1.38 6.27.18 7.64-2.67l103.9-215.28c6.69-11.37-2.87-18.39-2.87-18.39z"/>
    <path fill="#47477C" d="M2009.66 1654.31l-.32 2.46-103.57-50.51c-2.79-1.36-6.14-.17-7.49 2.65l-100.7 210.78-4.16-3.79s-2.21 8.61 2.63 13.94a5.53 5.53 0 001.88 1.64c.89.61 1.93 1.13 3.15 1.54l102.66 50.06c2.79 1.36 6.14.17 7.49-2.65L2013.2 1667c3.67-6.31 2.36-11.27.48-14.41-1.23.82-2.55 1.47-4.02 1.72z"/>
    <path fill="#1E1E3D" d="M1910.27 1874.82a5.72 5.72 0 01-7.64 2.67l-107.84-52.05a5.72 5.72 0 01-2.67-7.64l104.71-216.95a5.72 5.72 0 017.64-2.67l107.84 52.05a5.724 5.724 0 012.67 7.64l-104.71 216.95z"/>
    <path fill="#EEF" d="M1905.03 1873.47c-.14-.01-.28-.04-.42-.11l-107.84-52.05c-.57-.27-.81-.96-.53-1.53l104.71-216.95c.25-.52.75-.67 1.11-.65.14.01.28.05.42.11l107.84 52.05c.35.17.51.45.58.66.07.2.12.52-.05.87l-104.71 216.95c-.24.52-.75.68-1.11.65z"/>
    <path fill="#B0D4FF" d="M1906.85 1617.08l-95.76 198.4 89.29 43.09 95.76-198.39-89.29-43.1z"/>
    <path fill="#47477C" d="M1969.2 1640.7c-.31.69-1.13 1-1.82.68l-31.57-14.36c-.69-.32-1-1.13-.68-1.82.31-.69 1.13-1 1.82-.68l31.56 14.37c.7.3 1 1.12.69 1.81z"/>
  </g>
  <g>
    <path fill="#7A0384" d="M973.467 288.569c-2.18 1.09-1.71.39-16.83-29.84-1.08-2.17 2.27-3.04 5.4-4.61 2.16-1.08 1.69-.43 16.83 29.84 1.03 2.05-1.62 2.71-5.4 4.61z"/>
    <path fill="#071D3D" d="M1079.59 192.879L959.714 252.8l18.429 36.871 119.877-59.92-18.43-36.872z"/>
    <path fill="#092649" d="M1082.03 197.776l-119.885 59.92 13.426 26.862 119.879-59.92-13.42-26.862z"/>
    <path fill="#3272B2" d="M978.307 286.149c-2.02 1.01-2.78-1.75-3.81-3.81-1.19-2.37-6.24 1.2 117.583-60.69 2.01-1 2.76 1.72 3.81 3.81 1.19 2.37 6.24-1.22-117.583 60.69z" opacity=".2"/>
    <path fill="#071D3D" d="M1120.92 203.179c-3.12-6.23-1.35-2.71-6.66-13.33-7.81 3.91-16.81 10.49-33.14 6.04l15.09 30.18c5.95-15.03 15.81-18.44 24.71-22.89z"/>
    <path fill="#123C66" d="M1117.9 197.149c-3.04-6.08-2.96-5.91-5.74-11.47-7.83 3.91-16.93 10.25-32.55 7.22 9.37 18.73 3.77 7.55 12.98 25.97 6.81-14.05 17.11-17.61 25.31-21.72z"/>
    <path fill="#0B294C" d="M1121.37 204.089c-3.04-6.08-2.95-5.91-5.73-11.47-7.83 3.92-16.94 10.25-32.56 7.21 8.75 17.5 3.76 7.52 12.98 25.97 6.81-14.04 17.1-17.61 25.31-21.71z"/>
    <path fill="#900A9E" d="M973.624 280.548l-4.839 2.42 2.322 4.642 4.838-2.42-2.321-4.642zM1114.78 190.909l4.52-2.26s12.51 4.58 12.69 5.86l-12.33 6.16-4.88-9.76z"/>
    <path fill="#AF14C6" d="M1114.9 190.859l3.47-1.73s10.62 5.53 10.88 6.76l-9.47 4.73-4.88-9.76z"/>
    <path fill="#478FC9" d="M1002.91 257.26c-2.02 1.01-2.74-1.67-4.153-4.49-1.1-2.19-4.69.44 69.133-36.47 2.02-1.01 2.74 1.669 4.15 4.489 1.1 2.2 4.69-.429-69.13 36.471z" opacity=".2"/>
  </g>
  <g>
    <path fill="#900A9E" d="M159.427 1077.45c-3.08.52-2.05 1.01-11.55-55.39-.54-3.22-5.31-1.42 92.28-17.86 3.08-.52 2.05-1.01 11.55 55.39.55 3.22 5.32 1.42-92.28 17.86z"/>
    <path fill="#7A0384" d="M158.737 1072.45c-3.27.55-2.38-.11-10.1-45.87-.56-3.31-4.91-1.54 92.13-17.89 3.29-.55 2.41.17 10.1 45.87.55 3.3 4.91 1.55-92.13 17.89z"/>
    <path fill="#9B12AF" d="M249.75 1047.62l-94.823 15.98 1.554 9.22 94.823-15.98-1.554-9.22z"/>
    <path fill="#AF14C6" d="M244.237 1015.17l-72.32 12.18s-9.51 15.64 6 35.61l72.32-12.18-6-35.61z"/>
    <path fill="#FFA766" d="M244.457 1016.47l-70.54 11.88s-9.44 14.29 5.43 32.22l70.54-11.88-5.43-32.22z"/>
    <path fill="#AF14C6" d="M244.457 1016.47l-70.54 11.88s-9.44 14.29 5.43 32.22l70.54-11.88-5.43-32.22z"/>
    <path fill="#900A9E" d="M245.487 1013.9l-70.54 11.88s-9.44 14.29 5.43 32.22l70.54-11.88-5.43-32.22z"/>
    <path fill="#AF14C6" d="M187.427 1049.02c-3.04.51-2.87-2.94-3.98-9.52-.55-3.28-.39-2.3 50.44-10.87 3.04-.51 2.87 2.94 3.98 9.52.54 3.28.38 2.32-50.44 10.87z"/>
  </g>
  <g>
    <path fill="#FFBC00" d="M2014.62 1580.41c-1.95 1.78-1.72.87-26.5-26.33-1.69-1.85.89-3.33 4.3-6.44 1.95-1.78 1.73-.88 26.51 26.34 1.67 1.84-.91 3.32-4.31 6.43z"/>
    <path fill="#071D3D" d="M2097.64 1448.46l-108.06 98.42 30.27 33.23 108.06-98.42-30.27-33.23z"/>
    <path fill="#092649" d="M2101.65 1452.95l-108.05 98.43 22.04 24.2 108.06-98.42-22.05-24.21z"/>
    <path fill="#3272B2" d="M2018.97 1576.44c-1.82 1.66-3.43-1-5.13-2.87-1.95-2.14-6.17 3.12 105.42-98.54 1.82-1.66 3.43 1 5.13 2.87 1.96 2.13 6.17-3.14-105.42 98.54z" opacity=".2"/>
    <path fill="#FFD773" d="M2012.4 1572.16l-4.36 3.98 3.81 4.18 4.36-3.97-3.81-4.19z"/>
    <path fill="#478FC9" d="M2036.24 1538.83c-1.82 1.66-3.37-.94-5.69-3.48-1.8-1.97-4.78 1.84 61.75-58.76 1.82-1.66 3.37.94 5.69 3.48 1.79 1.97 4.79-1.83-61.75 58.76z" opacity=".2"/>
    <path fill="#FFBC00" d="M2129.64 1481.06c-1.84 1.67-.93 1.56-31.58-32.08-1.75-1.92-4.17 1.34 54.04-51.69 1.84-1.67.95-1.57 31.58 32.08 1.76 1.93 4.18-1.33-54.04 51.69z"/>
    <path fill="#FF9D00" d="M2127.02 1478.01c-1.95 1.78-1.72.88-26.5-26.33-1.79-1.97-3.96 1.08 53.93-51.64 1.97-1.79 1.69-.91 26.5 26.33 1.8 1.97 3.96-1.08-53.93 51.64z"/>
    <path fill="#FFD773" d="M2177.25 1422.32l-56.56 51.52 5.01 5.5 56.56-51.52-5.01-5.5z"/>
    <path fill="#FF9D00" d="M2159.55 1402.88l-43.13 39.29s.38 14.56 19.35 21.24l43.13-39.29-19.35-21.24z"/>
    <path fill="#FFA766" d="M2160.26 1403.66l-42.07 38.32s-.16 13.62 17.5 19.22l42.07-38.32-17.5-19.22z"/>
    <path fill="#FF7900" d="M2159.85 1401.49l-42.07 38.32s-.16 13.63 17.5 19.22l42.07-38.32-17.5-19.22z"/>
    <path fill="#FF9D00" d="M2136.13 1449.99c-1.96 1.79-3.82-1.43-6.76-4.66-1.78-1.96-1.23-1.39 29.06-28.99 1.96-1.78 3.8 1.41 6.76 4.66 1.78 1.95 1.26 1.37-29.06 28.99z"/>
  </g>
  <g>
    <path fill="#89F" d="M356.617 540.02l-212.72 48.269 200.15 270.831-1.81.989s1.07 2.061 3.38 1.141l204-81.051-193-240.179z"/>
    <path fill="#A9BAFF" d="M554.607 754.329l-21.4 8.5-179.97-223.959-189.91 43.099-14.45-19.55s-7.46 7.231-8.35 24.731l201.73 272.97 204-81.051c-.29-9.64 8.35-24.74 8.35-24.74z"/>
    <path fill="#CAD7FF" d="M350.607 835.38s-10.3 19.879-7.8 29.209l205.4-82.909 9.44-32.611-207.04 86.311z"/>
    <path fill="#89F" d="M148.947 562.21l201.73 272.96 204-81.05-193.02-240.19-212.71 48.28z"/>
    <path fill="#637FF7" d="M312.457 525.099l192.79 248.661-8.42 24.939 5.04-2 8.87-26.26-193.35-246.46-4.93 1.12z"/>
    <path fill="#E5F" d="M334.757 520.039l192.91 244.81-8.42 24.941-18.78 6.429 7.72-24.939-192.24-246.97 18.81-4.271z"/>
    <path fill="#F088FF" d="M508.187 771.28l19.48-6.431-8.42 24.941-19.99 7.939 8.93-26.449z"/>
  </g>
  <g>
    <path fill="#89837E" d="M1827.58 2014.32c-8.77 3.01-16.49-19.45-7.72-22.47 8.77-3.01 16.5 19.46 7.72 22.47z"/>
    <path fill="#2D3A5B" d="M2128.14 1892.64c26.22-4.83 23.26-.47 3.42 9.95l-3.42-9.95z"/>
    <path fill="#D3D1CF" d="M2134.08 1902.45c-1.73-5.03-2.61-7.6-3.86-11.23-12.91 2.29-46.53 9.13-46.53 9.13 5.82 16.94 3.11 9.06 8.07 23.49 0 0 30.72-15.27 42.32-21.39z"/>
    <path fill="#C1BCB8" d="M2136.62 1895.3s-22.68 12.07-51.15 25.57l-7.09-28.11 53.81-6.21 4.43 8.75z"/>
    <path fill="#928EEF" d="M2083.59 1900.42l-165.8 56.98 8.08 23.49 165.8-56.97-8.08-23.5z"/>
    <path fill="#7777D8" d="M2083.52 1900.37l-6.9 2.37 8.07 23.49 6.9-2.37-8.07-23.49z"/>
    <path fill="#99F" d="M2080.85 1914.32l-158.91 54.61 2.76 8.04 158.92-54.61-2.77-8.04z"/>
    <path fill="#7C7CCE" d="M1935.72 1951.04l-11.99 4.12 8.07 23.49 11.99-4.12-8.07-23.49z"/>
    <g>
      <path fill="#8989E8" d="M1834.95 2015c-9.65 3.32-11.45-8.41-14.9-18.43-1.45-4.23.8-8.83 5.03-10.29l96.88-33.29c9.65-3.31 11.45 8.4 14.9 18.43 1.45 4.23-.8 8.84-5.03 10.29l-96.88 33.29z"/>
      <path fill="#99F" d="M1938.78 1957.73l-140.42 48.22 4.91 14.3 140.42-48.22-4.91-14.3z"/>
    </g>
  </g>
  <g>
    <path fill="#9E79D8" d="M732.817 494.159c-15.51 6.25-29.24-2.979-39.91-15.759-39.54-47.37 23.46-101.891-12.26-122.041-8.46-4.78-16.16-13.779-23.5-24.039-43.44 48.83-112.04 40.779-82.47-21.221 34.32-71.94 59.12-19.74 82.7 14.62 18.38-22.84 30.71-57.039 23.89-101.949C659.107 77.81 814.557 36 899.627 82.84l-1.91 3.48c-82.25-45.29-234.14-5.56-212.52 136.849 5.89 38.78-1.09 76.641-25.38 106.041 7.23 10.21 14.75 19.15 22.79 23.69 39.81 22.46-24.94 77.079 13.36 122.959 10.14 12.14 20.24 17.561 30.04 16.091 19.8-2.96 32.6-32.77 32.73-33.08l3.66 1.539c-.51 1.19-11.34 26.39-29.58 33.75zm-129.13-214.06c-14.82 5.98-44.57 55.8-26.31 73.51 14.09 13.67 51.06 5.521 77.36-24.729-17.58-25.44-33.17-55.991-51.05-48.781z"/>
    <path fill="#8678A3" d="M1039.91 264.89s-14.7-39.59-58.713-69.15c.67-1.11-50.69-30.67-96.68-24.73-95.41 3.38-139.16 112.91-139.16 112.91 7.31 14.67 18.11 10.94 18.11 10.94 49.39-98.66 112.16-97.93 138.61-99.16 21.76-1.02 47.6 15.42 60 22.45 8.41 5.4 38.043 21.82 47.793 42.67 11.21 23.99 41.06 79.21-23.303 168.83 0 0 1.73 11.3 18.113 10.94.01.02 76.62-89.66 35.23-175.7z"/>
    <path fill="#67617A" d="M975.147 208.03c.34-.52.75-.14-2.98-2.1-3.51-2.42-2.96-2.17-3.24-1.67-149.47-75.53-218.41 87.33-218.41 87.33l16.62 11.25c25.08-30.87 49.55-75.73 87.07-91.65 28.63-12.15 49.44-5.12 73.38 4.23 24.84 9.71 40.93 3.95 63.25 30.2 14.423 16.95 18.283 33.64 21.193 55.45 6.55 49.07 8.65 34.6-4.01 70.9-2.54 7.27-3.7 13.86-6.83 21.63-4.433 11.01-15.783 24.95-22.073 37.49l20.34 10.89c-.01.01 112.083-136.78-24.31-233.95z"/>
    <path fill="#9E79D8" d="M993.947 431.07s-32.32 41.6-47.49 42.55l-24.34 32.96c23.4-17.38 62.5-47.18 79.003-71.18l-7.173-4.33z"/>
    <path fill="#E1D7FF" d="M921.847 508.91l-1.97-2.98c61.38-40.73 90.403-82.35 103.943-110.1 14.65-30.03 14.81-50.72 14.81-50.92h3.57c.05 36.93-33.45 106.35-120.353 164z"/>
    <path fill="#584091" d="M949.527 478.99c1.05-5.72-2.08-22.83-3.2-28.52l-92.46 69.25c11.92 10.33 23.09 13.95 23.09 13.95 29.65-9.14 59.44-34.33 72.57-54.68z"/>
    <path fill="#413075" d="M951.927 458.91s-32.67 46.5-93.76 70.55l-9.07-13.48 97.24-74.19 5.59 17.12z"/>
    <path fill="#7354AF" d="M947.777 443.64c14.16-2.39-58.74 64.67-95.26 80.63 0 0-2.98-.9-1.64-6.35l96.9-74.28z"/>
    <path fill="#9E79D8" d="M947.777 443.64s-1.21-18.73-21.4-23.49c0 0-73.75 24.29-95.91 77.8 0 0-1.32 18.37 20.66 23.43 0 0 47.75-27.88 96.65-77.74z"/>
    <path fill="#B799F2" d="M941.947 425.45s-76.27 25.9-111.26 87.69c0 0-14.9-9-4.16-30.68 10.75-21.67 92.47-85.74 115.42-57.01z"/>
    <path fill="#8567BF" d="M939.437 421.2s-76.75 29.91-113.18 92.79c0 0-3.47-11.09-1.79-17.12 1.69-6.02 51.45-92.92 114.97-75.67z"/>
    <path fill="#E1D7FF" d="M872.717 532.28c-1.02-2.57 24.07-6.75 56.26-38.65 21.23-21.04 18.24-24.32 20.56-22.8-9.19 14.34-37.91 46.06-76.82 61.45z"/>
    <path fill="#E1D7FF" d="M904.336 429.43s-26.49 13.31-38.52 24.05c0 0 4.64 22.06 29.54 36.94 0 0 27.18-22.29 36.68-31.41 0 0-7.69-15.14-27.7-29.58z" opacity=".3"/>
    <g>
      <path fill="#9E79D8" d="M760.367 289.95s-21.79 47.96-15.58 61.83l-17.85 36.88c4.5-28.82 12.7-77.27 26.26-103.04l7.17 4.33z"/>
      <path fill="#E1D7FF" d="M725.007 389.98l3.55.36c7.5-73.28 30.84-118.33 49.11-143.22 19.77-26.93 38-36.7 38.19-36.8l-1.66-3.16c-32.42 16.97-78.53 78.54-89.19 182.82z"/>
      <path fill="#584091" d="M738.617 351.56c4.27-3.49 21.45-8.87 26.74-10.44l-18.29 114.06c-14.69-5.75-23.09-13.95-23.09-13.95-5.68-30.3 2.63-68.51 14.64-89.67z"/>
      <path fill="#413075" d="M755.257 340.04s-25.95 50.61-18.83 115.87l16.15 1.76 20.45-120.53-17.77 2.9z"/>
      <path fill="#7354AF" d="M770.717 336.66c-4.48-13.67-29.91 82.19-27.06 121.83 0 0 2.18 2.21 6.39-1.5l20.67-120.33z"/>
      <path fill="#9E79D8" d="M770.717 336.66s17.14-7.64 30.75 8.02c0 0 12.8 76.58-24.26 121.09 0 0-15.65 9.71-30.35-7.39.01 0 2.47-55.23 23.86-121.72z"/>
      <path fill="#B799F2" d="M789.537 333.37s12.55 79.56-25.87 139.28c0 0 14.9 9 29.09-10.59 14.18-19.59 32.88-121.74-3.22-128.69z"/>
      <path fill="#8567BF" d="M794.467 333.61s9.22 81.86-29.5 143.35c0 0 11.43-2.09 15.98-6.38 4.56-4.29 58.33-88.77 13.52-136.97z"/>
      <path fill="#E1D7FF" d="M727.167 444.35c2.78-.3-5.25-24.36 8.04-67.78 8.75-28.58 13.05-27.45 10.62-28.8-10.2 18.31-22.86 57.54-18.66 96.58z"/>
      <path fill="#E1D7FF" d="M803.497 368.51s.54 29.63-3.37 45.28c0 0-21.69 6.16-46.44-8.97 0 0 7.09-34.42 10.74-47.07.01 0 16.98-.24 39.07 10.76z" opacity=".3"/>
    </g>
    <path fill="#CABDEF" d="M816.437 210.989l-1.19-1.339c.16-.14 16.24-14.201 43.77-21.581 98.34-26.36 196.883 59.121 184.053 156.951l-1.77-.231c8.11-61.84-30.93-114.25-67.753-137.11-70.34-38.79-131.53-19.18-157.11 3.31z"/>
    <path fill="#CABDEF" d="M824.127 221.11c-1.42.98-1.01.66-16.04-21.06-.52-.75.05-1.64.31-1.69 1.42-.98 1.02-.67 16.04 21.06.82 1.19-.57 1.73-.31 1.69zM1024.04 341.93c-.21 1.71-.12 1.22 26.1 4.4 1.19.14 1.29-1.05 1.35-1.06.21-1.72.07-1.21-26.1-4.4-1.1-.13-1.41 1.07-1.35 1.06z"/>
    <path fill="#413075" d="M752.967 464.03s6.83 3.619 8.66 3.949c-7.82 10.4-15.64-.339-8.66-3.949z"/>
    <g>
      <path fill="#8B89AF" d="M954.997 117.749c-2.01 3.47-4.42.85-34.67-16.72-2.88-1.67-2.58-4.57-2.1-4.65 2.01-3.47 4.42-.86 34.68 16.72 1.97 1.15 2.91 3.23 2.09 4.65z"/>
      <path fill="#797499" d="M929.294 98.991l-3.346 5.758 15.139 8.797 3.346-5.758-15.139-8.797z"/>
      <path fill="#625F84" d="M928.424 98.387l-3.346 5.759 15.141 8.797 3.346-5.759-15.141-8.797z"/>
      <path fill="#413075" d="M899.819 78.265l-6.409 11.033 31.388 18.234 6.41-11.034-31.389-18.233z"/>
      <path fill="#4C3E89" d="M898.671 80.258l-3.973 6.84 31.389 18.234 3.973-6.84-31.389-18.234z"/>
    </g>
  </g>
  <g>
    <path fill="#DCFEFF" d="M331.867 1399.98l-93.24-120.16 288.51-161.17-195.27 281.33z"/>
    <path fill="#DCFEFF" d="M527.137 1118.65l-316.89 127.55-92.25-75.07 409.14-52.48z"/>
    <path fill="#fff" d="M399.397 1170.03l127.74-51.38c-540.91 69.38-506.22 52.85-127.74 51.38z"/>
    <path fill="#4DC1C1" d="M527.137 1118.65c-335.29 187.3-279.34 148.46-316.9 199.28v-71.73l316.9-127.55z"/>
    <path fill="#7ADFE2" d="M398.537 1170.38l-2.22 21.35c-183.26 102.38-148.52 75.4-186.07 126.2v-71.73l188.29-75.82z"/>
    <path fill="#4DC1C1" d="M258.677 1305.66l-48.43 12.27 28.38-38.11 20.05 25.84z"/>
    <path fill="#fff" d="M406.417 1186.09l-74.55 213.89 195.27-281.33-120.72 67.44z"/>
  </g>
  <path fill="#B0D4FF" d="M1657.75 453.049s422.18 259.501 428.21 748.471l-274.49-285.911s-57.12-241.869-228.28-370.589l74.56-91.971z" opacity=".4"/>
  <g>
    <path fill="#4E2CB7" d="M1577.22 542.95s2.02 3.36 5.97 2.07l74.56-91.97s.58-3.58-3.61-4.99l-76.92 94.89z"/>
    <path fill="#4C28A5" d="M1457.34 463.74s-25.88 87.53 37.42 140.05l-.8 2.33 4.51.64s10.24-33.95 37.69-91l-78.82-52.02z"/>
    <path fill="#6630CE" d="M1452.82 463.1s-26.88 90.9 41.13 143.01c0 0 10.23-33.95 37.69-91l-78.82-52.01z"/>
    <path fill="#4C28A5" d="M1546.34 350.84s80.29-43.42 144.76 7.64l2.11-1.27 1.56 4.29s-31.1 17.04-81.24 55.7l-67.19-66.36z"/>
    <path fill="#6630CE" d="M1544.78 346.55s83.38-45.1 148.43 10.66c0 0-31.1 17.04-81.24 55.7l-67.19-66.36z"/>
    <path fill="#99B6FF" d="M1295.49 238.91s30 173.63 253.4 284.06l76.93-94.89c-154.25-195.74-330.33-189.17-330.33-189.17z"/>
    <path fill="#C0D5FF" d="M1319.77 208.96s30 173.63 253.4 284.06l76.93-94.89c-154.25-195.74-330.33-189.17-330.33-189.17z"/>
    <path fill="#6630CE" d="M1548.69 523.21l76.93-94.89s10.59-1.28 17.09 6.38l-82.37 101.6c.01-.01-8.04-1.9-11.65-13.09z"/>
    <path fill="#6E3FE0" d="M1654.15 448.06l-76.93 94.89s-10.59 1.28-17.1-6.38l82.37-101.6s8.05 1.89 11.66 13.09z"/>
    <path fill="#6630CE" d="M1349.63 356.34s18.12-44.88 72.26-89.14l-24-8.83s-47.84 37.33-60.66 79.28l12.4 18.69zM1456.18 316.03c17.2 13.95 19.84 39.2 5.9 56.41-13.95 17.2-39.2 19.84-56.4 5.9-17.2-13.95-19.85-39.2-5.9-56.41 13.94-17.21 39.19-19.85 56.4-5.9z"/>
    <path fill="#9FDAFF" d="M1457.28 368.55c-11.78 14.53-33.19 16.77-47.73 4.99-14.53-11.78-16.77-33.19-4.99-47.73 11.78-14.53 33.19-16.77 47.73-4.99 14.53 11.78 16.77 33.19 4.99 47.73z"/>
    <path fill="#BDE5F9" d="M1417.58 315.99l28.19 61.7s12.38-4.63 17.33-19.73l-25.67-44.07c0-.01-12.05-2.56-19.85 2.1z"/>
    <path fill="#C2ACF9" d="M1448.95 483.36s49.05 40.26 81.77 43.88l5.44-11.48-83.34-52.65c0-.01-3.48 16.86-3.87 20.25zM1563.51 339.01s49.11 39.46 59.13 70.52l-10.16 7.62-68.03-70.26s15.83-6.81 19.06-7.88zM1572.56 493.77s20.81 12.63 33.99 13l18-22.2s-4.11-13.65-20.53-29.61l-31.46 38.81z"/>
    <g>
      <path fill="#8765EF" d="M1489.11 393.95l156.23 126.66s-53.19-102.7-156.23-126.66z"/>
      <path fill="#6B3CDD" d="M1489.11 393.95l156.23 126.66s-111.49-30.8-156.23-126.66z"/>
    </g>
  </g>
  <g>
    <path fill="#A4A4FF" d="M209.717 725.43c126.95-70.83 114.87-62.651 112.88-66.211-126.95 70.83-114.87 62.641-112.88 66.211z"/>
    <path fill="#928EEF" d="M323.907 660.125l-114.909 64.106 2.982 5.345 114.909-64.106-2.982-5.345z"/>
    <path fill="#1A1A42" d="M208.337 722.959l3.74 6.711s-47.45 22.28-53.83 36.73c-6.38 14.45-12.73 67.61-21.53 73.99-8.8 6.37-21.6 14.559-9.09-16.291 27.62-68.04 13.17-62.07 80.71-101.14z"/>
    <path fill="#28285B" d="M129.657 843.17c6.99-3.91 8.79-4.84 12.87-19.27 5.28-18.71 9.71-47.8 14.28-58.14 5.64-12.78 40.42-30.661 53.08-36.791l-2.14-3.839c-65.47 38.04-51.11 31.699-78.65 99.559-6.81 16.78-5 19.53-4.57 19.91.94.84 5.22-1.389 5.13-1.429z"/>
    <path fill="#A4A4FF" d="M201.717 733.86c-126.95 70.83-113.64 64.85-115.63 61.29 126.95-70.83 113.64-64.85 115.63-61.29z"/>
    <path fill="#928EEF" d="M201.007 732.667L86.099 796.772l2.981 5.345 114.909-64.106-2.982-5.344z"/>
    <path fill="#5252B5" d="M84.327 794.699l-7.41 4.14s4.5 5.35 9.93 7.38l5.45-3.039-7.97-8.481z"/>
    <path fill="#1A1A42" d="M200.337 731.4l3.74 6.709s43.88-28.67 59.53-26.52c15.65 2.16 64.22 24.671 74.27 20.531 10.04-4.14 23.74-10.731-9.09-16.291-72.4-12.23-59.72-21.389-128.45 15.571z"/>
    <path fill="#28285B" d="M343.957 727.569c-6.96 3.89-8.75 4.941-23.15.831-18.65-5.32-45.78-16.83-56.97-18.38-13.84-1.9-47.32 18.289-59.19 25.849l-2.14-3.839c66.71-35.71 53.74-26.87 126.03-14.64 17.85 3.02 19.25 5.999 19.34 6.569.25 1.45-4.45 3.91-3.92 3.61z"/>
    <path fill="#9FD1FF" d="M74.397 775.719s-2.71 7.77 11.8 20.98c14.51 13.2 40.82 37.03 45.05 37.74 4.23.71 42.75-15.03 68.54-37.96 0 0-4.42-51.84-16.06-72.7 0 0 .04-8.47-10.79-6.71-10.83 1.75-47.77 15.82-48.99 17.04-1.2 1.21-46.8 25.07-49.55 41.61z" opacity=".3"/>
    <path fill="#928EEF" d="M160.637 826.28c-.06.01-26.2 14.08-30.7 10.78-13.84-10.16-59.32-45.721-58.46-63.121 1.92-4.91 34.43-45.449 98.76-58.509 1.99-.57 6.15-1.671 8.15-1.321 17.05 9.37 23.75 82.961 22.56 84.071-1.7 1.57-21.71 17.71-40.31 28.1zm-29.38 8.159c18.39-.93 57.6-29.609 67.21-37.909-1.36-15.45-7.72-71.62-20.98-79.61-2.12.03-6.32 1.269-6.62 1.329-46.71 10.52-84.39 37.2-96.52 56.38-.17 15.49 44.44 50.54 56.91 59.81z"/>
    <path fill="#6A6AD3" d="M160.167 824.93c-.91 1.37-26.27 13.12-29.85 10.48-13.54-9.98-57.69-44.46-56.83-61.36 1.88-4.79 33.74-44.25 96.01-56.88 1.9-.54 6.01-1.63 7.93-1.28 16.54 9.08 23.14 80.61 21.93 81.73-1.64 1.51-21.11 17.22-39.19 27.31zm-28.56 7.93c18.03-.91 55.74-28.55 65.34-36.85-1.33-15.13-7.53-69.64-20.4-77.4-1.92.02-5.34 1.01-6.43 1.3-45.47 9.21-81.88 35.99-93.84 54.81-.16 15.06 43.23 49.15 55.33 58.14z"/>
    <mask id="a" width="36" height="80" x="150" y="730" maskUnits="userSpaceOnUse" style="mask-type:alpha">
      <path fill="url(#paint0_linear)" d="M155.107 733.829s17.53-11.95 23.88 9.79c6.35 21.74 10.19 44.15-.36 54.37 0 0-20.06 18.41-28.22 9.61 0-.01 28.86-29.84 4.7-73.77z"/>
    </mask>
    <g mask="url(#a)">
      <path fill="url(#paint1_linear)" d="M155.107 733.829s17.53-11.95 23.88 9.79c6.35 21.74 10.19 44.15-.36 54.37 0 0-20.06 18.41-28.22 9.61 0-.01 28.86-29.84 4.7-73.77z" opacity=".3"/>
    </g>
    <mask id="b" width="36" height="81" x="282" y="652" maskUnits="userSpaceOnUse" style="mask-type:alpha">
      <path fill="url(#paint2_linear)" d="M287.527 656.15s17.53-11.951 23.88 9.789c6.35 21.73 10.19 44.151-.36 54.371 0 0-20.06 18.41-28.22 9.61 0-.01 28.86-29.83 4.7-73.77z"/>
    </mask>
    <g mask="url(#b)">
      <path fill="url(#paint3_linear)" d="M287.527 656.15s17.53-11.951 23.88 9.789c6.35 21.73 10.19 44.151-.36 54.371 0 0-20.06 18.41-28.22 9.61 0-.01 28.86-29.83 4.7-73.77z" opacity=".3"/>
    </g>
  </g>
  <g>
    <path fill="#C8C2FF" d="M2202.47 691.72c-17.69-5.26-39.82 13.08-39.82 13.08l3.23 7.32c7.81-4.6 19.54-9.98 29.23-7.98 16.09 3.33 40.08 56.32 44.23 69.05 3.21 9.82-16.51 26.18-32.08 32.48l3.91 8.84c15.18 2.86 50.41-22.3 44.85-37.66-5.54-15.37-35.86-79.87-53.55-85.13z"/>
    <path fill="#B3A6FF" d="M2157.25 717.87l37.96 90.319c3.18.33 7.44-.659 12.05-2.529l-41.38-93.551c-5.17 3.05-8.63 5.761-8.63 5.761zM2256.03 776.849s-6.12 23.92-35.59 31.12l8.79 15.441c-.01-.01 38.88-19.521 26.8-46.561z"/>
    <path fill="#B3A6FF" d="M2163.69 713.359s25.33-17.32 35.33-7.57c0 0-21.74 3.41-32.84 18.69l-2.49-11.12z"/>
    <path fill="#C8C2FF" d="M2152.56 683.709c-5.38-9.46-43.55 2.111-85.25 25.841s-71.14 50.64-65.76 60.1l91.29 160.419 151.01-85.939-91.29-160.421z"/>
    <g>
      <path fill="#D4D2FF" d="M2150.66 644.571l-79.6 45.301 119.16 209.383 79.6-45.3-119.16-209.384z"/>
      <path fill="#DEDEFF" d="M2187.1 633.339l-79.61 45.305 119.16 209.384 79.61-45.306-119.16-209.383z"/>
    </g>
    <path fill="#B3A6FF" d="M2243.86 844.13c5.38 9.46-24.06 36.37-65.76 60.1-41.7 23.73-79.87 35.299-85.25 25.839-5.38-9.46 24.06-36.369 65.76-60.099 41.7-23.73 79.87-35.3 85.25-25.84z"/>
    <path fill="#938AED" d="M2232.43 851.269c3.87 6.79-21.56 28.56-56.8 48.61-35.24 20.05-66.94 30.81-70.81 24.01-3.87-6.79 21.57-28.56 56.8-48.61 35.25-20.06 66.95-30.81 70.81-24.01z"/>
  </g>
  <defs>
    <linearGradient id="paint0_linear" x1="144.971" x2="178.698" y1="739.436" y2="799.892" gradientUnits="userSpaceOnUse">
      <stop stop-color="#fff"/>
      <stop offset="1"/>
    </linearGradient>
    <linearGradient id="paint1_linear" x1="144.971" x2="178.698" y1="739.436" y2="799.892" gradientUnits="userSpaceOnUse">
      <stop stop-color="#fff"/>
      <stop offset="1" stop-color="#fff"/>
    </linearGradient>
    <linearGradient id="paint2_linear" x1="277.388" x2="311.115" y1="661.763" y2="722.219" gradientUnits="userSpaceOnUse">
      <stop stop-color="#fff"/>
      <stop offset="1"/>
    </linearGradient>
    <linearGradient id="paint3_linear" x1="277.388" x2="311.115" y1="661.763" y2="722.219" gradientUnits="userSpaceOnUse">
      <stop stop-color="#fff"/>
      <stop offset="1" stop-color="#fff"/>
    </linearGradient>
  </defs>
</svg>
